<svg width="26" height="26" viewBox="0 0 26 26" fill="none" xmlns="http://www.w3.org/2000/svg">
<path d="M15.5997 25.9985H2.60121C1.90459 26.0227 1.22919 25.7566 0.736308 25.2637C0.243425 24.7708 -0.0226893 24.0954 0.00151853 23.3988V10.4003C-0.0226893 9.70368 0.243425 9.02828 0.736308 8.5354C1.22919 8.04251 1.90459 7.7764 2.60121 7.80061H7.80061V2.60121C7.7764 1.90459 8.04251 1.22919 8.5354 0.736308C9.02828 0.243425 9.70368 -0.0226893 10.4003 0.00151853H23.3988C24.0954 -0.0226893 24.7708 0.243425 25.2637 0.736308C25.7566 1.22919 26.0227 1.90459 25.9985 2.60121V15.5997C26.0223 16.2962 25.7561 16.9714 25.2633 17.4642C24.7705 17.957 24.0953 18.2232 23.3988 18.1994H18.1994V23.3988C18.2232 24.0953 17.957 24.7705 17.4642 25.2633C16.9714 25.7561 16.2962 26.0223 15.5997 25.9985ZM2.60121 10.4003V23.3988H15.5997V18.1994H10.4003C9.70379 18.2232 9.02862 17.957 8.53583 17.4642C8.04303 16.9714 7.77679 16.2962 7.80061 15.5997V10.4003H2.60121ZM10.4003 2.60121V15.5997H23.3988V2.60121H10.4003Z" fill="#4C4E7C"/>
</svg>
