<svg width="491" height="518" viewBox="0 0 491 518" fill="none" xmlns="http://www.w3.org/2000/svg">
<circle cx="379.511" cy="396.645" r="111" fill="url(#paint0_linear_24_43)"/>
<ellipse cx="74.0112" cy="226.645" rx="57.5" ry="57" fill="url(#paint1_linear_24_43)"/>
<g filter="url(#filter0_b_24_43)">
<rect x="130.879" width="369.944" height="424.201" rx="24.3471" transform="rotate(17.9707 130.879 0)" fill="#F2F2F2" fill-opacity="0.23"/>
<rect x="130.879" width="369.944" height="424.201" rx="24.3471" transform="rotate(17.9707 130.879 0)" fill="black" fill-opacity="0.5"/>
<rect x="131.559" y="1.33353" width="367.827" height="422.084" rx="23.2885" transform="rotate(17.9707 131.559 1.33353)" stroke="url(#paint2_linear_24_43)" stroke-width="2.11714"/>
</g>
<path d="M277.447 221.706C266.744 227.638 257.109 235.686 249.706 245.685C249.581 233.245 246.504 221.073 241.32 209.989L241.32 209.987C235.466 197.544 226.501 186.678 215.769 179.11C229.214 146.382 258.196 123.263 291.047 116.191C314.086 141.393 323.991 177.136 316.24 211.731C302.943 212.133 289.32 215.651 277.471 221.693L277.459 221.7L277.447 221.706Z" fill="white" fill-opacity="0.29" stroke="url(#paint3_linear_24_43)" stroke-width="1.58786"/>
<path d="M241.011 289.117L241.143 288.984L241.2 288.805L241.202 288.802L241.203 288.798L241.204 288.795L241.205 288.791L241.206 288.788L241.207 288.784L241.208 288.781L241.21 288.777L241.211 288.774L241.212 288.77L241.213 288.767L241.214 288.763L241.215 288.76L241.216 288.756L241.218 288.753L241.219 288.749L241.22 288.746L241.221 288.742L241.222 288.739L241.223 288.735L241.224 288.732L241.226 288.728L241.227 288.724L241.228 288.721L241.229 288.717L241.23 288.714L241.231 288.71L241.232 288.707L241.234 288.703L241.235 288.7L241.236 288.696L241.237 288.693L241.238 288.689L241.239 288.686L241.24 288.682L241.241 288.679L241.243 288.675L241.244 288.672L241.245 288.668L241.246 288.665L241.247 288.661L241.248 288.658L241.249 288.654L241.251 288.651L241.252 288.647L241.253 288.644L241.254 288.64L241.255 288.637L241.256 288.634L241.257 288.63L241.258 288.627L241.26 288.623L241.261 288.62L241.262 288.616L241.263 288.613L241.264 288.609L241.265 288.606L241.266 288.602L241.267 288.599L241.269 288.595L241.27 288.592L241.271 288.588L241.272 288.585L241.273 288.581L241.274 288.578L241.275 288.574L241.276 288.571L241.278 288.568L241.279 288.564L241.28 288.561L241.281 288.557L241.282 288.554L241.283 288.55L241.284 288.547L241.285 288.543L241.287 288.54L241.288 288.537L241.289 288.533L241.29 288.53L241.291 288.526L241.292 288.523L241.293 288.519L241.294 288.516L241.295 288.513L241.297 288.509L241.298 288.506L241.299 288.502L241.3 288.499L241.301 288.495L241.302 288.492L241.303 288.489L241.304 288.485L241.305 288.482L241.306 288.478L241.308 288.475L241.309 288.472L241.31 288.468L241.311 288.465L241.312 288.461L241.313 288.458L241.314 288.455L241.315 288.451L241.316 288.448L241.317 288.445L241.319 288.441L241.32 288.438L241.321 288.434L241.322 288.431L241.323 288.428L241.324 288.424L241.325 288.421L241.326 288.418L241.327 288.414L241.328 288.411L241.329 288.408L241.331 288.404L241.332 288.401L241.333 288.398L241.334 288.394L241.335 288.391L241.336 288.388L241.337 288.384L241.338 288.381L241.339 288.378L241.34 288.374L241.341 288.371L241.342 288.368L241.343 288.364L241.345 288.361L241.346 288.358L241.347 288.355L241.348 288.351L241.349 288.348L241.35 288.345L241.351 288.341L241.352 288.338L241.353 288.335L241.354 288.332L241.355 288.328L241.356 288.325L241.357 288.322L241.358 288.319L241.359 288.315L241.36 288.312L241.361 288.309L241.363 288.306L241.364 288.302L241.365 288.299L241.366 288.296L241.367 288.293L241.368 288.29L241.369 288.286L241.37 288.283L241.371 288.28L241.372 288.277L241.373 288.274L241.374 288.27L241.375 288.267L241.376 288.264L241.377 288.261L241.378 288.258L241.379 288.255L241.38 288.251L241.381 288.248L241.382 288.245L241.383 288.242L241.384 288.239L241.385 288.236L241.386 288.232L241.387 288.229L241.388 288.226L241.389 288.223L241.39 288.22L241.391 288.217L241.392 288.214L241.393 288.211L241.394 288.208L241.395 288.204L241.396 288.201L241.397 288.198L241.398 288.195L241.399 288.192L241.4 288.189L241.401 288.186L241.402 288.183L241.403 288.18L241.404 288.177L241.405 288.174L241.406 288.171L241.407 288.168L241.408 288.165L241.409 288.162L241.41 288.159L241.411 288.156L241.412 288.153L241.413 288.15L241.414 288.147L241.415 288.144L241.416 288.141L241.417 288.138L241.418 288.135L241.419 288.132L241.42 288.129L241.421 288.126L241.422 288.123L241.423 288.12L241.424 288.117L241.425 288.114L241.426 288.111L241.427 288.108L241.428 288.105L241.428 288.102L241.429 288.099L241.43 288.096L241.431 288.094L241.432 288.091L241.433 288.088L241.434 288.085L241.435 288.082L241.436 288.079L241.437 288.076L241.438 288.073L241.439 288.071L241.44 288.068L241.441 288.065L241.442 288.062L241.442 288.059L241.443 288.056L241.444 288.054L241.445 288.051L241.446 288.048L241.447 288.045L241.448 288.042L241.449 288.04L241.45 288.037L241.451 288.034L241.452 288.031L241.452 288.029L241.453 288.026L241.454 288.023L241.455 288.02L241.456 288.018L241.457 288.015L241.458 288.012L241.459 288.009L241.46 288.007L241.46 288.004L241.461 288.001L241.462 287.999L241.463 287.996L241.464 287.993L241.465 287.991L241.466 287.988L241.466 287.985L241.467 287.983L241.468 287.98L241.469 287.977L241.47 287.975L241.471 287.972L241.472 287.969L241.472 287.967L241.473 287.964L241.474 287.962L241.475 287.959L241.476 287.956L241.477 287.954L241.477 287.951L241.478 287.949L241.479 287.946L241.48 287.944L241.481 287.941L241.482 287.939L241.482 287.936L241.483 287.934L241.484 287.931L241.485 287.929L241.486 287.926L241.486 287.924L241.487 287.921L241.488 287.919L241.489 287.916L241.49 287.914L241.49 287.911L241.491 287.909L241.492 287.906L241.493 287.904L241.494 287.902L241.494 287.899L241.495 287.897L241.496 287.894L241.497 287.892L241.497 287.89L241.498 287.887L241.499 287.885L241.5 287.883L241.501 287.88L241.501 287.878L241.502 287.876L241.503 287.873L241.504 287.871L241.504 287.869L241.505 287.866L241.506 287.864L241.507 287.862L241.507 287.859L241.508 287.857L241.509 287.855L241.509 287.853L241.51 287.85L241.511 287.848L241.512 287.846L241.512 287.844L241.513 287.842L241.514 287.839L241.514 287.837L241.515 287.835L241.516 287.833L241.517 287.831L241.517 287.828L241.518 287.826L241.519 287.824L241.519 287.822L241.52 287.82L241.521 287.818L241.521 287.816L241.522 287.814L241.523 287.812L241.523 287.809L241.524 287.807L241.525 287.805L241.525 287.803L241.526 287.801L241.527 287.799L241.527 287.797L241.528 287.795L241.529 287.793L241.529 287.791L241.53 287.789L241.531 287.787L241.531 287.785L241.532 287.783L241.533 287.781L241.533 287.779L241.534 287.777L241.534 287.776L241.535 287.774L241.536 287.772L241.536 287.77L241.537 287.768L241.538 287.766L241.538 287.764L241.539 287.762L241.539 287.76L241.54 287.759L241.541 287.757L241.541 287.755L241.542 287.753L241.542 287.751L241.543 287.75L241.543 287.748L241.544 287.746L241.545 287.744L241.545 287.742L241.546 287.741L241.546 287.739L241.547 287.737L241.547 287.736L241.548 287.734L241.549 287.732L241.549 287.73L241.55 287.729L241.55 287.727L241.551 287.725L241.551 287.724L241.552 287.722L241.552 287.721L241.553 287.719L241.553 287.717L241.554 287.716L241.554 287.714L241.555 287.713L241.555 287.711L241.556 287.709L241.556 287.708L241.557 287.706L241.557 287.705L241.558 287.703L241.558 287.702L241.559 287.7L241.559 287.699L241.56 287.697L241.56 287.696L241.561 287.694L241.561 287.693L241.562 287.692L241.562 287.69L241.563 287.689L241.563 287.687L241.564 287.686L241.564 287.685L241.564 287.683L241.565 287.682L241.565 287.681L241.566 287.679L241.566 287.678L241.567 287.677L241.567 287.675L241.567 287.674L241.568 287.673L241.568 287.671L241.569 287.67L241.569 287.669L241.569 287.668L241.57 287.667L241.57 287.665L241.571 287.664L241.571 287.663L241.571 287.662L241.572 287.661L241.572 287.659L241.573 287.658L241.573 287.657L241.573 287.656L241.574 287.655L241.574 287.654L241.574 287.653L241.575 287.652L241.575 287.651L241.575 287.65L241.576 287.648L241.576 287.647L241.576 287.646L241.577 287.645L241.577 287.644L241.577 287.643L241.578 287.642L241.578 287.642L241.578 287.641L241.579 287.64L241.579 287.639L241.579 287.638L241.579 287.637L241.58 287.636L241.58 287.635L241.58 287.634L241.581 287.633L241.581 287.633L241.581 287.632L241.581 287.631L241.582 287.63L241.582 287.629L241.582 287.629L241.582 287.628L241.583 287.627L241.583 287.626L241.583 287.626L241.583 287.625L241.584 287.624L241.584 287.623L241.584 287.623L241.584 287.622L241.584 287.621L241.585 287.621L241.585 287.62L241.585 287.619L241.585 287.619L241.585 287.618L241.586 287.618L241.586 287.617L241.586 287.617L241.586 287.616L241.586 287.615L241.587 287.615L241.587 287.614L241.587 287.614L241.587 287.613L241.587 287.613L241.587 287.613L241.587 287.612L241.588 287.612L241.588 287.611L241.588 287.611L241.588 287.61L241.588 287.61L241.588 287.61L241.588 287.609L241.588 287.609L241.589 287.609L241.589 287.608L241.589 287.608L241.589 287.608L241.589 287.607L241.589 287.607L241.589 287.607L241.589 287.607L241.589 287.606L241.589 287.606L241.589 287.606L241.589 287.606L241.59 287.606L241.59 287.606L241.59 287.605L241.59 287.605L241.59 287.605L241.59 287.605L241.59 287.605L241.59 287.605L241.59 287.605L241.59 287.605C241.855 286.788 242.211 286.149 242.606 285.444L242.617 285.425C243.006 284.732 243.432 283.973 243.748 282.997L243.751 282.987L243.755 282.976L243.758 282.966L243.762 282.955L243.765 282.944L243.768 282.934L243.772 282.923L243.775 282.913L243.779 282.902L243.782 282.892L243.786 282.881L243.789 282.871L243.792 282.86L243.796 282.849L243.799 282.839L243.803 282.828L243.806 282.818L243.81 282.807L243.813 282.797L243.816 282.786L243.82 282.776L243.823 282.765L243.827 282.755L243.83 282.744L243.834 282.733L243.837 282.723L243.84 282.712L243.844 282.702L243.847 282.691L243.851 282.681L243.854 282.67L243.857 282.66L243.861 282.649L243.864 282.638L243.868 282.628L243.871 282.617L243.875 282.607L243.878 282.596L243.881 282.586L243.885 282.575L243.888 282.565L243.892 282.554L243.895 282.543L243.899 282.533L243.902 282.522L243.905 282.512L243.909 282.501L243.912 282.491L243.916 282.48L243.919 282.47L243.922 282.459L243.926 282.449L243.929 282.438L243.933 282.427L243.936 282.417L243.94 282.406L243.943 282.396L243.946 282.385L243.95 282.375L243.953 282.364L243.957 282.354L243.96 282.343L243.964 282.332L243.967 282.322L243.97 282.311L243.974 282.301L243.977 282.29L243.981 282.28L243.984 282.269L243.988 282.259L243.991 282.248L243.994 282.237L243.998 282.227L244.001 282.216L244.005 282.206L244.008 282.195L244.011 282.185L244.015 282.174L244.018 282.164L244.022 282.153L244.025 282.143L244.029 282.132L244.032 282.121L244.035 282.111L244.039 282.1L244.042 282.09L244.046 282.079L244.049 282.069L244.053 282.058L244.056 282.048L244.059 282.037L244.063 282.026L244.066 282.016L244.07 282.005L244.073 281.995L244.076 281.984L244.08 281.974L244.083 281.963L244.087 281.953L244.09 281.942L244.094 281.931L244.097 281.921L244.1 281.91L244.104 281.9L244.107 281.889L244.111 281.879L244.114 281.868L244.118 281.858L244.121 281.847L244.124 281.836L244.128 281.826L244.131 281.815L244.135 281.805L244.138 281.794L244.142 281.784L244.145 281.773L244.148 281.763L244.152 281.752L244.155 281.742L244.159 281.731L244.162 281.72L244.165 281.71L244.169 281.699L244.172 281.689L244.176 281.678L244.179 281.668L244.183 281.657L244.186 281.647L244.189 281.636L244.193 281.625L244.196 281.615L244.2 281.604L244.203 281.594L244.207 281.583L244.21 281.573L244.213 281.562L244.217 281.552L244.22 281.541L244.224 281.53L244.227 281.52L244.231 281.509L244.234 281.499L244.237 281.488L244.241 281.478L244.244 281.467L244.248 281.457L244.251 281.446L244.254 281.436L244.258 281.425L244.261 281.414L244.265 281.404L244.268 281.393L244.272 281.383L244.275 281.372L244.278 281.362L244.282 281.351L244.285 281.341L244.289 281.33L244.292 281.319L244.296 281.309L244.299 281.298L244.302 281.288L244.306 281.277L244.309 281.267L244.313 281.256L244.316 281.246L244.319 281.235L244.323 281.224L244.326 281.214L244.33 281.203L244.333 281.193L244.337 281.182L244.34 281.172L244.343 281.161L244.347 281.151L244.35 281.14L244.354 281.13L244.357 281.119L244.361 281.108L244.364 281.098L244.367 281.087L244.371 281.077L244.374 281.066L244.378 281.056L244.381 281.045L244.385 281.035L244.388 281.024L244.391 281.013L244.395 281.003L244.398 280.992L244.402 280.982L244.405 280.971L244.408 280.961L244.412 280.95L244.415 280.94L244.419 280.929L244.422 280.918L244.426 280.908L244.429 280.897L244.432 280.887L244.436 280.876L244.439 280.866L244.443 280.855L244.446 280.845L244.45 280.834L244.453 280.824L244.456 280.813L244.46 280.802L244.463 280.792L244.467 280.781L244.47 280.771L244.473 280.76L244.477 280.75L244.48 280.739L244.484 280.729L244.487 280.718L244.491 280.707L244.494 280.697L244.497 280.686L244.501 280.676L244.504 280.665L244.508 280.655L244.511 280.644L244.515 280.634L244.518 280.623L244.521 280.612L244.525 280.602L244.528 280.591L244.532 280.581L244.535 280.57L244.539 280.56L244.542 280.549L244.545 280.539L244.549 280.528L244.552 280.517L244.556 280.507L244.559 280.496L244.562 280.486L244.566 280.475L244.569 280.465L244.573 280.454L244.576 280.444L244.58 280.433L244.583 280.423L244.586 280.412L244.59 280.401L244.593 280.391L244.597 280.38L244.6 280.37L244.604 280.359L244.607 280.349L244.61 280.338L244.614 280.328L244.617 280.317L244.621 280.306L244.624 280.296L244.628 280.285L244.631 280.275L244.634 280.264L244.638 280.254L244.641 280.243L244.645 280.233L244.648 280.222L244.651 280.211L244.655 280.201L244.658 280.19L244.662 280.18L244.665 280.169L244.669 280.159L244.672 280.148L244.675 280.138L244.679 280.127L244.682 280.117L244.686 280.106L244.689 280.095L244.693 280.085L244.696 280.074L244.699 280.064L244.703 280.053L244.706 280.043L244.71 280.032L244.713 280.022L244.716 280.011L244.72 280L244.723 279.99L244.727 279.979L244.73 279.969L244.734 279.958L244.737 279.948L244.74 279.937L244.744 279.927L244.747 279.916L244.751 279.905L244.754 279.895L244.758 279.884L244.761 279.874L244.764 279.863L244.768 279.853L244.771 279.842L244.775 279.832L244.778 279.821L244.782 279.811L244.785 279.8L244.788 279.789L244.792 279.779L244.795 279.768L244.799 279.758L244.802 279.747L244.805 279.737L244.809 279.726L244.812 279.716L244.816 279.705L244.819 279.694L244.823 279.684L244.826 279.673L244.829 279.663L244.833 279.652L244.836 279.642L244.84 279.631L244.843 279.621L244.847 279.61L244.85 279.599L244.853 279.589L244.857 279.578L244.86 279.568L244.864 279.557L244.867 279.547L244.87 279.536L244.874 279.526L244.877 279.515L244.881 279.505L244.884 279.494L244.888 279.483L244.891 279.473L244.894 279.462L244.898 279.452L244.901 279.441L244.905 279.431L244.908 279.42L244.912 279.41L244.915 279.399L244.918 279.388L244.922 279.378L244.925 279.367L244.929 279.357L244.932 279.346L244.936 279.336L244.939 279.325L244.942 279.315L244.946 279.304L244.949 279.293L244.953 279.283L244.956 279.272L244.959 279.262L244.963 279.251L244.966 279.241L244.97 279.23L244.973 279.22L244.977 279.209L244.98 279.199L244.983 279.188L244.987 279.177L244.99 279.167L244.994 279.156L244.997 279.146L245.001 279.135L245.004 279.125L245.007 279.114L245.011 279.104L245.014 279.093L245.018 279.082L245.021 279.072L245.025 279.061L245.028 279.051L245.031 279.04L245.035 279.03L245.038 279.019L245.042 279.009L245.045 278.998L245.048 278.987L245.052 278.977L245.055 278.966L245.059 278.956L245.062 278.945L245.066 278.935L245.069 278.924L245.072 278.914L245.076 278.903L245.079 278.892L245.083 278.882L245.086 278.871L245.09 278.861L245.093 278.85L245.096 278.84L245.1 278.829L245.103 278.819L245.107 278.808L245.11 278.798L245.113 278.787L245.117 278.776L245.12 278.766L245.124 278.755L245.127 278.745L245.131 278.734L245.134 278.724L245.137 278.713L245.141 278.703L245.144 278.692L245.148 278.681L245.151 278.671L245.155 278.66L245.158 278.65L245.161 278.639L245.165 278.629L245.168 278.618L245.172 278.608L245.175 278.597L245.179 278.586L245.182 278.576L245.185 278.565L245.189 278.555L245.192 278.544L245.196 278.534L245.199 278.523L245.202 278.513L245.206 278.502L245.209 278.492L245.213 278.481L245.216 278.47L245.22 278.46L245.223 278.449L245.226 278.439L245.23 278.428L245.233 278.418L245.237 278.407L245.24 278.397L245.244 278.386L245.247 278.375L245.25 278.365L245.254 278.354L245.257 278.344L245.261 278.333L245.264 278.323L245.268 278.312L245.271 278.302L245.274 278.291L245.278 278.28L245.281 278.27L245.285 278.259L245.288 278.249L245.291 278.238L245.295 278.228L245.298 278.217L245.302 278.207L245.305 278.196L245.309 278.186L245.312 278.175L245.315 278.164L245.319 278.154L245.322 278.143L245.326 278.133L245.329 278.122L245.333 278.112L245.336 278.101L245.339 278.091L245.343 278.08L245.346 278.069L245.35 278.059L245.353 278.048L245.356 278.038L245.36 278.027L245.363 278.017L245.367 278.006L245.37 277.996L245.374 277.985L245.377 277.974L245.38 277.964L245.384 277.953L245.387 277.943L245.391 277.932L245.394 277.922L245.398 277.911L245.401 277.901L245.404 277.89L245.408 277.88L245.411 277.869L245.415 277.858L245.418 277.848L245.422 277.837L245.425 277.827L245.428 277.816L245.432 277.806L245.435 277.795L245.439 277.785L245.442 277.774L245.445 277.763L245.449 277.753L245.452 277.742L245.456 277.732L245.459 277.721L245.463 277.711L245.466 277.7L245.469 277.69L245.473 277.679L245.476 277.668L245.48 277.658L245.483 277.647L245.487 277.637L245.49 277.626L245.493 277.616L245.497 277.605L245.5 277.595L245.511 277.56C246.47 274.604 247.456 271.564 247.845 268.318C248.047 267.654 248.143 266.827 248.229 266.097L248.235 266.044C248.331 265.218 248.417 264.508 248.583 263.999C248.787 263.369 248.848 262.698 248.906 262.075C248.912 262.001 248.919 261.928 248.926 261.856C248.994 261.145 249.081 260.417 249.345 259.602C249.58 258.879 249.575 258.271 249.57 257.776L249.57 257.752C249.566 257.254 249.567 256.871 249.718 256.406C249.953 255.682 249.948 255.075 249.943 254.58L249.943 254.556C249.939 254.096 249.94 253.734 250.059 253.315C257.475 242.629 267.656 233.487 279.632 226.883C291.463 220.851 304.485 217.192 317.718 216.888C333.373 216.763 348.886 221.094 362.708 228.755C361.4 258.423 344.073 285.435 318.618 299.406C292.636 313.146 261.069 312.144 235.724 297.641C236.26 296.887 236.636 296.216 236.994 295.578L237 295.568C237.393 294.866 237.766 294.203 238.326 293.444C238.905 292.66 239.348 291.833 239.732 291.116C239.768 291.049 239.803 290.983 239.838 290.918C240.265 290.124 240.609 289.526 241.011 289.117Z" fill="white" fill-opacity="0.29" stroke="url(#paint4_linear_24_43)" stroke-width="1.58786"/>
<path d="M162.384 248.737L162.384 248.737L162.379 248.727C149.382 222.296 151.784 190.449 168.152 165.653C183.84 167.563 198.942 173.162 211.543 182.451C222.089 190.472 231.081 201.277 237.113 213.092C242.956 225.517 246.021 238.336 245.54 251.963C245.06 265.573 240.638 279.241 234.208 290.972C233.595 291.812 233.137 292.694 232.71 293.517L232.698 293.54C232.321 294.266 231.966 294.947 231.533 295.59C201.443 293.514 175.197 275.777 162.384 248.737Z" fill="white" fill-opacity="0.29" stroke="url(#paint5_linear_24_43)" stroke-width="1.58786"/>
<path d="M69.234 369.277C72.5982 370.368 75.5694 369.712 78.018 367.484L86.704 370.301C84.6239 373.018 82.1136 374.903 78.8246 376.028C75.3126 377.23 71.6045 377.208 67.4974 375.876C64.104 374.776 61.4943 373.142 59.2917 370.858C57.1089 368.595 55.8512 365.853 55.2937 362.726L55.2905 362.709L55.2861 362.691C54.4357 359.291 54.6972 356.052 55.8578 352.474C57.0179 348.897 58.7128 346.104 61.0582 343.719C63.3433 341.518 65.9697 340.037 69.0629 339.487C72.1865 338.931 75.2584 339.14 78.6518 340.24C81.8682 341.284 84.6528 342.977 86.6643 345.188C88.6941 347.419 90.1798 350.051 90.7321 353.148C91.2889 356.271 91.0805 359.342 89.9803 362.734L89.9687 362.77L89.9623 362.807C89.778 363.87 89.3862 364.733 88.982 365.487L63.6399 357.267L63.0992 357.092L62.9628 357.644C62.289 360.37 62.554 362.821 63.8057 364.954C65.0414 367.06 66.7354 368.467 69.234 369.277ZM82.0156 357.882L82.519 358.045L82.6823 357.541C83.4979 355.027 83.1641 352.738 81.8459 350.787C80.5923 348.661 78.6403 347.399 76.3672 346.662C74.0536 345.911 71.8577 346.055 69.8633 346.91C67.8474 347.774 66.2596 349.409 65.0819 351.748L64.8045 352.299L65.3914 352.49L82.0156 357.882Z" fill="white" fill-opacity="0.53" stroke="url(#paint6_linear_24_43)" stroke-width="1.05857"/>
<path d="M105.052 351.159L105.059 351.158L105.067 351.156C107.993 350.547 111.241 350.81 114.458 351.854C118.76 353.249 121.944 355.469 123.891 358.424C125.744 361.236 126.716 364.636 126.549 368.387L117.86 365.569C117.753 364.01 117.398 362.506 116.405 361.164C115.339 359.723 113.889 358.832 111.99 358.216C109.296 357.342 106.821 357.611 104.619 359.061C102.429 360.503 100.814 362.947 99.6675 366.482C98.5815 369.83 98.3932 372.94 99.3211 375.396C100.253 377.862 102.099 379.533 104.793 380.407C106.695 381.024 108.445 381.118 110.016 380.669C111.48 380.25 112.745 379.371 113.807 378.083L122.49 380.899C120.438 384.002 117.703 386.033 114.315 387.344C110.808 388.541 107.103 388.52 102.815 387.129C99.418 386.028 96.8151 384.395 94.8021 382.182C92.7835 379.963 91.3485 377.151 90.7935 374.039C90.2379 370.923 90.5019 367.669 91.6637 364.087C92.8208 360.52 94.7526 357.603 97.0418 355.397C99.328 353.193 101.956 351.71 105.052 351.159Z" fill="white" fill-opacity="0.53" stroke="url(#paint7_linear_24_43)" stroke-width="1.05857"/>
<path d="M146.431 349.912L131.535 395.839L123.591 393.262L138.487 347.335L146.431 349.912Z" fill="white" fill-opacity="0.53" stroke="url(#paint8_linear_24_43)" stroke-width="1.05857"/>
<path d="M154.209 367.095L154.217 367.093L154.225 367.091C156.968 366.426 159.845 366.575 162.869 367.555C165.356 368.362 167.472 369.637 169.057 371.311C170.66 373.005 171.669 374.694 172.39 376.685L172.915 378.135L173.391 376.668L174.886 372.059L182.831 374.635L171.726 408.874L163.599 406.238L165.094 401.628L165.633 399.966L164.262 401.05C162.708 402.279 160.682 403.166 158.478 403.416L158.459 403.419L158.44 403.422C156.175 403.847 153.712 403.637 151.226 402.831C148.389 401.911 145.982 400.348 144.215 398.032L144.206 398.021L144.197 398.01C142.363 395.857 141.101 393.103 140.543 389.972C139.988 386.863 140.309 383.432 141.409 380.034C142.706 376.655 144.285 373.636 146.549 371.454C148.851 369.235 151.302 367.7 154.209 367.095ZM169.695 382.869L169.692 382.856L169.689 382.842C169.241 381.052 168.532 379.317 167.219 378.016C165.988 376.557 164.562 375.671 162.841 375.112C161.119 374.554 159.445 374.435 157.592 374.893C155.765 375.176 154.172 376.165 152.759 377.351C151.264 378.606 150.206 380.603 149.54 382.657C148.813 384.899 148.559 386.952 149.032 388.842C149.484 390.648 150.193 392.364 151.426 393.833C152.662 395.303 154.092 396.194 155.821 396.755C157.526 397.308 159.401 397.5 161.11 396.964C162.938 396.505 164.458 395.729 165.903 394.516C167.397 393.261 168.455 391.264 169.121 389.21C169.851 386.961 170.097 384.922 169.695 382.869Z" fill="white" fill-opacity="0.53" stroke="url(#paint9_linear_24_43)" stroke-width="1.05857"/>
<path d="M195.488 397.293L195.488 397.293L195.496 397.298C197.662 398.597 199.413 399.961 200.692 400.98C201.904 401.945 202.819 403.188 203.283 404.65L203.296 404.692L203.316 404.731C203.958 405.99 203.844 407.58 203.205 409.549C202.646 411.274 201.628 412.647 200.392 413.561L200.379 413.571L200.367 413.581C199.082 414.66 197.375 415.254 195.567 415.444C193.745 415.635 191.634 415.533 189.525 414.849L189.498 414.841L189.471 414.835C186.014 414.102 183.309 412.256 181.353 409.87C179.713 407.717 179.039 405.214 179.67 402.27L181.598 402.896C181.206 405.138 181.775 407.303 183.177 409.16C184.671 411.14 187.095 412.752 190.274 413.783C192.92 414.641 195.486 414.639 197.509 413.772C199.497 412.919 201.071 411.469 201.778 409.288C202.212 407.95 202.307 406.374 201.52 405.157C200.867 403.884 200.084 402.994 198.956 402.008C198.084 401.246 196.951 400.52 195.661 399.692C195.268 399.44 194.861 399.179 194.442 398.905C194.249 398.775 194.059 398.648 193.874 398.523C191.813 397.141 190.202 396.059 188.943 394.929C187.587 393.711 186.654 392.446 186.007 390.893C185.389 389.412 185.41 387.545 186.095 385.431C186.589 383.909 187.538 382.704 188.874 381.582C190.157 380.505 191.861 379.911 193.665 379.72C195.692 379.585 197.618 379.633 199.716 380.314C203.286 381.472 205.795 383.27 207.312 385.676C208.746 387.95 209.261 390.424 208.606 393.387L206.682 392.763C207.149 390.397 206.779 388.284 205.615 386.3C204.358 384.159 202.091 382.595 199.09 381.622C196.661 380.834 194.152 380.635 192.112 381.504C189.924 382.299 188.593 383.636 187.947 385.628C187.392 387.34 187.307 388.897 188.014 390.282C188.644 391.516 189.481 392.853 190.655 393.88C191.789 394.872 193.468 396.03 195.488 397.293Z" fill="white" fill-opacity="0.53" stroke="url(#paint10_linear_24_43)" stroke-width="1.05857"/>
<path d="M241.402 428.355L260.564 400.655L262.245 401.2L240.913 431.315L238.897 430.661L237.84 396.98L237.794 395.52L236.894 396.67L216.086 423.262L214.068 422.608L214.473 385.705L216.336 386.31L215.533 420.166L215.495 421.782L216.482 420.501L237.526 393.183L239.556 393.841L240.438 428.067L240.479 429.688L241.402 428.355Z" fill="white" fill-opacity="0.53" stroke="url(#paint11_linear_24_43)" stroke-width="1.05857"/>
<path d="M293.212 420.577L295.951 412.132L297.867 412.754L286.999 446.262L285.083 445.641L287.881 437.013L286.971 436.511C285.039 438.832 282.706 440.606 279.669 441.566C276.641 442.525 273.353 442.442 269.787 441.285C266.581 440.245 264.158 438.675 262.14 436.456C260.12 434.236 258.817 431.674 258.442 428.642L258.44 428.628L258.437 428.614C257.881 425.496 258.147 422.243 259.248 418.846C260.352 415.444 262.107 412.473 264.385 410.278C266.66 408.084 269.233 406.771 271.993 406.1C274.924 405.491 277.988 405.7 281.011 406.681C284.577 407.838 287.287 409.7 289.177 412.253C291.092 414.842 292.155 417.52 292.179 420.418L293.212 420.577ZM263.577 435.857L263.583 435.864L263.59 435.872C265.441 437.944 267.724 439.307 270.536 440.219C273.349 441.131 275.998 441.367 278.712 440.777C281.426 440.186 283.742 438.841 285.785 437.017L285.792 437.011L285.798 437.005C287.923 434.973 289.341 432.512 290.369 429.343C291.513 425.815 291.812 422.989 291.284 420.092C290.757 417.204 289.601 414.939 287.76 412.879C285.909 410.807 283.626 409.444 280.814 408.532C278.017 407.625 275.178 407.32 272.629 407.976C269.941 408.563 267.668 409.717 265.723 411.816C263.603 413.848 262.189 416.307 261.105 419.65C260.021 422.992 259.722 425.813 260.246 428.703C260.592 431.561 261.948 433.885 263.577 435.857Z" fill="white" fill-opacity="0.53" stroke="url(#paint12_linear_24_43)" stroke-width="1.05857"/>
<path d="M334.556 433.011L334.557 433.025L334.56 433.039C335.116 436.157 334.851 439.41 333.749 442.807C332.644 446.213 330.89 449.176 328.683 451.182L328.678 451.187L328.672 451.192C326.396 453.386 323.823 454.699 321.063 455.37C318.132 455.979 315.069 455.77 312.046 454.79C308.48 453.633 305.769 451.77 303.88 449.217C301.964 446.629 300.901 443.951 300.877 441.052L299.845 440.893L291.834 465.592L289.918 464.97L305.999 415.391L307.915 416.012L305.116 424.64L306.046 425.117C307.774 422.774 310.273 421.053 313.328 420.087C316.356 419.128 319.644 419.211 323.21 420.368C326.416 421.408 328.839 422.978 330.857 425.197C332.877 427.417 334.18 429.979 334.556 433.011ZM329.485 426.221L329.478 426.213L329.471 426.206C327.619 424.132 325.334 422.77 322.342 421.799C319.53 420.887 316.881 420.651 314.167 421.242C311.453 421.832 309.137 423.177 307.094 425.001L307.087 425.007L307.081 425.013C304.955 427.046 303.538 429.507 302.51 432.675C301.482 435.844 301.186 438.669 301.713 441.562C302.24 444.449 303.396 446.714 305.237 448.774C307.088 450.846 309.371 452.209 312.183 453.121C314.989 454.031 317.822 454.33 320.541 453.738C323.239 453.151 325.518 451.993 327.468 449.884C329.377 447.818 330.981 445.434 332.075 442.063C333.171 438.682 333.149 436.171 332.817 433.391C332.475 430.525 331.117 428.196 329.485 426.221Z" fill="white" fill-opacity="0.53" stroke="url(#paint13_linear_24_43)" stroke-width="1.05857"/>
<defs>
<filter id="filter0_b_24_43" x="-20.1468" y="-20.1468" width="523.068" height="557.939" filterUnits="userSpaceOnUse" color-interpolation-filters="sRGB">
<feFlood flood-opacity="0" result="BackgroundImageFix"/>
<feGaussianBlur in="BackgroundImage" stdDeviation="13.2321"/>
<feComposite in2="SourceAlpha" operator="in" result="effect1_backgroundBlur_24_43"/>
<feBlend mode="normal" in="SourceGraphic" in2="effect1_backgroundBlur_24_43" result="shape"/>
</filter>
<linearGradient id="paint0_linear_24_43" x1="460.339" y1="499.62" x2="238.25" y2="392.041" gradientUnits="userSpaceOnUse">
<stop stop-color="#0C66F1"/>
<stop offset="1" stop-color="#3FACFC"/>
</linearGradient>
<linearGradient id="paint1_linear_24_43" x1="115.881" y1="279.524" x2="1.2194" y2="223.495" gradientUnits="userSpaceOnUse">
<stop stop-color="#0CF1E3"/>
<stop offset="1" stop-color="#3FACFC"/>
</linearGradient>
<linearGradient id="paint2_linear_24_43" x1="315.713" y1="-55.5417" x2="291.223" y2="518.569" gradientUnits="userSpaceOnUse">
<stop stop-color="white"/>
<stop offset="0.395833" stop-color="white" stop-opacity="0"/>
<stop offset="1" stop-color="white"/>
</linearGradient>
<linearGradient id="paint3_linear_24_43" x1="297.522" y1="98.1322" x2="230.642" y2="274.772" gradientUnits="userSpaceOnUse">
<stop stop-color="white"/>
<stop offset="0.395833" stop-color="white" stop-opacity="0"/>
<stop offset="1" stop-color="white"/>
</linearGradient>
<linearGradient id="paint4_linear_24_43" x1="321.98" y1="197.665" x2="270.5" y2="337.441" gradientUnits="userSpaceOnUse">
<stop stop-color="white"/>
<stop offset="0.395833" stop-color="white" stop-opacity="0"/>
<stop offset="1" stop-color="white"/>
</linearGradient>
<linearGradient id="paint5_linear_24_43" x1="220.994" y1="164.906" x2="169.684" y2="304.803" gradientUnits="userSpaceOnUse">
<stop stop-color="white"/>
<stop offset="0.395833" stop-color="white" stop-opacity="0"/>
<stop offset="1" stop-color="white"/>
</linearGradient>
<linearGradient id="paint6_linear_24_43" x1="80.2997" y1="334.933" x2="62.3406" y2="383.757" gradientUnits="userSpaceOnUse">
<stop stop-color="white"/>
<stop offset="0.395833" stop-color="white" stop-opacity="0"/>
<stop offset="1" stop-color="white"/>
</linearGradient>
<linearGradient id="paint7_linear_24_43" x1="115.604" y1="346.41" x2="97.6899" y2="394.971" gradientUnits="userSpaceOnUse">
<stop stop-color="white"/>
<stop offset="0.395833" stop-color="white" stop-opacity="0"/>
<stop offset="1" stop-color="white"/>
</linearGradient>
<linearGradient id="paint8_linear_24_43" x1="144.612" y1="341.974" x2="112.772" y2="399.399" gradientUnits="userSpaceOnUse">
<stop stop-color="white"/>
<stop offset="0.395833" stop-color="white" stop-opacity="0"/>
<stop offset="1" stop-color="white"/>
</linearGradient>
<linearGradient id="paint9_linear_24_43" x1="166.754" y1="363" x2="148.991" y2="411.623" gradientUnits="userSpaceOnUse">
<stop stop-color="white"/>
<stop offset="0.395833" stop-color="white" stop-opacity="0"/>
<stop offset="1" stop-color="white"/>
</linearGradient>
<linearGradient id="paint10_linear_24_43" x1="201.462" y1="375.212" x2="183.426" y2="422.147" gradientUnits="userSpaceOnUse">
<stop stop-color="white"/>
<stop offset="0.395833" stop-color="white" stop-opacity="0"/>
<stop offset="1" stop-color="white"/>
</linearGradient>
<linearGradient id="paint11_linear_24_43" x1="239.97" y1="388.424" x2="223.58" y2="434.794" gradientUnits="userSpaceOnUse">
<stop stop-color="white"/>
<stop offset="0.395833" stop-color="white" stop-opacity="0"/>
<stop offset="1" stop-color="white"/>
</linearGradient>
<linearGradient id="paint12_linear_24_43" x1="283.13" y1="401.659" x2="265.624" y2="449.263" gradientUnits="userSpaceOnUse">
<stop stop-color="white"/>
<stop offset="0.395833" stop-color="white" stop-opacity="0"/>
<stop offset="1" stop-color="white"/>
</linearGradient>
<linearGradient id="paint13_linear_24_43" x1="325.076" y1="413.017" x2="298.81" y2="480.885" gradientUnits="userSpaceOnUse">
<stop stop-color="white"/>
<stop offset="0.395833" stop-color="white" stop-opacity="0"/>
<stop offset="1" stop-color="white"/>
</linearGradient>
</defs>
</svg>
