<svg width="1512" height="987" viewBox="0 0 1512 987" fill="none" xmlns="http://www.w3.org/2000/svg">
<g opacity="0.4">
<path d="M0.0378647 67.2012C32.876 96.1146 54.7933 127.1 54.2642 162.329C53.6974 198.199 29.8529 238.214 0.0378647 280.943V278.92C29.3239 236.783 52.7149 197.41 53.1684 162.28C53.6974 127.791 32.3092 97.3481 0.0378647 68.8295V67.2012ZM0.0378647 709.462C11.8279 716.32 23.769 722.882 35.3322 729.346C89.3697 759.246 136.152 785.15 129.728 813.323C123.871 839.128 72.5916 866.314 0.0378647 894.241V892.859C72.1004 865.179 123.001 838.289 128.745 812.977C134.867 785.939 88.5005 760.282 34.9166 730.629C23.5045 724.264 11.7145 717.751 0.0378647 710.991V709.462H0.0378647Z" fill="#0021D9"/>
<path d="M0.0378495 9.07855C53.8486 60.2936 96.9273 112.199 91.5614 167.756C87.1024 214.284 48.596 263.082 7.7089 314.839C5.13929 318.096 2.60746 321.352 0.0378495 324.609V322.684C2.34294 319.724 4.68582 316.764 6.99092 313.902C47.689 262.292 86.0821 213.643 90.5411 167.608C95.7937 112.989 53.2817 61.5271 0.0378495 10.8055V9.07855ZM0.0378495 691.749C19.839 704.577 40.9249 716.764 61.1417 728.408C115.368 759.591 163.246 787.172 162.944 815.346C165.249 828.964 157.956 841.595 142.349 855.114C126.931 868.534 103.389 882.794 73.0829 899.471C51.6568 911.263 26.9054 924.338 6.10352e-05 938.153V936.673C26.792 922.907 51.4301 909.931 72.6672 898.188C102.898 881.461 126.402 867.251 141.744 853.979C156.973 840.756 164.115 828.421 161.923 815.494L161.848 815.346C162.264 788.011 114.612 760.578 60.6883 729.543C40.6226 717.948 19.6878 705.909 6.10352e-05 693.179V691.749H0.0378495Z" fill="#0028DA"/>
<path d="M63.0689 0.14801C105.921 59.1095 138.532 117.38 128.896 173.184C120.583 221.587 80.4516 267.917 38.1286 316.714C25.3183 331.418 12.3569 346.318 0.0378647 361.614V359.739C12.1679 344.739 24.9026 330.036 37.4106 315.629C79.6203 267.078 119.6 220.896 127.876 172.888C137.474 117.429 104.598 59.1095 61.5952 0.14801H63.0689V0.14801ZM0.0378647 671.766C26.8676 691.897 58.3076 710.547 88.0471 728.26C142.198 760.43 190.832 789.343 196.122 817.467C203.566 832.22 201.828 845.147 191.172 859.505C180.704 873.666 161.432 889.257 133.695 909.635C104.598 931.098 66.092 957.741 23.2022 986.951H20.9349C64.5427 957.347 103.729 930.16 133.242 908.45C160.865 888.172 180.062 872.531 190.491 858.568C200.732 844.654 202.395 832.319 195.253 818.109L195.177 817.862C190.114 790.33 141.631 761.614 87.6314 729.494C58.0431 711.879 26.7543 693.278 0.0378647 673.394V671.766H0.0378647Z" fill="#002FDB"/>
<path d="M128.103 0.14801C158.636 63.5501 179.344 124.781 166.231 178.611C153.912 229.037 112.081 272.802 68.2082 318.491C46.1397 341.532 23.5423 365.166 4.04344 390.428C2.72084 392.155 1.36046 393.932 0.0378647 395.658V393.734C1.09594 392.353 2.1918 390.872 3.32546 389.442C22.8621 364.179 45.5351 340.595 67.6036 317.504C111.325 271.913 153.043 228.297 165.249 178.266C178.286 124.732 157.464 63.5994 126.931 0.19735H128.103V0.14801ZM0.0378647 648.872C31.8935 677.539 75.4257 704.182 116.199 729.05C170.01 761.91 218.908 791.761 229.338 819.638C241.77 835.575 245.663 848.552 239.994 863.699C234.477 878.698 219.513 895.721 194.346 919.799C174.809 938.449 149.189 961.343 119.714 986.951H117.824C147.828 960.899 173.94 937.61 193.741 918.664C218.719 894.734 233.57 877.86 239.087 863.206C244.453 848.601 240.712 836.068 228.507 820.526L228.431 820.378C218.266 792.945 169.443 763.094 115.708 730.333C75.199 705.564 31.8935 679.068 0.0378647 650.5V648.872Z" fill="#0036DD"/>
<path d="M188.564 0.14801C208.668 67.6453 219.853 131.541 203.566 184.088C187.242 236.635 143.596 277.637 98.2499 320.316C75.9548 341.138 53.3573 362.453 33.2917 385.692C24.827 395.461 16.8159 405.675 9.40938 416.135C6.12178 420.822 2.98535 425.559 6.10352e-05 430.295V428.124C2.72083 423.782 5.66832 419.49 8.61582 415.247C15.9846 404.737 24.0713 394.573 32.6115 384.656C52.6771 361.416 75.3502 340.151 97.532 319.231C142.802 276.65 186.335 235.698 202.508 183.545C218.757 131.343 207.572 67.596 187.393 0.14801H188.564V0.14801ZM0.0378495 620.945L0.529099 621.488C33.2161 660.664 91.8259 697.225 145.75 730.875C198.88 764.032 247.514 794.425 262.516 821.809C280.012 838.881 289.422 851.956 288.817 867.893C288.212 883.682 277.556 902.086 255.034 929.913C241.884 945.998 224.69 965.34 204.624 986.951H202.962C223.443 964.945 240.977 945.308 254.316 928.927C276.687 901.444 287.154 883.238 287.759 867.844C288.363 852.548 279.068 839.72 261.798 822.845L261.723 822.697C246.91 795.56 198.351 765.265 145.259 732.158C91.3724 698.508 32.876 661.997 0.0378495 622.82V620.945Z" fill="#003EDE"/>
<path d="M245.814 0.147995C248.27 15.9368 250.348 31.3803 251.898 46.4784C257.301 100.062 255.865 149.155 240.863 189.466C220.458 244.086 174.998 282.324 127.989 321.846C105.732 340.595 83.1346 359.591 62.6533 380.807C51.1656 392.698 40.3959 405.181 30.7976 418.256C18.1385 435.575 7.48219 453.682 0.0378723 472.432V469.471C7.48219 451.462 17.8362 433.946 30.0419 417.319C39.6779 404.244 50.5232 391.662 62.0109 379.771C82.53 358.505 105.165 339.46 127.46 320.711C174.356 281.239 219.626 243.099 239.919 188.775C254.845 148.76 256.206 99.8644 250.877 46.5771C249.328 31.331 247.25 15.7888 244.756 0.0493164H245.814V0.147995ZM0.0378723 581.079C2.34297 586.111 4.98815 591.193 8.0868 596.226C11.5255 601.999 15.5311 607.624 20.1035 613.298C54.0375 655.878 118.164 696.683 176.925 733.984C228.922 766.992 276.725 797.386 295.657 824.03C318.141 842.285 333.105 855.41 337.488 871.988C341.91 888.616 335.637 908.451 315.571 939.88C306.955 953.547 295.694 969.336 282.431 986.901H280.995C294.485 969.04 305.973 952.857 314.778 939.041C334.541 907.957 340.738 888.517 336.43 872.432C332.16 856.249 317.347 843.223 295.014 825.115L294.901 825.016C276.082 798.521 228.355 768.226 176.434 735.217C117.635 697.867 53.4329 657.063 19.3478 614.334C14.8131 608.561 10.7698 602.838 7.25546 597.065C4.57248 592.624 2.19181 588.134 0.0378723 583.694V581.079H0.0378723Z" fill="#0045DF"/>
<path d="M300.871 0.148033C301.476 14.358 301.816 28.3706 301.892 42.0378C302.005 100.605 296.11 153.448 278.198 194.894C253.56 251.783 206.438 286.962 157.691 323.326C135.434 340.052 112.836 356.877 91.9392 376.169C77.4663 389.54 63.8624 404.046 52.0725 419.44C33.1027 444.061 18.8187 470.952 13.1504 498.829C7.48214 526.706 10.543 555.619 26.1118 584.533C29.9285 591.44 34.3875 598.348 39.6779 605.305C75.0856 651.684 145.826 697.225 210.066 738.572C260.362 770.89 306.653 800.741 328.835 826.398L336.808 831.973C348.409 840.114 358.461 847.269 366.812 854.275C394.133 877.267 401.577 898.78 376.146 950.094C370.742 961.146 363.751 973.481 355.551 987H354.191C362.655 973.185 369.797 960.603 375.315 949.403C400.255 898.977 392.924 878.008 366.208 855.361C358.007 848.453 347.88 841.299 336.317 833.207L328.268 827.533L328.155 827.434C306.086 801.876 259.833 772.124 209.537 739.806C145.259 698.459 74.4054 652.869 38.8465 606.242C33.5561 599.335 29.0215 592.328 25.2049 585.322C9.37156 556.014 6.34849 526.755 12.0545 498.434C17.7606 470.31 32.158 443.173 51.2033 418.404C63.1067 403.01 76.7483 388.405 91.259 375.034C112.194 355.693 134.829 338.769 157.124 322.142C205.758 285.827 252.842 250.697 277.216 194.203C295.052 152.954 300.909 100.358 300.796 41.9885C300.796 28.3212 300.456 14.3087 299.776 0.0986938H300.871V0.148033Z" fill="#004CE0"/>
<path d="M354.229 0.14801C350.299 78.8455 340.285 149.501 315.496 200.321C286.625 259.381 237.765 291.403 187.431 324.51C165.098 339.065 142.5 353.917 121.187 371.383C103.767 385.692 87.2157 401.826 73.1584 419.243C55.1333 441.693 41.3028 466.412 35.37 492.365C29.5128 518.219 31.3266 545.455 44.6282 572.938C48.4826 581.029 53.3195 589.121 59.2523 597.164C96.3227 647.885 175.187 699.051 245.625 744.74C293.465 775.725 337.451 804.244 362.013 828.569C369.268 833.157 376.108 837.351 382.532 841.299C389.599 845.739 396.287 849.785 402.333 853.732C441.558 879.241 459.507 900.26 436.721 960.11C433.584 968.349 429.654 977.28 425.044 986.901H423.797C428.558 977.033 432.526 967.856 435.776 959.468C458.147 900.704 440.462 879.981 401.842 854.966C395.758 851.019 389.107 846.874 382.079 842.532C375.541 838.585 368.588 834.292 361.446 829.704L361.371 829.605C336.922 805.428 292.936 776.91 245.133 745.924C174.545 700.136 95.6047 649.02 58.3831 598.052C52.4504 589.911 47.5379 581.72 43.6079 573.678C30.2686 545.801 28.3791 518.219 34.3875 491.97C40.3959 465.771 54.3398 440.854 72.4782 418.256C86.5355 400.79 103.2 384.606 120.696 370.248C142.009 352.782 164.682 337.931 186.977 323.227C237.198 290.268 285.907 258.246 314.589 199.581C339.302 149.007 349.241 78.5988 353.208 0.14801H354.229Z" fill="#0053E2"/>
<path d="M406.377 0.148033C404.941 11.3482 403.467 22.3018 401.804 33.1072C391.375 101.641 376.524 161.934 352.83 205.748C319.614 266.881 269.205 295.646 217.283 325.25C194.913 337.98 172.24 350.907 150.587 366.647C130.106 381.498 110.531 398.816 94.3955 418.01C77.1262 438.683 63.8247 461.429 57.5518 485.704C51.3545 509.881 52.2992 535.439 63.4468 561.688C67.3012 570.717 72.4404 579.895 78.8645 589.121C117.9 644.925 206.703 702.653 284.358 753.078C328.759 781.992 369.457 808.389 395.267 830.838C406.641 837.499 417.524 843.42 427.652 848.946C484.296 879.636 518.117 897.99 497.409 970.224C495.86 975.504 494.084 981.079 492.005 986.951H490.872C493.026 980.981 494.877 975.208 496.389 969.78C516.757 898.78 483.314 880.672 427.236 850.18C417.109 844.654 406.301 838.733 394.813 832.072L394.738 831.973C368.966 809.573 328.268 783.077 283.867 754.263C206.136 703.738 117.257 646.01 78.0709 590.009C71.5713 580.684 66.4699 571.457 62.5399 562.28C51.2411 535.686 50.2964 509.733 56.6071 485.211C62.8422 460.837 76.2948 437.795 93.7531 416.973C109.927 397.681 129.577 380.314 150.058 365.364C171.786 349.674 194.459 336.697 216.906 323.967C268.751 294.462 319.01 265.795 351.999 204.91C375.617 161.342 390.43 101.197 400.86 32.7125C402.484 22.0551 403.996 11.2002 405.432 0.0986938H406.377V0.148033Z" fill="#005AE3"/>
<path d="M457.542 0.147995C455.653 9.76932 453.726 19.2426 451.761 28.5679C436.041 102.134 416.693 166.178 390.128 211.077C352.642 274.43 300.72 299.643 247.136 325.793C224.69 336.648 201.979 347.799 179.835 361.91C156.444 376.761 133.847 395.017 115.633 415.839C98.9679 434.884 86.0065 456.1 79.5825 478.797C73.1585 501.394 73.1962 525.571 82.6056 550.586C86.3466 560.603 91.5236 570.767 98.4389 580.98C139.817 642.754 241.204 708.426 327.021 764.032C366.585 789.689 402.825 813.125 428.407 833.108C443.863 841.595 458.638 848.749 472.204 855.311C533.988 885.31 573.59 904.651 557.946 980.339C557.455 982.51 557.001 984.681 556.472 986.951H555.339C555.943 984.632 556.472 982.263 556.964 979.944C572.381 905.441 533.043 886.297 471.864 856.643C458.222 849.982 443.485 842.828 427.992 834.342H427.916C402.333 814.359 366.094 790.824 326.568 765.265C240.637 709.56 139.099 643.79 97.6453 581.868C90.6923 571.556 85.4397 561.293 81.6231 551.179C72.1004 525.768 72.0248 501.197 78.6 478.205C85.0996 455.36 98.1744 433.996 114.952 414.802C133.204 393.882 155.953 375.577 179.344 360.627C201.488 346.466 224.274 335.365 246.758 324.411C300.191 298.36 351.961 273.196 389.296 210.189C415.824 165.437 435.134 101.542 450.778 28.1238C452.743 18.9466 454.633 9.57196 456.484 0.0493164H457.542V0.147995Z" fill="#0061E4"/>
<path d="M507.952 0.148033C505.874 8.23981 503.795 16.2329 501.717 24.078C480.782 102.627 456.975 170.47 427.463 216.554C385.593 281.88 332.349 303.541 277.216 325.99C254.618 335.168 231.681 344.542 209.083 357.075C182.896 371.679 157.124 390.576 136.907 412.78C120.772 430.394 108.113 450.229 101.424 471.544C94.8112 492.908 94.0932 515.752 101.953 539.781C105.468 550.587 110.682 561.688 117.975 572.888C162.263 641.816 280.088 717.356 375.126 778.242C407.964 799.359 438.157 818.651 461.586 835.427C480.933 845.295 499.45 853.436 516.53 860.985C582.886 890.293 628.232 910.325 618.936 986.951H617.878C627.174 911.263 582.131 891.379 516.228 862.317C499.072 854.768 480.517 846.529 461.245 836.661L461.17 836.562C437.665 819.836 407.548 800.494 374.634 779.475C279.483 718.491 161.583 642.853 117.144 573.776C109.889 562.428 104.598 551.228 101.008 540.274C93.0351 515.9 93.7531 492.661 100.479 471.05C107.206 449.439 119.94 429.506 136.227 411.694C156.52 389.392 182.329 370.446 208.668 355.841C231.341 343.259 254.24 333.934 276.914 324.658C331.858 302.258 384.913 280.696 426.593 215.567C456.068 169.631 479.8 102.035 500.734 23.5846C502.775 15.8875 504.778 8.04246 506.818 0.0986938H507.952V0.148033Z" fill="#0069E5"/>
<path d="M557.644 0.14801C555.679 6.66091 553.714 13.1245 551.711 19.588C525.486 103.17 497.22 174.664 464.76 221.932C418.582 289.281 364.129 307.34 307.522 326.04C284.66 333.638 261.534 341.286 238.445 352.387C209.386 366.252 180.515 385.544 158.258 408.931C142.538 425.46 130.106 444.061 123.266 464.241C116.426 484.372 115.066 506.131 121.528 529.124C124.815 540.718 130.03 552.659 137.55 564.796C185.503 642.655 326.076 730.974 431.241 797.139C454.633 811.892 476.285 825.51 494.839 837.697C517.853 848.946 540.072 857.877 560.591 866.314C629.744 894.29 679.851 914.569 679.625 987H678.604C678.793 915.605 628.988 895.375 560.289 867.597C539.77 859.258 517.512 850.278 494.424 838.98H494.348C475.832 826.793 454.179 813.175 430.75 798.422C325.472 732.208 184.861 643.79 136.719 565.685C129.161 553.399 123.871 541.36 120.583 529.617C113.97 506.328 115.33 484.175 122.321 463.649C129.236 443.272 141.782 424.572 157.616 407.944C179.986 384.409 208.97 365.068 238.029 351.055C261.231 339.953 284.396 332.306 307.295 324.707C363.714 306.057 417.978 288.048 463.966 220.994C496.275 173.924 524.503 102.578 550.728 19.0453C552.618 12.8284 554.583 6.51289 556.51 0.14801H557.644V0.14801Z" fill="#0070E6"/>
<path d="M606.844 0.148033C605.106 5.13139 603.405 10.1147 601.592 14.9994C570.114 103.664 537.314 178.858 502.019 227.359C451.496 296.584 395.909 310.942 337.904 325.892C314.815 331.862 291.387 337.931 267.693 347.651C235.989 360.528 203.944 379.968 179.608 404.54C164.266 419.983 152.061 437.548 144.956 456.692C137.89 475.886 135.963 496.707 141.253 518.762C144.238 531.048 149.34 543.679 157.087 556.754C210.33 646.75 385.366 753.177 499.979 822.944C509.388 828.618 518.382 834.144 527.942 839.966C554.658 852.499 580.543 862.169 604.539 871.1C676.299 898.089 730.752 918.516 738.688 986.951H737.63C729.657 919.503 675.544 899.224 604.275 872.432C580.279 863.502 554.394 853.683 527.64 841.249L527.564 841.151C519.515 836.266 509.766 830.345 499.601 824.128C384.875 754.263 209.688 647.737 156.293 557.543C148.509 544.32 143.332 531.492 140.346 519.157C134.942 496.608 136.908 475.491 144.05 456.051C151.192 436.611 163.586 418.996 179.042 403.356C203.453 378.735 235.573 359.246 267.429 346.269C291.122 336.549 314.626 330.48 337.753 324.51C395.607 309.609 451.043 295.301 501.301 226.274C536.52 178.019 569.245 102.874 600.685 14.4073C602.423 9.67068 604.086 4.93403 605.748 0.0986938H606.844V0.148033Z" fill="#0077E8"/>
<path d="M655.667 0.14801C654.306 3.65116 652.984 7.05563 651.624 10.4601C614.855 104.157 577.596 183.101 539.392 232.688C484.599 303.886 427.916 314.494 368.588 325.595C345.122 330.036 321.277 334.477 296.979 342.766C262.63 354.509 227.411 373.949 201.11 399.31C186.07 414.013 173.902 430.641 166.647 448.896C159.392 467.152 156.935 487.135 161.243 508.499C163.851 521.377 168.876 534.748 176.699 548.613C205.153 598.644 270.716 654.497 344.517 706.6C418.242 758.753 500.205 807.155 561.196 842.285C591.54 855.903 621.053 866.215 648.449 875.787C722.666 901.839 780.973 922.315 796.278 987H795.144C779.802 923.351 721.834 903.023 648.147 877.119C620.788 867.547 591.2 857.235 560.856 843.568C499.79 808.438 417.864 760.035 343.988 707.883C270.149 655.681 204.435 599.729 175.867 549.452C167.894 535.488 162.83 521.969 160.223 508.894C155.877 487.234 158.334 466.955 165.702 448.354C173.071 429.851 185.277 413.076 200.505 398.323C226.882 372.765 262.289 353.325 296.715 341.532C321.05 333.194 344.933 328.704 368.362 324.362C427.576 313.26 484.032 302.603 538.636 231.751C576.727 182.312 613.911 103.466 650.641 9.91736C651.964 6.71025 653.211 3.4538 654.458 0.19735H655.667V0.14801Z" fill="#007EE9"/>
<path d="M704.036 0.148033C703.205 2.0723 702.373 4.0459 701.58 5.97017C659.521 104.65 617.803 187.344 576.651 238.066C517.664 310.991 459.998 317.997 399.272 325.299C375.466 328.112 351.243 331.072 326.265 338.029C289.422 348.341 250.915 367.535 222.649 393.833C207.761 407.648 195.706 423.536 188.262 441.051C180.818 458.518 177.908 477.81 181.309 498.483C183.501 511.854 188.338 525.916 196.311 540.422C219.815 583.546 270.527 631.406 331.216 677.736C414.955 741.779 517.777 802.813 594.487 844.506C628.27 859.209 661.448 870.162 692.133 880.228C768.616 905.49 830.363 925.818 852.393 986.901H851.222C829.153 926.854 767.785 906.575 691.906 881.56C661.146 871.445 628.006 860.492 594.147 845.838L594.072 845.739C517.361 804.096 414.539 743.013 330.686 678.969C269.885 632.491 219.097 584.582 195.48 541.261C187.393 526.508 182.518 512.299 180.289 498.681C176.85 477.711 179.76 458.222 187.317 440.41C194.875 422.598 207.081 406.711 222.083 392.698C250.462 366.301 289.081 347.009 326.114 336.697C351.092 329.691 375.39 326.73 399.235 323.869C459.696 316.566 517.172 309.659 575.971 237.079C616.971 186.407 658.614 103.812 700.635 5.23007C701.353 3.50316 702.109 1.8256 702.827 0.0986938H704.036V0.148033Z" fill="#0085EA"/>
<path d="M752.103 0.148033L751.498 1.48022C704.187 105.144 658.01 191.538 614.024 243.543C550.691 318.195 492.081 321.5 430.146 324.905C405.923 326.286 381.247 327.618 355.589 333.293C316.213 341.927 274.571 360.824 244.34 387.863C229.527 401.086 217.51 416.233 209.839 433.108C202.168 449.982 198.843 468.534 201.45 488.665C203.226 502.48 207.874 517.183 215.923 532.429C239.805 577.97 293.465 629.185 358.196 678.673C443.069 743.408 546.912 805.182 627.703 846.825C665 862.613 701.731 874.011 735.816 884.668C814.114 909.141 878.996 929.42 907.149 987H905.902C877.711 930.456 813.32 910.325 735.589 886.001C701.429 875.343 664.698 863.847 627.325 848.157H627.25C546.458 806.366 442.54 744.592 357.63 679.759C292.747 630.172 238.974 578.809 214.978 533.12C206.892 517.677 202.168 502.875 200.392 488.813C197.709 468.386 201.11 449.489 208.894 432.318C216.641 415.296 228.771 400 243.697 386.629C274.042 359.492 315.873 340.546 355.4 331.862C381.096 326.188 405.848 324.806 430.07 323.474C491.854 320.069 550.275 316.813 613.306 242.457C657.178 190.65 703.356 104.305 750.591 0.740113L750.894 0.0986938H752.103V0.148033Z" fill="#008CEB"/>
<path d="M799.905 0.14801C747.908 107.364 697.725 196.324 651.359 248.872C583.831 325.349 524.314 324.954 461.094 324.461C436.456 324.313 411.289 324.165 384.875 328.507C343.119 335.414 298.188 353.769 265.993 381.498C251.293 394.08 239.201 408.684 231.303 425.016C223.443 441.347 219.702 459.357 221.591 478.846C223.027 493.204 227.411 508.351 235.46 524.288C259.569 572.049 316.025 626.62 384.762 679.167C470.806 744.839 575.971 807.204 660.882 849.094C701.655 865.821 741.862 877.761 779.424 888.862C859.346 912.644 926.836 932.775 960.582 986.901H959.221C925.476 933.663 858.477 913.779 779.197 890.145C741.635 879.044 701.353 867.005 660.542 850.278C575.631 808.487 470.352 746.023 384.233 680.252C315.382 627.656 258.775 572.938 234.553 525.028C226.466 508.845 222.007 493.549 220.571 479.043C218.606 459.159 222.423 440.805 230.434 424.276C238.407 407.796 250.537 393.043 265.35 380.314C297.735 352.486 342.779 334.082 384.724 327.174C411.214 322.734 436.456 322.882 461.057 323.03C524.088 323.474 583.415 323.869 650.603 247.835C696.856 195.486 746.775 106.969 798.62 0.14801H799.905V0.14801Z" fill="#0094ED"/>
<path d="M847.519 0.148033C791.101 110.423 737.29 201.258 688.694 254.25C616.972 332.404 556.586 328.359 492.194 324.017C467.065 322.388 441.369 320.662 414.161 323.77C370.024 328.704 321.92 346.516 287.721 374.738C273.021 386.925 260.929 400.987 252.805 416.875C244.718 432.664 240.599 450.229 241.921 469.323C242.866 484.027 247.023 499.717 255.072 516.246C279.294 566.227 338.433 624.005 411.1 679.512C498.391 746.171 605.144 809.425 694.135 851.364C738.31 869.028 782.107 881.412 822.956 893.106C904.201 916.197 973.996 935.982 1012.73 986.951H1011.26C972.561 936.969 903.294 917.332 822.729 894.389C781.842 882.794 738.046 870.311 693.758 852.647C604.728 810.609 497.9 747.355 410.571 680.598C337.791 625.041 278.501 567.066 254.165 516.887C246.078 500.161 241.846 484.273 240.826 469.323C239.503 449.883 243.698 432.022 251.935 416.036C260.098 400.05 272.341 385.791 287.154 373.603C321.504 345.184 369.76 327.372 414.085 322.339C441.331 319.231 467.065 320.958 492.156 322.635C556.359 326.928 616.594 330.974 688.014 253.164C736.383 200.321 790.005 109.88 846.196 0.0986938H847.519V0.148033Z" fill="#009BEE"/>
<path d="M894.83 0.148033C834.179 113.334 776.816 206.143 725.991 259.677C650.187 339.46 588.819 331.763 523.256 323.622C497.711 320.415 471.486 317.158 443.523 318.935C397.043 321.944 345.764 338.967 309.563 367.732C294.787 379.475 282.62 393.043 274.268 408.536C265.955 423.93 261.42 441.002 262.138 459.801C262.743 474.849 266.673 490.934 274.646 508.105C298.944 560.158 360.577 621.143 437.061 679.512C525.712 747.256 634.316 811.349 727.351 853.584C774.889 872.235 822.2 885.113 866.488 897.152C948.716 919.601 1020.44 939.091 1063.63 986.901H1061.97C1018.81 940.127 947.696 920.687 866.224 898.484C821.936 886.445 774.587 873.518 727.049 854.916H726.974C633.901 812.632 525.297 748.539 436.494 680.696C359.897 622.278 298.075 561.145 273.739 508.845C265.653 491.526 261.723 475.145 261.118 459.899C260.4 440.805 264.935 423.388 273.361 407.747C281.826 392.106 294.145 378.389 308.958 366.548C345.311 337.733 396.854 320.563 443.447 317.602C471.486 315.727 497.787 318.984 523.37 322.191C588.706 330.431 649.81 338.029 725.349 258.542C775.985 205.255 833.121 112.841 893.583 0.0986938H894.83V0.148033Z" fill="#00A2EF"/>
<path d="M942.027 0.14801C877.145 116.245 816.343 211.028 763.326 265.006C683.403 346.417 621.204 335.266 554.432 323.227C528.358 318.491 501.603 313.655 472.771 314.198C424.099 315.037 369.571 331.27 331.367 360.528C316.554 371.877 304.235 385.1 295.619 400.148C287.041 415.148 282.242 431.923 282.468 450.426C282.582 465.82 286.285 482.349 294.183 500.013C318.443 554.188 382.494 618.33 462.644 679.512C552.844 748.342 663.376 813.372 760.492 855.953C811.431 875.442 862.256 888.813 909.869 901.247C992.777 923.006 1065.97 942.298 1113.21 986.951H1111.36C1064.27 943.186 991.757 924.19 909.68 902.628C862.029 890.096 811.128 876.774 760.19 857.235H760.114C662.998 814.655 552.353 749.526 462.077 680.598C381.814 619.367 317.574 554.978 293.238 500.654C285.189 482.793 281.524 466.018 281.335 450.377C281.221 431.677 286.096 414.605 294.787 399.26C303.479 384.113 315.911 370.742 330.838 359.344C369.155 330.036 423.91 313.754 472.771 312.816C501.641 312.274 528.471 317.158 554.545 321.846C621.09 333.885 683.101 345.085 762.646 263.97C815.474 210.189 876.087 115.801 940.705 0.19735H942.027V0.14801Z" fill="#00A9F0"/>
<path d="M989.036 0.14801C920.072 119.206 855.87 215.912 800.623 270.384C716.582 353.522 653.513 338.671 585.607 322.832C559.004 316.517 531.683 310.152 502.133 309.412C451.194 308.08 393.529 323.474 353.284 353.078C338.395 364.031 325.85 376.959 317.045 391.711C308.24 406.415 303.063 422.944 302.761 441.15C302.534 456.84 305.897 473.863 313.757 491.97C337.904 548.07 404.261 615.37 488.075 679.315C579.826 749.378 692.473 815.346 793.708 858.272C847.972 878.698 902.312 892.464 953.326 905.342C1036.54 926.46 1110.83 945.258 1161.62 987H1159.58C1108.98 946.196 1035.44 927.545 953.137 906.724C902.085 893.747 847.745 879.981 793.406 859.554C692.133 816.678 579.334 750.562 487.546 680.45C403.656 616.406 337.148 548.909 312.888 492.661C304.99 474.257 301.514 457.087 301.778 441.15C302.005 422.648 307.295 405.773 316.251 390.873C325.169 376.021 337.791 362.995 352.868 351.844C393.226 322.24 451.118 306.797 502.17 308.08C531.872 308.771 559.231 315.234 585.834 321.451C653.513 337.388 716.355 352.042 800.056 269.298C855.039 214.975 919.014 118.712 987.751 0.14801H989.036V0.14801Z" fill="#00B0F2"/>
<path d="M1035.93 0.148033C962.887 122.018 895.283 220.698 837.996 275.811C749.798 360.528 685.898 342.174 616.858 322.438C589.726 314.691 561.876 306.649 531.418 304.626C478.401 301.073 417.524 315.481 375.315 345.332C360.199 355.989 347.54 368.62 338.433 383.077C329.326 397.533 323.847 413.865 323.129 431.874C322.524 447.811 325.623 465.129 333.369 483.78C357.403 541.755 425.913 612.163 513.28 678.821C606.693 750.167 721.683 817.22 826.962 860.492C884.551 881.757 942.405 895.918 996.745 909.289C1079.96 929.667 1154.97 948.07 1208.7 986.901H1206.51C1153 949.008 1078.75 930.802 996.556 910.621C942.179 897.25 884.324 883.09 826.659 861.824V861.725C721.267 818.454 606.24 751.302 512.827 680.006C425.271 613.199 356.609 542.643 332.463 484.421C324.678 465.623 321.504 447.959 322.184 431.825C322.902 413.47 328.495 396.941 337.64 382.238C346.86 367.633 359.67 354.904 374.899 344.098C417.26 314.198 478.326 299.643 531.532 303.244C562.065 305.366 590.028 313.359 617.16 321.106C685.935 340.743 749.647 359.048 837.391 274.627C894.527 219.761 961.828 121.574 1034.65 0.0986938H1035.93V0.148033Z" fill="#00B7F3"/>
<path d="M1082.64 0.14801C1005.63 124.929 934.772 225.583 875.293 281.189C783.052 367.535 718.244 345.677 648.071 322.043C620.448 312.816 592.031 303.146 560.667 299.84C505.571 293.919 441.596 307.389 397.383 337.536C382.079 347.947 369.117 360.282 359.784 374.59C350.45 388.8 344.593 404.885 343.459 422.746C342.439 438.979 345.311 456.643 352.906 475.738C376.751 535.587 447.339 608.907 538.258 678.279C633.372 750.907 750.629 819.095 860.102 862.762C921.055 884.915 982.348 899.52 1040.05 913.286C1122.85 932.923 1198.23 950.883 1254.54 986.951H1252.08C1196.15 951.82 1121.64 934.107 1039.86 914.618C982.083 900.852 920.79 886.247 859.8 864.094C750.289 820.329 632.88 752.141 537.729 679.562C446.697 609.992 375.957 536.426 351.961 476.379C344.29 457.038 341.381 439.078 342.439 422.598C343.572 404.49 349.467 388.109 358.99 373.653C368.437 359.295 381.474 346.762 396.854 336.302C441.293 306.057 505.458 292.636 560.818 298.557C592.182 301.912 620.675 311.435 648.374 320.76C718.282 344.295 782.863 366.054 874.764 280.104C933.979 224.646 1004.61 124.485 1081.39 0.14801H1082.64Z" fill="#00BFF4"/>
<path d="M1129.27 0.14801C1048.36 127.791 974.223 230.369 912.628 286.518C816.268 374.492 750.705 349.131 679.398 321.698C651.208 310.892 622.149 299.692 590.028 295.054C532.855 286.715 465.78 299.1 419.489 329.395C403.958 339.559 390.808 351.795 381.172 365.857C371.536 379.919 365.338 395.856 363.865 413.668C362.504 430.147 365.036 448.107 372.556 467.596C396.249 529.272 468.765 605.65 563.161 677.687C660.05 751.647 779.84 820.97 893.394 865.031C957.596 888.122 1022.4 903.122 1083.47 917.233C1165.55 936.18 1240.86 953.597 1299.2 986.951H1296.52C1238.67 954.534 1164.3 937.314 1083.28 918.565C1022.21 904.405 957.407 889.405 893.167 866.363H893.091C779.499 822.253 659.559 752.832 562.632 678.871C468.123 606.785 395.418 530.16 371.611 468.238C364.054 448.502 361.446 430.246 362.882 413.52C364.356 395.51 370.629 379.278 380.454 364.969C390.203 350.759 403.467 338.473 419.074 328.309C465.553 297.866 532.855 285.433 590.217 293.722C622.489 298.409 651.586 309.56 679.776 320.464C750.78 347.799 816.154 373.061 912.099 285.482C973.467 229.481 1047.38 127.298 1127.98 0.14801H1129.27V0.14801Z" fill="#00C6F5"/>
<path d="M1175.82 0.14801C1091.03 130.603 1013.67 235.106 949.925 291.995C849.521 381.498 783.051 352.733 710.649 321.451C681.967 309.116 652.341 296.287 619.314 290.268C560.175 279.611 490.002 290.811 441.671 321.254C425.913 331.22 412.461 343.259 402.447 357.173C392.508 371.087 386.009 386.925 384.195 404.638C382.419 421.266 384.724 439.621 392.093 459.505C415.521 523.005 490.04 602.295 587.837 676.996C686.502 752.289 808.861 822.747 926.572 867.35C994.1 891.181 1062.38 906.576 1126.77 921.131C1207.72 939.387 1282.61 956.261 1342.4 986.951H1339.52C1280.23 957.1 1206.39 940.472 1126.59 922.463C1062.12 907.957 993.873 892.563 926.345 868.682C808.521 824.03 686.049 753.522 587.383 678.18C489.36 603.331 414.766 523.844 391.186 460.146C383.741 439.917 381.361 421.365 383.212 404.441C385.102 386.481 391.677 370.396 401.729 356.285C411.78 342.223 425.346 330.085 441.255 320.069C489.738 289.528 560.138 278.278 619.541 288.985C652.644 294.955 682.308 307.784 711.065 320.217C783.203 351.4 849.484 379.968 949.396 290.86C1012.88 234.218 1089.97 130.159 1174.5 0.19735H1175.82V0.14801Z" fill="#00CDF6"/>
<path d="M1222.23 0.14801C1133.61 133.465 1053.05 239.941 987.222 297.373C882.851 388.455 815.474 356.285 741.938 321.254C712.727 307.29 682.497 292.834 648.638 285.581C587.459 272.456 514.263 282.472 463.928 313.112C447.868 322.832 434.113 334.625 423.835 348.489C413.594 362.305 406.755 378.093 404.563 395.708C402.409 412.582 404.487 431.233 411.705 451.512C434.907 516.69 511.202 598.989 612.437 676.206C712.954 752.881 837.92 824.622 959.864 869.669C1030.6 894.438 1102.33 910.227 1170.12 925.078C1249.55 942.544 1323.58 958.876 1384.34 987H1381.13C1321.01 959.715 1248.11 943.63 1169.93 926.46C1102.14 911.559 1030.38 895.77 959.561 871.001C837.58 825.855 712.463 754.115 611.908 677.391C510.559 600.025 434.038 517.578 410.76 452.054C403.429 431.529 401.351 412.681 403.505 395.51C405.772 377.551 412.687 361.564 423.079 347.552C433.433 333.589 447.302 321.698 463.475 311.879C514.074 281.189 587.497 271.075 648.865 284.199C682.837 291.501 713.067 305.958 742.353 319.921C815.625 354.904 882.737 386.975 986.769 296.238C1052.33 239.053 1132.56 132.972 1220.87 0.19735H1222.23V0.14801Z" fill="#00D4F8"/>
<path d="M1268.56 0.14801C1176.2 136.277 1092.54 244.678 1024.63 302.702C916.142 395.412 847.896 359.838 773.264 320.908C743.525 305.465 712.727 289.38 677.924 280.745C614.855 265.105 538.674 273.986 486.261 304.577C469.823 314.198 455.804 325.842 445.148 339.608C434.605 353.275 427.463 368.965 424.931 386.679C422.437 403.701 424.213 422.648 431.317 443.321C454.217 510.226 532.363 595.387 636.924 675.269C739.293 753.374 866.98 826.299 993.079 871.939C1067.11 897.497 1142.34 913.681 1213.39 928.877C1291 945.604 1363.71 961.195 1424.89 986.901H1421.45C1360.99 962.034 1289.45 946.64 1213.23 930.259C1142.12 914.963 1066.96 898.78 992.815 873.222C866.639 827.533 738.877 754.559 636.47 676.404C531.683 596.423 453.348 510.966 430.372 443.864C423.155 422.894 421.379 403.75 423.873 386.383C426.48 368.423 433.735 352.486 444.467 338.621C455.161 324.806 469.332 312.964 485.808 303.343C538.485 272.654 614.893 263.723 678.189 279.413C712.992 288.048 743.903 304.133 773.718 319.675C848.048 358.456 916.067 393.882 1024.07 301.567C1091.75 243.74 1175.14 135.833 1267.23 0.14801H1268.56V0.14801Z" fill="#00DBF9"/>
<path d="M1314.85 0.14801C1218.75 139.139 1131.91 249.414 1061.93 308.08C949.396 402.418 880.319 363.39 804.629 320.661C774.285 303.59 742.92 285.926 707.286 275.959C642.29 257.852 563.161 265.45 508.594 296.09C491.854 305.514 477.457 317.06 466.536 330.727C455.577 344.345 448.133 360.035 445.223 377.748C442.427 395.017 443.901 414.21 450.891 435.229C473.489 503.763 553.374 591.884 661.297 674.233C765.556 753.818 896.001 828.026 1026.26 874.159C1103.61 900.556 1182.25 917.134 1256.62 932.726C1331.97 948.564 1402.93 963.563 1464.07 986.901H1460.33C1400.06 964.303 1330.3 949.699 1256.5 934.157C1181.98 918.466 1103.38 901.888 1025.96 875.491C895.585 829.358 765.064 755.052 660.73 675.417C552.618 592.92 472.544 504.651 449.871 435.723C442.842 414.457 441.293 395.017 444.165 377.452C447.075 359.492 454.708 343.555 465.78 329.74C476.776 315.974 491.325 304.33 508.141 294.857C562.896 264.068 642.327 256.47 707.437 274.578C743.185 284.594 774.625 302.307 805.044 319.428C880.508 362.009 949.358 400.839 1061.36 306.994C1131.12 248.477 1217.58 138.596 1313.41 0.14801H1314.85Z" fill="#00E2FA"/>
<path d="M1361.03 0.14801C1261.23 141.952 1171.33 254.151 1099.23 313.507C982.688 409.326 912.741 366.943 835.88 320.513C805.007 301.814 773.038 282.423 736.496 271.173C669.724 250.598 587.61 256.963 530.965 287.505C513.885 296.732 499.072 308.228 487.773 321.846C476.512 335.464 468.728 351.154 465.516 368.916C462.379 386.333 463.626 405.724 470.39 427.137C492.648 497.447 574.233 588.381 685.52 673.295C791.667 754.361 924.909 829.802 1059.4 876.478C1140.04 903.763 1222.12 920.687 1299.81 936.673C1372.4 951.672 1441.25 965.833 1501.79 986.951H1497.67C1438.15 966.573 1370.74 952.709 1299.69 938.005C1221.85 922.019 1139.77 905.046 1059.17 877.81C924.569 831.085 791.252 755.595 684.991 674.48C573.515 589.466 491.778 498.237 469.446 427.68C462.53 406.02 461.283 386.284 464.495 368.62C467.707 350.512 475.605 334.575 487.055 320.81C498.467 307.142 513.356 295.547 530.625 286.222C587.383 255.533 669.762 249.168 736.761 269.841C773.416 281.091 805.422 300.531 836.333 319.28C912.93 365.61 982.65 407.796 1098.7 312.372C1170.53 253.263 1260.09 141.409 1359.59 0.14801H1361.03V0.14801Z" fill="#00EAFB"/>
<path d="M1407.13 0.147995C1303.62 144.764 1210.7 258.986 1136.52 318.885C1016.02 416.332 945.126 370.544 867.169 320.267C835.766 299.988 803.193 279.018 765.82 266.437C697.159 243.296 612.172 248.329 553.487 278.772C535.915 287.949 520.762 299.297 509.086 312.866C497.409 326.484 489.284 342.174 485.77 360.035C482.256 377.6 483.314 397.336 489.927 418.996C511.844 490.934 595.092 584.73 709.629 672.161C817.817 754.657 953.855 831.529 1092.58 878.748C1176.43 906.822 1261.94 924.141 1343.04 940.522C1402.37 952.511 1459.28 964.007 1511.5 978.908V980.29C1459.24 965.389 1402.25 953.893 1342.92 941.804C1261.76 925.423 1176.24 908.105 1092.35 880.031C953.515 832.713 817.363 755.891 709.175 673.246C594.374 585.667 511.013 491.674 488.944 419.49C482.294 397.484 481.198 377.452 484.788 359.591C488.378 341.483 496.615 325.546 508.405 311.78C520.195 298.113 535.5 286.617 553.109 277.44C611.946 246.849 697.31 241.767 766.085 265.006C803.646 277.588 836.182 298.656 867.66 318.935C945.315 369.064 1015.94 414.654 1136 317.602C1209.91 257.852 1302.57 144.073 1405.69 0.0493164H1407.13V0.147995Z" fill="#00F1FD"/>
<path d="M1453.19 0.14801C1346.06 147.527 1250.08 263.624 1173.93 324.214C1049.38 423.19 977.548 374.196 898.571 320.119C866.602 298.31 833.461 275.614 795.144 261.601C724.744 235.945 636.848 239.596 576.084 270.088C558.097 279.018 542.528 290.367 530.512 303.985C518.495 317.504 509.992 333.293 506.1 351.203C502.284 369.015 503.077 388.899 509.539 410.954C531.078 484.471 615.989 581.128 733.813 671.026C843.966 755.101 982.877 833.256 1125.79 881.067C1212.93 909.98 1301.89 927.693 1386.34 944.37C1429.54 953.005 1471.56 961.294 1511.54 970.767V972.149C1471.48 962.675 1429.42 954.287 1386.15 945.752C1301.7 928.976 1212.74 911.263 1125.57 882.35C982.499 834.49 843.475 756.335 733.284 672.259C615.271 582.214 530.171 485.211 508.519 411.398C501.981 389.096 501.188 368.916 505.08 350.808C509.01 332.602 517.626 316.616 529.794 302.85C541.924 289.183 557.644 277.834 575.669 268.756C636.659 238.313 724.782 234.563 795.446 260.269C833.839 274.232 867.017 297.028 899.062 318.836C977.775 372.765 1049.31 421.611 1173.33 323.03C1249.32 262.687 1344.97 146.984 1451.76 0.14801H1453.19Z" fill="#00F8FE"/>
<path d="M1499.18 0.148022C1388.5 150.339 1289.45 268.361 1211.23 329.592C1082.64 430.197 1009.97 377.748 929.86 319.971C897.362 296.485 863.617 272.209 824.468 256.865C752.292 228.593 661.524 231.01 598.682 261.207C580.279 270.088 564.294 281.337 551.787 294.906C539.392 308.425 530.549 324.263 526.393 342.371C522.274 360.232 522.803 380.462 529.113 402.813C550.313 477.958 636.773 577.428 757.885 669.792C870.078 755.397 1011.86 834.835 1159.05 883.336C1249.44 913.039 1341.79 931.048 1429.57 948.219C1457.5 953.646 1484.86 959.024 1511.57 964.6V965.981C1484.78 960.307 1457.35 954.929 1429.46 949.502C1341.64 932.43 1249.21 914.322 1158.82 884.619C1011.52 836.118 869.587 756.631 757.431 671.026C636.093 578.414 549.444 478.698 528.131 403.257C521.783 380.56 521.216 360.134 525.41 341.878C529.643 323.523 538.636 307.537 551.182 293.771C563.728 280.104 579.863 268.756 598.38 259.874C661.449 229.481 752.443 227.162 824.808 255.434C864.07 270.729 897.815 295.153 930.389 318.589C1010.24 376.268 1082.68 428.519 1210.74 328.309C1288.77 267.325 1387.44 149.698 1497.82 0H1499.18V0.148022Z" fill="#00FFFF"/>
<path d="M0.0378647 952.758C66.9234 958.284 118.92 968.399 143.332 986.951H141.555C116.917 969.139 65.6763 959.468 0.0378647 954.09V952.758Z" fill="#0027DA"/>
<path d="M0.0378647 907.069C86.8001 920.687 147.904 941.804 154.215 979.007C154.63 981.572 154.819 984.237 154.744 986.95H153.723C153.799 984.286 153.61 981.819 153.194 979.352C147.035 942.643 86.3088 921.822 0.0378647 908.352V907.069Z" fill="#002EDB"/>
<path d="M0.0378647 861.923C83.1724 881.363 142.16 907.612 150.171 948.071C152.476 959.962 150.511 972.938 145.334 986.901H144.201C149.378 972.987 151.456 960.11 149.151 948.416C141.178 908.5 82.6811 882.547 0.0378647 863.156V861.923Z" fill="#0034DC"/>
<path d="M0.0378495 817.221C79.5447 842.384 136.378 873.567 146.09 917.233C150.738 937.956 144.654 961.59 132.826 986.951H131.542C143.52 961.639 149.642 938.153 145.032 917.578C135.434 874.554 79.0534 843.667 6.10352e-05 818.651V817.221H0.0378495Z" fill="#003BDD"/>
<path d="M0.0378647 773.16C75.9548 803.849 130.672 839.67 142.009 886.297C149.264 916.296 138.684 950.488 121.49 986.901H120.318C137.588 950.538 148.244 916.345 141.026 886.692C129.765 840.608 75.5013 805.034 0.0378647 774.591V773.16H0.0378647Z" fill="#0041DE"/>
<path d="M0.0378647 729.74C72.4782 765.66 125.004 805.971 137.928 855.36C148.282 894.833 133.242 939.979 113.403 986.901H112.232C132.108 939.979 147.224 894.98 136.983 855.804C124.173 806.908 71.987 766.844 0.0378647 731.073V729.74Z" fill="#0048E0"/>
<path d="M0.0378647 687.012C68.9639 727.816 119.487 772.469 133.884 824.474C147.526 873.912 128.707 929.667 109.549 986.507L109.36 986.951H108.226L108.566 985.964C127.612 929.42 146.355 873.863 132.864 824.967C118.656 773.407 68.4727 729.05 0.0378647 688.492V687.012Z" fill="#004EE1"/>
<path d="M0.0378647 644.875C65.4496 690.416 114.008 739.066 129.765 793.587C144.352 843.864 131.126 899.125 117.749 954.583C115.179 965.389 112.572 976.194 110.191 986.901H109.133C111.514 976.046 114.197 965.093 116.804 954.189C130.068 898.878 143.294 843.913 128.821 794.031C113.176 740.003 65.0339 691.749 0.0378647 646.454V644.875Z" fill="#0055E2"/>
<path d="M0.0378647 603.627C62.0487 653.609 108.566 705.86 125.722 762.7C141.026 813.421 132.864 867.597 124.777 921.575C121.452 943.482 118.164 965.34 116.464 986.901H115.444C117.106 965.241 120.432 943.334 123.719 921.328C131.806 867.547 139.968 813.569 124.74 763.193C107.735 706.896 61.5574 654.892 0.0378647 605.255V603.627Z" fill="#005BE3"/>
<path d="M0.0378647 563.218C58.7233 617.245 103.276 672.95 121.603 731.813C137.361 782.386 133.847 835.18 130.295 887.382C128.027 921.081 125.76 954.534 128.745 986.901H127.687C124.702 954.435 126.969 921.032 129.274 887.284C132.789 835.23 136.341 782.534 120.658 732.257C102.444 673.887 58.232 618.528 0.0378647 564.846V563.218Z" fill="#0062E4"/>
<path d="M0.0378647 523.696C55.3979 581.424 98.061 640.188 117.56 700.926C133.582 750.76 133.998 801.777 134.338 851.956C134.754 898.287 135.094 943.877 147.828 986.901H146.695C134.036 943.877 133.658 898.237 133.318 851.956C132.902 801.925 132.486 751.006 116.577 701.469C97.2675 641.175 54.9822 582.806 0.0378647 525.374V523.696Z" fill="#0068E5"/>
<path d="M0.0378723 485.063C52.1859 546.146 92.9218 607.673 113.516 669.99C129.463 718.491 133.166 767.338 136.794 815.148C141.367 875.294 145.826 933.663 174.469 986.951H173.147C144.768 933.565 140.346 875.294 135.774 815.296C132.146 767.584 128.443 718.886 112.496 670.532C92.166 608.66 51.6946 547.626 0.0378723 486.938V485.063Z" fill="#006FE6"/>
<path d="M0.0378647 447.614C49.0117 511.558 88.0093 575.454 109.398 639.152C125.042 685.532 131.428 731.862 137.55 776.91C147.828 852.104 157.653 923.844 209.688 986.95H208.139C156.671 923.844 146.77 852.203 136.567 777.156C130.37 732.158 124.059 686.025 108.491 639.695C87.1779 576.539 48.5582 513.039 0.0756531 449.538V447.614H0.0378647Z" fill="#0075E7"/>
<path d="M0.0378647 411.151C45.913 477.662 83.0968 543.482 105.354 608.216C120.356 651.981 128.632 695.153 136.605 737.142C154.101 828.964 170.464 914.865 254.807 986.951H252.918C169.443 914.865 153.043 829.161 135.623 737.536C127.649 695.597 119.449 652.474 104.447 608.808C82.341 544.567 45.4973 479.241 0.0378647 413.174V411.151Z" fill="#007CE8"/>
<path d="M0.0378723 375.972C42.9277 444.505 78.3355 511.854 101.273 577.378C115.444 617.689 124.777 657.309 133.884 695.794C159.996 806.218 183.879 906.921 311.528 986.95H309.072C182.745 906.822 158.938 806.366 132.864 696.189C123.833 657.802 114.423 618.182 100.328 577.921C77.5797 512.94 42.5121 446.133 0.0378723 378.143V375.972Z" fill="#0082E9"/>
<path d="M0.0378723 342.075C40.018 412.089 73.7631 480.524 97.2297 546.442C110.153 582.707 119.903 618.232 129.425 652.721C164.417 779.475 195.48 892.168 363.638 977.921H363.714C368.059 980.931 372.594 983.99 377.242 986.951H374.861C370.893 984.385 367.001 981.819 363.26 979.204C194.724 893.254 163.548 780.314 128.481 653.263C118.958 618.775 109.209 583.348 96.285 547.133C73.0073 481.658 39.6023 413.816 0.0378723 344.345V342.075Z" fill="#0089EB"/>
<path d="M0.0378647 309.461C37.2217 380.462 69.304 449.538 93.1107 515.604C104.485 547.083 114.008 577.822 123.228 607.821C165.891 746.072 203.037 866.413 393.944 955.916H394.02C411.856 966.622 431.695 976.984 453.423 986.901H450.287C429.692 977.329 410.722 967.412 393.642 957.149C202.244 867.498 165.06 746.812 122.321 608.265C113.101 578.365 103.578 547.577 92.2038 516.098C68.5861 450.722 36.8816 382.238 0.0378647 311.928V309.461Z" fill="#008FEC"/>
<path d="M0.0378647 278.278C34.6143 349.772 65.0339 418.898 89.0674 484.668C98.5901 510.72 107.092 536.13 115.368 560.899C165.891 711.929 208.932 840.608 424.288 933.959L424.364 934.058C460.603 952.955 503.455 970.57 551.938 986.951H547.781C500.886 970.964 459.28 953.695 423.948 935.292C208.176 841.743 165.022 712.817 114.423 561.491C106.11 536.722 97.6453 511.213 88.1227 485.359C64.316 420.181 34.1986 351.647 0.0378647 280.844V278.278Z" fill="#0096ED"/>
<path d="M0.0378723 248.625C32.0447 319.971 60.915 388.702 85.024 453.831C92.355 473.567 99.1947 493.007 105.921 511.953C164.493 677.144 213.165 814.606 454.632 912.052C515.812 939.93 592.031 964.896 679.738 986.951H674.259C588.668 965.192 514.225 940.62 454.33 913.385C212.409 815.79 163.586 678.032 104.939 512.595C98.2122 493.549 91.2969 474.109 84.0415 454.373C60.197 389.935 31.7046 321.895 0.0378723 251.24V248.625Z" fill="#009CEE"/>
<path d="M0.0378647 220.353C29.6262 290.959 56.9472 358.851 80.9051 422.894C85.742 435.772 90.3522 448.354 94.9624 460.837C161.621 641.668 215.772 788.603 484.939 890.046H485.014C556.019 918.565 643.499 943.679 743.298 965.784C776.439 973.185 810.902 980.24 846.612 986.901H839.281C806.14 980.586 774.058 974.023 743.109 967.165C643.272 944.962 555.716 919.848 484.674 891.329C215.054 789.689 160.828 642.556 94.0554 461.33C89.483 448.798 84.7595 436.167 79.9981 423.486C56.267 360.183 29.2483 292.982 0.0378647 223.215V220.353Z" fill="#00A3EF"/>
<path d="M0.0378647 193.611C27.3589 262.934 53.1684 329.493 76.8617 391.958L82.6433 407.253C157.464 605.453 216.641 762.404 515.283 868.09C653.626 917.036 843.286 954.978 1061.17 986.901H1051.84C837.845 955.274 651.472 917.677 515.056 869.422C215.961 763.588 156.633 606.39 81.6986 407.895L75.917 392.599C52.526 330.727 26.981 265.006 0.0378647 196.571V193.611Z" fill="#00A9F0"/>
</g>
</svg>
