<svg width="27" height="27" viewBox="0 0 27 27" fill="none" xmlns="http://www.w3.org/2000/svg">
<path d="M13.0138 26.8982C20.201 26.8982 26.0275 21.0717 26.0275 13.8844C26.0275 6.69715 20.201 0.870697 13.0138 0.870697C5.82646 0.870697 0 6.69715 0 13.8844C0 21.0717 5.82646 26.8982 13.0138 26.8982Z" fill="#F3BA2C"/>
<path d="M18.5976 17.3841L18.5958 17.385L13.0138 22.9679L7.43276 17.3868L7.43005 17.3841L9.48533 15.3342L13.0138 18.8618L16.5432 15.3324L18.5976 17.3841Z" fill="white"/>
<path d="M18.5956 10.3839L16.5431 12.4365L13.0137 8.90709L9.48519 12.4347L7.43262 10.3821L13.0137 4.80103L18.5956 10.3839Z" fill="white"/>
<path d="M20.0443 11.8329L17.9915 13.8857L20.0443 15.9385L22.0971 13.8857L20.0443 11.8329Z" fill="white"/>
<path d="M5.98311 11.8318L3.9303 13.8846L5.98311 15.9375L8.03593 13.8846L5.98311 11.8318Z" fill="white"/>
<path d="M15.0961 13.8836H15.097L13.0138 11.8004L11.4748 13.3393L11.2982 13.5159L10.9332 13.8809L10.9305 13.8836L10.9332 13.8863L13.0147 15.9677L15.0979 13.8845L15.0988 13.8836H15.0961Z" fill="white"/>
</svg>
