<svg width="26" height="29" viewBox="0 0 26 29" fill="none" xmlns="http://www.w3.org/2000/svg">
<path d="M25.0388 28.1954L22.039 25.5243L18.5602 22.2595L19.2947 24.8698H3.47583C1.89161 24.8641 0.611495 23.563 0.615549 21.9627V2.90413C0.613118 1.30499 1.89276 0.00572684 3.47583 0H22.1785C23.7616 0.00572684 25.0412 1.30499 25.0388 2.90413V28.1954ZM18.3913 15.5935C17.7718 16.4328 16.88 17.0253 15.8718 17.2675C16.2861 17.8017 16.7856 18.4057 16.79 18.4116C18.4752 18.4476 20.0708 17.6469 21.0606 16.2687C21.0099 13.4117 20.323 10.6028 19.0509 8.05053C17.9309 7.16277 16.5676 6.64467 15.1461 6.56656H15.1299L14.9346 6.79212C16.2043 7.13663 17.3884 7.74631 18.4104 8.58179C17.11 7.8597 15.683 7.40004 14.2088 7.22841C13.2719 7.12329 12.3258 7.13276 11.3912 7.25661C11.3251 7.25793 11.2592 7.26488 11.1943 7.27738H11.1532C10.0578 7.40479 8.98896 7.70524 7.98587 8.16776C7.48345 8.40075 7.17494 8.56992 7.16172 8.57585C7.1485 8.58179 7.16172 8.57585 7.16172 8.56547C8.24573 7.70423 9.49632 7.08195 10.8329 6.7387L10.686 6.56953H10.6772C9.25572 6.64783 7.89248 7.16591 6.77242 8.0535C5.49566 10.604 4.80851 13.414 4.76273 16.2717C5.74015 17.659 7.33801 18.4627 9.02303 18.4146C9.02303 18.4146 9.54895 17.7676 9.95882 17.2437C8.97602 16.9942 8.11003 16.4065 7.50989 15.5817C7.52017 15.5891 7.66561 15.6885 7.90066 15.8191C7.91645 15.8378 7.93597 15.853 7.95795 15.8636C7.97657 15.8766 7.99622 15.888 8.01672 15.8978C8.03995 15.9084 8.06209 15.9213 8.08283 15.9363C8.41059 16.1188 8.7508 16.2775 9.10089 16.4112C9.76649 16.6774 10.455 16.8811 11.1576 17.0196C11.7727 17.1368 12.3973 17.1964 13.0233 17.1977C13.6102 17.1976 14.1959 17.143 14.773 17.0345C15.4679 16.9112 16.1466 16.7081 16.7959 16.429C17.3567 16.2111 17.8918 15.9309 18.3913 15.5935ZM15.3973 14.9599C14.7582 15.0162 14.1503 14.6704 13.8667 14.0891C13.5831 13.5078 13.6818 12.8102 14.1153 12.3324C14.5488 11.8547 15.2282 11.6947 15.8261 11.9297C16.4241 12.1646 16.8179 12.7462 16.8179 13.3943C16.8503 14.2222 16.2152 14.9214 15.3958 14.9599H15.3973ZM10.3026 14.9599C9.49878 14.8891 8.88193 14.2093 8.88193 13.3943C8.88193 12.5793 9.49878 11.8995 10.3026 11.8287C10.6729 11.8299 11.0269 11.9824 11.2839 12.2516C11.5756 12.5575 11.7343 12.9683 11.7246 13.3928C11.7586 14.2222 11.1235 14.923 10.3026 14.9599Z" fill="white"/>
</svg>
