<svg width="18" height="18" viewBox="0 0 18 18" fill="none" xmlns="http://www.w3.org/2000/svg">
<path d="M9 0C4.02944 0 0 4.02944 0 9C0 13.9706 4.02944 18 9 18C13.9706 18 18 13.9706 18 9C17.9945 4.0317 13.9683 0.00545607 9 0ZM8.9856 1.8H9C12.975 1.80398 16.1948 5.02855 16.1928 9.0036C16.1908 12.9786 12.9678 16.2 8.9928 16.2C5.01776 16.2 1.79479 12.9786 1.7928 9.0036C1.79081 5.02855 5.01056 1.80398 8.9856 1.8ZM9.9 4.5H8.1V10.053L5.769 7.731L4.5 9L9 13.5L13.5 9L12.231 7.731L9.9 10.053V4.5Z" fill="#3BA7FB"/>
</svg>
