<svg width="27" height="26" viewBox="0 0 27 26" fill="none" xmlns="http://www.w3.org/2000/svg">
<ellipse cx="13.5714" cy="12.8844" rx="13.4286" ry="12.869" fill="#3680ED"/>
<path d="M16.8294 11.9783C15.9543 12.2845 15.123 12.8093 14.4667 13.4654C13.8541 14.1215 13.3728 14.9088 13.1103 15.7836C12.8478 14.9088 12.3665 14.1215 11.7539 13.4654C11.0976 12.7656 10.2663 12.2407 9.39124 11.9783C9.56625 9.48518 11.0101 7.29823 13.0665 6.11728C15.1667 7.29823 16.6106 9.48518 16.8294 11.9783Z" fill="white"/>
<path d="M18.8421 17.7081C17.3982 19.1952 15.2542 19.8076 13.2416 19.3702V19.3264C13.2853 19.1952 13.2853 19.1077 13.3291 18.9765C13.3728 18.8453 13.3728 18.7141 13.4166 18.6266C13.4166 18.5829 13.4166 18.5391 13.4166 18.5391C13.4166 18.4079 13.4603 18.3204 13.4603 18.1892C13.4603 18.058 13.4603 17.9268 13.4603 17.7956C13.4603 17.5769 13.4603 17.3582 13.4166 17.1395C13.4166 17.052 13.3728 16.9208 13.3728 16.8333C13.3728 16.7458 13.3291 16.6584 13.3291 16.5271C13.3291 16.4397 13.2853 16.3959 13.2853 16.3084C13.2853 16.221 13.2416 16.1772 13.2416 16.0898C13.5041 15.215 13.9854 14.3839 14.6417 13.6841C15.298 13.028 16.0856 12.5032 16.9606 12.197C18.0107 11.8471 19.1483 11.8033 20.2422 12.022C20.811 14.034 20.2422 16.221 18.8421 17.7081Z" fill="white"/>
<path d="M13.1103 18.9328C13.0665 19.064 13.0665 19.1952 13.0228 19.3264C10.9663 19.8513 8.82242 19.239 7.37854 17.7081C5.93467 16.221 5.40963 14.034 5.97843 12.022C7.07227 11.8033 8.20986 11.8471 9.25995 12.197C10.135 12.5032 10.9663 13.028 11.6227 13.6841C12.279 14.3839 12.7602 15.1712 13.0228 16.0898C13.2853 17.0083 13.2853 18.0143 13.1103 18.9328Z" fill="white"/>
</svg>
