<svg width="161" height="161" viewBox="0 0 161 161" fill="none" xmlns="http://www.w3.org/2000/svg">
<path d="M40.236 105.63V53.6932C40.236 31.1223 58.5332 12.8251 81.1041 12.8251C103.675 12.8251 121.972 31.1223 121.972 53.6932V105.63" stroke="url(#paint0_linear_1_18)" stroke-width="24.904"/>
<g filter="url(#filter0_b_1_18)">
<rect x="0.644958" y="72.8501" width="159.641" height="86.419" rx="28.5225" fill="#3EA0FE" fill-opacity="0.35"/>
</g>
<g filter="url(#filter1_bd_1_18)">
<path d="M93.4432 113.285C90.564 114.292 87.8287 116.019 85.6692 118.178C83.6537 120.336 82.0701 122.927 81.2064 125.805C80.3426 122.927 78.759 120.336 76.7435 118.178C74.584 115.875 71.8487 114.148 68.9695 113.285C69.5453 105.081 74.2961 97.8857 81.0624 94C87.9726 97.8857 92.7234 105.081 93.4432 113.285Z" fill="url(#paint1_linear_1_18)"/>
<path d="M100.066 132.137C95.3148 137.031 88.2606 139.045 81.6382 137.606V137.462C81.7822 137.031 81.7822 136.743 81.9262 136.311C82.0701 135.879 82.0701 135.447 82.2141 135.16C82.2141 135.016 82.2141 134.872 82.2141 134.872C82.2141 134.44 82.3581 134.152 82.3581 133.72C82.3581 133.289 82.3581 132.857 82.3581 132.425C82.3581 131.706 82.3581 130.986 82.2141 130.267C82.2141 129.979 82.0701 129.547 82.0701 129.259C82.0701 128.971 81.9262 128.683 81.9262 128.252C81.9262 127.964 81.7822 127.82 81.7822 127.532C81.7822 127.244 81.6382 127.1 81.6382 126.813C82.502 123.934 84.0856 121.2 86.2451 118.897C88.4045 116.739 90.9959 115.012 93.8751 114.004C97.3302 112.853 101.073 112.709 104.672 113.429C106.544 120.049 104.672 127.244 100.066 132.137Z" fill="url(#paint2_linear_1_18)"/>
<path d="M81.2064 136.167C81.0624 136.599 81.0624 137.031 80.9184 137.462C74.1522 139.189 67.098 137.174 62.3472 132.137C57.5964 127.244 55.8688 120.049 57.7403 113.429C61.3394 112.709 65.0825 112.853 68.5376 114.004C71.4169 115.012 74.1522 116.739 76.3116 118.897C78.471 121.2 80.0546 123.79 80.9184 126.813C81.7822 129.835 81.7822 133.145 81.2064 136.167Z" fill="url(#paint3_linear_1_18)"/>
<path d="M85.5596 118.075C83.6371 120.134 82.1032 122.585 81.2064 125.306C80.3095 122.585 78.7756 120.134 76.8531 118.075L76.8529 118.075C74.7052 115.785 71.9915 114.059 69.1278 113.176C69.7352 105.104 74.411 98.0252 81.0632 94.1727C87.8578 98.0256 92.5363 105.106 93.2834 113.182C90.4231 114.202 87.7108 115.925 85.5632 118.072L85.5631 118.072L85.5596 118.075ZM82.3483 135.227L82.3641 135.195V135.16V135.159V135.158V135.157V135.156V135.155V135.155V135.154V135.153V135.152V135.151V135.15V135.15V135.149V135.148V135.147V135.146V135.145V135.144V135.144V135.143V135.142V135.141V135.14V135.139V135.139V135.138V135.137V135.136V135.135V135.134V135.134V135.133V135.132V135.131V135.13V135.129V135.128V135.128V135.127V135.126V135.125V135.124V135.123V135.123V135.122V135.121V135.12V135.119V135.118V135.118V135.117V135.116V135.115V135.114V135.113V135.113V135.112V135.111V135.11V135.109V135.108V135.108V135.107V135.106V135.105V135.104V135.103V135.103V135.102V135.101V135.1V135.099V135.098V135.098V135.097V135.096V135.095V135.094V135.094V135.093V135.092V135.091V135.09V135.089V135.089V135.088V135.087V135.086V135.085V135.085V135.084V135.083V135.082V135.081V135.08V135.08V135.079V135.078V135.077V135.076V135.076V135.075V135.074V135.073V135.072V135.072V135.071V135.07V135.069V135.068V135.068V135.067V135.066V135.065V135.064V135.063V135.063V135.062V135.061V135.06V135.06V135.059V135.058V135.057V135.056V135.056V135.055V135.054V135.053V135.052V135.052V135.051V135.05V135.049V135.048V135.048V135.047V135.046V135.045V135.045V135.044V135.043V135.042V135.041V135.041V135.04V135.039V135.038V135.038V135.037V135.036V135.035V135.034V135.034V135.033V135.032V135.031V135.031V135.03V135.029V135.028V135.028V135.027V135.026V135.025V135.025V135.024V135.023V135.022V135.022V135.021V135.02V135.019V135.019V135.018V135.017V135.016V135.016V135.015V135.014V135.013V135.013V135.012V135.011V135.01V135.01V135.009V135.008V135.008V135.007V135.006V135.005V135.005V135.004V135.003V135.002V135.002V135.001V135V135V134.999V134.998V134.997V134.997V134.996V134.995V134.995V134.994V134.993V134.992V134.992V134.991V134.99V134.99V134.989V134.988V134.988V134.987V134.986V134.986V134.985V134.984V134.983V134.983V134.982V134.981V134.981V134.98V134.979V134.979V134.978V134.977V134.977V134.976V134.975V134.975V134.974V134.973V134.973V134.972V134.971V134.971V134.97V134.969V134.969V134.968V134.968V134.967V134.966V134.966V134.965V134.964V134.964V134.963V134.962V134.962V134.961V134.96V134.96V134.959V134.959V134.958V134.957V134.957V134.956V134.956V134.955V134.954V134.954V134.953V134.952V134.952V134.951V134.951V134.95V134.949V134.949V134.948V134.948V134.947V134.946V134.946V134.945V134.945V134.944V134.944V134.943V134.942V134.942V134.941V134.941V134.94V134.94V134.939V134.938V134.938V134.937V134.937V134.936V134.936V134.935V134.935V134.934V134.933V134.933V134.932V134.932V134.931V134.931V134.93V134.93V134.929V134.929V134.928V134.928V134.927V134.926V134.926V134.925V134.925V134.924V134.924V134.923V134.923V134.922V134.922V134.921V134.921V134.92V134.92V134.919V134.919V134.918V134.918V134.917V134.917V134.917V134.916V134.916V134.915V134.915V134.914V134.914V134.913V134.913V134.912V134.912V134.911V134.911V134.91V134.91V134.91V134.909V134.909V134.908V134.908V134.907V134.907V134.907V134.906V134.906V134.905V134.905V134.904V134.904V134.904V134.903V134.903V134.902V134.902V134.902V134.901V134.901V134.9V134.9V134.9V134.899V134.899V134.898V134.898V134.898V134.897V134.897V134.897V134.896V134.896V134.895V134.895V134.895V134.894V134.894V134.894V134.893V134.893V134.893V134.892V134.892V134.892V134.891V134.891V134.891V134.89V134.89V134.89V134.889V134.889V134.889V134.888V134.888V134.888V134.888V134.887V134.887V134.887V134.886V134.886V134.886V134.885V134.885V134.885V134.885V134.884V134.884V134.884V134.884V134.883V134.883V134.883V134.883V134.882V134.882V134.882V134.882V134.881V134.881V134.881V134.881V134.88V134.88V134.88V134.88V134.88V134.879V134.879V134.879V134.879V134.878V134.878V134.878V134.878V134.878V134.878V134.877V134.877V134.877V134.877V134.877V134.876V134.876V134.876V134.876V134.876V134.876V134.875V134.875V134.875V134.875V134.875V134.875V134.875V134.875V134.874V134.874V134.874V134.874V134.874V134.874V134.874V134.874V134.873V134.873V134.873V134.873V134.873V134.873V134.873V134.873V134.873V134.873V134.873V134.873V134.872V134.872V134.872V134.872V134.872V134.872V134.872V134.872V134.872V134.872V134.872V134.872V134.872V134.872V134.872C82.3641 134.673 82.397 134.506 82.4332 134.326L82.434 134.321C82.4696 134.143 82.5081 133.951 82.5081 133.72V133.718V133.715V133.713V133.71V133.708V133.705V133.703V133.7V133.698V133.695V133.693V133.69V133.688V133.685V133.683V133.68V133.677V133.675V133.672V133.67V133.667V133.665V133.662V133.66V133.657V133.655V133.652V133.65V133.647V133.645V133.642V133.64V133.637V133.634V133.632V133.629V133.627V133.624V133.622V133.619V133.617V133.614V133.612V133.609V133.607V133.604V133.602V133.599V133.597V133.594V133.591V133.589V133.586V133.584V133.581V133.579V133.576V133.574V133.571V133.569V133.566V133.564V133.561V133.559V133.556V133.554V133.551V133.548V133.546V133.543V133.541V133.538V133.536V133.533V133.531V133.528V133.526V133.523V133.521V133.518V133.516V133.513V133.511V133.508V133.505V133.503V133.5V133.498V133.495V133.493V133.49V133.488V133.485V133.483V133.48V133.478V133.475V133.473V133.47V133.468V133.465V133.462V133.46V133.457V133.455V133.452V133.45V133.447V133.445V133.442V133.44V133.437V133.435V133.432V133.43V133.427V133.425V133.422V133.419V133.417V133.414V133.412V133.409V133.407V133.404V133.402V133.399V133.397V133.394V133.392V133.389V133.387V133.384V133.382V133.379V133.376V133.374V133.371V133.369V133.366V133.364V133.361V133.359V133.356V133.354V133.351V133.349V133.346V133.344V133.341V133.338V133.336V133.333V133.331V133.328V133.326V133.323V133.321V133.318V133.316V133.313V133.311V133.308V133.306V133.303V133.301V133.298V133.295V133.293V133.29V133.288V133.285V133.283V133.28V133.278V133.275V133.273V133.27V133.268V133.265V133.263V133.26V133.258V133.255V133.252V133.25V133.247V133.245V133.242V133.24V133.237V133.235V133.232V133.23V133.227V133.225V133.222V133.22V133.217V133.215V133.212V133.209V133.207V133.204V133.202V133.199V133.197V133.194V133.192V133.189V133.187V133.184V133.182V133.179V133.177V133.174V133.172V133.169V133.166V133.164V133.161V133.159V133.156V133.154V133.151V133.149V133.146V133.144V133.141V133.139V133.136V133.134V133.131V133.129V133.126V133.123V133.121V133.118V133.116V133.113V133.111V133.108V133.106V133.103V133.101V133.098V133.096V133.093V133.091V133.088V133.086V133.083V133.08V133.078V133.075V133.073V133.07V133.068V133.065V133.063V133.06V133.058V133.055V133.053V133.05V133.048V133.045V133.043V133.04V133.037V133.035V133.032V133.03V133.027V133.025V133.022V133.02V133.017V133.015V133.012V133.01V133.007V133.005V133.002V133V132.997V132.994V132.992V132.989V132.987V132.984V132.982V132.979V132.977V132.974V132.972V132.969V132.967V132.964V132.962V132.959V132.957V132.954V132.951V132.949V132.946V132.944V132.941V132.939V132.936V132.934V132.931V132.929V132.926V132.924V132.921V132.919V132.916V132.914V132.911V132.908V132.906V132.903V132.901V132.898V132.896V132.893V132.891V132.888V132.886V132.883V132.881V132.878V132.876V132.873V132.87V132.868V132.865V132.863V132.86V132.858V132.855V132.853V132.85V132.848V132.845V132.843V132.84V132.838V132.835V132.833V132.83V132.827V132.825V132.822V132.82V132.817V132.815V132.812V132.81V132.807V132.805V132.802V132.8V132.797V132.795V132.792V132.79V132.787V132.784V132.782V132.779V132.777V132.774V132.772V132.769V132.767V132.764V132.762V132.759V132.757V132.754V132.752V132.749V132.747V132.744V132.741V132.739V132.736V132.734V132.731V132.729V132.726V132.724V132.721V132.719V132.716V132.714V132.711V132.709V132.706V132.704V132.701V132.698V132.696V132.693V132.691V132.688V132.686V132.683V132.681V132.678V132.676V132.673V132.671V132.668V132.666V132.663V132.661V132.658V132.655V132.653V132.65V132.648V132.645V132.643V132.64V132.638V132.635V132.633V132.63V132.628V132.625V132.623V132.62V132.618V132.615V132.612V132.61V132.607V132.605V132.602V132.6V132.597V132.595V132.592V132.59V132.587V132.585V132.582V132.58V132.577V132.575V132.572V132.569V132.567V132.564V132.562V132.559V132.557V132.554V132.552V132.549V132.547V132.544V132.542V132.539V132.537V132.534V132.532V132.529V132.526V132.524V132.521V132.519V132.516V132.514V132.511V132.509V132.506V132.504V132.501V132.499V132.496V132.494V132.491V132.489V132.486V132.483V132.481V132.478V132.476V132.473V132.471V132.468V132.466V132.463V132.461V132.458V132.456V132.453V132.451V132.448V132.445V132.443V132.44V132.438V132.435V132.433V132.43V132.428V132.425V132.418C82.5081 131.708 82.5081 130.981 82.364 130.251C82.3616 130.095 82.3246 129.91 82.2912 129.744L82.2892 129.733C82.2522 129.548 82.2201 129.385 82.2201 129.259C82.2201 129.112 82.1871 128.966 82.1556 128.826C82.1519 128.809 82.1482 128.793 82.1446 128.777C82.1091 128.617 82.0762 128.451 82.0762 128.252C82.0762 128.083 82.0337 127.956 81.998 127.849L81.9965 127.844C81.9605 127.737 81.9322 127.649 81.9322 127.532C81.9322 127.364 81.8897 127.236 81.854 127.129L81.8525 127.125C81.8187 127.024 81.7917 126.94 81.7886 126.834C82.6467 123.987 84.215 121.282 86.3528 119.002C88.4978 116.858 91.0694 115.145 93.9236 114.146C97.3224 113.014 101.005 112.863 104.553 113.558C106.368 120.101 104.508 127.2 99.9572 132.034C95.272 136.859 88.3272 138.864 81.7887 137.485C81.8583 137.271 81.8943 137.091 81.9289 136.918L81.9293 136.916C81.9653 136.736 81.9998 136.564 82.0685 136.358C82.1381 136.15 82.1756 135.941 82.2086 135.758C82.2117 135.741 82.2147 135.725 82.2177 135.708C82.2544 135.507 82.2874 135.348 82.3483 135.227ZM62.4563 132.034L62.4548 132.033C57.7637 127.201 56.0427 120.104 57.8599 113.558C61.4079 112.863 65.0903 113.014 68.4891 114.146C71.3457 115.146 74.0607 116.86 76.2038 119.002C78.3485 121.289 79.9181 123.858 80.7742 126.854C81.6294 129.846 81.6314 133.128 81.0608 136.129C80.9873 136.353 80.9502 136.575 80.9152 136.785L80.9144 136.79C80.8828 136.98 80.8526 137.16 80.8004 137.337C74.1109 139.015 67.1502 137.011 62.4563 132.034Z" stroke="url(#paint4_linear_1_18)" stroke-opacity="0.5" stroke-width="0.3"/>
</g>
<defs>
<filter id="filter0_b_1_18" x="-35.8525" y="36.3526" width="232.636" height="159.414" filterUnits="userSpaceOnUse" color-interpolation-filters="sRGB">
<feFlood flood-opacity="0" result="BackgroundImageFix"/>
<feGaussianBlur in="BackgroundImage" stdDeviation="18.2488"/>
<feComposite in2="SourceAlpha" operator="in" result="effect1_backgroundBlur_1_18"/>
<feBlend mode="normal" in="SourceGraphic" in2="effect1_backgroundBlur_1_18" result="shape"/>
</filter>
<filter id="filter1_bd_1_18" x="34.1891" y="71.1891" width="94.0127" height="89.6911" filterUnits="userSpaceOnUse" color-interpolation-filters="sRGB">
<feFlood flood-opacity="0" result="BackgroundImageFix"/>
<feGaussianBlur in="BackgroundImage" stdDeviation="11.4055"/>
<feComposite in2="SourceAlpha" operator="in" result="effect1_backgroundBlur_1_18"/>
<feColorMatrix in="SourceAlpha" type="matrix" values="0 0 0 0 0 0 0 0 0 0 0 0 0 0 0 0 0 0 127 0" result="hardAlpha"/>
<feOffset dx="7.60365" dy="7.60365"/>
<feGaussianBlur stdDeviation="7.60365"/>
<feColorMatrix type="matrix" values="0 0 0 0 0.15375 0 0 0 0 0.522433 0 0 0 0 0.9 0 0 0 0.5 0"/>
<feBlend mode="normal" in2="effect1_backgroundBlur_1_18" result="effect2_dropShadow_1_18"/>
<feBlend mode="normal" in="SourceGraphic" in2="effect2_dropShadow_1_18" result="shape"/>
</filter>
<linearGradient id="paint0_linear_1_18" x1="110.863" y1="102.275" x2="25.4534" y2="65.8368" gradientUnits="userSpaceOnUse">
<stop stop-color="#0C66F1"/>
<stop offset="1" stop-color="#3FACFC"/>
</linearGradient>
<linearGradient id="paint1_linear_1_18" x1="101.96" y1="101.958" x2="48.0689" y2="103.887" gradientUnits="userSpaceOnUse">
<stop stop-color="white"/>
<stop offset="1" stop-color="white" stop-opacity="0.2"/>
</linearGradient>
<linearGradient id="paint2_linear_1_18" x1="101.96" y1="101.958" x2="48.0689" y2="103.887" gradientUnits="userSpaceOnUse">
<stop stop-color="white"/>
<stop offset="1" stop-color="white" stop-opacity="0.2"/>
</linearGradient>
<linearGradient id="paint3_linear_1_18" x1="101.96" y1="101.958" x2="48.0689" y2="103.887" gradientUnits="userSpaceOnUse">
<stop stop-color="white"/>
<stop offset="1" stop-color="white" stop-opacity="0.2"/>
</linearGradient>
<linearGradient id="paint4_linear_1_18" x1="62.2127" y1="108.783" x2="103.303" y2="109.032" gradientUnits="userSpaceOnUse">
<stop stop-color="white"/>
<stop offset="1" stop-color="white" stop-opacity="0"/>
</linearGradient>
</defs>
</svg>
