<svg width="165" height="175" viewBox="0 0 165 175" fill="none" xmlns="http://www.w3.org/2000/svg">
<rect x="34.3791" y="26.4035" width="119.837" height="50.4466" rx="25.2233" fill="url(#paint0_linear_1_11)"/>
<path d="M130.381 49.3142C128.692 49.9053 127.087 50.9185 125.82 52.185C124.638 53.4515 123.709 54.9713 123.202 56.66C122.695 54.9713 121.766 53.4515 120.583 52.185C119.317 50.8341 117.712 49.8208 116.022 49.3142C116.36 44.5015 119.148 40.2797 123.117 38C127.172 40.2797 129.959 44.5015 130.381 49.3142Z" fill="url(#paint1_linear_1_11)"/>
<path d="M134.266 60.3752C131.479 63.2459 127.341 64.428 123.455 63.5837V63.4992C123.54 63.2459 123.54 63.0771 123.624 62.8238C123.709 62.5705 123.709 62.3172 123.793 62.1483C123.793 62.0639 123.793 61.9794 123.793 61.9794C123.793 61.7261 123.878 61.5572 123.878 61.3039C123.878 61.0506 123.878 60.7973 123.878 60.544C123.878 60.1219 123.878 59.6997 123.793 59.2775C123.793 59.1086 123.709 58.8553 123.709 58.6865C123.709 58.5176 123.624 58.3487 123.624 58.0954C123.624 57.9266 123.54 57.8421 123.54 57.6733C123.54 57.5044 123.455 57.42 123.455 57.2511C123.962 55.5624 124.891 53.9581 126.158 52.6072C127.425 51.3407 128.945 50.3274 130.635 49.7364C132.662 49.0609 134.858 48.9765 136.969 49.3987C138.067 53.2827 136.969 57.5044 134.266 60.3752Z" fill="url(#paint2_linear_1_11)"/>
<path d="M123.202 62.7393C123.117 62.9926 123.117 63.2459 123.033 63.4992C119.063 64.5125 114.924 63.3304 112.137 60.3752C109.35 57.5044 108.336 53.2827 109.434 49.3987C111.546 48.9765 113.742 49.0609 115.769 49.7364C117.458 50.3274 119.063 51.3407 120.33 52.6072C121.597 53.9581 122.526 55.478 123.033 57.2511C123.54 59.0242 123.54 60.9662 123.202 62.7393Z" fill="url(#paint3_linear_1_11)"/>
<path d="M125.711 52.0826C124.618 53.2526 123.738 54.6379 123.202 56.1741C122.666 54.6379 121.785 53.2526 120.693 52.0826L120.693 52.0824C119.438 50.744 117.855 49.7315 116.181 49.206C116.55 44.5238 119.262 40.4192 123.118 38.1728C127.057 40.4196 129.772 44.5262 130.221 49.2119C128.551 49.8155 126.969 50.8243 125.714 52.0789L125.714 52.0789L125.711 52.0826ZM123.927 62.2154L123.943 62.1837V62.1483V62.1478V62.1473V62.1468V62.1463V62.1458V62.1453V62.1448V62.1443V62.1438V62.1433V62.1428V62.1423V62.1419V62.1414V62.1409V62.1404V62.1399V62.1394V62.1389V62.1384V62.1379V62.1374V62.1369V62.1364V62.1359V62.1354V62.1349V62.1344V62.134V62.1335V62.133V62.1325V62.132V62.1315V62.131V62.1305V62.13V62.1295V62.129V62.1285V62.128V62.1276V62.1271V62.1266V62.1261V62.1256V62.1251V62.1246V62.1241V62.1236V62.1231V62.1226V62.1222V62.1217V62.1212V62.1207V62.1202V62.1197V62.1192V62.1187V62.1182V62.1178V62.1173V62.1168V62.1163V62.1158V62.1153V62.1148V62.1144V62.1139V62.1134V62.1129V62.1124V62.1119V62.1114V62.111V62.1105V62.11V62.1095V62.109V62.1085V62.1081V62.1076V62.1071V62.1066V62.1061V62.1057V62.1052V62.1047V62.1042V62.1037V62.1033V62.1028V62.1023V62.1018V62.1013V62.1009V62.1004V62.0999V62.0994V62.099V62.0985V62.098V62.0975V62.0971V62.0966V62.0961V62.0956V62.0952V62.0947V62.0942V62.0938V62.0933V62.0928V62.0923V62.0919V62.0914V62.0909V62.0905V62.09V62.0895V62.0891V62.0886V62.0881V62.0877V62.0872V62.0867V62.0863V62.0858V62.0854V62.0849V62.0844V62.084V62.0835V62.083V62.0826V62.0821V62.0817V62.0812V62.0807V62.0803V62.0798V62.0794V62.0789V62.0785V62.078V62.0776V62.0771V62.0767V62.0762V62.0757V62.0753V62.0748V62.0744V62.0739V62.0735V62.073V62.0726V62.0722V62.0717V62.0713V62.0708V62.0704V62.0699V62.0695V62.069V62.0686V62.0682V62.0677V62.0673V62.0668V62.0664V62.066V62.0655V62.0651V62.0646V62.0642V62.0638V62.0633V62.0629V62.0625V62.062V62.0616V62.0612V62.0607V62.0603V62.0599V62.0595V62.059V62.0586V62.0582V62.0577V62.0573V62.0569V62.0565V62.0561V62.0556V62.0552V62.0548V62.0544V62.054V62.0535V62.0531V62.0527V62.0523V62.0519V62.0515V62.051V62.0506V62.0502V62.0498V62.0494V62.049V62.0486V62.0482V62.0478V62.0474V62.0469V62.0465V62.0461V62.0457V62.0453V62.0449V62.0445V62.0441V62.0437V62.0433V62.0429V62.0425V62.0421V62.0418V62.0414V62.041V62.0406V62.0402V62.0398V62.0394V62.039V62.0386V62.0382V62.0379V62.0375V62.0371V62.0367V62.0363V62.0359V62.0356V62.0352V62.0348V62.0344V62.0341V62.0337V62.0333V62.0329V62.0326V62.0322V62.0318V62.0314V62.0311V62.0307V62.0303V62.03V62.0296V62.0292V62.0289V62.0285V62.0282V62.0278V62.0274V62.0271V62.0267V62.0264V62.026V62.0257V62.0253V62.025V62.0246V62.0243V62.0239V62.0236V62.0232V62.0229V62.0225V62.0222V62.0218V62.0215V62.0212V62.0208V62.0205V62.0202V62.0198V62.0195V62.0191V62.0188V62.0185V62.0182V62.0178V62.0175V62.0172V62.0168V62.0165V62.0162V62.0159V62.0156V62.0152V62.0149V62.0146V62.0143V62.014V62.0137V62.0133V62.013V62.0127V62.0124V62.0121V62.0118V62.0115V62.0112V62.0109V62.0106V62.0103V62.01V62.0097V62.0094V62.0091V62.0088V62.0085V62.0082V62.0079V62.0076V62.0073V62.0071V62.0068V62.0065V62.0062V62.0059V62.0056V62.0054V62.0051V62.0048V62.0045V62.0042V62.004V62.0037V62.0034V62.0032V62.0029V62.0026V62.0024V62.0021V62.0018V62.0016V62.0013V62.0011V62.0008V62.0005V62.0003V62V61.9998V61.9995V61.9993V61.999V61.9988V61.9985V61.9983V61.9981V61.9978V61.9976V61.9973V61.9971V61.9969V61.9966V61.9964V61.9962V61.9959V61.9957V61.9955V61.9953V61.995V61.9948V61.9946V61.9944V61.9941V61.9939V61.9937V61.9935V61.9933V61.9931V61.9929V61.9927V61.9924V61.9922V61.992V61.9918V61.9916V61.9914V61.9912V61.991V61.9908V61.9907V61.9905V61.9903V61.9901V61.9899V61.9897V61.9895V61.9893V61.9892V61.989V61.9888V61.9886V61.9884V61.9883V61.9881V61.9879V61.9878V61.9876V61.9874V61.9873V61.9871V61.9869V61.9868V61.9866V61.9865V61.9863V61.9862V61.986V61.9859V61.9857V61.9856V61.9854V61.9853V61.9851V61.985V61.9849V61.9847V61.9846V61.9845V61.9843V61.9842V61.9841V61.9839V61.9838V61.9837V61.9836V61.9834V61.9833V61.9832V61.9831V61.983V61.9829V61.9828V61.9826V61.9825V61.9824V61.9823V61.9822V61.9821V61.982V61.9819V61.9818V61.9818V61.9817V61.9816V61.9815V61.9814V61.9813V61.9812V61.9812V61.9811V61.981V61.9809V61.9808V61.9808V61.9807V61.9806V61.9806V61.9805V61.9804V61.9804V61.9803V61.9803V61.9802V61.9802V61.9801V61.9801V61.98V61.98V61.9799V61.9799V61.9798V61.9798V61.9798V61.9797V61.9797V61.9797V61.9796V61.9796V61.9796V61.9796V61.9795V61.9795V61.9795V61.9795V61.9794V61.9794C123.943 61.8694 123.961 61.7773 123.982 61.6711L123.983 61.6672C124.004 61.5633 124.028 61.4455 124.028 61.3039V61.3025V61.301V61.2995V61.298V61.2965V61.295V61.2935V61.2921V61.2906V61.2891V61.2876V61.2861V61.2846V61.2832V61.2817V61.2802V61.2787V61.2772V61.2757V61.2743V61.2728V61.2713V61.2698V61.2683V61.2668V61.2653V61.2639V61.2624V61.2609V61.2594V61.2579V61.2564V61.255V61.2535V61.252V61.2505V61.249V61.2475V61.2461V61.2446V61.2431V61.2416V61.2401V61.2386V61.2371V61.2357V61.2342V61.2327V61.2312V61.2297V61.2282V61.2268V61.2253V61.2238V61.2223V61.2208V61.2193V61.2179V61.2164V61.2149V61.2134V61.2119V61.2104V61.209V61.2075V61.206V61.2045V61.203V61.2015V61.2V61.1986V61.1971V61.1956V61.1941V61.1926V61.1911V61.1897V61.1882V61.1867V61.1852V61.1837V61.1822V61.1807V61.1793V61.1778V61.1763V61.1748V61.1733V61.1718V61.1704V61.1689V61.1674V61.1659V61.1644V61.1629V61.1615V61.16V61.1585V61.157V61.1555V61.154V61.1525V61.1511V61.1496V61.1481V61.1466V61.1451V61.1436V61.1422V61.1407V61.1392V61.1377V61.1362V61.1347V61.1333V61.1318V61.1303V61.1288V61.1273V61.1258V61.1243V61.1229V61.1214V61.1199V61.1184V61.1169V61.1154V61.114V61.1125V61.111V61.1095V61.108V61.1065V61.1051V61.1036V61.1021V61.1006V61.0991V61.0976V61.0961V61.0947V61.0932V61.0917V61.0902V61.0887V61.0872V61.0858V61.0843V61.0828V61.0813V61.0798V61.0783V61.0769V61.0754V61.0739V61.0724V61.0709V61.0694V61.068V61.0665V61.065V61.0635V61.062V61.0605V61.059V61.0576V61.0561V61.0546V61.0531V61.0516V61.0501V61.0487V61.0472V61.0457V61.0442V61.0427V61.0412V61.0398V61.0383V61.0368V61.0353V61.0338V61.0323V61.0308V61.0294V61.0279V61.0264V61.0249V61.0234V61.0219V61.0205V61.019V61.0175V61.016V61.0145V61.013V61.0116V61.0101V61.0086V61.0071V61.0056V61.0041V61.0026V61.0012V60.9997V60.9982V60.9967V60.9952V60.9937V60.9923V60.9908V60.9893V60.9878V60.9863V60.9848V60.9834V60.9819V60.9804V60.9789V60.9774V60.9759V60.9744V60.973V60.9715V60.97V60.9685V60.967V60.9655V60.9641V60.9626V60.9611V60.9596V60.9581V60.9566V60.9552V60.9537V60.9522V60.9507V60.9492V60.9477V60.9462V60.9448V60.9433V60.9418V60.9403V60.9388V60.9373V60.9359V60.9344V60.9329V60.9314V60.9299V60.9284V60.927V60.9255V60.924V60.9225V60.921V60.9195V60.918V60.9166V60.9151V60.9136V60.9121V60.9106V60.9091V60.9077V60.9062V60.9047V60.9032V60.9017V60.9002V60.8988V60.8973V60.8958V60.8943V60.8928V60.8913V60.8898V60.8884V60.8869V60.8854V60.8839V60.8824V60.8809V60.8795V60.878V60.8765V60.875V60.8735V60.872V60.8706V60.8691V60.8676V60.8661V60.8646V60.8631V60.8616V60.8602V60.8587V60.8572V60.8557V60.8542V60.8527V60.8513V60.8498V60.8483V60.8468V60.8453V60.8438V60.8424V60.8409V60.8394V60.8379V60.8364V60.8349V60.8334V60.832V60.8305V60.829V60.8275V60.826V60.8245V60.8231V60.8216V60.8201V60.8186V60.8171V60.8156V60.8142V60.8127V60.8112V60.8097V60.8082V60.8067V60.8052V60.8038V60.8023V60.8008V60.7993V60.7978V60.7963V60.7949V60.7934V60.7919V60.7904V60.7889V60.7874V60.786V60.7845V60.783V60.7815V60.78V60.7785V60.777V60.7756V60.7741V60.7726V60.7711V60.7696V60.7681V60.7667V60.7652V60.7637V60.7622V60.7607V60.7592V60.7578V60.7563V60.7548V60.7533V60.7518V60.7503V60.7488V60.7474V60.7459V60.7444V60.7429V60.7414V60.7399V60.7385V60.737V60.7355V60.734V60.7325V60.731V60.7296V60.7281V60.7266V60.7251V60.7236V60.7221V60.7206V60.7192V60.7177V60.7162V60.7147V60.7132V60.7117V60.7103V60.7088V60.7073V60.7058V60.7043V60.7028V60.7014V60.6999V60.6984V60.6969V60.6954V60.6939V60.6924V60.691V60.6895V60.688V60.6865V60.685V60.6835V60.6821V60.6806V60.6791V60.6776V60.6761V60.6746V60.6732V60.6717V60.6702V60.6687V60.6672V60.6657V60.6642V60.6628V60.6613V60.6598V60.6583V60.6568V60.6553V60.6539V60.6524V60.6509V60.6494V60.6479V60.6464V60.645V60.6435V60.642V60.6405V60.639V60.6375V60.636V60.6346V60.6331V60.6316V60.6301V60.6286V60.6271V60.6257V60.6242V60.6227V60.6212V60.6197V60.6182V60.6168V60.6153V60.6138V60.6123V60.6108V60.6093V60.6078V60.6064V60.6049V60.6034V60.6019V60.6004V60.5989V60.5975V60.596V60.5945V60.593V60.5915V60.59V60.5886V60.5871V60.5856V60.5841V60.5826V60.5811V60.5797V60.5782V60.5767V60.5752V60.5737V60.5722V60.5707V60.5693V60.5678V60.5663V60.5648V60.5633V60.5618V60.5604V60.5589V60.5574V60.5559V60.5544V60.5529V60.5515V60.55V60.5485V60.547V60.5455V60.544V60.5373C124.028 60.1239 124.028 59.694 123.943 59.2619C123.941 59.1658 123.918 59.0551 123.9 58.9615L123.898 58.9526C123.876 58.842 123.859 58.7528 123.859 58.6865C123.859 58.5927 123.838 58.4997 123.819 58.4187C123.817 58.409 123.815 58.3994 123.813 58.3901C123.792 58.2975 123.774 58.2051 123.774 58.0954C123.774 57.9865 123.747 57.9038 123.726 57.8409L123.724 57.8369C123.703 57.7736 123.69 57.7309 123.69 57.6733C123.69 57.5644 123.662 57.4816 123.641 57.4187L123.64 57.4147C123.621 57.3591 123.609 57.3193 123.606 57.2713C124.107 55.6147 125.021 54.0397 126.266 52.7116C127.518 51.46 129.019 50.4608 130.683 49.8784C132.654 49.2219 134.789 49.1308 136.85 49.528C137.891 53.3353 136.804 57.46 134.158 60.2715C131.44 63.0699 127.419 64.243 123.623 63.4657C123.652 63.3649 123.67 63.2764 123.686 63.1931L123.687 63.1909C123.708 63.0854 123.727 62.9881 123.766 62.8712C123.809 62.7443 123.832 62.6178 123.851 62.511C123.853 62.5009 123.854 62.4909 123.856 62.4812C123.878 62.3616 123.896 62.2775 123.927 62.2154ZM112.246 60.2722L112.246 60.2722L112.245 60.2707C109.517 57.4614 108.51 53.3377 109.554 49.528C111.614 49.1308 113.75 49.2219 115.721 49.8783C117.387 50.4617 118.972 51.4618 120.222 52.7116C121.475 54.0472 122.39 55.5461 122.889 57.2923C123.387 59.0355 123.389 60.9495 123.056 62.7017C123.012 62.8362 122.99 62.9692 122.97 63.09L122.969 63.0946C122.953 63.194 122.937 63.2855 122.914 63.3745C119.021 64.3374 114.976 63.1668 112.246 60.2722Z" stroke="url(#paint4_linear_1_11)" stroke-opacity="0.5" stroke-width="0.3"/>
<rect width="119.837" height="50.4466" rx="25.2233" transform="matrix(-1 0 0 1 129.951 98.987)" fill="url(#paint5_linear_1_11)"/>
<g filter="url(#filter0_bd_1_11)">
<path d="M49.201 119.53C48.6893 119.238 48.0313 119.238 47.4465 119.53L43.3525 121.943L40.5744 123.478L36.5535 125.89C36.0418 126.183 35.3838 126.183 34.799 125.89L31.6554 123.99C31.1436 123.697 30.7781 123.112 30.7781 122.454V118.799C30.7781 118.214 31.0705 117.629 31.6554 117.264L34.799 115.436C35.3107 115.144 35.9687 115.144 36.5535 115.436L39.6971 117.337C40.2089 117.629 40.5744 118.214 40.5744 118.872V121.285L43.3525 119.676V117.191C43.3525 116.606 43.0601 116.021 42.4752 115.655L36.6266 112.219C36.1149 111.927 35.4569 111.927 34.8721 112.219L28.8773 115.728C28.2924 116.021 28 116.606 28 117.191V124.063C28 124.648 28.2924 125.232 28.8773 125.598L34.799 129.034C35.3107 129.326 35.9687 129.326 36.5535 129.034L40.5744 126.695L43.3525 125.086L47.3734 122.747C47.8851 122.454 48.5431 122.454 49.1279 122.747L52.2715 124.574C52.7833 124.867 53.1488 125.452 53.1488 126.11V129.765C53.1488 130.35 52.8564 130.935 52.2715 131.3L49.201 133.128C48.6893 133.42 48.0313 133.42 47.4465 133.128L44.3029 131.3C43.7911 131.008 43.4256 130.423 43.4256 129.765V127.426L40.6475 129.034V131.446C40.6475 132.031 40.9399 132.616 41.5248 132.982L47.4465 136.418C47.9582 136.71 48.6162 136.71 49.201 136.418L55.1227 132.982C55.6345 132.689 56 132.104 56 131.446V124.501C56 123.916 55.7076 123.332 55.1227 122.966L49.201 119.53Z" fill="url(#paint6_linear_1_11)"/>
<path d="M43.2756 127.686V129.765C43.2756 130.478 43.6705 131.111 44.2278 131.43C44.228 131.43 44.2282 131.43 44.2285 131.43L47.3711 133.258L47.3709 133.258L47.3794 133.262C48.0033 133.574 48.7148 133.579 49.2755 133.258L49.2755 133.258L49.2778 133.257L52.3483 131.429L52.3483 131.429L52.351 131.427C52.9801 131.034 53.2988 130.401 53.2988 129.765V126.11C53.2988 125.397 52.9038 124.763 52.3465 124.444C52.3463 124.444 52.3461 124.444 52.346 124.444L49.2033 122.617L49.2035 122.617L49.195 122.613C48.5711 122.301 47.8596 122.296 47.2989 122.616L47.2979 122.617L43.2773 124.956L43.277 124.957L40.4993 126.565L40.499 126.565L36.4823 128.902C35.9378 129.173 35.3356 129.168 34.874 128.904C34.8738 128.904 34.8736 128.904 34.8734 128.904L28.9547 125.469C28.4155 125.131 28.15 124.596 28.15 124.063V117.191C28.15 116.654 28.4174 116.126 28.9444 115.863L28.9445 115.863L28.9531 115.858L34.9435 112.351C35.4878 112.081 36.0899 112.086 36.5515 112.349C36.5517 112.349 36.552 112.349 36.5522 112.35L42.3974 115.784C42.9369 116.122 43.2025 116.658 43.2025 117.191V119.59L40.7244 121.024V118.872C40.7244 118.16 40.3299 117.526 39.7732 117.208L36.6311 115.308L36.6314 115.307L36.6206 115.302C35.9967 114.99 35.2852 114.985 34.7245 115.306L34.7245 115.306L34.7236 115.306L31.58 117.134L31.5799 117.134L31.5759 117.137C30.9468 117.53 30.6281 118.163 30.6281 118.799V122.454C30.6281 123.166 31.0226 123.8 31.5793 124.119L34.7213 126.019L34.7211 126.019L34.7319 126.025C35.3558 126.336 36.0673 126.341 36.6279 126.021L36.628 126.021L36.6307 126.019L40.6493 123.608L43.425 122.074L43.4251 122.074L43.4286 122.072L47.5181 119.662C48.0626 119.391 48.6647 119.396 49.1263 119.66C49.1264 119.66 49.1265 119.66 49.1266 119.66L55.0452 123.095C55.5845 123.432 55.85 123.968 55.85 124.501V131.446C55.85 132.05 55.5142 132.585 55.0483 132.851L55.0474 132.852L49.1299 136.286C48.5854 136.556 47.9831 136.551 47.5215 136.288C47.5213 136.288 47.5211 136.288 47.5209 136.288L41.6022 132.853C41.063 132.515 40.7975 131.979 40.7975 131.446V129.12L43.2756 127.686Z" stroke="url(#paint7_linear_1_11)" stroke-opacity="0.5" stroke-width="0.3"/>
</g>
<g filter="url(#filter1_b_1_11)">
<path d="M55.2389 83.932L55.2389 19.4487C55.2389 12.3802 46.8098 8.71228 41.6374 13.5301L6.55095 46.2115C3.08499 49.4399 3.1224 54.9423 6.63192 58.1233L41.7184 89.9251C46.917 94.637 55.2389 90.9483 55.2389 83.932Z" fill="#3EA0FE" fill-opacity="0.35"/>
</g>
<g filter="url(#filter2_b_1_11)">
<path d="M109.091 156.515L109.091 92.0322C109.091 84.9637 117.52 81.2958 122.693 86.1136L157.779 118.795C161.245 122.023 161.208 127.526 157.698 130.707L122.612 162.509C117.413 167.22 109.091 163.532 109.091 156.515Z" fill="#3EA0FE" fill-opacity="0.35"/>
</g>
<defs>
<filter id="filter0_bd_1_11" x="5.18906" y="89.1891" width="73.6219" height="70.259" filterUnits="userSpaceOnUse" color-interpolation-filters="sRGB">
<feFlood flood-opacity="0" result="BackgroundImageFix"/>
<feGaussianBlur in="BackgroundImage" stdDeviation="11.4055"/>
<feComposite in2="SourceAlpha" operator="in" result="effect1_backgroundBlur_1_11"/>
<feColorMatrix in="SourceAlpha" type="matrix" values="0 0 0 0 0 0 0 0 0 0 0 0 0 0 0 0 0 0 127 0" result="hardAlpha"/>
<feOffset dx="7.60365" dy="7.60365"/>
<feGaussianBlur stdDeviation="7.60365"/>
<feColorMatrix type="matrix" values="0 0 0 0 0.15375 0 0 0 0 0.522433 0 0 0 0 0.9 0 0 0 0.5 0"/>
<feBlend mode="normal" in2="effect1_backgroundBlur_1_11" result="effect2_dropShadow_1_11"/>
<feBlend mode="normal" in="SourceGraphic" in2="effect2_dropShadow_1_11" result="shape"/>
</filter>
<filter id="filter1_b_1_11" x="-32.5221" y="-25.1533" width="124.258" height="153.687" filterUnits="userSpaceOnUse" color-interpolation-filters="sRGB">
<feFlood flood-opacity="0" result="BackgroundImageFix"/>
<feGaussianBlur in="BackgroundImage" stdDeviation="18.2488"/>
<feComposite in2="SourceAlpha" operator="in" result="effect1_backgroundBlur_1_11"/>
<feBlend mode="normal" in="SourceGraphic" in2="effect1_backgroundBlur_1_11" result="shape"/>
</filter>
<filter id="filter2_b_1_11" x="72.5936" y="47.4302" width="124.258" height="153.687" filterUnits="userSpaceOnUse" color-interpolation-filters="sRGB">
<feFlood flood-opacity="0" result="BackgroundImageFix"/>
<feGaussianBlur in="BackgroundImage" stdDeviation="18.2488"/>
<feComposite in2="SourceAlpha" operator="in" result="effect1_backgroundBlur_1_11"/>
<feBlend mode="normal" in="SourceGraphic" in2="effect1_backgroundBlur_1_11" result="shape"/>
</filter>
<linearGradient id="paint0_linear_1_11" x1="137.929" y1="75.0264" x2="74.2422" y2="1.74213" gradientUnits="userSpaceOnUse">
<stop stop-color="#0C66F1"/>
<stop offset="1" stop-color="#3FACFC"/>
</linearGradient>
<linearGradient id="paint1_linear_1_11" x1="135.378" y1="42.669" x2="103.76" y2="43.8009" gradientUnits="userSpaceOnUse">
<stop stop-color="white"/>
<stop offset="1" stop-color="white" stop-opacity="0.2"/>
</linearGradient>
<linearGradient id="paint2_linear_1_11" x1="135.378" y1="42.669" x2="103.76" y2="43.8009" gradientUnits="userSpaceOnUse">
<stop stop-color="white"/>
<stop offset="1" stop-color="white" stop-opacity="0.2"/>
</linearGradient>
<linearGradient id="paint3_linear_1_11" x1="135.378" y1="42.669" x2="103.76" y2="43.8009" gradientUnits="userSpaceOnUse">
<stop stop-color="white"/>
<stop offset="1" stop-color="white" stop-opacity="0.2"/>
</linearGradient>
<linearGradient id="paint4_linear_1_11" x1="112.058" y1="46.6732" x2="136.166" y2="46.8193" gradientUnits="userSpaceOnUse">
<stop stop-color="white"/>
<stop offset="1" stop-color="white" stop-opacity="0"/>
</linearGradient>
<linearGradient id="paint5_linear_1_11" x1="103.55" y1="48.6229" x2="39.8631" y2="-24.6614" gradientUnits="userSpaceOnUse">
<stop stop-color="#0C66F1"/>
<stop offset="1" stop-color="#3FACFC"/>
</linearGradient>
<linearGradient id="paint6_linear_1_11" x1="54.0148" y1="116.449" x2="22.8351" y2="117.604" gradientUnits="userSpaceOnUse">
<stop stop-color="white"/>
<stop offset="1" stop-color="white" stop-opacity="0.2"/>
</linearGradient>
<linearGradient id="paint7_linear_1_11" x1="31.0162" y1="120.265" x2="54.7919" y2="120.414" gradientUnits="userSpaceOnUse">
<stop stop-color="white"/>
<stop offset="1" stop-color="white" stop-opacity="0"/>
</linearGradient>
</defs>
</svg>
