<svg width="199" height="168" viewBox="0 0 199 168" fill="none" xmlns="http://www.w3.org/2000/svg">
<g filter="url(#filter0_d_1_6)">
<g filter="url(#filter1_b_1_6)">
<path d="M167.981 48.6079C167.981 23.0655 152.496 8.02072 126.293 8.02072H57.6299C31.4193 8.02072 15.9349 23.0655 15.9349 48.6079V104.24C15.9349 129.782 31.4193 144.886 57.6299 144.886H126.32C152.523 144.886 168.008 129.782 168.008 104.24C168.008 78.6973 167.981 51.4298 167.981 48.6079Z" fill="url(#paint0_linear_1_6)"/>
</g>
<path d="M83.4432 73.2846C80.564 74.292 77.8287 76.019 75.6692 78.1777C73.6537 80.3364 72.0701 82.9269 71.2064 85.8052C70.3426 82.9269 68.759 80.3364 66.7435 78.1777C64.584 75.875 61.8487 74.1481 58.9695 73.2846C59.5453 65.0814 64.2961 57.8857 71.0624 54C77.9726 57.8857 82.7234 65.0814 83.4432 73.2846Z" fill="url(#paint1_linear_1_6)"/>
<path d="M90.0655 92.1374C85.3148 97.0305 78.2606 99.0453 71.6382 97.6062V97.4623C71.7822 97.0305 71.7822 96.7427 71.9262 96.311C72.0701 95.8792 72.0701 95.4475 72.2141 95.1596C72.2141 95.0157 72.2141 94.8718 72.2141 94.8718C72.2141 94.4401 72.3581 94.1522 72.3581 93.7205C72.3581 93.2887 72.3581 92.857 72.3581 92.4253C72.3581 91.7057 72.3581 90.9861 72.2141 90.2665C72.2141 89.9787 72.0701 89.547 72.0701 89.2591C72.0701 88.9713 71.9262 88.6835 71.9262 88.2517C71.9262 87.9639 71.7822 87.82 71.7822 87.5322C71.7822 87.2443 71.6382 87.1004 71.6382 86.8126C72.502 83.9343 74.0856 81.1999 76.2451 78.8973C78.4045 76.7385 80.9959 75.0116 83.8751 74.0042C87.3302 72.8528 91.0733 72.7089 94.6724 73.4285C96.5439 80.0486 94.6724 87.2443 90.0655 92.1374Z" fill="url(#paint2_linear_1_6)"/>
<path d="M71.2064 96.167C71.0624 96.5988 71.0624 97.0305 70.9184 97.4623C64.1522 99.1893 57.098 97.1744 52.3472 92.1374C47.5964 87.2443 45.8688 80.0486 47.7403 73.4285C51.3394 72.7089 55.0825 72.8528 58.5376 74.0042C61.4169 75.0116 64.1522 76.7385 66.3116 78.8973C68.471 81.1999 70.0546 83.7904 70.9184 86.8126C71.7822 89.8348 71.7822 93.1448 71.2064 96.167Z" fill="url(#paint3_linear_1_6)"/>
<path d="M75.5596 78.0753C73.6371 80.1344 72.1032 82.5854 71.2064 85.3058C70.3095 82.5854 68.7756 80.1344 66.8531 78.0753L66.8529 78.0751C64.7052 75.785 61.9915 74.0586 59.1278 73.1759C59.7352 65.1035 64.411 58.0252 71.0632 54.1727C77.8578 58.0256 82.5363 65.1059 83.2834 73.182C80.4231 74.2021 77.7108 75.9247 75.5632 78.0716L75.5631 78.0715L75.5596 78.0753ZM72.3483 95.2267L72.3641 95.1951V95.1596V95.1588V95.158V95.1571V95.1563V95.1554V95.1546V95.1537V95.1529V95.1521V95.1512V95.1504V95.1495V95.1487V95.1478V95.147V95.1461V95.1453V95.1445V95.1436V95.1428V95.1419V95.1411V95.1403V95.1394V95.1386V95.1377V95.1369V95.1361V95.1352V95.1344V95.1335V95.1327V95.1318V95.131V95.1302V95.1293V95.1285V95.1277V95.1268V95.126V95.1251V95.1243V95.1235V95.1226V95.1218V95.121V95.1201V95.1193V95.1184V95.1176V95.1168V95.1159V95.1151V95.1143V95.1134V95.1126V95.1118V95.1109V95.1101V95.1093V95.1084V95.1076V95.1068V95.1059V95.1051V95.1043V95.1035V95.1026V95.1018V95.101V95.1002V95.0993V95.0985V95.0977V95.0968V95.096V95.0952V95.0944V95.0936V95.0927V95.0919V95.0911V95.0903V95.0894V95.0886V95.0878V95.087V95.0862V95.0853V95.0845V95.0837V95.0829V95.0821V95.0813V95.0804V95.0796V95.0788V95.078V95.0772V95.0764V95.0756V95.0748V95.074V95.0731V95.0723V95.0715V95.0707V95.0699V95.0691V95.0683V95.0675V95.0667V95.0659V95.0651V95.0643V95.0635V95.0627V95.0619V95.0611V95.0603V95.0595V95.0587V95.0579V95.0571V95.0563V95.0555V95.0547V95.054V95.0532V95.0524V95.0516V95.0508V95.05V95.0492V95.0484V95.0477V95.0469V95.0461V95.0453V95.0445V95.0437V95.043V95.0422V95.0414V95.0406V95.0399V95.0391V95.0383V95.0375V95.0368V95.036V95.0352V95.0345V95.0337V95.0329V95.0322V95.0314V95.0306V95.0299V95.0291V95.0284V95.0276V95.0268V95.0261V95.0253V95.0246V95.0238V95.0231V95.0223V95.0216V95.0208V95.0201V95.0193V95.0186V95.0178V95.0171V95.0163V95.0156V95.0148V95.0141V95.0134V95.0126V95.0119V95.0112V95.0104V95.0097V95.009V95.0082V95.0075V95.0068V95.0061V95.0053V95.0046V95.0039V95.0032V95.0024V95.0017V95.001V95.0003V94.9996V94.9989V94.9981V94.9974V94.9967V94.996V94.9953V94.9946V94.9939V94.9932V94.9925V94.9918V94.9911V94.9904V94.9897V94.989V94.9883V94.9876V94.9869V94.9862V94.9855V94.9849V94.9842V94.9835V94.9828V94.9821V94.9814V94.9808V94.9801V94.9794V94.9787V94.9781V94.9774V94.9767V94.9761V94.9754V94.9747V94.9741V94.9734V94.9727V94.9721V94.9714V94.9708V94.9701V94.9695V94.9688V94.9682V94.9675V94.9669V94.9662V94.9656V94.9649V94.9643V94.9637V94.963V94.9624V94.9618V94.9611V94.9605V94.9599V94.9592V94.9586V94.958V94.9574V94.9567V94.9561V94.9555V94.9549V94.9543V94.9537V94.9531V94.9525V94.9519V94.9512V94.9506V94.95V94.9494V94.9488V94.9482V94.9477V94.9471V94.9465V94.9459V94.9453V94.9447V94.9441V94.9436V94.943V94.9424V94.9418V94.9412V94.9407V94.9401V94.9395V94.939V94.9384V94.9378V94.9373V94.9367V94.9362V94.9356V94.9351V94.9345V94.934V94.9334V94.9329V94.9323V94.9318V94.9312V94.9307V94.9302V94.9296V94.9291V94.9286V94.9281V94.9275V94.927V94.9265V94.926V94.9254V94.9249V94.9244V94.9239V94.9234V94.9229V94.9224V94.9219V94.9214V94.9209V94.9204V94.9199V94.9194V94.9189V94.9184V94.9179V94.9175V94.917V94.9165V94.916V94.9155V94.9151V94.9146V94.9141V94.9137V94.9132V94.9127V94.9123V94.9118V94.9114V94.9109V94.9105V94.91V94.9096V94.9091V94.9087V94.9083V94.9078V94.9074V94.907V94.9065V94.9061V94.9057V94.9052V94.9048V94.9044V94.904V94.9036V94.9032V94.9028V94.9024V94.9019V94.9015V94.9011V94.9007V94.9004V94.9V94.8996V94.8992V94.8988V94.8984V94.898V94.8977V94.8973V94.8969V94.8965V94.8962V94.8958V94.8954V94.8951V94.8947V94.8944V94.894V94.8937V94.8933V94.893V94.8926V94.8923V94.892V94.8916V94.8913V94.891V94.8906V94.8903V94.89V94.8897V94.8894V94.889V94.8887V94.8884V94.8881V94.8878V94.8875V94.8872V94.8869V94.8866V94.8863V94.886V94.8858V94.8855V94.8852V94.8849V94.8846V94.8844V94.8841V94.8838V94.8836V94.8833V94.883V94.8828V94.8825V94.8823V94.882V94.8818V94.8816V94.8813V94.8811V94.8808V94.8806V94.8804V94.8802V94.8799V94.8797V94.8795V94.8793V94.8791V94.8789V94.8787V94.8785V94.8783V94.8781V94.8779V94.8777V94.8775V94.8773V94.8771V94.877V94.8768V94.8766V94.8764V94.8763V94.8761V94.8759V94.8758V94.8756V94.8755V94.8753V94.8752V94.875V94.8749V94.8748V94.8746V94.8745V94.8744V94.8742V94.8741V94.874V94.8739V94.8738V94.8737V94.8736V94.8735V94.8734V94.8733V94.8732V94.8731V94.873V94.8729V94.8728V94.8727V94.8727V94.8726V94.8725V94.8725V94.8724V94.8723V94.8723V94.8722V94.8722V94.8721V94.8721V94.872V94.872V94.872V94.8719V94.8719V94.8719V94.8718C72.3641 94.6726 72.397 94.5061 72.4332 94.3256L72.434 94.3215C72.4696 94.1434 72.5081 93.9513 72.5081 93.7205V93.718V93.7154V93.7129V93.7104V93.7078V93.7053V93.7028V93.7003V93.6977V93.6952V93.6927V93.6901V93.6876V93.6851V93.6825V93.68V93.6775V93.675V93.6724V93.6699V93.6674V93.6648V93.6623V93.6598V93.6572V93.6547V93.6522V93.6497V93.6471V93.6446V93.6421V93.6395V93.637V93.6345V93.6319V93.6294V93.6269V93.6244V93.6218V93.6193V93.6168V93.6142V93.6117V93.6092V93.6067V93.6041V93.6016V93.5991V93.5965V93.594V93.5915V93.5889V93.5864V93.5839V93.5814V93.5788V93.5763V93.5738V93.5712V93.5687V93.5662V93.5636V93.5611V93.5586V93.5561V93.5535V93.551V93.5485V93.5459V93.5434V93.5409V93.5383V93.5358V93.5333V93.5308V93.5282V93.5257V93.5232V93.5206V93.5181V93.5156V93.5131V93.5105V93.508V93.5055V93.5029V93.5004V93.4979V93.4953V93.4928V93.4903V93.4878V93.4852V93.4827V93.4802V93.4776V93.4751V93.4726V93.47V93.4675V93.465V93.4625V93.4599V93.4574V93.4549V93.4523V93.4498V93.4473V93.4447V93.4422V93.4397V93.4372V93.4346V93.4321V93.4296V93.427V93.4245V93.422V93.4194V93.4169V93.4144V93.4119V93.4093V93.4068V93.4043V93.4017V93.3992V93.3967V93.3942V93.3916V93.3891V93.3866V93.384V93.3815V93.379V93.3764V93.3739V93.3714V93.3689V93.3663V93.3638V93.3613V93.3587V93.3562V93.3537V93.3511V93.3486V93.3461V93.3436V93.341V93.3385V93.336V93.3334V93.3309V93.3284V93.3258V93.3233V93.3208V93.3183V93.3157V93.3132V93.3107V93.3081V93.3056V93.3031V93.3006V93.298V93.2955V93.293V93.2904V93.2879V93.2854V93.2828V93.2803V93.2778V93.2753V93.2727V93.2702V93.2677V93.2651V93.2626V93.2601V93.2575V93.255V93.2525V93.25V93.2474V93.2449V93.2424V93.2398V93.2373V93.2348V93.2322V93.2297V93.2272V93.2247V93.2221V93.2196V93.2171V93.2145V93.212V93.2095V93.207V93.2044V93.2019V93.1994V93.1968V93.1943V93.1918V93.1892V93.1867V93.1842V93.1817V93.1791V93.1766V93.1741V93.1715V93.169V93.1665V93.1639V93.1614V93.1589V93.1564V93.1538V93.1513V93.1488V93.1462V93.1437V93.1412V93.1386V93.1361V93.1336V93.1311V93.1285V93.126V93.1235V93.1209V93.1184V93.1159V93.1133V93.1108V93.1083V93.1058V93.1032V93.1007V93.0982V93.0956V93.0931V93.0906V93.0881V93.0855V93.083V93.0805V93.0779V93.0754V93.0729V93.0703V93.0678V93.0653V93.0628V93.0602V93.0577V93.0552V93.0526V93.0501V93.0476V93.045V93.0425V93.04V93.0375V93.0349V93.0324V93.0299V93.0273V93.0248V93.0223V93.0197V93.0172V93.0147V93.0122V93.0096V93.0071V93.0046V93.002V92.9995V92.997V92.9945V92.9919V92.9894V92.9869V92.9843V92.9818V92.9793V92.9767V92.9742V92.9717V92.9692V92.9666V92.9641V92.9616V92.959V92.9565V92.954V92.9514V92.9489V92.9464V92.9439V92.9413V92.9388V92.9363V92.9337V92.9312V92.9287V92.9261V92.9236V92.9211V92.9186V92.916V92.9135V92.911V92.9084V92.9059V92.9034V92.9009V92.8983V92.8958V92.8933V92.8907V92.8882V92.8857V92.8831V92.8806V92.8781V92.8756V92.873V92.8705V92.868V92.8654V92.8629V92.8604V92.8578V92.8553V92.8528V92.8503V92.8477V92.8452V92.8427V92.8401V92.8376V92.8351V92.8325V92.83V92.8275V92.825V92.8224V92.8199V92.8174V92.8148V92.8123V92.8098V92.8073V92.8047V92.8022V92.7997V92.7971V92.7946V92.7921V92.7895V92.787V92.7845V92.782V92.7794V92.7769V92.7744V92.7718V92.7693V92.7668V92.7642V92.7617V92.7592V92.7567V92.7541V92.7516V92.7491V92.7465V92.744V92.7415V92.7389V92.7364V92.7339V92.7314V92.7288V92.7263V92.7238V92.7212V92.7187V92.7162V92.7136V92.7111V92.7086V92.7061V92.7035V92.701V92.6985V92.6959V92.6934V92.6909V92.6884V92.6858V92.6833V92.6808V92.6782V92.6757V92.6732V92.6706V92.6681V92.6656V92.6631V92.6605V92.658V92.6555V92.6529V92.6504V92.6479V92.6453V92.6428V92.6403V92.6378V92.6352V92.6327V92.6302V92.6276V92.6251V92.6226V92.62V92.6175V92.615V92.6125V92.6099V92.6074V92.6049V92.6023V92.5998V92.5973V92.5948V92.5922V92.5897V92.5872V92.5846V92.5821V92.5796V92.577V92.5745V92.572V92.5695V92.5669V92.5644V92.5619V92.5593V92.5568V92.5543V92.5517V92.5492V92.5467V92.5442V92.5416V92.5391V92.5366V92.534V92.5315V92.529V92.5264V92.5239V92.5214V92.5189V92.5163V92.5138V92.5113V92.5087V92.5062V92.5037V92.5012V92.4986V92.4961V92.4936V92.491V92.4885V92.486V92.4834V92.4809V92.4784V92.4759V92.4733V92.4708V92.4683V92.4657V92.4632V92.4607V92.4581V92.4556V92.4531V92.4506V92.448V92.4455V92.443V92.4404V92.4379V92.4354V92.4328V92.4303V92.4278V92.4253V92.4184C72.5081 91.7079 72.5081 90.9806 72.364 90.2512C72.3616 90.0954 72.3246 89.9103 72.2912 89.7435L72.2892 89.7334C72.2522 89.5485 72.2201 89.3849 72.2201 89.2591C72.2201 89.112 72.1871 88.9656 72.1556 88.8259C72.1519 88.8094 72.1482 88.7931 72.1446 88.7768C72.1091 88.6174 72.0762 88.4506 72.0762 88.2517C72.0762 88.0834 72.0337 87.956 71.998 87.8489L71.9965 87.8445C71.9605 87.7366 71.9322 87.6493 71.9322 87.5322C71.9322 87.3638 71.8897 87.2364 71.854 87.1294L71.8525 87.1249C71.8187 87.0236 71.7917 86.9404 71.7886 86.8336C72.6467 83.9872 74.215 81.2817 76.3528 79.0016C78.4978 76.8578 81.0694 75.145 83.9236 74.1461C87.3224 73.0138 91.0048 72.8632 94.5528 73.5578C96.368 80.1011 94.5076 87.1999 89.9572 92.0337C85.272 96.8587 78.3272 98.8639 71.7887 97.485C71.8583 97.2711 71.8943 97.0908 71.9289 96.9182L71.9293 96.916C71.9653 96.7361 71.9998 96.5645 72.0685 96.3584C72.1381 96.1496 72.1756 95.9413 72.2086 95.7585C72.2117 95.7415 72.2147 95.7247 72.2177 95.7082C72.2544 95.5067 72.2874 95.3483 72.3483 95.2267ZM52.4563 92.0345L52.4548 92.0329C47.7637 87.2013 46.0427 80.1036 47.8599 73.5578C51.4079 72.8632 55.0903 73.0138 58.4891 74.1461C61.3457 75.1458 64.0607 76.8597 66.2038 79.0016C68.3485 81.289 69.9181 83.8585 70.7742 86.8538C71.6294 89.8461 71.6314 93.128 71.0608 96.1293C70.9873 96.3531 70.9502 96.5753 70.9152 96.7851L70.9144 96.79C70.8828 96.9799 70.8526 97.1598 70.8004 97.3374C64.1109 99.0145 57.1502 97.0112 52.4563 92.0345Z" stroke="url(#paint4_linear_1_6)" stroke-opacity="0.5" stroke-width="0.3"/>
<g filter="url(#filter2_b_1_6)">
<path d="M115.147 80.6761C117.185 90.8015 125.314 97.9255 134.595 97.7402H176.221C180.083 97.7402 183.215 94.2477 183.215 89.9307V62.982C183.207 58.6743 180.083 55.1726 176.221 55.1633H133.849C123.292 55.2004 114.766 64.77 114.782 76.5629C114.782 77.9432 114.907 79.3236 115.147 80.6761Z" fill="#3EA0FE" fill-opacity="0.35"/>
</g>
<g filter="url(#filter3_bd_1_6)">
<circle cx="136.073" cy="76.4535" r="7.60365" fill="url(#paint5_linear_1_6)"/>
<circle cx="136.073" cy="76.4535" r="7.45157" stroke="url(#paint6_linear_1_6)" stroke-opacity="0.5" stroke-width="0.304146"/>
</g>
<g filter="url(#filter4_bd_1_6)">
<path d="M92.1598 39.956H49.1212C45.8992 39.9401 43.2945 36.8642 43.3081 33.0889C43.3217 29.3295 45.9196 26.2854 49.1212 26.2695H92.1869C95.4089 26.2536 98.0407 29.3057 98.0542 33.081C98.0678 36.8642 95.4631 39.9401 92.2412 39.956H92.1869H92.1598Z" fill="url(#paint7_linear_1_6)"/>
<path d="M92.1869 26.4216L92.1876 26.4216C95.3039 26.4062 97.8888 29.3669 97.9022 33.0815C97.9155 36.8042 95.3569 39.7883 92.2408 39.8039H92.1869H92.1598H49.1216C46.0053 39.7883 43.4468 36.8041 43.4602 33.0895C43.4735 29.3904 46.0251 26.4372 49.1216 26.4216L92.1869 26.4216Z" stroke="url(#paint8_linear_1_6)" stroke-opacity="0.5" stroke-width="0.304146"/>
</g>
</g>
<defs>
<filter id="filter0_d_1_6" x="0.727613" y="0.417075" width="197.695" height="167.28" filterUnits="userSpaceOnUse" color-interpolation-filters="sRGB">
<feFlood flood-opacity="0" result="BackgroundImageFix"/>
<feColorMatrix in="SourceAlpha" type="matrix" values="0 0 0 0 0 0 0 0 0 0 0 0 0 0 0 0 0 0 127 0" result="hardAlpha"/>
<feOffset dy="7.60365"/>
<feGaussianBlur stdDeviation="7.60365"/>
<feColorMatrix type="matrix" values="0 0 0 0 0 0 0 0 0 0 0 0 0 0 0 0 0 0 0.05 0"/>
<feBlend mode="normal" in2="BackgroundImageFix" result="effect1_dropShadow_1_6"/>
<feBlend mode="normal" in="SourceGraphic" in2="effect1_dropShadow_1_6" result="shape"/>
</filter>
<filter id="filter1_b_1_6" x="-20.5626" y="-28.4768" width="225.068" height="209.861" filterUnits="userSpaceOnUse" color-interpolation-filters="sRGB">
<feFlood flood-opacity="0" result="BackgroundImageFix"/>
<feGaussianBlur in="BackgroundImage" stdDeviation="18.2488"/>
<feComposite in2="SourceAlpha" operator="in" result="effect1_backgroundBlur_1_6"/>
<feBlend mode="normal" in="SourceGraphic" in2="effect1_backgroundBlur_1_6" result="shape"/>
</filter>
<filter id="filter2_b_1_6" x="78.2848" y="18.6658" width="141.428" height="115.575" filterUnits="userSpaceOnUse" color-interpolation-filters="sRGB">
<feFlood flood-opacity="0" result="BackgroundImageFix"/>
<feGaussianBlur in="BackgroundImage" stdDeviation="18.2488"/>
<feComposite in2="SourceAlpha" operator="in" result="effect1_backgroundBlur_1_6"/>
<feBlend mode="normal" in="SourceGraphic" in2="effect1_backgroundBlur_1_6" result="shape"/>
</filter>
<filter id="filter3_bd_1_6" x="105.658" y="46.0389" width="60.8292" height="60.8292" filterUnits="userSpaceOnUse" color-interpolation-filters="sRGB">
<feFlood flood-opacity="0" result="BackgroundImageFix"/>
<feGaussianBlur in="BackgroundImage" stdDeviation="11.4055"/>
<feComposite in2="SourceAlpha" operator="in" result="effect1_backgroundBlur_1_6"/>
<feColorMatrix in="SourceAlpha" type="matrix" values="0 0 0 0 0 0 0 0 0 0 0 0 0 0 0 0 0 0 127 0" result="hardAlpha"/>
<feOffset dx="7.60365" dy="7.60365"/>
<feGaussianBlur stdDeviation="7.60365"/>
<feColorMatrix type="matrix" values="0 0 0 0 0.15375 0 0 0 0 0.522433 0 0 0 0 0.9 0 0 0 0.5 0"/>
<feBlend mode="normal" in2="effect1_backgroundBlur_1_6" result="effect2_dropShadow_1_6"/>
<feBlend mode="normal" in="SourceGraphic" in2="effect2_dropShadow_1_6" result="shape"/>
</filter>
<filter id="filter4_bd_1_6" x="20.4971" y="3.45852" width="100.368" height="59.3084" filterUnits="userSpaceOnUse" color-interpolation-filters="sRGB">
<feFlood flood-opacity="0" result="BackgroundImageFix"/>
<feGaussianBlur in="BackgroundImage" stdDeviation="11.4055"/>
<feComposite in2="SourceAlpha" operator="in" result="effect1_backgroundBlur_1_6"/>
<feColorMatrix in="SourceAlpha" type="matrix" values="0 0 0 0 0 0 0 0 0 0 0 0 0 0 0 0 0 0 127 0" result="hardAlpha"/>
<feOffset dx="7.60365" dy="7.60365"/>
<feGaussianBlur stdDeviation="7.60365"/>
<feColorMatrix type="matrix" values="0 0 0 0 0.15375 0 0 0 0 0.522433 0 0 0 0 0.9 0 0 0 0.5 0"/>
<feBlend mode="normal" in2="effect1_backgroundBlur_1_6" result="effect2_dropShadow_1_6"/>
<feBlend mode="normal" in="SourceGraphic" in2="effect2_dropShadow_1_6" result="shape"/>
</filter>
<linearGradient id="paint0_linear_1_6" x1="147.339" y1="139.939" x2="1.69818" y2="61.5518" gradientUnits="userSpaceOnUse">
<stop stop-color="#0C66F1"/>
<stop offset="1" stop-color="#3FACFC"/>
</linearGradient>
<linearGradient id="paint1_linear_1_6" x1="91.9599" y1="61.958" x2="38.0689" y2="63.8874" gradientUnits="userSpaceOnUse">
<stop stop-color="white"/>
<stop offset="1" stop-color="white" stop-opacity="0.2"/>
</linearGradient>
<linearGradient id="paint2_linear_1_6" x1="91.9599" y1="61.958" x2="38.0689" y2="63.8874" gradientUnits="userSpaceOnUse">
<stop stop-color="white"/>
<stop offset="1" stop-color="white" stop-opacity="0.2"/>
</linearGradient>
<linearGradient id="paint3_linear_1_6" x1="91.9599" y1="61.958" x2="38.0689" y2="63.8874" gradientUnits="userSpaceOnUse">
<stop stop-color="white"/>
<stop offset="1" stop-color="white" stop-opacity="0.2"/>
</linearGradient>
<linearGradient id="paint4_linear_1_6" x1="52.2127" y1="68.7831" x2="93.303" y2="69.0322" gradientUnits="userSpaceOnUse">
<stop stop-color="white"/>
<stop offset="1" stop-color="white" stop-opacity="0"/>
</linearGradient>
<linearGradient id="paint5_linear_1_6" x1="142.598" y1="71.596" x2="125.658" y2="72.1483" gradientUnits="userSpaceOnUse">
<stop stop-color="white"/>
<stop offset="1" stop-color="white" stop-opacity="0.2"/>
</linearGradient>
<linearGradient id="paint6_linear_1_6" x1="130.107" y1="73.9512" x2="143.02" y2="74.0225" gradientUnits="userSpaceOnUse">
<stop stop-color="white"/>
<stop offset="1" stop-color="white" stop-opacity="0"/>
</linearGradient>
<linearGradient id="paint7_linear_1_6" x1="94.1728" y1="28.741" x2="34.1468" y2="36.5694" gradientUnits="userSpaceOnUse">
<stop stop-color="white"/>
<stop offset="1" stop-color="white" stop-opacity="0.2"/>
</linearGradient>
<linearGradient id="paint8_linear_1_6" x1="49.2054" y1="30.8606" x2="95.6713" y2="31.8867" gradientUnits="userSpaceOnUse">
<stop stop-color="white"/>
<stop offset="1" stop-color="white" stop-opacity="0"/>
</linearGradient>
</defs>
</svg>
