<svg width="26" height="25" viewBox="0 0 26 25" fill="none" xmlns="http://www.w3.org/2000/svg">
<path d="M14.6601 24.6611H9.16347V8.22035H14.6601V10.9605C15.8317 9.47431 17.6085 8.58832 19.5039 8.54506C22.9126 8.56392 25.6632 11.3295 25.6533 14.7281V24.6611H20.1567V15.4132C19.9368 13.8823 18.62 12.7464 17.0689 12.7498C16.3905 12.7712 15.7501 13.0673 15.2955 13.5699C14.841 14.0725 14.6115 14.7381 14.6601 15.4132V24.6611ZM6.41517 24.6611H0.918579V8.22035H6.41517V24.6611ZM3.66688 5.48024C2.14903 5.48024 0.918579 4.25344 0.918579 2.74012C0.918579 1.22679 2.14903 0 3.66688 0C5.18472 0 6.41517 1.22679 6.41517 2.74012C6.41517 3.46684 6.12562 4.1638 5.61022 4.67767C5.09481 5.19155 4.39577 5.48024 3.66688 5.48024Z" fill="white"/>
</svg>
