<svg width="27" height="26" viewBox="0 0 27 26" fill="none" xmlns="http://www.w3.org/2000/svg">
<path d="M13.336 25.6322C6.23672 25.6322 0.481628 19.8942 0.481628 12.8161C0.481628 5.73796 6.23672 0 13.336 0C20.4352 0 26.1903 5.73796 26.1903 12.8161C26.1825 19.891 20.432 25.6244 13.336 25.6322ZM6.66071 10.9488C5.89154 10.9492 5.20049 11.4175 4.91707 12.1305C4.63366 12.8434 4.81525 13.6566 5.37528 14.1823C5.52332 14.3221 5.69359 14.4364 5.87917 14.5206C5.86302 14.7078 5.86302 14.8961 5.87917 15.0833C5.87917 17.9541 9.24058 20.2892 13.372 20.2892C17.5034 20.2892 20.8661 17.9541 20.8661 15.0833C20.881 14.896 20.881 14.7079 20.8661 14.5206C21.6462 14.1427 22.0589 13.2756 21.8591 12.434C21.6592 11.5925 20.9004 11.0019 20.0331 11.0129H19.965C19.5045 11.0298 19.0665 11.2156 18.7348 11.5345C17.2727 10.5432 15.5537 9.99562 13.7859 9.9581L14.6214 5.95948L17.3697 6.53621C17.4405 7.18606 17.9905 7.67865 18.6461 7.6794C18.6929 7.67935 18.7397 7.67678 18.7862 7.67171C19.4678 7.6035 19.976 7.01443 19.9417 6.33235C19.9074 5.65027 19.3427 5.1149 18.6577 5.1149C18.6091 5.11606 18.5606 5.11992 18.5124 5.12644C18.105 5.16959 17.7426 5.40379 17.5368 5.75699L14.39 5.12644C14.3622 5.12048 14.3337 5.11747 14.3052 5.11747C14.1194 5.11967 13.9596 5.24925 13.9196 5.43018L12.9581 9.88121C11.1685 9.90646 9.42562 10.4541 7.94486 11.4563C7.59781 11.1294 7.13816 10.9477 6.66071 10.9488ZM13.5674 18.6141C13.4954 18.6141 13.4221 18.6141 13.3501 18.6141C13.2781 18.6141 13.2049 18.6141 13.1329 18.6141C12.0661 18.61 11.0291 18.2626 10.1764 17.6234C10.1176 17.5527 10.0895 17.4615 10.0985 17.37C10.1074 17.2786 10.1526 17.1945 10.2239 17.1364C10.2861 17.0861 10.3637 17.0585 10.4437 17.0582C10.5239 17.0582 10.6015 17.0858 10.6636 17.1364C11.3842 17.6628 12.255 17.9454 13.1483 17.9425C13.2109 17.9425 13.2734 17.9425 13.336 17.9425C13.4118 17.9425 13.4889 17.9425 13.5648 17.9425C14.4466 17.944 15.3065 17.6687 16.0225 17.1556C16.0902 17.0867 16.1829 17.0479 16.2796 17.0479C16.3764 17.0479 16.469 17.0867 16.5367 17.1556C16.6761 17.2993 16.6732 17.5281 16.5303 17.6683V17.617C15.6771 18.2605 14.6372 18.61 13.5674 18.6128V18.6141ZM16.3015 15.4818H16.2809L16.2912 15.4319C15.7258 15.3934 15.2634 14.9678 15.1796 14.409C15.0959 13.8501 15.4134 13.3085 15.9429 13.1069C16.4724 12.9054 17.0712 13.0983 17.3823 13.5705C17.6934 14.0428 17.6331 14.6673 17.2373 15.0717C17.0071 15.3222 16.6857 15.47 16.3452 15.4818H16.3002H16.3015ZM10.3409 15.3793C9.63099 15.3793 9.05548 14.8055 9.05548 14.0977C9.05548 13.3899 9.63099 12.8161 10.3409 12.8161C11.0508 12.8161 11.6263 13.3899 11.6263 14.0977C11.6263 14.8055 11.0508 15.3793 10.3409 15.3793Z" fill="white"/>
</svg>
