<svg width="19" height="19" viewBox="0 0 19 19" fill="none" xmlns="http://www.w3.org/2000/svg">
<path d="M9.50375 9.05542e-06C4.57025 -0.00675019 0.454347 3.77125 0.0348112 8.69161C-0.384725 13.612 3.03204 18.0335 7.89534 18.8636C12.7586 19.6938 17.4463 16.6557 18.6797 11.8743H16.211C15.0043 15.2906 11.4279 17.2562 7.90045 16.4417C4.37295 15.6271 2.01816 12.2921 2.42851 8.69184C2.83886 5.09159 5.88362 2.37315 9.50375 2.37486C11.3894 2.37763 13.1948 3.13931 14.5135 4.48849L10.696 8.31199H19V9.05542e-06L16.211 2.79047C14.436 1.00294 12.0217 -0.00151313 9.50375 9.05542e-06Z" fill="#545684"/>
</svg>
