<svg width="697" height="670" viewBox="0 0 697 670" fill="none" xmlns="http://www.w3.org/2000/svg">
<path opacity="0.0375" d="M481.918 285.304C742.505 381.374 348.65 670.064 309.265 479.769C289.709 385.066 106.184 443.666 111.654 345.954C117.124 248.311 199.861 256.722 281.914 208.858C384.07 148.685 412.857 259.867 481.918 285.304Z" stroke="url(#paint0_linear_25_10340)" stroke-width="0.939028" stroke-miterlimit="10"/>
<path opacity="0.075" d="M483.901 280.449C728.419 381.237 361.642 665.004 309.402 484.009C283.623 394.776 103.038 432.999 114.116 338.57C125.056 244.209 205.468 245.029 285.743 205.507C385.848 156.275 417.301 252.961 483.901 280.449Z" stroke="url(#paint1_linear_25_10340)" stroke-width="0.939028" stroke-miterlimit="10"/>
<path opacity="0.1125" d="M485.953 275.526C714.265 380.554 374.771 660.149 309.47 488.317C277.675 404.691 99.9615 422.401 116.509 331.185C132.919 240.106 210.87 233.268 289.504 202.225C387.421 163.592 421.678 245.987 485.953 275.526Z" stroke="url(#paint2_linear_25_10340)" stroke-width="0.939028" stroke-miterlimit="10"/>
<path opacity="0.15" d="M487.935 270.602C700.042 379.323 388.173 655.431 309.539 492.556C271.863 414.537 96.8161 411.734 118.902 323.8C140.714 236.003 216.272 221.439 293.265 198.874C388.925 170.976 425.985 238.875 487.935 270.602Z" stroke="url(#paint3_linear_25_10340)" stroke-width="0.939028" stroke-miterlimit="10"/>
<path opacity="0.1875" d="M489.987 265.748C685.957 377.613 401.985 650.918 309.675 496.795C266.256 424.452 93.6707 401.067 121.295 316.415C148.578 231.901 221.605 209.61 297.094 195.592C390.429 178.293 430.225 231.627 489.987 265.748Z" stroke="url(#paint4_linear_25_10340)" stroke-width="0.939028" stroke-miterlimit="10"/>
<path opacity="0.225" d="M491.97 260.825C671.871 375.152 416.071 646.269 309.675 501.035C260.785 434.298 90.5254 390.332 123.689 308.962C156.441 227.73 226.87 197.712 300.855 192.242C391.797 185.609 434.464 224.311 491.97 260.825Z" stroke="url(#paint5_linear_25_10340)" stroke-width="0.939028" stroke-miterlimit="10"/>
<path opacity="0.2625" d="M494.021 255.97C658.059 372.143 430.635 641.55 309.812 505.342C255.52 444.213 87.5168 379.733 126.15 301.577C164.305 223.695 232.204 185.814 304.684 188.96C393.233 192.789 438.704 216.789 494.021 255.97Z" stroke="url(#paint6_linear_25_10340)" stroke-width="0.939028" stroke-miterlimit="10"/>
<path opacity="0.3" d="M496.004 251.047C644.452 368.451 445.405 636.491 309.88 509.582C250.392 453.854 84.3715 369.066 128.543 294.193C172.237 219.593 237.469 173.78 308.513 185.609C394.6 199.969 442.943 209.063 496.004 251.047Z" stroke="url(#paint7_linear_25_10340)" stroke-width="0.939028" stroke-miterlimit="10"/>
<path opacity="0.3375" d="M498.055 246.192C631.186 364.143 460.448 631.294 309.949 513.89C245.401 463.495 81.2261 358.468 130.937 286.876C180.032 215.49 242.734 161.746 312.274 182.327C395.968 207.011 447.319 201.199 498.055 246.192Z" stroke="url(#paint8_linear_25_10340)" stroke-width="0.939028" stroke-miterlimit="10"/>
<path opacity="0.375" d="M500.038 241.269C618.331 359.288 475.628 625.619 310.017 518.129C240.409 472.932 78.1491 347.801 133.33 279.423C187.963 211.388 247.999 149.711 316.103 178.977C397.335 214.054 451.832 193.199 500.038 241.269Z" stroke="url(#paint9_linear_25_10340)" stroke-width="0.939028" stroke-miterlimit="10"/>
<path opacity="0.4125" d="M502.09 236.345C606.023 353.886 490.876 619.533 310.154 522.368C235.486 482.231 75.0721 337.134 135.791 272.038C195.827 207.285 253.401 137.54 319.932 175.695C398.84 220.96 456.55 184.925 502.09 236.345Z" stroke="url(#paint10_linear_25_10340)" stroke-width="0.939028" stroke-miterlimit="10"/>
<path opacity="0.45" d="M504.073 231.49C594.263 348.211 506.056 613.242 310.154 526.676C230.426 491.462 71.8584 326.467 138.116 264.653C203.622 203.182 258.734 125.369 323.624 172.412C400.344 227.935 461.542 176.447 504.073 231.49Z" stroke="url(#paint11_linear_25_10340)" stroke-width="0.939028" stroke-miterlimit="10"/>
<path opacity="0.4875" d="M506.124 226.567C583.185 342.33 521.235 606.61 310.291 530.916C225.434 500.488 68.7814 315.8 140.578 257.269C211.554 199.148 264.273 113.266 327.522 169.062C401.917 234.841 466.944 167.831 506.124 226.567Z" stroke="url(#paint12_linear_25_10340)" stroke-width="0.939028" stroke-miterlimit="10"/>
<path opacity="0.525" d="M508.107 221.713C572.724 336.45 536.278 599.772 310.359 535.155C220.374 509.445 65.7043 305.133 142.971 249.816C219.417 194.977 269.743 101.026 331.283 165.711C403.626 241.747 472.824 159.079 508.107 221.713Z" stroke="url(#paint13_linear_25_10340)" stroke-width="0.939028" stroke-miterlimit="10"/>
<path opacity="0.5625" d="M510.158 216.789C563.014 330.775 551.116 592.66 310.428 539.394C215.178 518.334 62.559 294.466 145.364 242.431C227.28 190.874 275.281 88.855 335.043 162.429C405.267 248.722 479.252 150.258 510.158 216.789Z" stroke="url(#paint14_linear_25_10340)" stroke-width="0.939028" stroke-miterlimit="10"/>
<path opacity="0.6" d="M512.141 211.935C553.988 325.578 565.818 585.481 310.496 543.702C209.981 527.223 59.4137 283.868 147.757 235.046C235.144 186.772 280.82 76.7522 338.873 159.079C406.977 255.696 486.226 141.506 512.141 211.935Z" stroke="url(#paint15_linear_25_10340)" stroke-width="0.939028" stroke-miterlimit="10"/>
<path d="M375.591 553.207C189.126 932.292 -44.9988 255.491 201.639 263.286C325.197 267.184 283.145 -21.096 403.968 2.35745C524.791 25.8109 481.371 145.266 525.611 279.423C580.792 446.948 423.729 455.222 375.591 553.207Z" stroke="url(#paint16_linear_25_10340)" stroke-width="0.939028" stroke-miterlimit="10"/>
<path opacity="0.9375" d="M380.856 557.241C192.408 912.462 -42.4688 275.184 196.511 262.397C315.282 256.038 296.752 -23.1474 412.105 7.55411C527.526 38.1189 494.226 155.865 528.483 285.645C571.835 447.495 430.635 463.427 380.856 557.241Z" stroke="url(#paint17_linear_25_10340)" stroke-width="0.939028" stroke-miterlimit="10"/>
<path opacity="0.875" d="M386.19 561.275C196.237 892.633 -40.3491 295.15 191.382 261.508C305.162 245.029 310.359 -25.1987 420.31 12.7508C530.193 50.4268 506.603 166.532 531.424 291.936C562.262 448.11 437.541 471.632 386.19 561.275Z" stroke="url(#paint18_linear_25_10340)" stroke-width="0.939028" stroke-miterlimit="10"/>
<path opacity="0.8125" d="M391.455 565.378C200.545 872.803 -38.6397 315.39 186.254 260.619C294.906 234.157 323.966 -27.2498 428.447 17.8793C532.86 62.735 519.184 177.062 534.295 298.159C553.031 448.658 444.584 479.769 391.455 565.378Z" stroke="url(#paint19_linear_25_10340)" stroke-width="0.939028" stroke-miterlimit="10"/>
<path opacity="0.75" d="M396.72 569.412C205.536 853.042 -37.1354 336.108 181.126 259.799C284.581 223.627 337.642 -29.2328 436.652 23.1443C535.595 75.1113 531.834 187.661 537.167 304.449C543.8 449.205 451.764 487.769 396.72 569.412Z" stroke="url(#paint20_linear_25_10340)" stroke-width="0.939028" stroke-miterlimit="10"/>
<path opacity="0.6875" d="M402.053 573.446C211.143 833.349 -35.7679 357.373 176.066 258.91C274.187 213.302 351.249 -31.2844 444.858 28.3408C538.33 87.4874 544.552 198.191 540.107 310.74C534.637 449.615 459.08 495.838 402.053 573.446Z" stroke="url(#paint21_linear_25_10340)" stroke-width="0.939028" stroke-miterlimit="10"/>
<path opacity="0.625" d="M407.318 577.549C217.434 813.93 -34.4004 379.186 170.937 258.089C263.794 203.251 364.924 -33.2673 452.994 33.5375C541.065 99.7953 557.27 208.652 543.048 316.962C525.543 450.025 466.533 503.838 407.318 577.549Z" stroke="url(#paint22_linear_25_10340)" stroke-width="0.939028" stroke-miterlimit="10"/>
<path opacity="0.5625" d="M412.584 581.583C224.545 794.784 -32.8275 401.477 165.741 257.2C253.469 193.473 378.463 -35.2502 461.132 38.7343C543.732 112.103 570.057 219.114 545.92 323.253C516.449 450.435 474.123 511.838 412.584 581.583Z" stroke="url(#paint23_linear_25_10340)" stroke-width="0.939028" stroke-miterlimit="10"/>
<path opacity="0.5" d="M417.917 585.618C232.409 775.912 -30.9131 424.178 160.681 256.312C243.349 183.831 392.139 -37.3015 469.405 43.931C546.467 124.48 582.912 229.576 548.86 329.544C507.491 450.846 481.987 519.907 417.917 585.618Z" stroke="url(#paint24_linear_25_10340)" stroke-width="0.939028" stroke-miterlimit="10"/>
<path opacity="0.4375" d="M423.182 589.72C241.093 757.587 -28.5198 447.222 155.552 255.423C233.434 174.327 405.814 -39.3528 477.542 49.1277C549.133 136.788 595.767 239.969 551.732 335.766C498.602 451.187 490.055 528.044 423.182 589.72Z" stroke="url(#paint25_linear_25_10340)" stroke-width="0.939028" stroke-miterlimit="10"/>
<path opacity="0.375" d="M428.515 593.755C250.46 739.877 -25.7847 470.402 150.424 254.534C223.588 164.891 419.421 -41.4042 485.747 54.256C551.868 149.096 608.759 250.499 554.672 341.989C489.782 451.666 498.329 536.386 428.515 593.755Z" stroke="url(#paint26_linear_25_10340)" stroke-width="0.939028" stroke-miterlimit="10"/>
<path opacity="0.3125" d="M433.78 597.789C260.443 722.92 -22.571 493.718 145.296 253.645C214.015 155.455 433.028 -43.4555 493.884 59.521C554.535 161.472 621.75 261.098 557.544 348.279C481.029 452.145 506.876 545.07 433.78 597.789Z" stroke="url(#paint27_linear_25_10340)" stroke-width="0.939028" stroke-miterlimit="10"/>
<path opacity="0.25" d="M439.046 601.823C270.974 706.783 -19.0154 516.967 140.167 252.824C204.511 146.019 446.635 -45.5069 502.09 64.7177C557.27 173.78 634.81 271.696 560.484 354.57C472.277 452.76 515.628 554.096 439.046 601.823Z" stroke="url(#paint28_linear_25_10340)" stroke-width="0.939028" stroke-miterlimit="10"/>
<path opacity="0.1875" d="M444.379 605.926C281.777 691.671 -15.0494 540.215 135.039 251.935C195.143 136.514 460.311 -47.4899 510.227 69.9143C559.937 186.088 647.802 282.363 563.356 360.792C463.593 453.444 524.586 563.6 444.379 605.926Z" stroke="url(#paint29_linear_25_10340)" stroke-width="0.939028" stroke-miterlimit="10"/>
<path opacity="0.125" d="M449.644 609.96C292.512 677.449 -10.8785 563.258 129.911 251.046C185.912 126.941 473.918 -49.5411 518.432 75.0427C562.672 198.396 660.93 293.03 566.296 367.015C454.841 454.128 533.68 573.857 449.644 609.96Z" stroke="url(#paint30_linear_25_10340)" stroke-width="0.939028" stroke-miterlimit="10"/>
<path opacity="0.0625" d="M454.977 613.994C302.838 664.32 -6.50228 586.233 124.783 250.226C176.681 117.368 487.525 -51.524 526.569 80.3078C565.27 210.772 673.854 303.902 569.1 373.374C446.088 454.948 542.843 584.934 454.977 613.994Z" stroke="url(#paint31_linear_25_10340)" stroke-width="0.939028" stroke-miterlimit="10"/>
<path opacity="0.025" d="M166.766 460.829C-243.841 412.076 244.306 -113.748 359.864 136.514C417.37 260.961 667.973 120.924 689.649 257.679C711.393 394.366 587.903 409.409 482.465 501.992C351.386 618.097 275.35 473.752 166.766 460.829Z" stroke="url(#paint32_linear_25_10340)" stroke-width="0.939028" stroke-miterlimit="10"/>
<path opacity="0.05" d="M165.262 468.282C-223.396 407.768 226.87 -102.67 358.497 130.702C423.319 245.576 675.769 134.668 688.418 268.688C701.205 402.571 583.322 427.324 477.952 507.804C346.531 608.182 270.905 484.692 165.262 468.282Z" stroke="url(#paint33_linear_25_10340)" stroke-width="0.939028" stroke-miterlimit="10"/>
<path opacity="0.075" d="M163.826 475.667C-202.677 404.007 209.092 -91.7983 357.061 124.822C428.926 230.055 683.563 148.344 687.119 279.697C690.948 410.776 579.014 445.375 473.371 513.616C342.018 598.541 266.597 495.77 163.826 475.667Z" stroke="url(#paint34_linear_25_10340)" stroke-width="0.939028" stroke-miterlimit="10"/>
<path opacity="0.1" d="M162.322 483.12C-181.822 400.998 190.698 -81.063 355.625 119.01C434.327 214.533 691.359 162.156 685.82 290.706C680.692 418.982 574.707 463.496 468.858 519.428C337.573 588.831 262.426 506.984 162.322 483.12Z" stroke="url(#paint35_linear_25_10340)" stroke-width="0.939028" stroke-miterlimit="10"/>
<path opacity="0.125" d="M160.886 490.505C-160.762 398.81 171.895 -70.3277 354.189 113.061C439.456 198.875 699.154 175.763 684.589 301.646C670.435 427.187 570.467 481.547 464.345 525.24C333.129 579.19 258.324 518.266 160.886 490.505Z" stroke="url(#paint36_linear_25_10340)" stroke-width="0.939028" stroke-miterlimit="10"/>
<path opacity="0.15" d="M159.45 497.889C-139.633 397.443 152.544 -59.4558 352.822 107.18C444.447 183.421 706.949 189.438 683.358 312.586C660.178 435.392 566.296 499.667 459.764 531.052C328.821 569.617 254.29 529.753 159.45 497.889Z" stroke="url(#paint37_linear_25_10340)" stroke-width="0.939028" stroke-miterlimit="10"/>
<path opacity="0.175" d="M157.946 505.342C-118.573 397.101 132.714 -48.1734 351.386 101.368C449.097 168.241 714.744 203.251 682.059 323.595C649.922 443.529 562.193 517.787 455.251 536.796C324.582 560.044 250.324 541.514 157.946 505.342Z" stroke="url(#paint38_linear_25_10340)" stroke-width="0.939028" stroke-miterlimit="10"/>
<path opacity="0.2" d="M156.51 512.727C-97.5811 397.716 112.543 -36.4809 349.95 95.4877C453.61 153.13 722.539 216.926 680.76 334.604C639.665 451.803 558.159 536.044 450.67 542.677C320.411 550.608 246.358 553.412 156.51 512.727Z" stroke="url(#paint39_linear_25_10340)" stroke-width="0.939028" stroke-miterlimit="10"/>
<path opacity="0.225" d="M155.074 520.18C-76.7944 399.289 92.1665 -24.2415 348.582 89.6755C458.123 138.36 730.402 230.67 679.598 345.612C629.409 460.008 554.125 554.437 446.157 548.489C316.24 541.309 242.392 565.651 155.074 520.18Z" stroke="url(#paint40_linear_25_10340)" stroke-width="0.939028" stroke-miterlimit="10"/>
<path opacity="0.25" d="M153.569 527.565C-56.5546 401.819 71.7216 -11.5232 347.146 83.7951C462.499 123.728 738.197 244.345 678.298 356.621C619.152 468.213 550.022 572.831 441.644 554.232C312 532.078 238.221 578.233 153.569 527.565Z" stroke="url(#paint41_linear_25_10340)" stroke-width="0.939028" stroke-miterlimit="10"/>
<path opacity="0.275" d="M152.134 534.95C-36.7251 405.306 51.3451 1.81046 345.71 77.9146C466.944 109.3 745.924 258.089 676.999 367.562C608.895 476.419 545.92 591.293 437.063 560.044C307.761 522.915 233.913 591.156 152.134 534.95Z" stroke="url(#paint42_linear_25_10340)" stroke-width="0.939028" stroke-miterlimit="10"/>
<path opacity="0.3" d="M150.698 542.403C-17.5795 409.409 31.1054 15.5544 344.274 72.1026C471.456 95.0775 753.719 271.833 675.7 378.639C598.57 484.624 541.68 609.892 432.481 565.925C303.385 513.821 229.195 604.422 150.698 542.403Z" stroke="url(#paint43_linear_25_10340)" stroke-width="0.939028" stroke-miterlimit="10"/>
<path opacity="0.325" d="M149.193 549.788C0.608932 414.127 11.0707 29.6402 342.907 66.2221C476.106 80.9233 761.582 285.509 674.469 389.579C588.382 492.829 537.441 628.422 427.968 571.669C298.94 504.795 223.998 618.097 149.193 549.788Z" stroke="url(#paint44_linear_25_10340)" stroke-width="0.939028" stroke-miterlimit="10"/>
<path opacity="0.35" d="M147.757 557.241C17.9085 419.118 -8.69028 43.9993 341.471 60.3415C480.893 66.8374 769.377 299.253 673.239 400.588C578.125 501.035 533.133 647.021 423.456 577.481C294.496 495.701 218.186 632.183 147.757 557.241Z" stroke="url(#paint45_linear_25_10340)" stroke-width="0.939028" stroke-miterlimit="10"/>
<path opacity="0.375" d="M146.321 564.626C34.0456 423.973 -28.178 58.5639 340.035 54.4612C485.747 52.8885 777.172 312.928 671.939 411.529C567.869 509.24 528.757 665.551 418.943 583.293C289.914 486.675 211.622 646.474 146.321 564.626Z" stroke="url(#paint46_linear_25_10340)" stroke-width="0.939028" stroke-miterlimit="10"/>
<path opacity="0.4" d="M144.817 572.011C49.0203 428.486 -47.4604 73.1966 338.667 48.6491C490.671 38.9395 784.967 326.672 670.709 422.537C557.612 517.377 524.381 684.081 414.361 589.105C285.265 477.581 204.169 660.97 144.817 572.011Z" stroke="url(#paint47_linear_25_10340)" stroke-width="0.939028" stroke-miterlimit="10"/>
<defs>
<linearGradient id="paint0_linear_25_10340" x1="508.068" y1="530.572" x2="102.819" y2="274.698" gradientUnits="userSpaceOnUse">
<stop stop-color="#0C66F1"/>
<stop offset="1" stop-color="#3FACFC"/>
</linearGradient>
<linearGradient id="paint1_linear_25_10340" x1="505.518" y1="530.325" x2="102.849" y2="278.489" gradientUnits="userSpaceOnUse">
<stop stop-color="#0C66F1"/>
<stop offset="1" stop-color="#3FACFC"/>
</linearGradient>
<linearGradient id="paint2_linear_25_10340" x1="502.945" y1="530.193" x2="102.585" y2="282.239" gradientUnits="userSpaceOnUse">
<stop stop-color="#0C66F1"/>
<stop offset="1" stop-color="#3FACFC"/>
</linearGradient>
<linearGradient id="paint3_linear_25_10340" x1="500.321" y1="530.102" x2="102.091" y2="285.927" gradientUnits="userSpaceOnUse">
<stop stop-color="#0C66F1"/>
<stop offset="1" stop-color="#3FACFC"/>
</linearGradient>
<linearGradient id="paint4_linear_25_10340" x1="497.791" y1="530.125" x2="101.345" y2="289.56" gradientUnits="userSpaceOnUse">
<stop stop-color="#0C66F1"/>
<stop offset="1" stop-color="#3FACFC"/>
</linearGradient>
<linearGradient id="paint5_linear_25_10340" x1="495.239" y1="530.105" x2="100.143" y2="293.178" gradientUnits="userSpaceOnUse">
<stop stop-color="#0C66F1"/>
<stop offset="1" stop-color="#3FACFC"/>
</linearGradient>
<linearGradient id="paint6_linear_25_10340" x1="492.856" y1="530.097" x2="97.8224" y2="297.203" gradientUnits="userSpaceOnUse">
<stop stop-color="#0C66F1"/>
<stop offset="1" stop-color="#3FACFC"/>
</linearGradient>
<linearGradient id="paint7_linear_25_10340" x1="490.512" y1="529.936" x2="94.2519" y2="301.497" gradientUnits="userSpaceOnUse">
<stop stop-color="#0C66F1"/>
<stop offset="1" stop-color="#3FACFC"/>
</linearGradient>
<linearGradient id="paint8_linear_25_10340" x1="488.332" y1="529.857" x2="90.3434" y2="305.858" gradientUnits="userSpaceOnUse">
<stop stop-color="#0C66F1"/>
<stop offset="1" stop-color="#3FACFC"/>
</linearGradient>
<linearGradient id="paint9_linear_25_10340" x1="486.284" y1="529.722" x2="86.3851" y2="310.036" gradientUnits="userSpaceOnUse">
<stop stop-color="#0C66F1"/>
<stop offset="1" stop-color="#3FACFC"/>
</linearGradient>
<linearGradient id="paint10_linear_25_10340" x1="484.469" y1="529.645" x2="82.4922" y2="314.045" gradientUnits="userSpaceOnUse">
<stop stop-color="#0C66F1"/>
<stop offset="1" stop-color="#3FACFC"/>
</linearGradient>
<linearGradient id="paint11_linear_25_10340" x1="482.806" y1="529.798" x2="78.4792" y2="317.987" gradientUnits="userSpaceOnUse">
<stop stop-color="#0C66F1"/>
<stop offset="1" stop-color="#3FACFC"/>
</linearGradient>
<linearGradient id="paint12_linear_25_10340" x1="481.456" y1="530.107" x2="74.6327" y2="321.844" gradientUnits="userSpaceOnUse">
<stop stop-color="#0C66F1"/>
<stop offset="1" stop-color="#3FACFC"/>
</linearGradient>
<linearGradient id="paint13_linear_25_10340" x1="480.323" y1="530.706" x2="70.7202" y2="325.738" gradientUnits="userSpaceOnUse">
<stop stop-color="#0C66F1"/>
<stop offset="1" stop-color="#3FACFC"/>
</linearGradient>
<linearGradient id="paint14_linear_25_10340" x1="479.521" y1="531.641" x2="66.8238" y2="329.578" gradientUnits="userSpaceOnUse">
<stop stop-color="#0C66F1"/>
<stop offset="1" stop-color="#3FACFC"/>
</linearGradient>
<linearGradient id="paint15_linear_25_10340" x1="479.032" y1="533.063" x2="62.8692" y2="333.635" gradientUnits="userSpaceOnUse">
<stop stop-color="#0C66F1"/>
<stop offset="1" stop-color="#3FACFC"/>
</linearGradient>
<linearGradient id="paint16_linear_25_10340" x1="477.123" y1="644.488" x2="-17.9691" y2="485.685" gradientUnits="userSpaceOnUse">
<stop stop-color="#0C66F1"/>
<stop offset="1" stop-color="#3FACFC"/>
</linearGradient>
<linearGradient id="paint17_linear_25_10340" x1="476.659" y1="640.96" x2="-16.6208" y2="481.092" gradientUnits="userSpaceOnUse">
<stop stop-color="#0C66F1"/>
<stop offset="1" stop-color="#3FACFC"/>
</linearGradient>
<linearGradient id="paint18_linear_25_10340" x1="476.334" y1="637.462" x2="-15.4692" y2="476.342" gradientUnits="userSpaceOnUse">
<stop stop-color="#0C66F1"/>
<stop offset="1" stop-color="#3FACFC"/>
</linearGradient>
<linearGradient id="paint19_linear_25_10340" x1="476.472" y1="634.023" x2="-14.564" y2="471.217" gradientUnits="userSpaceOnUse">
<stop stop-color="#0C66F1"/>
<stop offset="1" stop-color="#3FACFC"/>
</linearGradient>
<linearGradient id="paint20_linear_25_10340" x1="477.358" y1="630.634" x2="-13.7527" y2="465.527" gradientUnits="userSpaceOnUse">
<stop stop-color="#0C66F1"/>
<stop offset="1" stop-color="#3FACFC"/>
</linearGradient>
<linearGradient id="paint21_linear_25_10340" x1="480.456" y1="627.325" x2="-13.0388" y2="458.214" gradientUnits="userSpaceOnUse">
<stop stop-color="#0C66F1"/>
<stop offset="1" stop-color="#3FACFC"/>
</linearGradient>
<linearGradient id="paint22_linear_25_10340" x1="485.998" y1="624.21" x2="-12.3445" y2="449.164" gradientUnits="userSpaceOnUse">
<stop stop-color="#0C66F1"/>
<stop offset="1" stop-color="#3FACFC"/>
</linearGradient>
<linearGradient id="paint23_linear_25_10340" x1="491.922" y1="621.214" x2="-11.508" y2="439.952" gradientUnits="userSpaceOnUse">
<stop stop-color="#0C66F1"/>
<stop offset="1" stop-color="#3FACFC"/>
</linearGradient>
<linearGradient id="paint24_linear_25_10340" x1="498.085" y1="618.363" x2="-10.4332" y2="430.82" gradientUnits="userSpaceOnUse">
<stop stop-color="#0C66F1"/>
<stop offset="1" stop-color="#3FACFC"/>
</linearGradient>
<linearGradient id="paint25_linear_25_10340" x1="504.314" y1="615.784" x2="-9.20638" y2="422.037" gradientUnits="userSpaceOnUse">
<stop stop-color="#0C66F1"/>
<stop offset="1" stop-color="#3FACFC"/>
</linearGradient>
<linearGradient id="paint26_linear_25_10340" x1="510.685" y1="613.414" x2="-7.90435" y2="413.42" gradientUnits="userSpaceOnUse">
<stop stop-color="#0C66F1"/>
<stop offset="1" stop-color="#3FACFC"/>
</linearGradient>
<linearGradient id="paint27_linear_25_10340" x1="517.065" y1="611.34" x2="-6.53047" y2="405.184" gradientUnits="userSpaceOnUse">
<stop stop-color="#0C66F1"/>
<stop offset="1" stop-color="#3FACFC"/>
</linearGradient>
<linearGradient id="paint28_linear_25_10340" x1="523.524" y1="609.563" x2="-5.2054" y2="397.235" gradientUnits="userSpaceOnUse">
<stop stop-color="#0C66F1"/>
<stop offset="1" stop-color="#3FACFC"/>
</linearGradient>
<linearGradient id="paint29_linear_25_10340" x1="529.932" y1="608.199" x2="-3.99932" y2="389.798" gradientUnits="userSpaceOnUse">
<stop stop-color="#0C66F1"/>
<stop offset="1" stop-color="#3FACFC"/>
</linearGradient>
<linearGradient id="paint30_linear_25_10340" x1="536.413" y1="607.107" x2="-3.0114" y2="382.511" gradientUnits="userSpaceOnUse">
<stop stop-color="#0C66F1"/>
<stop offset="1" stop-color="#3FACFC"/>
</linearGradient>
<linearGradient id="paint31_linear_25_10340" x1="542.73" y1="606.409" x2="-2.3049" y2="375.667" gradientUnits="userSpaceOnUse">
<stop stop-color="#0C66F1"/>
<stop offset="1" stop-color="#3FACFC"/>
</linearGradient>
<linearGradient id="paint32_linear_25_10340" x1="598.806" y1="529.606" x2="27.6614" y2="131.664" gradientUnits="userSpaceOnUse">
<stop stop-color="#0C66F1"/>
<stop offset="1" stop-color="#3FACFC"/>
</linearGradient>
<linearGradient id="paint33_linear_25_10340" x1="597.115" y1="529.503" x2="28.9578" y2="137.64" gradientUnits="userSpaceOnUse">
<stop stop-color="#0C66F1"/>
<stop offset="1" stop-color="#3FACFC"/>
</linearGradient>
<linearGradient id="paint34_linear_25_10340" x1="595.974" y1="529.53" x2="30.4265" y2="143.412" gradientUnits="userSpaceOnUse">
<stop stop-color="#0C66F1"/>
<stop offset="1" stop-color="#3FACFC"/>
</linearGradient>
<linearGradient id="paint35_linear_25_10340" x1="595.556" y1="529.55" x2="32.2915" y2="148.462" gradientUnits="userSpaceOnUse">
<stop stop-color="#0C66F1"/>
<stop offset="1" stop-color="#3FACFC"/>
</linearGradient>
<linearGradient id="paint36_linear_25_10340" x1="595.633" y1="529.602" x2="34.3259" y2="153.167" gradientUnits="userSpaceOnUse">
<stop stop-color="#0C66F1"/>
<stop offset="1" stop-color="#3FACFC"/>
</linearGradient>
<linearGradient id="paint37_linear_25_10340" x1="596.039" y1="529.72" x2="36.4415" y2="157.566" gradientUnits="userSpaceOnUse">
<stop stop-color="#0C66F1"/>
<stop offset="1" stop-color="#3FACFC"/>
</linearGradient>
<linearGradient id="paint38_linear_25_10340" x1="596.675" y1="529.882" x2="38.5854" y2="161.614" gradientUnits="userSpaceOnUse">
<stop stop-color="#0C66F1"/>
<stop offset="1" stop-color="#3FACFC"/>
</linearGradient>
<linearGradient id="paint39_linear_25_10340" x1="597.567" y1="530.248" x2="40.5456" y2="165.585" gradientUnits="userSpaceOnUse">
<stop stop-color="#0C66F1"/>
<stop offset="1" stop-color="#3FACFC"/>
</linearGradient>
<linearGradient id="paint40_linear_25_10340" x1="598.778" y1="531.463" x2="41.8871" y2="170.177" gradientUnits="userSpaceOnUse">
<stop stop-color="#0C66F1"/>
<stop offset="1" stop-color="#3FACFC"/>
</linearGradient>
<linearGradient id="paint41_linear_25_10340" x1="600.046" y1="538.795" x2="38.577" y2="182.498" gradientUnits="userSpaceOnUse">
<stop stop-color="#0C66F1"/>
<stop offset="1" stop-color="#3FACFC"/>
</linearGradient>
<linearGradient id="paint42_linear_25_10340" x1="601.455" y1="547.299" x2="34.3725" y2="196.063" gradientUnits="userSpaceOnUse">
<stop stop-color="#0C66F1"/>
<stop offset="1" stop-color="#3FACFC"/>
</linearGradient>
<linearGradient id="paint43_linear_25_10340" x1="602.988" y1="556.58" x2="29.4099" y2="210.245" gradientUnits="userSpaceOnUse">
<stop stop-color="#0C66F1"/>
<stop offset="1" stop-color="#3FACFC"/>
</linearGradient>
<linearGradient id="paint44_linear_25_10340" x1="604.654" y1="566.218" x2="23.7191" y2="224.422" gradientUnits="userSpaceOnUse">
<stop stop-color="#0C66F1"/>
<stop offset="1" stop-color="#3FACFC"/>
</linearGradient>
<linearGradient id="paint45_linear_25_10340" x1="606.367" y1="576.237" x2="17.179" y2="238.78" gradientUnits="userSpaceOnUse">
<stop stop-color="#0C66F1"/>
<stop offset="1" stop-color="#3FACFC"/>
</linearGradient>
<linearGradient id="paint46_linear_25_10340" x1="608.07" y1="586.45" x2="9.68366" y2="253.049" gradientUnits="userSpaceOnUse">
<stop stop-color="#0C66F1"/>
<stop offset="1" stop-color="#3FACFC"/>
</linearGradient>
<linearGradient id="paint47_linear_25_10340" x1="609.823" y1="596.839" x2="1.66178" y2="266.867" gradientUnits="userSpaceOnUse">
<stop stop-color="#0C66F1"/>
<stop offset="1" stop-color="#3FACFC"/>
</linearGradient>
</defs>
</svg>
