<svg width="27" height="26" viewBox="0 0 27 26" fill="none" xmlns="http://www.w3.org/2000/svg">
<path d="M13.2275 25.6322C20.3268 25.6322 26.0819 19.8942 26.0819 12.8161C26.0819 5.73796 20.3268 0 13.2275 0C6.12826 0 0.373169 5.73796 0.373169 12.8161C0.373169 19.8942 6.12826 25.6322 13.2275 25.6322Z" fill="white"/>
<path fill-rule="evenodd" clip-rule="evenodd" d="M6.19172 12.6808C9.93902 11.053 12.4378 9.97988 13.6881 9.46139C17.2579 7.98101 17.9997 7.72385 18.4831 7.71536C18.5895 7.71349 18.8272 7.73977 18.9812 7.86437C19.1113 7.96957 19.1471 8.11169 19.1642 8.21144C19.1813 8.31119 19.2026 8.53842 19.1857 8.71597C18.9922 10.7425 18.1552 15.6603 17.7293 17.9301C17.5491 18.8905 17.1943 19.2125 16.8509 19.244C16.1044 19.3125 15.5375 18.7522 14.8145 18.2797C13.6832 17.5403 13.0441 17.08 11.9459 16.3584C10.6768 15.5246 11.4995 15.0663 12.2228 14.3173C12.412 14.1213 15.701 11.1386 15.7647 10.868C15.7726 10.8342 15.78 10.7081 15.7049 10.6415C15.6297 10.5748 15.5188 10.5976 15.4387 10.6157C15.3253 10.6414 13.5179 11.8324 10.0167 14.1888C9.50368 14.5401 9.03901 14.7112 8.62269 14.7022C8.16372 14.6923 7.28085 14.4435 6.62453 14.2308C5.81953 13.9699 5.17973 13.8319 5.23544 13.3889C5.26446 13.1581 5.58322 12.9221 6.19172 12.6808Z" fill="#171840"/>
</svg>
