<svg width="25" height="20" viewBox="0 0 25 20" fill="none" xmlns="http://www.w3.org/2000/svg">
<path d="M21.768 3.15768C22.8147 2.55135 23.5978 1.59661 23.9713 0.471737C22.9877 1.03721 21.9117 1.43555 20.7896 1.64952C19.2339 0.0548474 16.7691 -0.333224 14.7724 0.702153C12.7757 1.73753 11.7415 3.94003 12.2477 6.07895C8.21909 5.88296 4.46576 4.03894 1.92166 1.00576C0.593948 3.2249 1.27244 6.06173 3.4722 7.48867C2.67674 7.46389 1.89893 7.25519 1.20361 6.87998C1.20361 6.90034 1.20361 6.92071 1.20361 6.94107C1.20407 9.25269 2.88534 11.2439 5.22356 11.702C4.48573 11.8965 3.71179 11.9252 2.9608 11.7857C3.61838 13.7626 5.49858 15.1169 7.6416 15.1573C5.86669 16.5072 3.67474 17.2392 1.41844 17.2357C1.01851 17.2362 0.6189 17.2139 0.22168 17.1689C2.51291 18.5956 5.17962 19.3529 7.90313 19.3502C11.6922 19.3755 15.3336 17.928 18.0128 15.3315C20.692 12.7351 22.1855 9.20641 22.1592 5.53474C22.1592 5.3243 22.1541 5.115 22.144 4.90682C23.1253 4.21961 23.9722 3.36829 24.6449 2.39285C23.7307 2.78552 22.761 3.04332 21.768 3.15768Z" fill="white"/>
</svg>
