<svg width="27" height="26" viewBox="0 0 27 26" fill="none" xmlns="http://www.w3.org/2000/svg">
<path d="M0.784668 8.59746C0.784668 5.55636 0.784668 4.03581 1.38768 2.87842C1.89583 1.9031 2.69344 1.10786 3.67168 0.601216C4.83252 0 6.35761 0 9.40779 0H17.8702C20.9204 0 22.4455 0 23.6064 0.601216C24.5846 1.10786 25.3822 1.9031 25.8904 2.87842C26.4934 4.03581 26.4934 5.55636 26.4934 8.59746V17.0347C26.4934 20.0758 26.4934 21.5964 25.8904 22.7538C25.3822 23.7291 24.5846 24.5243 23.6064 25.031C22.4455 25.6322 20.9204 25.6322 17.8702 25.6322H9.40779C6.35761 25.6322 4.83252 25.6322 3.67168 25.031C2.69344 24.5243 1.89583 23.7291 1.38768 22.7538C0.784668 21.5964 0.784668 20.0758 0.784668 17.0347V8.59746Z" fill="white"/>
<path d="M15.0114 12.8161C15.0114 16.1659 12.3063 18.8817 8.96916 18.8817C5.63206 18.8817 2.92709 16.1668 2.92709 12.8161C2.92709 9.46538 5.63226 6.75066 8.96916 6.75066C12.3061 6.75066 15.0114 9.4662 15.0114 12.8161ZM21.6399 12.8161C21.6399 15.9696 20.2872 18.5257 18.6187 18.5257C16.9503 18.5257 15.5976 15.9688 15.5976 12.8161C15.5976 9.66339 16.9503 7.10639 18.6187 7.10639C20.2872 7.10639 21.6399 9.66339 21.6399 12.8161ZM24.351 12.8161C24.351 15.6415 23.8752 17.9317 23.2884 17.9317C22.7016 17.9317 22.2258 15.6406 22.2258 12.8161C22.2258 9.99151 22.7016 7.70044 23.2886 7.70044C23.8756 7.70044 24.351 9.99089 24.351 12.8161Z" fill="#171840"/>
</svg>
