<svg width="487" height="432" viewBox="0 0 487 432" fill="none" xmlns="http://www.w3.org/2000/svg">
<circle cx="337.633" cy="282.633" r="119.266" transform="rotate(16.4806 337.633 282.633)" fill="url(#paint0_linear_5_47)" stroke="url(#paint1_linear_5_47)" stroke-width="1.44916"/>
<path d="M369.718 292.581L368.429 292.82L369.565 293.474C375.101 296.666 379.152 300.55 381.074 305.506C382.994 310.456 382.823 316.562 379.742 324.272C375.928 333.815 370.005 338.769 362.403 340.748C354.758 342.739 345.361 341.736 334.6 339.213L334.156 339.109L334.027 339.546L327.976 359.973L316.293 356.517L322.257 336.37L322.394 335.906L321.93 335.77C318.665 334.808 315.333 333.789 311.892 332.695L311.422 332.545L311.282 333.018L305.296 353.263L293.628 349.808L299.672 329.34L299.808 328.881L299.349 328.742C298.341 328.435 297.326 328.122 296.303 327.808C294.349 327.207 292.368 326.597 290.36 326.001L290.36 326.001L274.5 321.309L281.02 307.895L281.022 307.895C281.276 307.974 281.639 308.087 282.074 308.222C282.944 308.492 284.102 308.849 285.257 309.201C286.412 309.552 287.565 309.899 288.423 310.145C288.851 310.268 289.211 310.368 289.461 310.431C289.584 310.462 289.692 310.488 289.772 310.502C289.8 310.507 289.849 310.515 289.901 310.517C291.765 311.04 293.201 310.717 294.269 310.014C295.335 309.313 295.985 308.266 296.354 307.454L296.368 307.423L296.378 307.391L306.174 274.278L313.144 250.703L313.157 250.66L313.162 250.616C313.306 249.204 313.177 247.554 312.309 246.047C311.446 244.55 309.89 243.256 307.306 242.467C307.261 242.438 307.216 242.418 307.191 242.407C307.114 242.372 307.007 242.332 306.887 242.29C306.641 242.205 306.284 242.091 305.859 241.961C305.005 241.7 303.85 241.365 302.692 241.035C301.533 240.704 300.368 240.378 299.492 240.134C299.094 240.023 298.756 239.929 298.505 239.859L302.206 227.343L318.67 232.221L318.652 232.283L319.115 232.42C321.739 233.196 324.44 233.938 327.187 234.689L327.643 234.814L327.777 234.361L333.763 214.137L345.435 217.591L339.575 237.407L339.435 237.88L339.91 238.01C343.298 238.939 346.694 239.873 350.007 240.853L350.47 240.99L350.607 240.527L356.434 220.842L368.118 224.299L362.136 244.529L362.011 244.954L362.422 245.116C370.326 248.226 377.06 251.957 381.448 256.777C385.813 261.572 387.873 267.459 386.416 274.974L386.415 274.975C385.35 280.514 383.219 284.527 380.353 287.344C377.486 290.162 373.849 291.816 369.718 292.581ZM336.096 251.977L335.633 251.84L335.496 252.303L328.056 277.451L327.919 277.914L328.382 278.051C328.965 278.224 329.653 278.44 330.425 278.682C334.317 279.904 340.372 281.806 346.17 282.272C349.648 282.552 353.089 282.322 355.946 281.085C358.827 279.838 361.086 277.578 362.181 273.879L362.181 273.879C363.318 270.033 362.681 266.831 360.949 264.183C359.231 261.557 356.46 259.507 353.376 257.886C348.456 255.299 342.6 253.735 338.658 252.682C337.668 252.417 336.799 252.185 336.096 251.977ZM316.091 317.873L315.954 318.336L316.418 318.473C317.114 318.679 317.932 318.933 318.85 319.219C323.525 320.674 330.791 322.936 337.71 323.599C341.85 323.996 345.923 323.827 349.271 322.538C352.646 321.239 355.272 318.805 356.475 314.736C357.725 310.507 356.876 306.952 354.758 303.991C352.657 301.052 349.322 298.716 345.619 296.839C339.692 293.835 332.676 291.941 327.948 290.665C326.774 290.348 325.74 290.069 324.9 289.82L324.437 289.683L324.3 290.146L316.091 317.873Z" fill="white" fill-opacity="0.36" stroke="url(#paint2_linear_5_47)" stroke-width="0.966109"/>
<g filter="url(#filter0_b_5_47)">
<circle cx="262.491" cy="116.491" r="116.491" fill="url(#paint3_linear_5_47)"/>
<circle cx="262.491" cy="116.491" r="115.766" stroke="url(#paint4_linear_5_47)" stroke-width="1.44916"/>
</g>
<path d="M236.171 106.485L220.066 90.3792L265.023 45.4223L309.995 90.3929L293.89 106.498L265.365 77.9739L265.023 77.6324L264.682 77.9739L236.171 106.485ZM310.003 147.645L265.023 192.624L220.043 147.644L236.17 131.562L264.682 160.072L265.023 160.414L265.365 160.072L293.889 131.549L310.003 147.645ZM207.527 135.125L191.422 119.023L207.528 102.915L223.632 119.02L207.527 135.125ZM306.414 119.03L322.52 102.925L338.624 119.029L322.519 135.135L306.414 119.03Z" fill="white" fill-opacity="0.36" stroke="url(#paint5_linear_5_47)" stroke-width="0.966109"/>
<mask id="path-6-inside-1_5_47" fill="white">
<path d="M282.05 119.014H282.057L265.023 101.979L252.432 114.566L250.986 116.013L248.003 118.997L247.979 119.02L248.003 119.044L265.023 136.067L282.059 119.032L282.067 119.022L282.051 119.014"/>
</mask>
<path d="M282.05 119.014H282.057L265.023 101.979L252.432 114.566L250.986 116.013L248.003 118.997L247.979 119.02L248.003 119.044L265.023 136.067L282.059 119.032L282.067 119.022L282.051 119.014" fill="white" fill-opacity="0.36"/>
<path d="M282.057 119.014V119.98H284.39L282.741 118.331L282.057 119.014ZM265.023 101.979L265.706 101.296L265.023 100.613L264.34 101.296L265.023 101.979ZM252.432 114.566L251.749 113.883L251.749 113.883L252.432 114.566ZM250.986 116.013L251.669 116.696L251.669 116.696L250.986 116.013ZM248.003 118.997L248.677 119.689L248.686 119.68L248.003 118.997ZM247.979 119.02L247.305 118.328L246.612 119.003L247.287 119.695L247.979 119.02ZM248.003 119.044L247.311 119.719L247.319 119.728L248.003 119.044ZM265.023 136.067L264.34 136.75L265.023 137.434L265.706 136.751L265.023 136.067ZM282.059 119.032L282.742 119.715L282.764 119.692L282.786 119.668L282.059 119.032ZM282.067 119.022L282.794 119.659L283.592 118.746L282.525 118.172L282.067 119.022ZM282.05 119.98H282.057V118.048H282.05V119.98ZM282.741 118.331L265.706 101.296L264.34 102.662L281.374 119.697L282.741 118.331ZM264.34 101.296L251.749 113.883L253.115 115.249L265.706 102.662L264.34 101.296ZM251.749 113.883L250.303 115.33L251.669 116.696L253.116 115.249L251.749 113.883ZM250.303 115.33L247.319 118.314L248.686 119.68L251.669 116.696L250.303 115.33ZM247.328 118.305L247.305 118.328L248.653 119.712L248.677 119.689L247.328 118.305ZM247.287 119.695L247.311 119.719L248.694 118.37L248.67 118.345L247.287 119.695ZM247.319 119.728L264.34 136.75L265.706 135.384L248.686 118.361L247.319 119.728ZM265.706 136.751L282.742 119.715L281.375 118.349L264.34 135.384L265.706 136.751ZM282.786 119.668L282.794 119.659L281.34 118.386L281.331 118.396L282.786 119.668ZM282.525 118.172L282.509 118.164L281.593 119.865L281.609 119.873L282.525 118.172Z" fill="url(#paint6_linear_5_47)" mask="url(#path-6-inside-1_5_47)"/>
<g filter="url(#filter1_d_5_47)">
<g filter="url(#filter2_b_5_47)">
<circle cx="143.323" cy="252.187" r="133.323" fill="url(#paint7_linear_5_47)"/>
<circle cx="143.323" cy="252.187" r="132.598" stroke="url(#paint8_linear_5_47)" stroke-width="1.44916"/>
</g>
<path d="M160.467 257.663C153.382 265.252 147.699 274.26 144.303 284.254C140.906 274.26 135.224 265.252 128.138 257.663L128.137 257.662C120.105 249.097 109.964 242.628 99.2535 239.295C101.572 209.22 118.993 182.853 143.767 168.461C169.073 182.855 186.508 209.233 189.344 239.325C178.651 243.165 168.518 249.615 160.486 257.644L160.476 257.653L160.467 257.663Z" fill="white" fill-opacity="0.29" stroke="url(#paint9_linear_5_47)" stroke-width="1.53404"/>
<path d="M148.765 322.172L148.846 322.01V321.828V321.825V321.822V321.819V321.816V321.813V321.809V321.806V321.803V321.8V321.797V321.794V321.791V321.787V321.784V321.781V321.778V321.775V321.772V321.768V321.765V321.762V321.759V321.756V321.753V321.75V321.746V321.743V321.74V321.737V321.734V321.731V321.727V321.724V321.721V321.718V321.715V321.712V321.709V321.705V321.702V321.699V321.696V321.693V321.69V321.687V321.683V321.68V321.677V321.674V321.671V321.668V321.665V321.662V321.658V321.655V321.652V321.649V321.646V321.643V321.64V321.637V321.633V321.63V321.627V321.624V321.621V321.618V321.615V321.612V321.609V321.606V321.602V321.599V321.596V321.593V321.59V321.587V321.584V321.581V321.578V321.575V321.572V321.568V321.565V321.562V321.559V321.556V321.553V321.55V321.547V321.544V321.541V321.538V321.535V321.532V321.529V321.526V321.523V321.519V321.516V321.513V321.51V321.507V321.504V321.501V321.498V321.495V321.492V321.489V321.486V321.483V321.48V321.477V321.474V321.471V321.468V321.465V321.462V321.459V321.456V321.453V321.45V321.447V321.444V321.441V321.438V321.435V321.432V321.429V321.426V321.424V321.421V321.418V321.415V321.412V321.409V321.406V321.403V321.4V321.397V321.394V321.391V321.388V321.385V321.382V321.38V321.377V321.374V321.371V321.368V321.365V321.362V321.359V321.356V321.354V321.351V321.348V321.345V321.342V321.339V321.336V321.334V321.331V321.328V321.325V321.322V321.319V321.317V321.314V321.311V321.308V321.305V321.303V321.3V321.297V321.294V321.291V321.289V321.286V321.283V321.28V321.278V321.275V321.272V321.269V321.267V321.264V321.261V321.258V321.256V321.253V321.25V321.247V321.245V321.242V321.239V321.237V321.234V321.231V321.229V321.226V321.223V321.221V321.218V321.215V321.213V321.21V321.207V321.205V321.202V321.199V321.197V321.194V321.192V321.189V321.186V321.184V321.181V321.179V321.176V321.173V321.171V321.168V321.166V321.163V321.161V321.158V321.156V321.153V321.15V321.148V321.145V321.143V321.14V321.138V321.135V321.133V321.131V321.128V321.126V321.123V321.121V321.118V321.116V321.113V321.111V321.108V321.106V321.104V321.101V321.099V321.096V321.094V321.092V321.089V321.087V321.084V321.082V321.08V321.077V321.075V321.073V321.07V321.068V321.066V321.063V321.061V321.059V321.057V321.054V321.052V321.05V321.047V321.045V321.043V321.041V321.038V321.036V321.034V321.032V321.03V321.027V321.025V321.023V321.021V321.019V321.016V321.014V321.012V321.01V321.008V321.006V321.004V321.001V320.999V320.997V320.995V320.993V320.991V320.989V320.987V320.985V320.983V320.981V320.979V320.977V320.975V320.973V320.971V320.969V320.967V320.965V320.963V320.961V320.959V320.957V320.955V320.953V320.951V320.949V320.947V320.945V320.943V320.941V320.939V320.937V320.936V320.934V320.932V320.93V320.928V320.926V320.924V320.923V320.921V320.919V320.917V320.915V320.914V320.912V320.91V320.908V320.907V320.905V320.903V320.901V320.9V320.898V320.896V320.895V320.893V320.891V320.89V320.888V320.886V320.885V320.883V320.881V320.88V320.878V320.877V320.875V320.874V320.872V320.87V320.869V320.867V320.866V320.864V320.863V320.861V320.86V320.858V320.857V320.855V320.854V320.852V320.851V320.85V320.848V320.847V320.845V320.844V320.842V320.841V320.84V320.838V320.837V320.836V320.834V320.833V320.832V320.83V320.829V320.828V320.827V320.825V320.824V320.823V320.822V320.82V320.819V320.818V320.817V320.816V320.814V320.813V320.812V320.811V320.81V320.809V320.807V320.806V320.805V320.804V320.803V320.802V320.801V320.8V320.799V320.798V320.797V320.796V320.795V320.794V320.793V320.792V320.791V320.79V320.789V320.788V320.787V320.786V320.785V320.785V320.784V320.783V320.782V320.781V320.78V320.779V320.779V320.778V320.777V320.776V320.776V320.775V320.774V320.773V320.773V320.772V320.771V320.77V320.77V320.769V320.768V320.768V320.767V320.767V320.766V320.765V320.765V320.764V320.764V320.763V320.762V320.762V320.761V320.761V320.76V320.76V320.759V320.759V320.758V320.758V320.758V320.757V320.757V320.756V320.756V320.756V320.755V320.755V320.755V320.754V320.754V320.754V320.753V320.753V320.753V320.752V320.752V320.752V320.752V320.752V320.751V320.751V320.751V320.751V320.751V320.751V320.75V320.75V320.75V320.75V320.75V320.75V320.75C148.846 320.026 148.965 319.421 149.101 318.743L149.105 318.722C149.238 318.057 149.386 317.32 149.386 316.435V316.426V316.416V316.407V316.397V316.388V316.378V316.369V316.359V316.35V316.34V316.331V316.321V316.312V316.302V316.293V316.283V316.274V316.264V316.255V316.245V316.236V316.227V316.217V316.208V316.198V316.189V316.179V316.17V316.16V316.151V316.141V316.132V316.122V316.113V316.103V316.094V316.084V316.075V316.065V316.056V316.046V316.037V316.027V316.018V316.008V315.999V315.989V315.98V315.971V315.961V315.952V315.942V315.933V315.923V315.914V315.904V315.895V315.885V315.876V315.866V315.857V315.847V315.838V315.828V315.819V315.809V315.8V315.79V315.781V315.771V315.762V315.752V315.743V315.734V315.724V315.715V315.705V315.696V315.686V315.677V315.667V315.658V315.648V315.639V315.629V315.62V315.61V315.601V315.591V315.582V315.572V315.563V315.553V315.544V315.534V315.525V315.515V315.506V315.496V315.487V315.478V315.468V315.459V315.449V315.44V315.43V315.421V315.411V315.402V315.392V315.383V315.373V315.364V315.354V315.345V315.335V315.326V315.316V315.307V315.297V315.288V315.278V315.269V315.259V315.25V315.241V315.231V315.222V315.212V315.203V315.193V315.184V315.174V315.165V315.155V315.146V315.136V315.127V315.117V315.108V315.098V315.089V315.079V315.07V315.06V315.051V315.041V315.032V315.022V315.013V315.004V314.994V314.985V314.975V314.966V314.956V314.947V314.937V314.928V314.918V314.909V314.899V314.89V314.88V314.871V314.861V314.852V314.842V314.833V314.823V314.814V314.804V314.795V314.785V314.776V314.767V314.757V314.748V314.738V314.729V314.719V314.71V314.7V314.691V314.681V314.672V314.662V314.653V314.643V314.634V314.624V314.615V314.605V314.596V314.586V314.577V314.567V314.558V314.548V314.539V314.529V314.52V314.511V314.501V314.492V314.482V314.473V314.463V314.454V314.444V314.435V314.425V314.416V314.406V314.397V314.387V314.378V314.368V314.359V314.349V314.34V314.33V314.321V314.311V314.302V314.292V314.283V314.274V314.264V314.255V314.245V314.236V314.226V314.217V314.207V314.198V314.188V314.179V314.169V314.16V314.15V314.141V314.131V314.122V314.112V314.103V314.093V314.084V314.074V314.065V314.055V314.046V314.036V314.027V314.018V314.008V313.999V313.989V313.98V313.97V313.961V313.951V313.942V313.932V313.923V313.913V313.904V313.894V313.885V313.875V313.866V313.856V313.847V313.837V313.828V313.818V313.809V313.799V313.79V313.781V313.771V313.762V313.752V313.743V313.733V313.724V313.714V313.705V313.695V313.686V313.676V313.667V313.657V313.648V313.638V313.629V313.619V313.61V313.6V313.591V313.581V313.572V313.562V313.553V313.544V313.534V313.525V313.515V313.506V313.496V313.487V313.477V313.468V313.458V313.449V313.439V313.43V313.42V313.411V313.401V313.392V313.382V313.373V313.363V313.354V313.344V313.335V313.325V313.316V313.306V313.297V313.288V313.278V313.269V313.259V313.25V313.24V313.231V313.221V313.212V313.202V313.193V313.183V313.174V313.164V313.155V313.145V313.136V313.126V313.117V313.107V313.098V313.088V313.079V313.069V313.06V313.051V313.041V313.032V313.022V313.013V313.003V312.994V312.984V312.975V312.965V312.956V312.946V312.937V312.927V312.918V312.908V312.899V312.889V312.88V312.87V312.861V312.851V312.842V312.832V312.823V312.814V312.804V312.795V312.785V312.776V312.766V312.757V312.747V312.738V312.728V312.719V312.709V312.7V312.69V312.681V312.671V312.662V312.652V312.643V312.633V312.624V312.614V312.605V312.595V312.586V312.576V312.567V312.558V312.548V312.539V312.529V312.52V312.51V312.501V312.491V312.482V312.472V312.463V312.453V312.444V312.434V312.425V312.415V312.406V312.396V312.387V312.377V312.368V312.358V312.349V312.339V312.33V312.321V312.311V312.302V312.292V312.283V312.273V312.264V312.254V312.245V312.235V312.226V312.216V312.207V312.197V312.188V312.178V312.169V312.159V312.15V312.14V312.131V312.121V312.112V312.102V312.093V312.084V312.074V312.065V312.055V312.046V312.036V312.027V312.017V312.008V311.998V311.989V311.979V311.97V311.96V311.951V311.941V311.932V311.922V311.913V311.903V311.894V311.884V311.875V311.865V311.856V311.846V311.837V311.828V311.818V311.809V311.799V311.79V311.78V311.771V311.761V311.752V311.742V311.733V311.723V311.714V311.704V311.695V311.685V311.676V311.666V311.657V311.647V311.638V311.628V311.619V311.609V311.6V311.591V311.581V311.546C149.386 308.895 149.386 306.159 148.845 303.412C148.834 302.812 148.693 302.112 148.571 301.501L148.562 301.453C148.421 300.753 148.307 300.162 148.307 299.716C148.307 299.14 148.177 298.568 148.06 298.047C148.046 297.985 148.032 297.924 148.019 297.864C147.887 297.27 147.767 296.662 147.767 295.94C147.767 295.276 147.599 294.772 147.465 294.371L147.458 294.349C147.323 293.945 147.228 293.646 147.228 293.244C147.228 292.579 147.06 292.075 146.926 291.674L146.918 291.653C146.796 291.284 146.705 291.004 146.69 290.652C149.899 280.029 155.755 269.93 163.737 261.417C171.755 253.403 181.366 247.003 192.028 243.272C204.689 239.054 218.406 238.481 231.632 241.05C238.359 265.467 231.401 291.938 214.425 309.972C196.97 327.947 171.12 335.451 146.748 330.389C146.969 329.67 147.093 329.05 147.21 328.462L147.213 328.451C147.348 327.777 147.475 327.145 147.728 326.386L147.002 326.144L147.728 326.386C147.994 325.589 148.137 324.794 148.26 324.11C148.272 324.046 148.283 323.983 148.294 323.921C148.432 323.161 148.552 322.597 148.765 322.172Z" fill="white" fill-opacity="0.29" stroke="url(#paint10_linear_5_47)" stroke-width="1.53404"/>
<path d="M74.1835 309.976L74.1836 309.976L74.1759 309.968C56.6769 291.945 50.2364 265.479 56.9727 241.05C70.1993 238.481 83.9163 239.054 96.577 243.272C107.252 247.007 117.398 253.413 125.408 261.417C133.425 269.968 139.288 279.569 142.486 290.758C145.679 301.931 145.689 314.192 143.558 325.411C143.281 326.26 143.14 327.102 143.01 327.881L143.006 327.905C142.894 328.577 142.789 329.205 142.617 329.82C117.653 336.036 91.6961 328.544 74.1835 309.976Z" fill="white" fill-opacity="0.29" stroke="url(#paint11_linear_5_47)" stroke-width="1.53404"/>
</g>
<defs>
<filter id="filter0_b_5_47" x="134.407" y="-11.5933" width="256.168" height="256.168" filterUnits="userSpaceOnUse" color-interpolation-filters="sRGB">
<feFlood flood-opacity="0" result="BackgroundImageFix"/>
<feGaussianBlur in="BackgroundImage" stdDeviation="5.79665"/>
<feComposite in2="SourceAlpha" operator="in" result="effect1_backgroundBlur_5_47"/>
<feBlend mode="normal" in="SourceGraphic" in2="effect1_backgroundBlur_5_47" result="shape"/>
</filter>
<filter id="filter1_d_5_47" x="0.338908" y="109.202" width="285.968" height="285.968" filterUnits="userSpaceOnUse" color-interpolation-filters="sRGB">
<feFlood flood-opacity="0" result="BackgroundImageFix"/>
<feColorMatrix in="SourceAlpha" type="matrix" values="0 0 0 0 0 0 0 0 0 0 0 0 0 0 0 0 0 0 127 0" result="hardAlpha"/>
<feOffset/>
<feGaussianBlur stdDeviation="4.83055"/>
<feComposite in2="hardAlpha" operator="out"/>
<feColorMatrix type="matrix" values="0 0 0 0 0 0 0 0 0 0 0 0 0 0 0 0 0 0 0.47 0"/>
<feBlend mode="normal" in2="BackgroundImageFix" result="effect1_dropShadow_5_47"/>
<feBlend mode="normal" in="SourceGraphic" in2="effect1_dropShadow_5_47" result="shape"/>
</filter>
<filter id="filter2_b_5_47" x="-15.1188" y="93.7447" width="316.884" height="316.884" filterUnits="userSpaceOnUse" color-interpolation-filters="sRGB">
<feFlood flood-opacity="0" result="BackgroundImageFix"/>
<feGaussianBlur in="BackgroundImage" stdDeviation="12.5594"/>
<feComposite in2="SourceAlpha" operator="in" result="effect1_backgroundBlur_5_47"/>
<feBlend mode="normal" in="SourceGraphic" in2="effect1_backgroundBlur_5_47" result="shape"/>
</filter>
<linearGradient id="paint0_linear_5_47" x1="337.633" y1="97.6472" x2="337.633" y2="448.389" gradientUnits="userSpaceOnUse">
<stop stop-color="white"/>
<stop offset="0.145833" stop-color="white" stop-opacity="0.26"/>
<stop offset="0.505208" stop-color="white" stop-opacity="0"/>
<stop offset="0.796875" stop-color="white" stop-opacity="0.14"/>
<stop offset="1" stop-color="white"/>
</linearGradient>
<linearGradient id="paint1_linear_5_47" x1="337.544" y1="131.221" x2="325.456" y2="456.151" gradientUnits="userSpaceOnUse">
<stop stop-color="white"/>
<stop offset="0.395833" stop-color="white" stop-opacity="0"/>
<stop offset="1" stop-color="white"/>
</linearGradient>
<linearGradient id="paint2_linear_5_47" x1="362.654" y1="202.728" x2="298.501" y2="384.639" gradientUnits="userSpaceOnUse">
<stop stop-color="white"/>
<stop offset="0.395833" stop-color="white" stop-opacity="0"/>
<stop offset="1" stop-color="white"/>
</linearGradient>
<linearGradient id="paint3_linear_5_47" x1="262.491" y1="-63.0992" x2="262.491" y2="277.412" gradientUnits="userSpaceOnUse">
<stop stop-color="white"/>
<stop offset="0.145833" stop-color="white" stop-opacity="0.26"/>
<stop offset="0.505208" stop-color="white" stop-opacity="0"/>
<stop offset="0.796875" stop-color="white" stop-opacity="0.14"/>
<stop offset="1" stop-color="white"/>
</linearGradient>
<linearGradient id="paint4_linear_5_47" x1="262.404" y1="-30.5048" x2="250.669" y2="284.948" gradientUnits="userSpaceOnUse">
<stop stop-color="white"/>
<stop offset="0.395833" stop-color="white" stop-opacity="0"/>
<stop offset="1" stop-color="white"/>
</linearGradient>
<linearGradient id="paint5_linear_5_47" x1="264.968" y1="25.2868" x2="257.485" y2="226.445" gradientUnits="userSpaceOnUse">
<stop stop-color="white"/>
<stop offset="0.395833" stop-color="white" stop-opacity="0"/>
<stop offset="1" stop-color="white"/>
</linearGradient>
<linearGradient id="paint6_linear_5_47" x1="265.01" y1="97.5155" x2="263.293" y2="143.671" gradientUnits="userSpaceOnUse">
<stop stop-color="white"/>
<stop offset="0.395833" stop-color="white" stop-opacity="0"/>
<stop offset="1" stop-color="white"/>
</linearGradient>
<linearGradient id="paint7_linear_5_47" x1="143.323" y1="46.6469" x2="143.323" y2="436.36" gradientUnits="userSpaceOnUse">
<stop stop-color="white"/>
<stop offset="0.145833" stop-color="white" stop-opacity="0.26"/>
<stop offset="0.505208" stop-color="white" stop-opacity="0"/>
<stop offset="0.796875" stop-color="white" stop-opacity="0.14"/>
<stop offset="1" stop-color="white"/>
</linearGradient>
<linearGradient id="paint8_linear_5_47" x1="143.224" y1="83.9509" x2="129.793" y2="444.985" gradientUnits="userSpaceOnUse">
<stop stop-color="white"/>
<stop offset="0.395833" stop-color="white" stop-opacity="0"/>
<stop offset="1" stop-color="white"/>
</linearGradient>
<linearGradient id="paint9_linear_5_47" x1="144.269" y1="151.971" x2="136.474" y2="313.204" gradientUnits="userSpaceOnUse">
<stop stop-color="white"/>
<stop offset="0.395833" stop-color="white" stop-opacity="0"/>
<stop offset="1" stop-color="white"/>
</linearGradient>
<linearGradient id="paint10_linear_5_47" x1="190.396" y1="226.437" x2="185.401" y2="353.641" gradientUnits="userSpaceOnUse">
<stop stop-color="white"/>
<stop offset="0.395833" stop-color="white" stop-opacity="0"/>
<stop offset="1" stop-color="white"/>
</linearGradient>
<linearGradient id="paint11_linear_5_47" x1="99.6623" y1="226.433" x2="94.8372" y2="353.691" gradientUnits="userSpaceOnUse">
<stop stop-color="white"/>
<stop offset="0.395833" stop-color="white" stop-opacity="0"/>
<stop offset="1" stop-color="white"/>
</linearGradient>
</defs>
</svg>
