<svg width="367" height="367" viewBox="0 0 367 367" fill="none" xmlns="http://www.w3.org/2000/svg">
<g filter="url(#filter0_b_22_274)">
<circle cx="183.087" cy="183.087" r="183.087" fill="url(#paint0_linear_22_274)"/>
<circle cx="183.087" cy="183.087" r="182.092" stroke="url(#paint1_linear_22_274)" stroke-width="1.99007"/>
</g>
<path d="M206.63 190.607C196.9 201.029 189.096 213.4 184.432 227.124C179.768 213.4 171.964 201.029 162.234 190.607L162.233 190.606C151.202 178.844 137.276 169.96 122.568 165.383C125.752 124.083 149.675 87.8743 183.697 68.1103C218.448 87.8769 242.391 124.1 246.285 165.425C231.601 170.698 217.685 179.555 206.655 190.581L206.642 190.594L206.63 190.607Z" fill="white" fill-opacity="0.29" stroke="url(#paint2_linear_22_274)" stroke-width="2.10663"/>
<path d="M190.56 279.194L190.672 278.971V278.723V278.718V278.714V278.71V278.705V278.701V278.697V278.692V278.688V278.684V278.679V278.675V278.671V278.666V278.662V278.658V278.653V278.649V278.645V278.64V278.636V278.632V278.627V278.623V278.619V278.614V278.61V278.606V278.601V278.597V278.593V278.588V278.584V278.58V278.575V278.571V278.567V278.562V278.558V278.554V278.55V278.545V278.541V278.537V278.532V278.528V278.524V278.519V278.515V278.511V278.506V278.502V278.498V278.494V278.489V278.485V278.481V278.476V278.472V278.468V278.464V278.459V278.455V278.451V278.446V278.442V278.438V278.434V278.429V278.425V278.421V278.417V278.412V278.408V278.404V278.4V278.395V278.391V278.387V278.383V278.378V278.374V278.37V278.366V278.362V278.357V278.353V278.349V278.345V278.34V278.336V278.332V278.328V278.324V278.319V278.315V278.311V278.307V278.303V278.298V278.294V278.29V278.286V278.282V278.278V278.273V278.269V278.265V278.261V278.257V278.253V278.249V278.244V278.24V278.236V278.232V278.228V278.224V278.22V278.216V278.212V278.207V278.203V278.199V278.195V278.191V278.187V278.183V278.179V278.175V278.171V278.167V278.163V278.159V278.155V278.15V278.146V278.142V278.138V278.134V278.13V278.126V278.122V278.118V278.114V278.11V278.106V278.102V278.098V278.094V278.09V278.086V278.083V278.079V278.075V278.071V278.067V278.063V278.059V278.055V278.051V278.047V278.043V278.039V278.035V278.032V278.028V278.024V278.02V278.016V278.012V278.008V278.004V278.001V277.997V277.993V277.989V277.985V277.981V277.978V277.974V277.97V277.966V277.962V277.959V277.955V277.951V277.947V277.944V277.94V277.936V277.932V277.929V277.925V277.921V277.917V277.914V277.91V277.906V277.903V277.899V277.895V277.892V277.888V277.884V277.881V277.877V277.873V277.87V277.866V277.863V277.859V277.855V277.852V277.848V277.845V277.841V277.837V277.834V277.83V277.827V277.823V277.82V277.816V277.813V277.809V277.806V277.802V277.799V277.795V277.792V277.788V277.785V277.781V277.778V277.775V277.771V277.768V277.764V277.761V277.758V277.754V277.751V277.747V277.744V277.741V277.737V277.734V277.731V277.727V277.724V277.721V277.717V277.714V277.711V277.708V277.704V277.701V277.698V277.695V277.691V277.688V277.685V277.682V277.679V277.675V277.672V277.669V277.666V277.663V277.66V277.657V277.653V277.65V277.647V277.644V277.641V277.638V277.635V277.632V277.629V277.626V277.623V277.62V277.617V277.614V277.611V277.608V277.605V277.602V277.599V277.596V277.593V277.59V277.587V277.584V277.581V277.578V277.576V277.573V277.57V277.567V277.564V277.561V277.559V277.556V277.553V277.55V277.547V277.545V277.542V277.539V277.536V277.534V277.531V277.528V277.526V277.523V277.52V277.518V277.515V277.512V277.51V277.507V277.504V277.502V277.499V277.497V277.494V277.492V277.489V277.486V277.484V277.481V277.479V277.476V277.474V277.471V277.469V277.467V277.464V277.462V277.459V277.457V277.455V277.452V277.45V277.447V277.445V277.443V277.44V277.438V277.436V277.434V277.431V277.429V277.427V277.425V277.422V277.42V277.418V277.416V277.414V277.411V277.409V277.407V277.405V277.403V277.401V277.399V277.397V277.395V277.392V277.39V277.388V277.386V277.384V277.382V277.38V277.378V277.376V277.375V277.373V277.371V277.369V277.367V277.365V277.363V277.361V277.359V277.358V277.356V277.354V277.352V277.35V277.349V277.347V277.345V277.343V277.342V277.34V277.338V277.337V277.335V277.333V277.332V277.33V277.329V277.327V277.325V277.324V277.322V277.321V277.319V277.318V277.316V277.315V277.313V277.312V277.31V277.309V277.308V277.306V277.305V277.303V277.302V277.301V277.299V277.298V277.297V277.295V277.294V277.293V277.292V277.29V277.289V277.288V277.287V277.286V277.284V277.283V277.282V277.281V277.28V277.279V277.278V277.277V277.276V277.275V277.274V277.273V277.272V277.271V277.27V277.269V277.268V277.267V277.266V277.265V277.264V277.264V277.263V277.262V277.261V277.26V277.26V277.259V277.258V277.257V277.257V277.256V277.255V277.255V277.254V277.253V277.253V277.252V277.252V277.251V277.251V277.25V277.249V277.249V277.248V277.248V277.248V277.247V277.247V277.246V277.246V277.246V277.245V277.245V277.244V277.244V277.244V277.244V277.243V277.243V277.243V277.243V277.242V277.242V277.242V277.242V277.242V277.242V277.242V277.242V277.242V277.241C190.672 276.248 190.835 275.416 191.022 274.486L191.027 274.457C191.21 273.544 191.412 272.532 191.412 271.316V271.303V271.29V271.277V271.264V271.251V271.238V271.225V271.212V271.199V271.186V271.173V271.16V271.147V271.134V271.121V271.108V271.095V271.082V271.069V271.056V271.043V271.03V271.017V271.004V270.991V270.978V270.965V270.952V270.939V270.926V270.913V270.9V270.887V270.874V270.861V270.848V270.835V270.822V270.809V270.796V270.782V270.769V270.756V270.743V270.73V270.717V270.704V270.691V270.678V270.665V270.652V270.639V270.626V270.613V270.6V270.587V270.574V270.561V270.548V270.535V270.522V270.509V270.496V270.483V270.47V270.457V270.444V270.431V270.418V270.405V270.392V270.379V270.366V270.353V270.34V270.327V270.314V270.301V270.288V270.275V270.262V270.249V270.236V270.223V270.21V270.197V270.184V270.171V270.158V270.145V270.132V270.119V270.105V270.092V270.079V270.066V270.053V270.04V270.027V270.014V270.001V269.988V269.975V269.962V269.949V269.936V269.923V269.91V269.897V269.884V269.871V269.858V269.845V269.832V269.819V269.806V269.793V269.78V269.767V269.754V269.741V269.728V269.715V269.702V269.689V269.676V269.663V269.65V269.637V269.624V269.611V269.598V269.585V269.572V269.559V269.546V269.533V269.52V269.507V269.494V269.481V269.468V269.455V269.442V269.428V269.415V269.402V269.389V269.376V269.363V269.35V269.337V269.324V269.311V269.298V269.285V269.272V269.259V269.246V269.233V269.22V269.207V269.194V269.181V269.168V269.155V269.142V269.129V269.116V269.103V269.09V269.077V269.064V269.051V269.038V269.025V269.012V268.999V268.986V268.973V268.96V268.947V268.934V268.921V268.908V268.895V268.882V268.869V268.856V268.843V268.83V268.817V268.804V268.791V268.778V268.765V268.751V268.738V268.725V268.712V268.699V268.686V268.673V268.66V268.647V268.634V268.621V268.608V268.595V268.582V268.569V268.556V268.543V268.53V268.517V268.504V268.491V268.478V268.465V268.452V268.439V268.426V268.413V268.4V268.387V268.374V268.361V268.348V268.335V268.322V268.309V268.296V268.283V268.27V268.257V268.244V268.231V268.218V268.205V268.192V268.179V268.166V268.153V268.14V268.127V268.114V268.101V268.088V268.075V268.061V268.048V268.035V268.022V268.009V267.996V267.983V267.97V267.957V267.944V267.931V267.918V267.905V267.892V267.879V267.866V267.853V267.84V267.827V267.814V267.801V267.788V267.775V267.762V267.749V267.736V267.723V267.71V267.697V267.684V267.671V267.658V267.645V267.632V267.619V267.606V267.593V267.58V267.567V267.554V267.541V267.528V267.515V267.502V267.489V267.476V267.463V267.45V267.437V267.424V267.411V267.397V267.384V267.371V267.358V267.345V267.332V267.319V267.306V267.293V267.28V267.267V267.254V267.241V267.228V267.215V267.202V267.189V267.176V267.163V267.15V267.137V267.124V267.111V267.098V267.085V267.072V267.059V267.046V267.033V267.02V267.007V266.994V266.981V266.968V266.955V266.942V266.929V266.916V266.903V266.89V266.877V266.864V266.851V266.838V266.825V266.812V266.799V266.786V266.773V266.76V266.747V266.734V266.72V266.707V266.694V266.681V266.668V266.655V266.642V266.629V266.616V266.603V266.59V266.577V266.564V266.551V266.538V266.525V266.512V266.499V266.486V266.473V266.46V266.447V266.434V266.421V266.408V266.395V266.382V266.369V266.356V266.343V266.33V266.317V266.304V266.291V266.278V266.265V266.252V266.239V266.226V266.213V266.2V266.187V266.174V266.161V266.148V266.135V266.122V266.109V266.096V266.083V266.07V266.057V266.044V266.03V266.017V266.004V265.991V265.978V265.965V265.952V265.939V265.926V265.913V265.9V265.887V265.874V265.861V265.848V265.835V265.822V265.809V265.796V265.783V265.77V265.757V265.744V265.731V265.718V265.705V265.692V265.679V265.666V265.653V265.64V265.627V265.614V265.601V265.588V265.575V265.562V265.549V265.536V265.523V265.51V265.497V265.484V265.471V265.458V265.445V265.432V265.419V265.406V265.393V265.38V265.367V265.353V265.34V265.327V265.314V265.301V265.288V265.275V265.262V265.249V265.236V265.223V265.21V265.197V265.184V265.171V265.158V265.145V265.132V265.119V265.106V265.093V265.08V265.067V265.054V265.041V265.028V265.015V265.002V264.989V264.976V264.963V264.95V264.937V264.924V264.911V264.898V264.885V264.872V264.859V264.846V264.833V264.82V264.807V264.794V264.781V264.768V264.755V264.742V264.729V264.716V264.703V264.689V264.676V264.663V264.65V264.603C191.412 260.962 191.412 257.205 190.67 253.432C190.654 252.609 190.462 251.647 190.294 250.809L190.281 250.742C190.088 249.78 189.931 248.97 189.931 248.356C189.931 247.565 189.753 246.78 189.592 246.065C189.573 245.98 189.554 245.896 189.535 245.813C189.354 244.997 189.19 244.163 189.19 243.172C189.19 242.259 188.959 241.567 188.775 241.016L188.765 240.987C188.58 240.432 188.449 240.021 188.449 239.468C188.449 238.556 188.218 237.864 188.034 237.313L188.024 237.284C187.856 236.778 187.732 236.392 187.711 235.91C192.117 221.322 200.159 207.454 211.12 195.762C222.132 184.757 235.329 175.969 249.971 170.844C267.358 165.052 286.195 164.265 304.358 167.793C313.595 201.324 304.041 237.676 280.728 262.441C256.758 287.125 221.26 297.429 187.791 290.478C188.094 289.491 188.264 288.639 188.425 287.832L188.428 287.817C188.614 286.891 188.788 286.023 189.136 284.981C189.501 283.887 189.697 282.795 189.867 281.856C189.883 281.768 189.898 281.681 189.914 281.596C190.103 280.553 190.268 279.778 190.56 279.194Z" fill="white" fill-opacity="0.29" stroke="url(#paint3_linear_22_274)" stroke-width="2.10663"/>
<path d="M88.1405 262.446L88.1353 262.441L88.1299 262.435C64.0993 237.685 55.2549 201.341 64.5055 167.793C82.6691 164.265 101.506 165.052 118.892 170.844C133.551 175.974 147.486 184.771 158.485 195.762C169.495 207.506 177.546 220.69 181.937 236.055C186.323 251.398 186.336 268.236 183.41 283.643C183.028 284.809 182.836 285.964 182.658 287.034L182.652 287.067C182.498 287.991 182.353 288.852 182.117 289.697C147.835 298.233 112.19 287.945 88.1405 262.446Z" fill="white" fill-opacity="0.29" stroke="url(#paint4_linear_22_274)" stroke-width="2.10663"/>
<defs>
<filter id="filter0_b_22_274" x="-34.4946" y="-34.4946" width="435.163" height="435.163" filterUnits="userSpaceOnUse" color-interpolation-filters="sRGB">
<feFlood flood-opacity="0" result="BackgroundImageFix"/>
<feGaussianBlur in="BackgroundImage" stdDeviation="17.2473"/>
<feComposite in2="SourceAlpha" operator="in" result="effect1_backgroundBlur_22_274"/>
<feBlend mode="normal" in="SourceGraphic" in2="effect1_backgroundBlur_22_274" result="shape"/>
</filter>
<linearGradient id="paint0_linear_22_274" x1="183.087" y1="-99.172" x2="183.087" y2="436.005" gradientUnits="userSpaceOnUse">
<stop stop-color="white"/>
<stop offset="0.145833" stop-color="white" stop-opacity="0.26"/>
<stop offset="0.505208" stop-color="white" stop-opacity="0"/>
<stop offset="0.796875" stop-color="white" stop-opacity="0.14"/>
<stop offset="1" stop-color="white"/>
</linearGradient>
<linearGradient id="paint1_linear_22_274" x1="182.951" y1="-47.9439" x2="164.507" y2="447.848" gradientUnits="userSpaceOnUse">
<stop stop-color="white"/>
<stop offset="0.395833" stop-color="white" stop-opacity="0"/>
<stop offset="1" stop-color="white"/>
</linearGradient>
<linearGradient id="paint2_linear_22_274" x1="184.385" y1="45.4657" x2="173.681" y2="266.879" gradientUnits="userSpaceOnUse">
<stop stop-color="white"/>
<stop offset="0.395833" stop-color="white" stop-opacity="0"/>
<stop offset="1" stop-color="white"/>
</linearGradient>
<linearGradient id="paint3_linear_22_274" x1="247.73" y1="147.726" x2="240.87" y2="322.409" gradientUnits="userSpaceOnUse">
<stop stop-color="white"/>
<stop offset="0.395833" stop-color="white" stop-opacity="0"/>
<stop offset="1" stop-color="white"/>
</linearGradient>
<linearGradient id="paint4_linear_22_274" x1="123.129" y1="147.721" x2="116.503" y2="322.478" gradientUnits="userSpaceOnUse">
<stop stop-color="white"/>
<stop offset="0.395833" stop-color="white" stop-opacity="0"/>
<stop offset="1" stop-color="white"/>
</linearGradient>
</defs>
</svg>
