<svg width="381" height="52" viewBox="0 0 381 52" fill="none" xmlns="http://www.w3.org/2000/svg">
<path d="M41.919 22.7732C41.919 22.7732 41.919 22.9282 41.919 22.7732C38.508 23.8585 35.4071 25.8741 32.9263 28.5099C30.6006 30.9906 28.7401 34.0915 27.6548 37.3475C26.5694 34.0915 24.8639 30.9906 22.3832 28.5099C19.9024 25.8741 16.8015 23.8585 13.3905 22.7732C14.3208 13.3154 19.9024 5.0979 27.6548 0.601562C35.5621 5.0979 41.1438 13.3154 41.919 22.7732Z" fill="url(#paint0_linear_25_10469)"/>
<path d="M49.5164 44.6347C44.0897 50.3714 35.8723 52.6971 28.275 50.8365V50.6815C28.4301 50.2163 28.5851 49.7512 28.5851 49.2861C28.7402 48.8209 28.7402 48.3558 28.8952 47.8907C28.8952 47.7356 28.8952 47.5806 28.8952 47.5806C28.8952 47.1154 29.0503 46.6503 29.0503 46.3402C29.0503 45.8751 29.0503 45.2549 29.0503 44.7897C29.0503 44.0145 29.0503 43.0842 28.8952 42.309C28.8952 41.9989 28.7402 41.5338 28.7402 41.2237C28.7402 40.9136 28.5851 40.4484 28.5851 40.1383C28.5851 39.8283 28.4301 39.6732 28.4301 39.3631C28.4301 39.053 28.275 38.898 28.275 38.5879C29.2053 35.1769 31.0659 32.0759 33.5466 29.4402C36.0273 26.8044 39.1283 24.9438 42.3842 23.8585C46.4154 22.4631 50.7567 22.308 54.7879 23.2383C56.9586 30.6805 54.943 38.898 49.5164 44.6347Z" fill="url(#paint1_linear_25_10469)"/>
<path d="M27.8098 49.2861C27.6548 49.7512 27.6548 50.2164 27.4997 50.6815C19.9025 52.5421 11.685 50.2164 6.25842 44.4797C0.831799 38.743 -1.33885 30.5255 0.831799 22.9282C5.01805 21.998 9.2043 22.153 13.2355 23.5484C16.6465 24.6338 19.7474 26.6494 22.0731 29.1301C24.5539 31.7659 26.4144 34.8668 27.3447 38.2778C28.43 41.9989 28.5851 45.72 27.8098 49.2861Z" fill="url(#paint2_linear_25_10469)"/>
<path d="M87.426 39.3434H68.3146C68.4501 41.241 69.1278 42.7319 70.3477 43.8163C71.5676 44.9006 72.923 45.4428 74.6851 45.4428C77.1248 45.4428 78.8869 44.3584 79.9712 42.3253H87.1549C86.3417 44.9006 84.9863 46.9337 82.8176 48.5602C80.6489 50.1867 78.0736 51 74.9561 51C72.3808 51 70.2122 50.4578 68.179 49.3735C66.1459 48.2891 64.6549 46.6626 63.5706 44.6295C62.4863 42.5964 61.9441 40.2922 61.9441 37.5813C61.9441 34.8705 62.4863 32.5663 63.5706 30.3976C64.6549 28.3644 66.1459 26.7379 68.179 25.6536C70.2122 24.5693 72.3808 24.0271 74.9561 24.0271C77.3959 24.0271 79.7001 24.5693 81.5977 25.6536C83.4953 26.7379 85.1218 28.2289 86.2061 30.262C87.2905 32.2952 87.8326 34.4638 87.8326 37.0391C87.6971 37.8524 87.5616 38.6657 87.426 39.3434ZM80.7845 35.006C80.7845 33.244 80.1067 31.8885 78.8869 30.9397C77.667 29.8554 76.176 29.4488 74.5495 29.4488C72.923 29.4488 71.5676 29.991 70.4833 30.9397C69.3989 31.8885 68.7212 33.244 68.4501 35.006H80.7845Z" fill="white"/>
<path d="M90.0013 30.2621C91.0856 28.2289 92.5766 26.6024 94.6097 25.5181C96.5073 24.4337 98.8115 23.8916 101.251 23.8916C104.504 23.8916 107.215 24.7048 109.248 26.3313C111.281 27.9578 112.772 30.2621 113.45 33.1084H106.266C105.86 32.0241 105.318 31.0753 104.369 30.3976C103.42 29.7199 102.336 29.4488 100.98 29.4488C99.0826 29.4488 97.5917 30.1265 96.5073 31.4819C95.423 32.8374 94.8808 34.7349 94.8808 37.3102C94.8808 39.75 95.423 41.7831 96.5073 43.1386C97.5917 44.494 99.0826 45.1717 100.98 45.1717C103.691 45.1717 105.453 43.9518 106.266 41.6476H113.45C112.772 44.494 111.281 46.6627 109.113 48.4247C106.944 50.0512 104.369 50.8645 101.116 50.8645C98.5405 50.8645 96.3718 50.3223 94.4742 49.238C92.5766 48.1536 90.9501 46.5271 89.8658 44.494C88.7814 42.4608 88.2393 40.1566 88.2393 37.4458C88.2393 34.7349 88.917 32.2952 90.0013 30.2621Z" fill="white"/>
<path d="M122.667 15.6235V50.4578H116.025V15.6235H122.667Z" fill="white"/>
<path d="M126.733 30.2621C127.817 28.2289 129.173 26.6024 131.07 25.5181C132.833 24.4337 134.866 23.8916 137.17 23.8916C139.067 23.8916 140.83 24.2982 142.32 25.1115C143.811 25.9247 144.896 26.8735 145.845 28.0934V24.4337H152.486V50.5934H145.845V46.6627C145.031 47.8825 143.811 48.9669 142.32 49.6446C140.83 50.4578 139.067 50.8645 137.17 50.8645C135.001 50.8645 132.968 50.3223 131.206 49.1024C129.444 48.0181 127.953 46.3916 126.869 44.3584C125.784 42.3253 125.242 39.8855 125.242 37.3102C125.242 34.7349 125.649 32.2952 126.733 30.2621ZM144.76 33.244C144.083 32.1596 143.269 31.2108 142.185 30.6687C141.101 29.991 140.016 29.7199 138.796 29.7199C137.577 29.7199 136.492 29.991 135.408 30.6687C134.324 31.2108 133.51 32.1596 132.833 33.244C132.155 34.3283 131.884 35.8193 131.884 37.3102C131.884 38.9368 132.155 40.2922 132.833 41.3765C133.51 42.4608 134.324 43.4096 135.408 44.0874C136.492 44.7651 137.577 45.0361 138.796 45.0361C140.016 45.0361 141.236 44.7651 142.185 44.0874C143.269 43.4096 144.083 42.5964 144.76 41.5121C145.438 40.4277 145.709 38.9368 145.709 37.4458C145.709 35.8193 145.438 34.4639 144.76 33.244Z" fill="white"/>
<path d="M163.194 26.4669C165.092 25.1115 167.396 24.4337 169.971 24.4337C172.411 24.4337 174.444 24.9759 176.342 26.0603C178.239 27.1446 179.73 28.6356 180.679 30.6687C181.763 32.7018 182.305 35.006 182.305 37.5813C182.305 40.1566 181.763 42.5964 180.679 44.494C179.595 46.5271 178.104 48.0181 176.342 49.1024C174.444 50.1868 172.275 50.7289 169.971 50.7289C167.26 50.7289 164.956 50.0512 163.059 48.6958C161.161 47.3404 159.806 45.7139 159.128 43.5452V50.1868H156.959V15.6235H159.128V31.6175C160.077 29.5843 161.296 27.8223 163.194 26.4669ZM178.917 31.6175C178.104 29.8554 176.748 28.6356 175.257 27.6868C173.631 26.738 171.869 26.3313 169.7 26.3313C167.667 26.3313 165.905 26.738 164.278 27.6868C162.652 28.6356 161.432 29.991 160.483 31.6175C159.534 33.3795 159.128 35.2771 159.128 37.5813C159.128 39.8856 159.534 41.7831 160.483 43.5452C161.432 45.3072 162.652 46.5271 164.278 47.4759C165.905 48.4247 167.667 48.8313 169.7 48.8313C171.733 48.8313 173.631 48.4247 175.257 47.4759C176.884 46.5271 178.104 45.3072 178.917 43.5452C179.73 41.7831 180.272 39.8856 180.272 37.4458C180.272 35.006 179.866 33.3795 178.917 31.6175Z" fill="white"/>
<path d="M188.676 15.6235V50.4578H186.507V15.6235H188.676Z" fill="white"/>
<path d="M198.842 49.238C196.944 48.1536 195.453 46.6627 194.369 44.6295C193.284 42.5964 192.742 40.2922 192.742 37.5813C192.742 35.006 193.284 32.5663 194.369 30.6687C195.453 28.6356 196.944 27.1446 198.977 26.0603C200.875 24.9759 203.043 24.4337 205.483 24.4337C207.923 24.4337 210.092 24.9759 211.989 26.0603C213.887 27.1446 215.378 28.6356 216.462 30.6687C217.546 32.7018 218.089 35.006 218.089 37.5813C218.089 40.1566 217.546 42.5964 216.462 44.6295C215.378 46.6627 213.887 48.1536 211.854 49.238C209.956 50.3223 207.787 50.8645 205.348 50.8645C202.908 50.8645 200.739 50.3223 198.842 49.238ZM210.498 47.747C212.125 46.9337 213.48 45.7139 214.429 43.9518C215.378 42.1898 215.92 40.1566 215.92 37.7169C215.92 35.2771 215.378 33.244 214.429 31.4819C213.48 29.7199 212.125 28.5 210.498 27.6868C208.872 26.8735 207.11 26.4669 205.348 26.4669C203.45 26.4669 201.824 26.8735 200.197 27.6868C198.571 28.5 197.351 29.7199 196.402 31.4819C195.453 33.244 194.911 35.2771 194.911 37.7169C194.911 40.1566 195.453 42.3253 196.402 43.9518C197.351 45.7139 198.571 46.9337 200.197 47.747C201.824 48.5603 203.45 48.9669 205.348 48.9669C207.11 48.9669 208.872 48.5603 210.498 47.747Z" fill="white"/>
<path d="M222.29 30.6687C223.375 28.6356 224.866 27.1446 226.628 26.0603C228.525 24.9759 230.694 24.4337 232.998 24.4337C236.251 24.4337 238.827 25.247 240.86 26.8735C242.893 28.5 244.248 30.6687 244.655 33.3795H242.757C242.351 31.2109 241.266 29.4488 239.64 28.2289C237.878 27.009 235.845 26.3313 233.269 26.3313C231.372 26.3313 229.61 26.738 228.119 27.5512C226.628 28.3645 225.408 29.7199 224.459 31.3464C223.51 33.1084 223.104 35.1416 223.104 37.5813C223.104 40.0211 223.51 42.1898 224.459 43.8163C225.408 45.5783 226.628 46.7982 228.119 47.6115C229.61 48.4247 231.372 48.8313 233.269 48.8313C235.845 48.8313 237.878 48.1536 239.64 46.9337C241.402 45.7139 242.351 43.9518 242.757 41.7831H244.926C244.384 44.494 243.164 46.6627 240.995 48.2892C238.962 49.9157 236.251 50.7289 233.134 50.7289C230.694 50.7289 228.525 50.1868 226.763 49.1024C224.866 48.0181 223.375 46.5271 222.426 44.494C221.342 42.4609 220.799 40.1566 220.799 37.4458C220.799 34.735 221.342 32.7018 222.29 30.6687Z" fill="white"/>
<path d="M262.275 50.4578L251.161 38.6657V50.4578H248.992V15.6235H251.161V36.497L262.14 24.8404H265.122L252.652 37.5813L265.257 50.4578H262.275Z" fill="white"/>
<path d="M267.562 30.6687C268.646 28.6356 270.137 27.1446 271.899 26.0603C273.797 24.9759 275.965 24.4337 278.269 24.4337C281.522 24.4337 284.098 25.247 286.131 26.8735C288.164 28.5 289.519 30.6687 289.926 33.3795H287.757C287.351 31.2109 286.266 29.4488 284.64 28.2289C282.878 27.009 280.845 26.3313 278.269 26.3313C276.372 26.3313 274.61 26.738 273.119 27.5512C271.628 28.3645 270.408 29.7199 269.459 31.3464C268.51 33.1084 268.104 35.1416 268.104 37.5813C268.104 40.0211 268.51 42.1898 269.459 43.8163C270.408 45.5783 271.628 46.7982 273.119 47.6115C274.61 48.4247 276.372 48.8313 278.269 48.8313C280.845 48.8313 282.878 48.1536 284.64 46.9337C286.402 45.7139 287.351 43.9518 287.757 41.7831H289.926C289.384 44.494 288.164 46.6627 285.995 48.2892C283.962 49.9157 281.251 50.7289 278.134 50.7289C275.694 50.7289 273.525 50.1868 271.763 49.1024C269.866 48.0181 268.375 46.5271 267.426 44.494C266.342 42.4609 265.8 40.1566 265.8 37.4458C265.8 34.735 266.477 32.7018 267.562 30.6687Z" fill="white"/>
<path d="M313.239 27.1446C315.137 29.0422 316.086 31.753 316.086 35.4127V50.4578H314.052V35.5482C314.052 32.5663 313.239 30.1265 311.748 28.5C310.257 26.8735 308.089 26.0603 305.513 26.0603C302.802 26.0603 300.498 26.8735 298.872 28.6356C297.245 30.3976 296.432 32.9729 296.432 36.497V50.3223H294.263V15.6235H296.432V30.3976C297.11 28.5 298.33 27.009 300.092 25.9247C301.854 24.8404 303.751 24.4337 305.92 24.4337C308.766 24.2982 311.342 25.247 313.239 27.1446Z" fill="white"/>
<path d="M321.507 30.6687C322.591 28.6356 324.082 27.1446 325.844 26.0603C327.742 24.9759 329.911 24.4337 332.215 24.4337C334.926 24.4337 337.23 25.1115 339.128 26.4669C341.025 27.8223 342.381 29.4488 343.058 31.4819V24.8404H345.227V50.4578H343.058V43.6807C342.245 45.7139 341.025 47.4759 339.128 48.8313C337.23 50.1868 334.926 50.8645 332.215 50.8645C329.775 50.8645 327.742 50.3223 325.844 49.238C323.947 48.1536 322.456 46.6627 321.507 44.6295C320.423 42.5964 319.881 40.2922 319.881 37.7169C319.881 35.1416 320.423 32.7018 321.507 30.6687ZM341.703 31.753C340.754 29.991 339.534 28.7711 337.908 27.8223C336.281 26.8735 334.519 26.4669 332.486 26.4669C330.453 26.4669 328.555 26.8735 327.064 27.8223C325.438 28.7711 324.218 29.991 323.405 31.753C322.456 33.5151 322.049 35.4127 322.049 37.8524C322.049 40.2922 322.456 42.1898 323.405 43.9518C324.218 45.7139 325.573 46.9337 327.064 47.8825C328.691 48.8313 330.453 49.238 332.486 49.238C334.519 49.238 336.281 48.8313 337.908 47.8825C339.534 46.9337 340.754 45.5783 341.703 43.9518C342.652 42.1898 343.058 40.2922 343.058 37.988C343.058 35.4127 342.652 33.5151 341.703 31.753Z" fill="white"/>
<path d="M350.378 18.741C349.971 18.4699 349.836 17.9277 349.836 17.3855C349.836 16.8434 349.971 16.4367 350.378 16.0301C350.784 15.6235 351.191 15.4879 351.598 15.4879C352.004 15.4879 352.547 15.6235 352.818 16.0301C353.224 16.4367 353.36 16.8434 353.36 17.3855C353.36 17.9277 353.224 18.3343 352.818 18.741C352.411 19.012 352.004 19.2831 351.598 19.2831C351.191 19.2831 350.784 19.012 350.378 18.741ZM352.682 24.8404V50.4578H350.513V24.8404H352.682Z" fill="white"/>
<path d="M377.215 27.1446C379.113 29.0422 380.062 31.753 380.062 35.4126V50.4578H378.028V35.5482C378.028 32.5663 377.215 30.1265 375.724 28.5C374.233 26.8735 372.065 26.0602 369.489 26.0602C366.778 26.0602 364.474 26.8735 362.848 28.6355C361.221 30.3976 360.408 32.9729 360.408 36.497V50.3223H358.239V24.8404H360.408V30.262C361.086 28.3645 362.306 26.8735 364.068 25.7892C365.694 24.7048 367.727 24.2982 369.896 24.2982C372.742 24.2982 375.182 25.247 377.215 27.1446Z" fill="white"/>
<defs>
<linearGradient id="paint0_linear_25_10469" x1="3.21606" y1="11.0239" x2="48.5568" y2="25.7597" gradientUnits="userSpaceOnUse">
<stop stop-color="#2469E9"/>
<stop offset="1" stop-color="#5CADF6"/>
</linearGradient>
<linearGradient id="paint1_linear_25_10469" x1="-0.755679" y1="23.2451" x2="44.5851" y2="37.9809" gradientUnits="userSpaceOnUse">
<stop stop-color="#2469E9"/>
<stop offset="1" stop-color="#5CADF6"/>
</linearGradient>
<linearGradient id="paint2_linear_25_10469" x1="-3.38174" y1="31.3252" x2="41.9591" y2="46.061" gradientUnits="userSpaceOnUse">
<stop stop-color="#2469E9"/>
<stop offset="1" stop-color="#5CADF6"/>
</linearGradient>
</defs>
</svg>
