<svg width="420" height="54" viewBox="0 0 420 54" fill="none" xmlns="http://www.w3.org/2000/svg">
<path d="M29.368 24.972C29.368 26.012 29.2987 26.948 29.16 27.78H8.1C8.27333 29.86 9.00133 31.4893 10.284 32.668C11.5667 33.8467 13.144 34.436 15.016 34.436C17.72 34.436 19.644 33.2747 20.788 30.952H28.64C27.808 33.7253 26.2133 36.0133 23.856 37.816C21.4987 39.584 18.604 40.468 15.172 40.468C12.3987 40.468 9.90267 39.8613 7.684 38.648C5.5 37.4 3.784 35.6493 2.536 33.396C1.32267 31.1427 0.716 28.5427 0.716 25.596C0.716 22.6147 1.32267 19.9973 2.536 17.744C3.74933 15.4907 5.448 13.7573 7.632 12.544C9.816 11.3307 12.3293 10.724 15.172 10.724C17.9107 10.724 20.3547 11.3133 22.504 12.492C24.688 13.6707 26.3693 15.352 27.548 17.536C28.7613 19.6853 29.368 22.164 29.368 24.972ZM21.828 22.892C21.7933 21.02 21.1173 19.5293 19.8 18.42C18.4827 17.276 16.8707 16.704 14.964 16.704C13.1613 16.704 11.636 17.2587 10.388 18.368C9.17467 19.4427 8.42933 20.9507 8.152 22.892H21.828ZM32.8097 25.596C32.8097 22.6147 33.4164 20.0147 34.6298 17.796C35.8431 15.5427 37.5244 13.8093 39.6738 12.596C41.8231 11.348 44.2844 10.724 47.0578 10.724C50.6284 10.724 53.5751 11.6253 55.8978 13.428C58.2551 15.196 59.8324 17.692 60.6298 20.916H52.7778C52.3618 19.668 51.6511 18.6973 50.6458 18.004C49.6751 17.276 48.4618 16.912 47.0058 16.912C44.9258 16.912 43.2791 17.6747 42.0658 19.2C40.8524 20.6907 40.2458 22.8227 40.2458 25.596C40.2458 28.3347 40.8524 30.4667 42.0658 31.992C43.2791 33.4827 44.9258 34.228 47.0058 34.228C49.9524 34.228 51.8764 32.9107 52.7778 30.276H60.6298C59.8324 33.396 58.2551 35.8747 55.8978 37.712C53.5404 39.5493 50.5938 40.468 47.0578 40.468C44.2844 40.468 41.8231 39.8613 39.6738 38.648C37.5244 37.4 35.8431 35.6667 34.6298 33.448C33.4164 31.1947 32.8097 28.5773 32.8097 25.596ZM73.243 1.52V40H65.963V1.52H73.243ZM78.5637 25.492C78.5637 22.58 79.1357 19.9973 80.2797 17.744C81.4583 15.4907 83.0357 13.7573 85.0117 12.544C87.0223 11.3307 89.2583 10.724 91.7197 10.724C93.869 10.724 95.741 11.1573 97.3357 12.024C98.965 12.8907 100.265 13.9827 101.236 15.3V11.192H108.568V40H101.236V35.788C100.3 37.14 98.9997 38.2667 97.3357 39.168C95.7063 40.0347 93.817 40.468 91.6677 40.468C89.241 40.468 87.0223 39.844 85.0117 38.596C83.0357 37.348 81.4583 35.5973 80.2797 33.344C79.1357 31.056 78.5637 28.4387 78.5637 25.492ZM101.236 25.596C101.236 23.828 100.889 22.32 100.196 21.072C99.5023 19.7893 98.5663 18.8187 97.3877 18.16C96.209 17.4667 94.9437 17.12 93.5917 17.12C92.2397 17.12 90.9917 17.4493 89.8477 18.108C88.7037 18.7667 87.7677 19.7373 87.0397 21.02C86.3463 22.268 85.9997 23.7587 85.9997 25.492C85.9997 27.2253 86.3463 28.7507 87.0397 30.068C87.7677 31.3507 88.7037 32.3387 89.8477 33.032C91.0263 33.7253 92.2743 34.072 93.5917 34.072C94.9437 34.072 96.209 33.7427 97.3877 33.084C98.5663 32.3907 99.5023 31.42 100.196 30.172C100.889 28.8893 101.236 27.364 101.236 25.596ZM126.976 25.804C126.976 22.8573 127.566 20.292 128.744 18.108C129.923 15.8893 131.552 14.1907 133.632 13.012C135.712 11.7987 138.087 11.192 140.756 11.192C144.258 11.192 147.135 12.0587 149.388 13.792C151.676 15.5253 153.15 17.8827 153.808 20.864H149.908C149.423 18.8187 148.366 17.224 146.736 16.08C145.142 14.9013 143.148 14.312 140.756 14.312C138.85 14.312 137.134 14.7453 135.608 15.612C134.083 16.4787 132.87 17.7787 131.968 19.512C131.102 21.2107 130.668 23.308 130.668 25.804C130.668 28.3 131.102 30.4147 131.968 32.148C132.87 33.8813 134.083 35.1813 135.608 36.048C137.134 36.9147 138.85 37.348 140.756 37.348C143.148 37.348 145.142 36.776 146.736 35.632C148.366 34.4533 149.423 32.824 149.908 30.744H153.808C153.15 33.656 151.676 35.996 149.388 37.764C147.1 39.532 144.223 40.416 140.756 40.416C138.087 40.416 135.712 39.8267 133.632 38.648C131.552 37.4347 129.923 35.736 128.744 33.552C127.566 31.3333 126.976 28.7507 126.976 25.804ZM172.959 40.416C170.29 40.416 167.88 39.8267 165.731 38.648C163.616 37.4347 161.935 35.736 160.687 33.552C159.474 31.3333 158.867 28.7507 158.867 25.804C158.867 22.8573 159.491 20.292 160.739 18.108C161.987 15.8893 163.686 14.1907 165.835 13.012C167.984 11.7987 170.394 11.192 173.063 11.192C175.732 11.192 178.142 11.7987 180.291 13.012C182.475 14.1907 184.174 15.8893 185.387 18.108C186.635 20.292 187.259 22.8573 187.259 25.804C187.259 28.716 186.635 31.2813 185.387 33.5C184.139 35.7187 182.423 37.4347 180.239 38.648C178.055 39.8267 175.628 40.416 172.959 40.416ZM172.959 37.244C174.831 37.244 176.564 36.828 178.159 35.996C179.754 35.1293 181.036 33.8467 182.007 32.148C183.012 30.4147 183.515 28.3 183.515 25.804C183.515 23.308 183.03 21.2107 182.059 19.512C181.088 17.7787 179.806 16.496 178.211 15.664C176.616 14.7973 174.883 14.364 173.011 14.364C171.139 14.364 169.406 14.7973 167.811 15.664C166.216 16.496 164.934 17.7787 163.963 19.512C163.027 21.2107 162.559 23.308 162.559 25.804C162.559 28.3 163.027 30.4147 163.963 32.148C164.934 33.8467 166.199 35.1293 167.759 35.996C169.354 36.828 171.087 37.244 172.959 37.244ZM227.694 11.088C231.022 11.088 233.726 12.1453 235.806 14.26C237.921 16.34 238.978 19.3733 238.978 23.36V40H235.39V23.776C235.39 20.6907 234.645 18.3333 233.154 16.704C231.664 15.0747 229.636 14.26 227.07 14.26C224.401 14.26 222.269 15.144 220.674 16.912C219.08 18.68 218.282 21.2453 218.282 24.608V40H214.694V23.776C214.694 20.6907 213.949 18.3333 212.458 16.704C210.968 15.0747 208.922 14.26 206.322 14.26C203.653 14.26 201.521 15.144 199.926 16.912C198.332 18.68 197.534 21.2453 197.534 24.608V40H193.894V11.608H197.534V16.496C198.436 14.728 199.718 13.3933 201.382 12.492C203.046 11.556 204.901 11.088 206.946 11.088C209.408 11.088 211.557 11.6773 213.394 12.856C215.266 14.0347 216.618 15.768 217.45 18.056C218.213 15.8027 219.513 14.0867 221.35 12.908C223.222 11.6947 225.337 11.088 227.694 11.088ZM280.862 11.088C284.19 11.088 286.894 12.1453 288.974 14.26C291.089 16.34 292.146 19.3733 292.146 23.36V40H288.558V23.776C288.558 20.6907 287.813 18.3333 286.322 16.704C284.832 15.0747 282.804 14.26 280.238 14.26C277.569 14.26 275.437 15.144 273.842 16.912C272.248 18.68 271.45 21.2453 271.45 24.608V40H267.862V23.776C267.862 20.6907 267.117 18.3333 265.626 16.704C264.136 15.0747 262.09 14.26 259.49 14.26C256.821 14.26 254.689 15.144 253.094 16.912C251.5 18.68 250.702 21.2453 250.702 24.608V40H247.062V11.608H250.702V16.496C251.604 14.728 252.886 13.3933 254.55 12.492C256.214 11.556 258.069 11.088 260.114 11.088C262.576 11.088 264.725 11.6773 266.562 12.856C268.434 14.0347 269.786 15.768 270.618 18.056C271.381 15.8027 272.681 14.0867 274.518 12.908C276.39 11.6947 278.505 11.088 280.862 11.088ZM324.826 11.608V40H321.186V35.008C320.354 36.776 319.072 38.128 317.338 39.064C315.605 40 313.664 40.468 311.514 40.468C308.117 40.468 305.344 39.428 303.194 37.348C301.045 35.2333 299.97 32.1827 299.97 28.196V11.608H303.558V27.78C303.558 30.8653 304.321 33.2227 305.846 34.852C307.406 36.4813 309.521 37.296 312.19 37.296C314.929 37.296 317.113 36.4293 318.742 34.696C320.372 32.9627 321.186 30.4147 321.186 27.052V11.608H324.826ZM346.449 11.088C349.846 11.088 352.619 12.1453 354.769 14.26C356.918 16.34 357.993 19.3733 357.993 23.36V40H354.405V23.776C354.405 20.6907 353.625 18.3333 352.065 16.704C350.539 15.0747 348.442 14.26 345.773 14.26C343.034 14.26 340.85 15.1267 339.221 16.86C337.591 18.5933 336.777 21.1413 336.777 24.504V40H333.137V11.608H336.777V16.444C337.678 14.7107 338.978 13.3933 340.677 12.492C342.375 11.556 344.299 11.088 346.449 11.088ZM367.863 6.252C367.135 6.252 366.511 5.992 365.991 5.472C365.471 4.952 365.211 4.31067 365.211 3.548C365.211 2.78533 365.471 2.16133 365.991 1.676C366.511 1.156 367.135 0.895998 367.863 0.895998C368.591 0.895998 369.215 1.156 369.735 1.676C370.255 2.16133 370.515 2.78533 370.515 3.548C370.515 4.31067 370.255 4.952 369.735 5.472C369.215 5.992 368.591 6.252 367.863 6.252ZM369.683 11.608V40H366.043V11.608H369.683ZM382.658 14.676V32.304C382.658 34.0373 382.987 35.2333 383.646 35.892C384.304 36.5507 385.466 36.88 387.13 36.88H390.458V40H386.558C383.992 40 382.086 39.4107 380.838 38.232C379.59 37.0187 378.966 35.0427 378.966 32.304V14.676H375.014V11.608H378.966V4.484H382.658V11.608H390.458V14.676H382.658ZM419.861 11.608L403.013 53.364H399.217L404.729 39.844L393.081 11.608H397.085L406.757 35.84L416.117 11.608H419.861Z" fill="white"/>
</svg>
