<svg width="169" height="55" viewBox="0 0 169 55" fill="none" xmlns="http://www.w3.org/2000/svg">
<path d="M43.7177 24.408C43.7177 24.408 43.7177 24.4899 43.7177 24.408C40.1614 25.6365 36.9285 27.684 34.3421 30.4686C31.8365 33.0894 29.9776 36.2836 28.9268 39.7234C27.8761 36.2836 25.9363 33.0894 23.5116 30.4686C20.9252 27.7659 17.6923 25.6365 14.136 24.408C14.136 24.408 14.136 24.408 14.0552 24.408C14.9442 14.4161 20.6828 5.81659 28.846 0.984467C37.0901 5.81659 42.8286 14.4161 43.7177 24.408Z" fill="url(#paint0_linear_7_140)"/>
<path d="M51.5577 47.422C45.9 53.4007 37.4942 55.8577 29.5734 53.974C29.5734 53.8921 29.5734 53.8921 29.6543 53.8102C29.8159 53.3188 29.8967 52.8274 29.9775 52.4179C30.0584 51.9265 30.1392 51.4351 30.22 50.9437C30.22 50.7799 30.22 50.698 30.3008 50.5342C30.3817 50.0428 30.3817 49.6333 30.4625 49.1419C30.5433 48.5686 30.5433 48.0772 30.5433 47.5039C30.5433 46.603 30.4625 45.7021 30.3817 44.8831C30.3008 44.4736 30.3008 44.0641 30.22 43.7365C30.1392 43.327 30.0584 42.9994 29.9775 42.5899C29.8967 42.3442 29.8967 42.0166 29.8159 41.7709C29.7351 41.5252 29.6542 41.1976 29.5734 40.9519C30.6241 37.4301 32.4831 34.0722 35.0695 31.3695C37.6559 28.6668 40.808 26.6193 44.2835 25.4727C48.4863 23.9985 52.9317 23.8347 57.2154 24.8994C59.3168 32.7618 57.2154 41.4433 51.5577 47.422Z" fill="url(#paint1_linear_7_140)"/>
<path d="M28.9268 52.336C28.846 52.8274 28.6844 53.4007 28.6036 53.8921C28.6036 53.8921 28.6036 53.8921 28.6036 53.974C20.6019 55.9396 12.1154 53.4007 6.45767 47.422C0.799964 41.4433 -1.38229 32.7618 0.880788 24.7356C5.16448 23.6709 9.60982 23.9166 13.7319 25.3089C17.2073 26.4555 20.4403 28.5849 23.0267 31.2876C25.613 33.9903 27.472 37.2663 28.5227 40.87V40.9519C29.5734 44.6374 29.7351 48.5686 28.9268 52.336Z" fill="url(#paint2_linear_7_140)"/>
<path d="M94.4871 40.699H72.5371C72.7127 42.8935 73.4737 44.6136 74.8199 45.8592C76.1662 47.1047 77.8051 47.6979 79.7367 47.6979C82.5463 47.6979 84.5365 46.4523 85.7657 44.0205H93.9603C93.0823 46.9268 91.4434 49.3586 88.985 51.2566C86.5266 53.1546 83.5414 54.1036 79.9123 54.1036C77.0442 54.1036 74.4102 53.4512 72.1274 52.1463C69.8446 50.8414 68.0301 49.0027 66.7424 46.6302C65.4546 44.2577 64.8108 41.5293 64.8108 38.3858C64.8108 35.2422 65.4546 32.4545 66.6838 30.082C67.9716 27.7095 69.7276 25.8708 72.0103 24.5659C74.2931 23.2611 76.9271 22.6679 79.8538 22.6679C82.7219 22.6679 85.2389 23.3204 87.5217 24.5066C89.8045 25.7522 91.5019 27.5316 92.7897 29.7855C94.0189 32.0986 94.6627 34.7084 94.6627 37.674C94.6627 38.8603 94.6042 39.8093 94.4871 40.699ZM86.8193 35.5388C86.7607 33.5815 86.0583 31.98 84.7121 30.7938C83.3658 29.6075 81.6683 29.0144 79.6782 29.0144C77.8051 29.0144 76.2247 29.6075 74.937 30.7345C73.6493 31.8614 72.8883 33.4628 72.5957 35.5388H86.8193Z" fill="white"/>
<path d="M97.4138 30.1413C98.7015 27.7688 100.458 25.9301 102.682 24.6253C104.906 23.3204 107.482 22.6679 110.35 22.6679C114.096 22.6679 117.14 23.6169 119.598 25.5149C122.056 27.4129 123.695 30.0227 124.515 33.4628H116.32C115.91 32.158 115.149 31.0903 114.154 30.3786C113.101 29.6075 111.872 29.2516 110.35 29.2516C108.184 29.2516 106.486 30.0227 105.199 31.6241C103.911 33.2256 103.326 35.4795 103.326 38.3858C103.326 41.2921 103.97 43.546 105.199 45.0881C106.486 46.6895 108.184 47.4606 110.35 47.4606C113.393 47.4606 115.442 46.0964 116.379 43.3087H124.573C123.754 46.6302 122.115 49.24 119.656 51.138C117.198 53.0953 114.154 54.0443 110.467 54.0443C107.599 54.0443 105.023 53.3919 102.799 52.087C100.575 50.7821 98.8186 48.9434 97.5309 46.5709C96.2431 44.1984 95.6578 41.47 95.6578 38.3265C95.5407 35.2422 96.1846 32.5138 97.4138 30.1413Z" fill="white"/>
<path d="M134.992 13V53.6291H127.383V13H134.992Z" fill="white"/>
<path d="M139.616 30.1413C140.846 27.7688 142.484 25.9301 144.533 24.6253C146.582 23.3204 148.923 22.7273 151.499 22.7273C153.723 22.7273 155.713 23.2018 157.352 24.0915C159.049 24.9811 160.396 26.1674 161.391 27.5316V23.2018H169V53.6291H161.391V49.1807C160.396 50.6042 159.049 51.7904 157.352 52.7394C155.654 53.6884 153.664 54.1629 151.44 54.1629C148.923 54.1629 146.582 53.5105 144.533 52.2056C142.484 50.9007 140.787 49.0027 139.616 46.6302C138.387 44.2577 137.802 41.47 137.802 38.3858C137.802 35.2422 138.387 32.5138 139.616 30.1413ZM160.337 33.5815C159.635 32.2173 158.64 31.209 157.41 30.4972C156.181 29.7855 154.893 29.4296 153.43 29.4296C152.025 29.4296 150.738 29.7855 149.508 30.4972C148.338 31.209 147.343 32.2173 146.582 33.5222C145.821 34.8863 145.47 36.4285 145.47 38.2672C145.47 40.1059 145.821 41.7073 146.582 43.0715C147.343 44.4357 148.279 45.5033 149.508 46.215C150.738 46.9268 152.025 47.2827 153.372 47.2827C154.776 47.2827 156.123 46.9268 157.352 46.215C158.581 45.5033 159.576 44.495 160.279 43.1308C160.981 41.7666 161.391 40.1652 161.391 38.3265C161.391 36.5471 161.039 34.9457 160.337 33.5815Z" fill="white"/>
<defs>
<linearGradient id="paint0_linear_7_140" x1="3.43596" y1="11.996" x2="50.6684" y2="27.1448" gradientUnits="userSpaceOnUse">
<stop stop-color="#0C66F1"/>
<stop offset="1" stop-color="#3FACFC"/>
</linearGradient>
<linearGradient id="paint1_linear_7_140" x1="-0.691264" y1="24.8642" x2="46.5412" y2="40.0131" gradientUnits="userSpaceOnUse">
<stop stop-color="#0C66F1"/>
<stop offset="1" stop-color="#3FACFC"/>
</linearGradient>
<linearGradient id="paint2_linear_7_140" x1="-3.42004" y1="33.3722" x2="43.8124" y2="48.5211" gradientUnits="userSpaceOnUse">
<stop stop-color="#0C66F1"/>
<stop offset="1" stop-color="#3FACFC"/>
</linearGradient>
</defs>
</svg>
