<svg width="1172" height="932" viewBox="0 0 1172 932" fill="none" xmlns="http://www.w3.org/2000/svg">
<path d="M181.236 76.981H182.386V75.8315H181.236V76.981ZM87.6892 76.981V75.8315H86.5396V76.981H87.6892ZM87.6892 168H86.5396V169.15H87.6892V168ZM181.236 168V169.15H182.386V168H181.236ZM181.236 143.981H182.386V142.832H181.236V143.981ZM119.293 143.981H118.143V145.131H119.293V143.981ZM119.293 134.5V133.35H118.143V134.5H119.293ZM178.708 134.5V135.649H179.858V134.5H178.708ZM178.708 110.481H179.858V109.332H178.708V110.481ZM119.293 110.481H118.143V111.631H119.293V110.481ZM119.293 101V99.8504H118.143V101H119.293ZM181.236 101V102.149H182.386V101H181.236ZM181.236 75.8315H87.6892V78.1305H181.236V75.8315ZM86.5396 76.981V168H88.8387V76.981H86.5396ZM87.6892 169.15H181.236V166.85H87.6892V169.15ZM182.386 168V143.981H180.087V168H182.386ZM181.236 142.832H119.293V145.131H181.236V142.832ZM120.443 143.981V134.5H118.143V143.981H120.443ZM119.293 135.649H178.708V133.35H119.293V135.649ZM179.858 134.5V110.481H177.559V134.5H179.858ZM178.708 109.332H119.293V111.631H178.708V109.332ZM120.443 110.481V101H118.143V110.481H120.443ZM119.293 102.149H181.236V99.8504H119.293V102.149ZM182.386 101V76.981H180.087V101H182.386ZM303.584 131.213L304.727 131.332L304.859 130.064H303.584V131.213ZM269.957 131.213V130.064H269.027L268.833 130.974L269.957 131.213ZM269.957 113.515L268.834 113.759L269.031 114.665H269.957V113.515ZM303.584 113.515V114.665H304.86L304.727 113.396L303.584 113.515ZM191.568 122.364C191.568 138.676 196.781 151.073 206.609 159.366C216.404 167.631 230.614 171.678 248.34 171.678V169.379C230.923 169.379 217.322 165.398 208.091 157.609C198.894 149.847 193.867 138.161 193.867 122.364H191.568ZM248.34 171.678C264.98 171.678 278.39 168.205 288.005 161.384C297.655 154.537 303.369 144.396 304.727 131.332L302.44 131.094C301.144 143.567 295.733 153.082 286.674 159.509C277.579 165.961 264.695 169.379 248.34 169.379V171.678ZM303.584 130.064H269.957V132.363H303.584V130.064ZM268.833 130.974C267.71 136.254 261.849 142.832 248.34 142.832V145.131C262.642 145.131 269.677 138.056 271.082 131.452L268.833 130.974ZM248.34 142.832C240.416 142.832 235.066 140.504 231.687 136.891C228.294 133.263 226.735 128.175 226.735 122.364H224.436C224.436 128.562 226.1 134.283 230.008 138.461C233.929 142.654 239.957 145.131 248.34 145.131V142.832ZM226.735 122.364C226.735 116.614 228.264 111.593 231.637 108.014C234.997 104.45 240.346 102.149 248.34 102.149V99.8504C239.901 99.8504 233.872 102.291 229.964 106.437C226.068 110.57 224.436 116.231 224.436 122.364H226.735ZM248.34 102.149C261.866 102.149 267.716 108.615 268.834 113.759L271.081 113.271C269.671 106.785 262.626 99.8504 248.34 99.8504V102.149ZM269.957 114.665H303.584V112.365H269.957V114.665ZM304.727 113.396C303.368 100.391 297.619 90.3123 287.953 83.515C278.324 76.7435 264.916 73.3032 248.34 73.3032V75.6022C264.632 75.6022 277.519 78.9883 286.631 85.3956C295.706 91.7771 301.144 101.23 302.44 113.634L304.727 113.396ZM248.34 73.3032C230.616 73.3032 216.406 77.3173 206.611 85.534C196.782 93.7794 191.568 106.113 191.568 122.364H193.867C193.867 106.632 198.893 95.01 208.089 87.2954C217.319 79.5523 230.921 75.6022 248.34 75.6022V73.3032ZM347.803 76.981H348.953V75.8315H347.803V76.981ZM316.2 76.981V75.8315H315.05V76.981H316.2ZM316.2 168H315.05V169.15H316.2V168ZM407.219 168V169.15H408.368V168H407.219ZM407.219 141.453H408.368V140.303H407.219V141.453ZM347.803 141.453H346.654V142.602H347.803V141.453ZM347.803 75.8315H316.2V78.1305H347.803V75.8315ZM315.05 76.981V168H317.349V76.981H315.05ZM316.2 169.15H407.219V166.85H316.2V169.15ZM408.368 168V141.453H406.069V168H408.368ZM407.219 140.303H347.803V142.602H407.219V140.303ZM348.953 141.453V76.981H346.654V141.453H348.953ZM550.866 168V169.15H552.691L551.903 167.503L550.866 168ZM507.253 76.981L508.289 76.4843L507.976 75.8315H507.253V76.981ZM462.249 76.981V75.8315H461.525L461.212 76.4843L462.249 76.981ZM418.635 168L417.599 167.503L416.81 169.15H418.635V168ZM452.262 168V169.15H452.993L453.303 168.487L452.262 168ZM459.72 152.072V150.922H458.989L458.679 151.584L459.72 152.072ZM509.781 152.072L510.822 151.584L510.512 150.922H509.781V152.072ZM517.239 168L516.198 168.487L516.508 169.15H517.239V168ZM484.751 98.7244L485.791 98.2345L484.751 96.027L483.711 98.2345L484.751 98.7244ZM499.162 129.317V130.466H500.974L500.202 128.827L499.162 129.317ZM470.339 129.317L469.299 128.827L468.527 130.466H470.339V129.317ZM551.903 167.503L508.289 76.4843L506.216 77.4777L549.829 168.497L551.903 167.503ZM507.253 75.8315H462.249V78.1305H507.253V75.8315ZM461.212 76.4843L417.599 167.503L419.672 168.497L463.285 77.4777L461.212 76.4843ZM418.635 169.15H452.262V166.85H418.635V169.15ZM453.303 168.487L460.761 152.559L458.679 151.584L451.221 167.513L453.303 168.487ZM459.72 153.221H509.781V150.922H459.72V153.221ZM508.74 152.559L516.198 168.487L518.28 167.513L510.822 151.584L508.74 152.559ZM517.239 169.15H550.866V166.85H517.239V169.15ZM483.711 99.2143L498.122 129.807L500.202 128.827L485.791 98.2345L483.711 99.2143ZM499.162 128.167H470.339V130.466H499.162V128.167ZM471.379 129.807L485.791 99.2143L483.711 98.2345L469.299 128.827L471.379 129.807ZM179.214 255.224L178.839 254.138L179.145 256.372L179.214 255.224ZM87.6892 199.981V198.831H86.5396V199.981H87.6892ZM87.6892 291H86.5396V292.15H87.6892V291ZM119.293 291V292.15H120.443V291H119.293ZM119.293 267.74V266.59H118.143V267.74H119.293ZM164.55 291H163.4V292.15H164.55V291ZM196.153 291V292.15H197.303V291H196.153ZM119.293 242.457H118.143V243.606H119.293V242.457ZM119.293 225.264V224.115H118.143V225.264H119.293ZM179.589 256.311C185.272 254.351 189.733 251.248 192.761 246.766C195.783 242.291 197.303 236.55 197.303 229.436H195.004C195.004 236.228 193.554 241.484 190.855 245.479C188.162 249.467 184.154 252.305 178.839 254.138L179.589 256.311ZM197.303 229.436C197.303 219.621 194.072 211.891 187.466 206.65C180.907 201.446 171.191 198.831 158.482 198.831V201.131C170.929 201.131 180.049 203.699 186.037 208.451C191.978 213.165 195.004 220.162 195.004 229.436H197.303ZM158.482 198.831H87.6892V201.131H158.482V198.831ZM86.5396 199.981V291H88.8387V199.981H86.5396ZM87.6892 292.15H119.293V289.85H87.6892V292.15ZM120.443 291V267.74H118.143V291H120.443ZM119.293 268.889H154.436V266.59H119.293V268.889ZM154.436 268.889C158.467 268.889 160.541 269.48 161.698 270.685C162.868 271.904 163.4 274.058 163.4 278.106H165.699C165.699 274.063 165.22 271.034 163.356 269.093C161.479 267.137 158.497 266.59 154.436 266.59V268.889ZM163.4 278.106V291H165.699V278.106H163.4ZM164.55 292.15H196.153V289.85H164.55V292.15ZM197.303 291V272.796H195.004V291H197.303ZM197.303 272.796C197.303 267.128 195.617 262.577 192.436 259.362C189.262 256.155 184.731 254.405 179.283 254.077L179.145 256.372C184.19 256.676 188.128 258.276 190.801 260.979C193.467 263.673 195.004 267.593 195.004 272.796H197.303ZM150.897 226.414C152.68 226.414 154.284 226.414 155.716 226.543C157.149 226.672 158.318 226.923 159.244 227.373C160.14 227.808 160.832 228.44 161.318 229.407C161.819 230.402 162.136 231.818 162.136 233.86H164.435C164.435 231.604 164.088 229.797 163.372 228.374C162.642 226.923 161.564 225.944 160.248 225.305C158.962 224.68 157.476 224.393 155.922 224.253C154.367 224.114 152.653 224.115 150.897 224.115V226.414ZM162.136 233.86C162.136 235.902 161.819 237.319 161.318 238.313C160.832 239.281 160.14 239.913 159.244 240.348C158.318 240.798 157.149 241.048 155.716 241.177C154.284 241.306 152.68 241.307 150.897 241.307V243.606C152.653 243.606 154.367 243.607 155.922 243.467C157.476 243.327 158.962 243.041 160.248 242.416C161.564 241.777 162.642 240.797 163.372 239.347C164.088 237.924 164.435 236.116 164.435 233.86H162.136ZM150.897 241.307H119.293V243.606H150.897V241.307ZM120.443 242.457V225.264H118.143V242.457H120.443ZM119.293 226.414H150.897V224.115H119.293V226.414ZM304.936 199.981H306.085V198.831H304.936V199.981ZM211.388 199.981V198.831H210.239V199.981H211.388ZM211.388 291H210.239V292.15H211.388V291ZM304.936 291V292.15H306.085V291H304.936ZM304.936 266.981H306.085V265.832H304.936V266.981ZM242.992 266.981H241.843V268.131H242.992V266.981ZM242.992 257.5V256.35H241.843V257.5H242.992ZM302.407 257.5V258.649H303.557V257.5H302.407ZM302.407 233.481H303.557V232.332H302.407V233.481ZM242.992 233.481H241.843V234.631H242.992V233.481ZM242.992 224V222.85H241.843V224H242.992ZM304.936 224V225.149H306.085V224H304.936ZM304.936 198.831H211.388V201.131H304.936V198.831ZM210.239 199.981V291H212.538V199.981H210.239ZM211.388 292.15H304.936V289.85H211.388V292.15ZM306.085 291V266.981H303.786V291H306.085ZM304.936 265.832H242.992V268.131H304.936V265.832ZM244.142 266.981V257.5H241.843V266.981H244.142ZM242.992 258.649H302.407V256.35H242.992V258.649ZM303.557 257.5V233.481H301.258V257.5H303.557ZM302.407 232.332H242.992V234.631H302.407V232.332ZM244.142 233.481V224H241.843V233.481H244.142ZM242.992 225.149H304.936V222.85H242.992V225.149ZM306.085 224V199.981H303.786V224H306.085ZM448.647 291V292.15H450.473L449.684 290.503L448.647 291ZM405.034 199.981L406.071 199.484L405.758 198.831H405.034V199.981ZM360.03 199.981V198.831H359.306L358.993 199.484L360.03 199.981ZM316.417 291L315.38 290.503L314.591 292.15H316.417V291ZM350.043 291V292.15H350.774L351.084 291.487L350.043 291ZM357.502 275.072V273.922H356.771L356.461 274.584L357.502 275.072ZM407.562 275.072L408.603 274.584L408.293 273.922H407.562V275.072ZM415.021 291L413.98 291.487L414.29 292.15H415.021V291ZM382.532 221.724L383.572 221.235L382.532 219.027L381.492 221.235L382.532 221.724ZM396.943 252.317V253.466H398.756L397.983 251.827L396.943 252.317ZM368.121 252.317L367.081 251.827L366.309 253.466H368.121V252.317ZM449.684 290.503L406.071 199.484L403.997 200.478L447.611 291.497L449.684 290.503ZM405.034 198.831H360.03V201.131H405.034V198.831ZM358.993 199.484L315.38 290.503L317.454 291.497L361.067 200.478L358.993 199.484ZM316.417 292.15H350.043V289.85H316.417V292.15ZM351.084 291.487L358.543 275.559L356.461 274.584L349.002 290.513L351.084 291.487ZM357.502 276.221H407.562V273.922H357.502V276.221ZM406.521 275.559L413.98 291.487L416.062 290.513L408.603 274.584L406.521 275.559ZM415.021 292.15H448.647V289.85H415.021V292.15ZM381.492 222.214L395.903 252.807L397.983 251.827L383.572 221.235L381.492 222.214ZM396.943 251.167H368.121V253.466H396.943V251.167ZM369.161 252.807L383.572 222.214L381.492 221.235L367.081 251.827L369.161 252.807ZM490.391 199.981H491.54V198.831H490.391V199.981ZM458.787 199.981V198.831H457.638V199.981H458.787ZM458.787 291H457.638V292.15H458.787V291ZM549.806 291V292.15H550.956V291H549.806ZM549.806 264.453H550.956V263.303H549.806V264.453ZM490.391 264.453H489.241V265.602H490.391V264.453ZM490.391 198.831H458.787V201.131H490.391V198.831ZM457.638 199.981V291H459.937V199.981H457.638ZM458.787 292.15H549.806V289.85H458.787V292.15ZM550.956 291V264.453H548.657V291H550.956ZM549.806 263.303H490.391V265.602H549.806V263.303ZM491.54 264.453V199.981H489.241V264.453H491.54ZM562.487 199.981V198.831H561.338V199.981H562.487ZM562.487 291H561.338V292.15H562.487V291ZM594.091 291V292.15H595.241V291H594.091ZM594.091 199.981H595.241V198.831H594.091V199.981ZM561.338 199.981V291H563.637V199.981H561.338ZM562.487 292.15H594.091V289.85H562.487V292.15ZM595.241 291V199.981H592.941V291H595.241ZM594.091 198.831H562.487V201.131H594.091V198.831ZM715.494 199.981H716.644V198.831H715.494V199.981ZM606.777 199.981V198.831H605.627V199.981H606.777ZM606.777 226.528H605.627V227.678H606.777V226.528ZM645.334 226.528H646.483V225.379H645.334V226.528ZM645.334 291H644.184V292.15H645.334V291ZM676.937 291V292.15H678.087V291H676.937ZM676.937 226.528V225.379H675.788V226.528H676.937ZM715.494 226.528V227.678H716.644V226.528H715.494ZM715.494 198.831H606.777V201.131H715.494V198.831ZM605.627 199.981V226.528H607.926V199.981H605.627ZM606.777 227.678H645.334V225.379H606.777V227.678ZM644.184 226.528V291H646.483V226.528H644.184ZM645.334 292.15H676.937V289.85H645.334V292.15ZM678.087 291V226.528H675.788V291H678.087ZM676.937 227.678H715.494V225.379H676.937V227.678ZM716.644 226.528V199.981H714.345V226.528H716.644ZM789.028 234.113L788.108 234.802L789.028 236.032L789.949 234.802L789.028 234.113ZM763.492 199.981L764.413 199.292L764.068 198.831H763.492V199.981ZM724.304 199.981V198.831H721.9L723.409 200.703L724.304 199.981ZM773.226 260.66H774.376V260.255L774.121 259.939L773.226 260.66ZM773.226 291H772.077V292.15H773.226V291ZM804.83 291V292.15H805.98V291H804.83ZM804.83 260.66L803.935 259.939L803.681 260.255V260.66H804.83ZM853.753 199.981L854.648 200.703L856.156 198.831H853.753V199.981ZM814.564 199.981V198.831H813.989L813.644 199.292L814.564 199.981ZM789.949 233.424L764.413 199.292L762.572 200.67L788.108 234.802L789.949 233.424ZM763.492 198.831H724.304V201.131H763.492V198.831ZM723.409 200.703L772.331 261.382L774.121 259.939L725.199 199.259L723.409 200.703ZM772.077 260.66V291H774.376V260.66H772.077ZM773.226 292.15H804.83V289.85H773.226V292.15ZM805.98 291V260.66H803.681V291H805.98ZM805.725 261.382L854.648 200.703L852.858 199.259L803.935 259.939L805.725 261.382ZM853.753 198.831H814.564V201.131H853.753V198.831ZM813.644 199.292L788.108 233.424L789.949 234.802L815.485 200.67L813.644 199.292Z" fill="white"/>
<path opacity="0.1" d="M1014.08 375.721L475.271 268.21L250.08 628.845L735.345 762.558L1014.08 375.721Z" fill="url(#paint0_linear_25_29)"/>
<g filter="url(#filter0_b_25_29)">
<rect width="548.073" height="232.743" rx="116.372" transform="matrix(0.952264 0.305275 -0.241663 0.97036 495.399 147.873)" fill="url(#paint1_linear_25_29)"/>
<rect x="0.355301" y="0.637818" width="547.073" height="231.743" rx="115.872" transform="matrix(0.952264 0.305275 -0.241663 0.97036 495.57 147.784)" stroke="url(#paint2_linear_25_29)"/>
</g>
<rect x="0.355301" y="0.637818" width="486.19" height="205.889" rx="102.945" transform="matrix(0.952264 0.305275 -0.241663 0.97036 523.315 167.161)" fill="url(#paint3_linear_25_29)" stroke="url(#paint4_linear_25_29)"/>
<rect opacity="0.5" x="0.355301" y="0.637818" width="547.073" height="231.743" rx="115.872" transform="matrix(0.952264 0.305275 -0.241663 0.97036 480.94 168.088)" fill="url(#paint5_linear_25_29)" stroke="url(#paint6_linear_25_29)"/>
<path d="M866.874 364.091C866.276 364.091 865.739 363.987 865.262 363.779C864.794 363.562 864.426 363.268 864.157 362.895C863.888 362.514 863.75 362.076 863.741 361.582H865.002C865.045 362.007 865.219 362.366 865.522 362.661C865.834 362.947 866.285 363.09 866.874 363.09C867.437 363.09 867.879 362.951 868.2 362.674C868.529 362.388 868.694 362.024 868.694 361.582C868.694 361.235 868.599 360.954 868.408 360.737C868.217 360.52 867.979 360.356 867.693 360.243C867.407 360.13 867.021 360.009 866.536 359.879C865.938 359.723 865.457 359.567 865.093 359.411C864.738 359.255 864.43 359.012 864.17 358.683C863.919 358.345 863.793 357.894 863.793 357.331C863.793 356.837 863.919 356.399 864.17 356.018C864.421 355.637 864.772 355.342 865.223 355.134C865.682 354.926 866.207 354.822 866.796 354.822C867.645 354.822 868.339 355.034 868.876 355.459C869.422 355.884 869.73 356.447 869.799 357.149H868.499C868.456 356.802 868.274 356.499 867.953 356.239C867.632 355.97 867.208 355.836 866.679 355.836C866.185 355.836 865.782 355.966 865.47 356.226C865.158 356.477 865.002 356.833 865.002 357.292C865.002 357.621 865.093 357.89 865.275 358.098C865.466 358.306 865.695 358.466 865.964 358.579C866.241 358.683 866.627 358.804 867.121 358.943C867.719 359.108 868.2 359.272 868.564 359.437C868.928 359.593 869.24 359.84 869.5 360.178C869.76 360.507 869.89 360.958 869.89 361.53C869.89 361.972 869.773 362.388 869.539 362.778C869.305 363.168 868.958 363.484 868.499 363.727C868.04 363.97 867.498 364.091 866.874 364.091ZM881.121 356.876L878.898 364H877.676L875.96 358.345L874.244 364H873.022L870.786 356.876H871.995L873.633 362.856L875.401 356.876H876.61L878.339 362.869L879.951 356.876H881.121ZM881.853 360.412C881.853 359.684 882 359.047 882.295 358.501C882.59 357.946 882.993 357.517 883.504 357.214C884.024 356.911 884.6 356.759 885.233 356.759C885.857 356.759 886.399 356.893 886.858 357.162C887.317 357.431 887.66 357.769 887.885 358.176V356.876H889.081V364H887.885V362.674C887.651 363.09 887.3 363.437 886.832 363.714C886.373 363.983 885.835 364.117 885.22 364.117C884.587 364.117 884.015 363.961 883.504 363.649C882.993 363.337 882.59 362.899 882.295 362.336C882 361.773 881.853 361.131 881.853 360.412ZM887.885 360.425C887.885 359.888 887.777 359.42 887.56 359.021C887.343 358.622 887.049 358.319 886.676 358.111C886.312 357.894 885.909 357.786 885.467 357.786C885.025 357.786 884.622 357.89 884.258 358.098C883.894 358.306 883.604 358.609 883.387 359.008C883.17 359.407 883.062 359.875 883.062 360.412C883.062 360.958 883.17 361.435 883.387 361.842C883.604 362.241 883.894 362.548 884.258 362.765C884.622 362.973 885.025 363.077 885.467 363.077C885.909 363.077 886.312 362.973 886.676 362.765C887.049 362.548 887.343 362.241 887.56 361.842C887.777 361.435 887.885 360.962 887.885 360.425ZM892.263 358.189C892.497 357.782 892.844 357.444 893.303 357.175C893.771 356.898 894.313 356.759 894.928 356.759C895.561 356.759 896.133 356.911 896.644 357.214C897.164 357.517 897.571 357.946 897.866 358.501C898.161 359.047 898.308 359.684 898.308 360.412C898.308 361.131 898.161 361.773 897.866 362.336C897.571 362.899 897.164 363.337 896.644 363.649C896.133 363.961 895.561 364.117 894.928 364.117C894.321 364.117 893.784 363.983 893.316 363.714C892.857 363.437 892.506 363.094 892.263 362.687V367.38H891.08V356.876H892.263V358.189ZM897.099 360.412C897.099 359.875 896.991 359.407 896.774 359.008C896.557 358.609 896.263 358.306 895.89 358.098C895.526 357.89 895.123 357.786 894.681 357.786C894.248 357.786 893.845 357.894 893.472 358.111C893.108 358.319 892.813 358.627 892.588 359.034C892.371 359.433 892.263 359.896 892.263 360.425C892.263 360.962 892.371 361.435 892.588 361.842C892.813 362.241 893.108 362.548 893.472 362.765C893.845 362.973 894.248 363.077 894.681 363.077C895.123 363.077 895.526 362.973 895.89 362.765C896.263 362.548 896.557 362.241 896.774 361.842C896.991 361.435 897.099 360.958 897.099 360.412ZM901.087 362.362L899.631 365.859H898.838L899.787 362.362H901.087ZM912.408 360.165C912.408 360.39 912.395 360.629 912.369 360.88H906.675C906.719 361.582 906.957 362.132 907.39 362.531C907.832 362.921 908.365 363.116 908.989 363.116C909.501 363.116 909.925 362.999 910.263 362.765C910.61 362.522 910.853 362.202 910.991 361.803H912.265C912.075 362.488 911.693 363.047 911.121 363.48C910.549 363.905 909.839 364.117 908.989 364.117C908.313 364.117 907.707 363.965 907.169 363.662C906.641 363.359 906.225 362.93 905.921 362.375C905.618 361.812 905.466 361.162 905.466 360.425C905.466 359.688 905.614 359.043 905.908 358.488C906.203 357.933 906.615 357.509 907.143 357.214C907.681 356.911 908.296 356.759 908.989 356.759C909.665 356.759 910.263 356.906 910.783 357.201C911.303 357.496 911.702 357.903 911.979 358.423C912.265 358.934 912.408 359.515 912.408 360.165ZM911.186 359.918C911.186 359.467 911.087 359.082 910.887 358.761C910.688 358.432 910.415 358.185 910.068 358.02C909.73 357.847 909.353 357.76 908.937 357.76C908.339 357.76 907.828 357.951 907.403 358.332C906.987 358.713 906.749 359.242 906.688 359.918H911.186ZM913.528 360.412C913.528 359.684 913.675 359.047 913.97 358.501C914.264 357.946 914.667 357.517 915.179 357.214C915.699 356.911 916.275 356.759 916.908 356.759C917.532 356.759 918.073 356.893 918.533 357.162C918.992 357.431 919.334 357.769 919.56 358.176V356.876H920.756V364H919.56V362.674C919.326 363.09 918.975 363.437 918.507 363.714C918.047 363.983 917.51 364.117 916.895 364.117C916.262 364.117 915.69 363.961 915.179 363.649C914.667 363.337 914.264 362.899 913.97 362.336C913.675 361.773 913.528 361.131 913.528 360.412ZM919.56 360.425C919.56 359.888 919.451 359.42 919.235 359.021C919.018 358.622 918.723 358.319 918.351 358.111C917.987 357.894 917.584 357.786 917.142 357.786C916.7 357.786 916.297 357.89 915.933 358.098C915.569 358.306 915.278 358.609 915.062 359.008C914.845 359.407 914.737 359.875 914.737 360.412C914.737 360.958 914.845 361.435 915.062 361.842C915.278 362.241 915.569 362.548 915.933 362.765C916.297 362.973 916.7 363.077 917.142 363.077C917.584 363.077 917.987 362.973 918.351 362.765C918.723 362.548 919.018 362.241 919.235 361.842C919.451 361.435 919.56 360.962 919.56 360.425ZM923.938 358.033C924.146 357.626 924.441 357.309 924.822 357.084C925.212 356.859 925.684 356.746 926.239 356.746V357.968H925.927C924.601 357.968 923.938 358.687 923.938 360.126V364H922.755V356.876H923.938V358.033ZM931.076 356.746C931.942 356.746 932.644 357.01 933.182 357.539C933.719 358.059 933.988 358.813 933.988 359.801V364H932.818V359.97C932.818 359.259 932.64 358.718 932.285 358.345C931.929 357.964 931.444 357.773 930.829 357.773C930.205 357.773 929.706 357.968 929.334 358.358C928.97 358.748 928.788 359.316 928.788 360.061V364H927.605V356.876H928.788V357.89C929.022 357.526 929.338 357.244 929.737 357.045C930.144 356.846 930.59 356.746 931.076 356.746ZM937.142 362.362L935.686 365.859H934.893L935.842 362.362H937.142ZM941.521 360.412C941.521 359.684 941.668 359.047 941.963 358.501C942.258 357.946 942.661 357.517 943.172 357.214C943.692 356.911 944.268 356.759 944.901 356.759C945.525 356.759 946.067 356.893 946.526 357.162C946.985 357.431 947.328 357.769 947.553 358.176V356.876H948.749V364H947.553V362.674C947.319 363.09 946.968 363.437 946.5 363.714C946.041 363.983 945.503 364.117 944.888 364.117C944.255 364.117 943.683 363.961 943.172 363.649C942.661 363.337 942.258 362.899 941.963 362.336C941.668 361.773 941.521 361.131 941.521 360.412ZM947.553 360.425C947.553 359.888 947.445 359.42 947.228 359.021C947.011 358.622 946.717 358.319 946.344 358.111C945.98 357.894 945.577 357.786 945.135 357.786C944.693 357.786 944.29 357.89 943.926 358.098C943.562 358.306 943.272 358.609 943.055 359.008C942.838 359.407 942.73 359.875 942.73 360.412C942.73 360.958 942.838 361.435 943.055 361.842C943.272 362.241 943.562 362.548 943.926 362.765C944.29 362.973 944.693 363.077 945.135 363.077C945.577 363.077 945.98 362.973 946.344 362.765C946.717 362.548 947.011 362.241 947.228 361.842C947.445 361.435 947.553 360.962 947.553 360.425ZM954.219 356.746C955.086 356.746 955.788 357.01 956.325 357.539C956.862 358.059 957.131 358.813 957.131 359.801V364H955.961V359.97C955.961 359.259 955.783 358.718 955.428 358.345C955.073 357.964 954.587 357.773 953.972 357.773C953.348 357.773 952.85 357.968 952.477 358.358C952.113 358.748 951.931 359.316 951.931 360.061V364H950.748V356.876H951.931V357.89C952.165 357.526 952.481 357.244 952.88 357.045C953.287 356.846 953.734 356.746 954.219 356.746ZM958.622 360.412C958.622 359.684 958.769 359.047 959.064 358.501C959.358 357.946 959.761 357.517 960.273 357.214C960.793 356.911 961.373 356.759 962.015 356.759C962.569 356.759 963.085 356.889 963.562 357.149C964.038 357.4 964.402 357.734 964.654 358.15V354.38H965.85V364H964.654V362.661C964.42 363.086 964.073 363.437 963.614 363.714C963.154 363.983 962.617 364.117 962.002 364.117C961.369 364.117 960.793 363.961 960.273 363.649C959.761 363.337 959.358 362.899 959.064 362.336C958.769 361.773 958.622 361.131 958.622 360.412ZM964.654 360.425C964.654 359.888 964.545 359.42 964.329 359.021C964.112 358.622 963.817 358.319 963.445 358.111C963.081 357.894 962.678 357.786 962.236 357.786C961.794 357.786 961.391 357.89 961.027 358.098C960.663 358.306 960.372 358.609 960.156 359.008C959.939 359.407 959.831 359.875 959.831 360.412C959.831 360.958 959.939 361.435 960.156 361.842C960.372 362.241 960.663 362.548 961.027 362.765C961.391 362.973 961.794 363.077 962.236 363.077C962.678 363.077 963.081 362.973 963.445 362.765C963.817 362.548 964.112 362.241 964.329 361.842C964.545 361.435 964.654 360.962 964.654 360.425ZM972.497 358.202C972.74 357.777 973.095 357.431 973.563 357.162C974.031 356.893 974.564 356.759 975.162 356.759C975.804 356.759 976.38 356.911 976.891 357.214C977.403 357.517 977.806 357.946 978.1 358.501C978.395 359.047 978.542 359.684 978.542 360.412C978.542 361.131 978.395 361.773 978.1 362.336C977.806 362.899 977.398 363.337 976.878 363.649C976.367 363.961 975.795 364.117 975.162 364.117C974.547 364.117 974.005 363.983 973.537 363.714C973.078 363.445 972.731 363.103 972.497 362.687V364H971.314V354.38H972.497V358.202ZM977.333 360.412C977.333 359.875 977.225 359.407 977.008 359.008C976.792 358.609 976.497 358.306 976.124 358.098C975.76 357.89 975.357 357.786 974.915 357.786C974.482 357.786 974.079 357.894 973.706 358.111C973.342 358.319 973.048 358.627 972.822 359.034C972.606 359.433 972.497 359.896 972.497 360.425C972.497 360.962 972.606 361.435 972.822 361.842C973.048 362.241 973.342 362.548 973.706 362.765C974.079 362.973 974.482 363.077 974.915 363.077C975.357 363.077 975.76 362.973 976.124 362.765C976.497 362.548 976.792 362.241 977.008 361.842C977.225 361.435 977.333 360.958 977.333 360.412ZM986.418 356.876V364H985.235V362.947C985.009 363.311 984.693 363.597 984.286 363.805C983.887 364.004 983.445 364.104 982.96 364.104C982.405 364.104 981.907 363.991 981.465 363.766C981.023 363.532 980.672 363.185 980.412 362.726C980.16 362.267 980.035 361.708 980.035 361.049V356.876H981.205V360.893C981.205 361.595 981.382 362.137 981.738 362.518C982.093 362.891 982.578 363.077 983.194 363.077C983.826 363.077 984.325 362.882 984.689 362.492C985.053 362.102 985.235 361.534 985.235 360.789V356.876H986.418ZM989.026 355.719C988.801 355.719 988.61 355.641 988.454 355.485C988.298 355.329 988.22 355.138 988.22 354.913C988.22 354.688 988.298 354.497 988.454 354.341C988.61 354.185 988.801 354.107 989.026 354.107C989.243 354.107 989.425 354.185 989.572 354.341C989.728 354.497 989.806 354.688 989.806 354.913C989.806 355.138 989.728 355.329 989.572 355.485C989.425 355.641 989.243 355.719 989.026 355.719ZM989.598 356.876V364H988.415V356.876H989.598ZM992.797 354.38V364H991.614V354.38H992.797ZM994.372 360.412C994.372 359.684 994.519 359.047 994.814 358.501C995.108 357.946 995.511 357.517 996.023 357.214C996.543 356.911 997.123 356.759 997.765 356.759C998.319 356.759 998.835 356.889 999.312 357.149C999.788 357.4 1000.15 357.734 1000.4 358.15V354.38H1001.6V364H1000.4V362.661C1000.17 363.086 999.823 363.437 999.364 363.714C998.904 363.983 998.367 364.117 997.752 364.117C997.119 364.117 996.543 363.961 996.023 363.649C995.511 363.337 995.108 362.899 994.814 362.336C994.519 361.773 994.372 361.131 994.372 360.412ZM1000.4 360.425C1000.4 359.888 1000.3 359.42 1000.08 359.021C999.862 358.622 999.567 358.319 999.195 358.111C998.831 357.894 998.428 357.786 997.986 357.786C997.544 357.786 997.141 357.89 996.777 358.098C996.413 358.306 996.122 358.609 995.906 359.008C995.689 359.407 995.581 359.875 995.581 360.412C995.581 360.958 995.689 361.435 995.906 361.842C996.122 362.241 996.413 362.548 996.777 362.765C997.141 362.973 997.544 363.077 997.986 363.077C998.428 363.077 998.831 362.973 999.195 362.765C999.567 362.548 999.862 362.241 1000.08 361.842C1000.3 361.435 1000.4 360.962 1000.4 360.425ZM1010.17 364.117C1009.5 364.117 1008.9 363.965 1008.35 363.662C1007.81 363.359 1007.39 362.93 1007.08 362.375C1006.77 361.812 1006.62 361.162 1006.62 360.425C1006.62 359.697 1006.78 359.056 1007.09 358.501C1007.41 357.938 1007.84 357.509 1008.39 357.214C1008.94 356.911 1009.55 356.759 1010.22 356.759C1010.9 356.759 1011.51 356.911 1012.06 357.214C1012.6 357.509 1013.03 357.933 1013.34 358.488C1013.66 359.043 1013.82 359.688 1013.82 360.425C1013.82 361.162 1013.66 361.812 1013.33 362.375C1013.01 362.93 1012.57 363.359 1012.02 363.662C1011.46 363.965 1010.85 364.117 1010.17 364.117ZM1010.17 363.077C1010.6 363.077 1010.99 362.977 1011.37 362.778C1011.74 362.579 1012.04 362.28 1012.26 361.881C1012.5 361.482 1012.62 360.997 1012.62 360.425C1012.62 359.853 1012.5 359.368 1012.28 358.969C1012.05 358.57 1011.76 358.276 1011.39 358.085C1011.03 357.886 1010.64 357.786 1010.21 357.786C1009.78 357.786 1009.38 357.886 1009.01 358.085C1008.66 358.276 1008.37 358.57 1008.16 358.969C1007.94 359.368 1007.83 359.853 1007.83 360.425C1007.83 361.006 1007.94 361.495 1008.14 361.894C1008.36 362.293 1008.65 362.592 1009 362.791C1009.36 362.982 1009.75 363.077 1010.17 363.077ZM1018.85 356.746C1019.72 356.746 1020.42 357.01 1020.96 357.539C1021.49 358.059 1021.76 358.813 1021.76 359.801V364H1020.59V359.97C1020.59 359.259 1020.42 358.718 1020.06 358.345C1019.7 357.964 1019.22 357.773 1018.6 357.773C1017.98 357.773 1017.48 357.968 1017.11 358.358C1016.74 358.748 1016.56 359.316 1016.56 360.061V364H1015.38V356.876H1016.56V357.89C1016.8 357.526 1017.11 357.244 1017.51 357.045C1017.92 356.846 1018.37 356.746 1018.85 356.746ZM1028.6 357.851V362.05C1028.6 362.397 1028.68 362.644 1028.83 362.791C1028.97 362.93 1029.23 362.999 1029.59 362.999H1030.46V364H1029.4C1028.74 364 1028.24 363.848 1027.92 363.545C1027.59 363.242 1027.42 362.743 1027.42 362.05V357.851H1026.5V356.876H1027.42V355.082H1028.6V356.876H1030.46V357.851H1028.6ZM1035.43 356.746C1035.97 356.746 1036.46 356.863 1036.89 357.097C1037.32 357.322 1037.66 357.665 1037.9 358.124C1038.15 358.583 1038.28 359.142 1038.28 359.801V364H1037.11V359.97C1037.11 359.259 1036.93 358.718 1036.58 358.345C1036.22 357.964 1035.74 357.773 1035.12 357.773C1034.5 357.773 1034 357.968 1033.63 358.358C1033.26 358.748 1033.08 359.316 1033.08 360.061V364H1031.9V354.38H1033.08V357.89C1033.31 357.526 1033.63 357.244 1034.04 357.045C1034.46 356.846 1034.92 356.746 1035.43 356.746ZM1046.71 360.165C1046.71 360.39 1046.7 360.629 1046.67 360.88H1040.98C1041.02 361.582 1041.26 362.132 1041.69 362.531C1042.14 362.921 1042.67 363.116 1043.29 363.116C1043.8 363.116 1044.23 362.999 1044.57 362.765C1044.91 362.522 1045.16 362.202 1045.29 361.803H1046.57C1046.38 362.488 1046 363.047 1045.42 363.48C1044.85 363.905 1044.14 364.117 1043.29 364.117C1042.62 364.117 1042.01 363.965 1041.47 363.662C1040.94 363.359 1040.53 362.93 1040.22 362.375C1039.92 361.812 1039.77 361.162 1039.77 360.425C1039.77 359.688 1039.92 359.043 1040.21 358.488C1040.51 357.933 1040.92 357.509 1041.45 357.214C1041.98 356.911 1042.6 356.759 1043.29 356.759C1043.97 356.759 1044.57 356.906 1045.09 357.201C1045.61 357.496 1046.01 357.903 1046.28 358.423C1046.57 358.934 1046.71 359.515 1046.71 360.165ZM1045.49 359.918C1045.49 359.467 1045.39 359.082 1045.19 358.761C1044.99 358.432 1044.72 358.185 1044.37 358.02C1044.03 357.847 1043.66 357.76 1043.24 357.76C1042.64 357.76 1042.13 357.951 1041.71 358.332C1041.29 358.713 1041.05 359.242 1040.99 359.918H1045.49ZM1052.92 354.38V364H1051.74V354.38H1052.92ZM1061.44 360.165C1061.44 360.39 1061.43 360.629 1061.4 360.88H1055.71C1055.75 361.582 1055.99 362.132 1056.42 362.531C1056.86 362.921 1057.4 363.116 1058.02 363.116C1058.53 363.116 1058.96 362.999 1059.29 362.765C1059.64 362.522 1059.88 362.202 1060.02 361.803H1061.3C1061.1 362.488 1060.72 363.047 1060.15 363.48C1059.58 363.905 1058.87 364.117 1058.02 364.117C1057.34 364.117 1056.74 363.965 1056.2 363.662C1055.67 363.359 1055.25 362.93 1054.95 362.375C1054.65 361.812 1054.5 361.162 1054.5 360.425C1054.5 359.688 1054.64 359.043 1054.94 358.488C1055.23 357.933 1055.64 357.509 1056.17 357.214C1056.71 356.911 1057.33 356.759 1058.02 356.759C1058.7 356.759 1059.29 356.906 1059.81 357.201C1060.33 357.496 1060.73 357.903 1061.01 358.423C1061.3 358.934 1061.44 359.515 1061.44 360.165ZM1060.22 359.918C1060.22 359.467 1060.12 359.082 1059.92 358.761C1059.72 358.432 1059.45 358.185 1059.1 358.02C1058.76 357.847 1058.38 357.76 1057.97 357.76C1057.37 357.76 1056.86 357.951 1056.43 358.332C1056.02 358.713 1055.78 359.242 1055.72 359.918H1060.22ZM1062.56 360.412C1062.56 359.684 1062.71 359.047 1063 358.501C1063.29 357.946 1063.7 357.517 1064.21 357.214C1064.73 356.911 1065.31 356.759 1065.94 356.759C1066.56 356.759 1067.1 356.893 1067.56 357.162C1068.02 357.431 1068.36 357.769 1068.59 358.176V356.876H1069.79V364H1068.59V362.674C1068.36 363.09 1068.01 363.437 1067.54 363.714C1067.08 363.983 1066.54 364.117 1065.93 364.117C1065.29 364.117 1064.72 363.961 1064.21 363.649C1063.7 363.337 1063.29 362.899 1063 362.336C1062.71 361.773 1062.56 361.131 1062.56 360.412ZM1068.59 360.425C1068.59 359.888 1068.48 359.42 1068.27 359.021C1068.05 358.622 1067.75 358.319 1067.38 358.111C1067.02 357.894 1066.61 357.786 1066.17 357.786C1065.73 357.786 1065.33 357.89 1064.96 358.098C1064.6 358.306 1064.31 358.609 1064.09 359.008C1063.88 359.407 1063.77 359.875 1063.77 360.412C1063.77 360.958 1063.88 361.435 1064.09 361.842C1064.31 362.241 1064.6 362.548 1064.96 362.765C1065.33 362.973 1065.73 363.077 1066.17 363.077C1066.61 363.077 1067.02 362.973 1067.38 362.765C1067.75 362.548 1068.05 362.241 1068.27 361.842C1068.48 361.435 1068.59 360.962 1068.59 360.425ZM1071.34 360.412C1071.34 359.684 1071.49 359.047 1071.79 358.501C1072.08 357.946 1072.48 357.517 1072.99 357.214C1073.51 356.911 1074.09 356.759 1074.74 356.759C1075.29 356.759 1075.81 356.889 1076.28 357.149C1076.76 357.4 1077.12 357.734 1077.38 358.15V354.38H1078.57V364H1077.38V362.661C1077.14 363.086 1076.79 363.437 1076.34 363.714C1075.88 363.983 1075.34 364.117 1074.72 364.117C1074.09 364.117 1073.51 363.961 1072.99 363.649C1072.48 363.337 1072.08 362.899 1071.79 362.336C1071.49 361.773 1071.34 361.131 1071.34 360.412ZM1077.38 360.425C1077.38 359.888 1077.27 359.42 1077.05 359.021C1076.83 358.622 1076.54 358.319 1076.17 358.111C1075.8 357.894 1075.4 357.786 1074.96 357.786C1074.52 357.786 1074.11 357.89 1073.75 358.098C1073.38 358.306 1073.09 358.609 1072.88 359.008C1072.66 359.407 1072.55 359.875 1072.55 360.412C1072.55 360.958 1072.66 361.435 1072.88 361.842C1073.09 362.241 1073.38 362.548 1073.75 362.765C1074.11 362.973 1074.52 363.077 1074.96 363.077C1075.4 363.077 1075.8 362.973 1076.17 362.765C1076.54 362.548 1076.83 362.241 1077.05 361.842C1077.27 361.435 1077.38 360.962 1077.38 360.425ZM1081.18 355.719C1080.96 355.719 1080.77 355.641 1080.61 355.485C1080.45 355.329 1080.38 355.138 1080.38 354.913C1080.38 354.688 1080.45 354.497 1080.61 354.341C1080.77 354.185 1080.96 354.107 1081.18 354.107C1081.4 354.107 1081.58 354.185 1081.73 354.341C1081.88 354.497 1081.96 354.688 1081.96 354.913C1081.96 355.138 1081.88 355.329 1081.73 355.485C1081.58 355.641 1081.4 355.719 1081.18 355.719ZM1081.75 356.876V364H1080.57V356.876H1081.75ZM1087.24 356.746C1088.11 356.746 1088.81 357.01 1089.35 357.539C1089.88 358.059 1090.15 358.813 1090.15 359.801V364H1088.98V359.97C1088.98 359.259 1088.8 358.718 1088.45 358.345C1088.09 357.964 1087.61 357.773 1086.99 357.773C1086.37 357.773 1085.87 357.968 1085.5 358.358C1085.13 358.748 1084.95 359.316 1084.95 360.061V364H1083.77V356.876H1084.95V357.89C1085.19 357.526 1085.5 357.244 1085.9 357.045C1086.31 356.846 1086.76 356.746 1087.24 356.746ZM1095.02 356.759C1095.64 356.759 1096.18 356.893 1096.63 357.162C1097.1 357.431 1097.45 357.769 1097.67 358.176V356.876H1098.87V364.156C1098.87 364.806 1098.73 365.382 1098.45 365.885C1098.18 366.396 1097.78 366.795 1097.26 367.081C1096.75 367.367 1096.15 367.51 1095.46 367.51C1094.53 367.51 1093.75 367.289 1093.12 366.847C1092.5 366.405 1092.13 365.803 1092.02 365.04H1093.19C1093.32 365.473 1093.59 365.82 1094 366.08C1094.4 366.349 1094.89 366.483 1095.46 366.483C1096.11 366.483 1096.64 366.279 1097.05 365.872C1097.47 365.465 1097.67 364.893 1097.67 364.156V362.661C1097.44 363.077 1097.09 363.424 1096.63 363.701C1096.18 363.978 1095.64 364.117 1095.02 364.117C1094.39 364.117 1093.81 363.961 1093.29 363.649C1092.78 363.337 1092.38 362.899 1092.08 362.336C1091.79 361.773 1091.64 361.131 1091.64 360.412C1091.64 359.684 1091.79 359.047 1092.08 358.501C1092.38 357.946 1092.78 357.517 1093.29 357.214C1093.81 356.911 1094.39 356.759 1095.02 356.759ZM1097.67 360.425C1097.67 359.888 1097.57 359.42 1097.35 359.021C1097.13 358.622 1096.84 358.319 1096.47 358.111C1096.1 357.894 1095.7 357.786 1095.26 357.786C1094.81 357.786 1094.41 357.89 1094.05 358.098C1093.68 358.306 1093.39 358.609 1093.18 359.008C1092.96 359.407 1092.85 359.875 1092.85 360.412C1092.85 360.958 1092.96 361.435 1093.18 361.842C1093.39 362.241 1093.68 362.548 1094.05 362.765C1094.41 362.973 1094.81 363.077 1095.26 363.077C1095.7 363.077 1096.1 362.973 1096.47 362.765C1096.84 362.548 1097.13 362.241 1097.35 361.842C1097.57 361.435 1097.67 360.962 1097.67 360.425ZM863.559 377.412C863.559 376.684 863.706 376.047 864.001 375.501C864.296 374.946 864.699 374.517 865.21 374.214C865.73 373.911 866.311 373.759 866.952 373.759C867.507 373.759 868.022 373.889 868.499 374.149C868.976 374.4 869.34 374.734 869.591 375.15V371.38H870.787V381H869.591V379.661C869.357 380.086 869.01 380.437 868.551 380.714C868.092 380.983 867.554 381.117 866.939 381.117C866.306 381.117 865.73 380.961 865.21 380.649C864.699 380.337 864.296 379.899 864.001 379.336C863.706 378.773 863.559 378.131 863.559 377.412ZM869.591 377.425C869.591 376.888 869.483 376.42 869.266 376.021C869.049 375.622 868.755 375.319 868.382 375.111C868.018 374.894 867.615 374.786 867.173 374.786C866.731 374.786 866.328 374.89 865.964 375.098C865.6 375.306 865.31 375.609 865.093 376.008C864.876 376.407 864.768 376.875 864.768 377.412C864.768 377.958 864.876 378.435 865.093 378.842C865.31 379.241 865.6 379.548 865.964 379.765C866.328 379.973 866.731 380.077 867.173 380.077C867.615 380.077 868.018 379.973 868.382 379.765C868.755 379.548 869.049 379.241 869.266 378.842C869.483 378.435 869.591 377.962 869.591 377.425ZM879.286 377.165C879.286 377.39 879.273 377.629 879.247 377.88H873.553C873.596 378.582 873.835 379.132 874.268 379.531C874.71 379.921 875.243 380.116 875.867 380.116C876.378 380.116 876.803 379.999 877.141 379.765C877.488 379.522 877.73 379.202 877.869 378.803H879.143C878.952 379.488 878.571 380.047 877.999 380.48C877.427 380.905 876.716 381.117 875.867 381.117C875.191 381.117 874.584 380.965 874.047 380.662C873.518 380.359 873.102 379.93 872.799 379.375C872.496 378.812 872.344 378.162 872.344 377.425C872.344 376.688 872.491 376.043 872.786 375.488C873.081 374.933 873.492 374.509 874.021 374.214C874.558 373.911 875.174 373.759 875.867 373.759C876.543 373.759 877.141 373.906 877.661 374.201C878.181 374.496 878.58 374.903 878.857 375.423C879.143 375.934 879.286 376.515 879.286 377.165ZM878.064 376.918C878.064 376.467 877.964 376.082 877.765 375.761C877.566 375.432 877.293 375.185 876.946 375.02C876.608 374.847 876.231 374.76 875.815 374.76C875.217 374.76 874.706 374.951 874.281 375.332C873.865 375.713 873.627 376.242 873.566 376.918H878.064ZM880.406 377.425C880.406 376.688 880.553 376.047 880.848 375.501C881.142 374.946 881.55 374.517 882.07 374.214C882.598 373.911 883.201 373.759 883.877 373.759C884.752 373.759 885.471 373.971 886.035 374.396C886.607 374.821 886.984 375.41 887.166 376.164H885.892C885.77 375.731 885.532 375.388 885.177 375.137C884.83 374.886 884.397 374.76 883.877 374.76C883.201 374.76 882.655 374.994 882.239 375.462C881.823 375.921 881.615 376.576 881.615 377.425C881.615 378.283 881.823 378.946 882.239 379.414C882.655 379.882 883.201 380.116 883.877 380.116C884.397 380.116 884.83 379.995 885.177 379.752C885.523 379.509 885.762 379.163 885.892 378.712H887.166C886.975 379.44 886.594 380.025 886.022 380.467C885.45 380.9 884.735 381.117 883.877 381.117C883.201 381.117 882.598 380.965 882.07 380.662C881.55 380.359 881.142 379.93 880.848 379.375C880.553 378.82 880.406 378.17 880.406 377.425ZM895.244 377.165C895.244 377.39 895.231 377.629 895.205 377.88H889.511C889.554 378.582 889.793 379.132 890.226 379.531C890.668 379.921 891.201 380.116 891.825 380.116C892.336 380.116 892.761 379.999 893.099 379.765C893.446 379.522 893.688 379.202 893.827 378.803H895.101C894.91 379.488 894.529 380.047 893.957 380.48C893.385 380.905 892.674 381.117 891.825 381.117C891.149 381.117 890.542 380.965 890.005 380.662C889.476 380.359 889.06 379.93 888.757 379.375C888.454 378.812 888.302 378.162 888.302 377.425C888.302 376.688 888.449 376.043 888.744 375.488C889.039 374.933 889.45 374.509 889.979 374.214C890.516 373.911 891.132 373.759 891.825 373.759C892.501 373.759 893.099 373.906 893.619 374.201C894.139 374.496 894.538 374.903 894.815 375.423C895.101 375.934 895.244 376.515 895.244 377.165ZM894.022 376.918C894.022 376.467 893.922 376.082 893.723 375.761C893.524 375.432 893.251 375.185 892.904 375.02C892.566 374.847 892.189 374.76 891.773 374.76C891.175 374.76 890.664 374.951 890.239 375.332C889.823 375.713 889.585 376.242 889.524 376.918H894.022ZM900.277 373.746C901.143 373.746 901.845 374.01 902.383 374.539C902.92 375.059 903.189 375.813 903.189 376.801V381H902.019V376.97C902.019 376.259 901.841 375.718 901.486 375.345C901.13 374.964 900.645 374.773 900.03 374.773C899.406 374.773 898.907 374.968 898.535 375.358C898.171 375.748 897.989 376.316 897.989 377.061V381H896.806V373.876H897.989V374.89C898.223 374.526 898.539 374.244 898.938 374.045C899.345 373.846 899.791 373.746 900.277 373.746ZM906.564 374.851V379.05C906.564 379.397 906.638 379.644 906.785 379.791C906.932 379.93 907.188 379.999 907.552 379.999H908.423V381H907.357C906.698 381 906.204 380.848 905.875 380.545C905.546 380.242 905.381 379.743 905.381 379.05V374.851H904.458V373.876H905.381V372.082H906.564V373.876H908.423V374.851H906.564ZM911.039 375.033C911.247 374.626 911.542 374.309 911.923 374.084C912.313 373.859 912.786 373.746 913.34 373.746V374.968H913.028C911.702 374.968 911.039 375.687 911.039 377.126V381H909.856V373.876H911.039V375.033ZM914.264 377.412C914.264 376.684 914.411 376.047 914.706 375.501C915.001 374.946 915.404 374.517 915.915 374.214C916.435 373.911 917.011 373.759 917.644 373.759C918.268 373.759 918.81 373.893 919.269 374.162C919.728 374.431 920.071 374.769 920.296 375.176V373.876H921.492V381H920.296V379.674C920.062 380.09 919.711 380.437 919.243 380.714C918.784 380.983 918.246 381.117 917.631 381.117C916.998 381.117 916.426 380.961 915.915 380.649C915.404 380.337 915.001 379.899 914.706 379.336C914.411 378.773 914.264 378.131 914.264 377.412ZM920.296 377.425C920.296 376.888 920.188 376.42 919.971 376.021C919.754 375.622 919.46 375.319 919.087 375.111C918.723 374.894 918.32 374.786 917.878 374.786C917.436 374.786 917.033 374.89 916.669 375.098C916.305 375.306 916.015 375.609 915.798 376.008C915.581 376.407 915.473 376.875 915.473 377.412C915.473 377.958 915.581 378.435 915.798 378.842C916.015 379.241 916.305 379.548 916.669 379.765C917.033 379.973 917.436 380.077 917.878 380.077C918.32 380.077 918.723 379.973 919.087 379.765C919.46 379.548 919.754 379.241 919.971 378.842C920.188 378.435 920.296 377.962 920.296 377.425ZM924.674 371.38V381H923.491V371.38H924.674ZM927.301 372.719C927.076 372.719 926.885 372.641 926.729 372.485C926.573 372.329 926.495 372.138 926.495 371.913C926.495 371.688 926.573 371.497 926.729 371.341C926.885 371.185 927.076 371.107 927.301 371.107C927.518 371.107 927.7 371.185 927.847 371.341C928.003 371.497 928.081 371.688 928.081 371.913C928.081 372.138 928.003 372.329 927.847 372.485C927.7 372.641 927.518 372.719 927.301 372.719ZM927.873 373.876V381H926.69V373.876H927.873ZM930.774 380.025H934.271V381H929.422V380.025L932.88 374.838H929.448V373.876H934.245V374.838L930.774 380.025ZM942.306 377.165C942.306 377.39 942.293 377.629 942.267 377.88H936.573C936.616 378.582 936.854 379.132 937.288 379.531C937.73 379.921 938.263 380.116 938.887 380.116C939.398 380.116 939.823 379.999 940.161 379.765C940.507 379.522 940.75 379.202 940.889 378.803H942.163C941.972 379.488 941.591 380.047 941.019 380.48C940.447 380.905 939.736 381.117 938.887 381.117C938.211 381.117 937.604 380.965 937.067 380.662C936.538 380.359 936.122 379.93 935.819 379.375C935.515 378.812 935.364 378.162 935.364 377.425C935.364 376.688 935.511 376.043 935.806 375.488C936.1 374.933 936.512 374.509 937.041 374.214C937.578 373.911 938.193 373.759 938.887 373.759C939.563 373.759 940.161 373.906 940.681 374.201C941.201 374.496 941.599 374.903 941.877 375.423C942.163 375.934 942.306 376.515 942.306 377.165ZM941.084 376.918C941.084 376.467 940.984 376.082 940.785 375.761C940.585 375.432 940.312 375.185 939.966 375.02C939.628 374.847 939.251 374.76 938.835 374.76C938.237 374.76 937.725 374.951 937.301 375.332C936.885 375.713 936.646 376.242 936.586 376.918H941.084ZM943.425 377.412C943.425 376.684 943.573 376.047 943.867 375.501C944.162 374.946 944.565 374.517 945.076 374.214C945.596 373.911 946.177 373.759 946.818 373.759C947.373 373.759 947.889 373.889 948.365 374.149C948.842 374.4 949.206 374.734 949.457 375.15V371.38H950.653V381H949.457V379.661C949.223 380.086 948.877 380.437 948.417 380.714C947.958 380.983 947.421 381.117 946.805 381.117C946.173 381.117 945.596 380.961 945.076 380.649C944.565 380.337 944.162 379.899 943.867 379.336C943.573 378.773 943.425 378.131 943.425 377.412ZM949.457 377.425C949.457 376.888 949.349 376.42 949.132 376.021C948.916 375.622 948.621 375.319 948.248 375.111C947.884 374.894 947.481 374.786 947.039 374.786C946.597 374.786 946.194 374.89 945.83 375.098C945.466 375.306 945.176 375.609 944.959 376.008C944.743 376.407 944.634 376.875 944.634 377.412C944.634 377.958 944.743 378.435 944.959 378.842C945.176 379.241 945.466 379.548 945.83 379.765C946.194 379.973 946.597 380.077 947.039 380.077C947.481 380.077 947.884 379.973 948.248 379.765C948.621 379.548 948.916 379.241 949.132 378.842C949.349 378.435 949.457 377.962 949.457 377.425ZM955.676 377.425C955.676 376.688 955.824 376.047 956.118 375.501C956.413 374.946 956.82 374.517 957.34 374.214C957.869 373.911 958.471 373.759 959.147 373.759C960.023 373.759 960.742 373.971 961.305 374.396C961.877 374.821 962.254 375.41 962.436 376.164H961.162C961.041 375.731 960.803 375.388 960.447 375.137C960.101 374.886 959.667 374.76 959.147 374.76C958.471 374.76 957.925 374.994 957.509 375.462C957.093 375.921 956.885 376.576 956.885 377.425C956.885 378.283 957.093 378.946 957.509 379.414C957.925 379.882 958.471 380.116 959.147 380.116C959.667 380.116 960.101 379.995 960.447 379.752C960.794 379.509 961.032 379.163 961.162 378.712H962.436C962.246 379.44 961.864 380.025 961.292 380.467C960.72 380.9 960.005 381.117 959.147 381.117C958.471 381.117 957.869 380.965 957.34 380.662C956.82 380.359 956.413 379.93 956.118 379.375C955.824 378.82 955.676 378.17 955.676 377.425ZM965.198 375.033C965.406 374.626 965.7 374.309 966.082 374.084C966.472 373.859 966.944 373.746 967.499 373.746V374.968H967.187C965.861 374.968 965.198 375.687 965.198 377.126V381H964.015V373.876H965.198V375.033ZM975 373.876L970.71 384.354H969.488L970.892 380.922L968.019 373.876H969.332L971.568 379.648L973.778 373.876H975ZM977.372 375.189C977.606 374.782 977.953 374.444 978.412 374.175C978.88 373.898 979.422 373.759 980.037 373.759C980.67 373.759 981.242 373.911 981.753 374.214C982.273 374.517 982.681 374.946 982.975 375.501C983.27 376.047 983.417 376.684 983.417 377.412C983.417 378.131 983.27 378.773 982.975 379.336C982.681 379.899 982.273 380.337 981.753 380.649C981.242 380.961 980.67 381.117 980.037 381.117C979.431 381.117 978.893 380.983 978.425 380.714C977.966 380.437 977.615 380.094 977.372 379.687V384.38H976.189V373.876H977.372V375.189ZM982.208 377.412C982.208 376.875 982.1 376.407 981.883 376.008C981.667 375.609 981.372 375.306 980.999 375.098C980.635 374.89 980.232 374.786 979.79 374.786C979.357 374.786 978.954 374.894 978.581 375.111C978.217 375.319 977.923 375.627 977.697 376.034C977.481 376.433 977.372 376.896 977.372 377.425C977.372 377.962 977.481 378.435 977.697 378.842C977.923 379.241 978.217 379.548 978.581 379.765C978.954 379.973 979.357 380.077 979.79 380.077C980.232 380.077 980.635 379.973 980.999 379.765C981.372 379.548 981.667 379.241 981.883 378.842C982.1 378.435 982.208 377.958 982.208 377.412ZM986.418 374.851V379.05C986.418 379.397 986.491 379.644 986.639 379.791C986.786 379.93 987.042 379.999 987.406 379.999H988.277V381H987.211C986.552 381 986.058 380.848 985.729 380.545C985.399 380.242 985.235 379.743 985.235 379.05V374.851H984.312V373.876H985.235V372.082H986.418V373.876H988.277V374.851H986.418ZM992.817 381.117C992.15 381.117 991.543 380.965 990.997 380.662C990.46 380.359 990.035 379.93 989.723 379.375C989.42 378.812 989.268 378.162 989.268 377.425C989.268 376.697 989.424 376.056 989.736 375.501C990.057 374.938 990.49 374.509 991.036 374.214C991.582 373.911 992.193 373.759 992.869 373.759C993.545 373.759 994.156 373.911 994.702 374.214C995.248 374.509 995.677 374.933 995.989 375.488C996.31 376.043 996.47 376.688 996.47 377.425C996.47 378.162 996.305 378.812 995.976 379.375C995.655 379.93 995.218 380.359 994.663 380.662C994.108 380.965 993.493 381.117 992.817 381.117ZM992.817 380.077C993.242 380.077 993.64 379.977 994.013 379.778C994.386 379.579 994.685 379.28 994.91 378.881C995.144 378.482 995.261 377.997 995.261 377.425C995.261 376.853 995.148 376.368 994.923 375.969C994.698 375.57 994.403 375.276 994.039 375.085C993.675 374.886 993.281 374.786 992.856 374.786C992.423 374.786 992.024 374.886 991.66 375.085C991.305 375.276 991.019 375.57 990.802 375.969C990.585 376.368 990.477 376.853 990.477 377.425C990.477 378.006 990.581 378.495 990.789 378.894C991.006 379.293 991.292 379.592 991.647 379.791C992.002 379.982 992.392 380.077 992.817 380.077ZM1002.93 374.851V379.05C1002.93 379.397 1003.01 379.644 1003.16 379.791C1003.3 379.93 1003.56 379.999 1003.92 379.999H1004.79V381H1003.73C1003.07 381 1002.57 380.848 1002.25 380.545C1001.92 380.242 1001.75 379.743 1001.75 379.05V374.851H1000.83V373.876H1001.75V372.082H1002.93V373.876H1004.79V374.851H1002.93ZM1007.41 375.033C1007.62 374.626 1007.91 374.309 1008.29 374.084C1008.68 373.859 1009.16 373.746 1009.71 373.746V374.968H1009.4C1008.07 374.968 1007.41 375.687 1007.41 377.126V381H1006.23V373.876H1007.41V375.033ZM1010.63 377.412C1010.63 376.684 1010.78 376.047 1011.08 375.501C1011.37 374.946 1011.77 374.517 1012.29 374.214C1012.81 373.911 1013.38 373.759 1014.01 373.759C1014.64 373.759 1015.18 373.893 1015.64 374.162C1016.1 374.431 1016.44 374.769 1016.67 375.176V373.876H1017.86V381H1016.67V379.674C1016.43 380.09 1016.08 380.437 1015.61 380.714C1015.15 380.983 1014.62 381.117 1014 381.117C1013.37 381.117 1012.8 380.961 1012.29 380.649C1011.77 380.337 1011.37 379.899 1011.08 379.336C1010.78 378.773 1010.63 378.131 1010.63 377.412ZM1016.67 377.425C1016.67 376.888 1016.56 376.42 1016.34 376.021C1016.12 375.622 1015.83 375.319 1015.46 375.111C1015.09 374.894 1014.69 374.786 1014.25 374.786C1013.81 374.786 1013.4 374.89 1013.04 375.098C1012.68 375.306 1012.38 375.609 1012.17 376.008C1011.95 376.407 1011.84 376.875 1011.84 377.412C1011.84 377.958 1011.95 378.435 1012.17 378.842C1012.38 379.241 1012.68 379.548 1013.04 379.765C1013.4 379.973 1013.81 380.077 1014.25 380.077C1014.69 380.077 1015.09 379.973 1015.46 379.765C1015.83 379.548 1016.12 379.241 1016.34 378.842C1016.56 378.435 1016.67 377.962 1016.67 377.425ZM1019.42 377.412C1019.42 376.684 1019.57 376.047 1019.86 375.501C1020.16 374.946 1020.56 374.517 1021.07 374.214C1021.59 373.911 1022.17 373.759 1022.81 373.759C1023.37 373.759 1023.88 373.889 1024.36 374.149C1024.84 374.4 1025.2 374.734 1025.45 375.15V371.38H1026.65V381H1025.45V379.661C1025.22 380.086 1024.87 380.437 1024.41 380.714C1023.95 380.983 1023.41 381.117 1022.8 381.117C1022.17 381.117 1021.59 380.961 1021.07 380.649C1020.56 380.337 1020.16 379.899 1019.86 379.336C1019.57 378.773 1019.42 378.131 1019.42 377.412ZM1025.45 377.425C1025.45 376.888 1025.34 376.42 1025.13 376.021C1024.91 375.622 1024.62 375.319 1024.24 375.111C1023.88 374.894 1023.48 374.786 1023.03 374.786C1022.59 374.786 1022.19 374.89 1021.82 375.098C1021.46 375.306 1021.17 375.609 1020.95 376.008C1020.74 376.407 1020.63 376.875 1020.63 377.412C1020.63 377.958 1020.74 378.435 1020.95 378.842C1021.17 379.241 1021.46 379.548 1021.82 379.765C1022.19 379.973 1022.59 380.077 1023.03 380.077C1023.48 380.077 1023.88 379.973 1024.24 379.765C1024.62 379.548 1024.91 379.241 1025.13 378.842C1025.34 378.435 1025.45 377.962 1025.45 377.425ZM1029.26 372.719C1029.03 372.719 1028.84 372.641 1028.69 372.485C1028.53 372.329 1028.45 372.138 1028.45 371.913C1028.45 371.688 1028.53 371.497 1028.69 371.341C1028.84 371.185 1029.03 371.107 1029.26 371.107C1029.47 371.107 1029.66 371.185 1029.8 371.341C1029.96 371.497 1030.04 371.688 1030.04 371.913C1030.04 372.138 1029.96 372.329 1029.8 372.485C1029.66 372.641 1029.47 372.719 1029.26 372.719ZM1029.83 373.876V381H1028.65V373.876H1029.83ZM1035.32 373.746C1036.18 373.746 1036.89 374.01 1037.42 374.539C1037.96 375.059 1038.23 375.813 1038.23 376.801V381H1037.06V376.97C1037.06 376.259 1036.88 375.718 1036.53 375.345C1036.17 374.964 1035.69 374.773 1035.07 374.773C1034.45 374.773 1033.95 374.968 1033.57 375.358C1033.21 375.748 1033.03 376.316 1033.03 377.061V381H1031.85V373.876H1033.03V374.89C1033.26 374.526 1033.58 374.244 1033.98 374.045C1034.39 373.846 1034.83 373.746 1035.32 373.746ZM1043.1 373.759C1043.71 373.759 1044.25 373.893 1044.71 374.162C1045.18 374.431 1045.53 374.769 1045.75 375.176V373.876H1046.95V381.156C1046.95 381.806 1046.81 382.382 1046.53 382.885C1046.25 383.396 1045.86 383.795 1045.34 384.081C1044.82 384.367 1044.23 384.51 1043.54 384.51C1042.61 384.51 1041.83 384.289 1041.2 383.847C1040.58 383.405 1040.21 382.803 1040.1 382.04H1041.27C1041.4 382.473 1041.66 382.82 1042.07 383.08C1042.48 383.349 1042.97 383.483 1043.54 383.483C1044.19 383.483 1044.72 383.279 1045.13 382.872C1045.54 382.465 1045.75 381.893 1045.75 381.156V379.661C1045.52 380.077 1045.17 380.424 1044.71 380.701C1044.25 380.978 1043.71 381.117 1043.1 381.117C1042.47 381.117 1041.89 380.961 1041.37 380.649C1040.86 380.337 1040.46 379.899 1040.16 379.336C1039.87 378.773 1039.72 378.131 1039.72 377.412C1039.72 376.684 1039.87 376.047 1040.16 375.501C1040.46 374.946 1040.86 374.517 1041.37 374.214C1041.89 373.911 1042.47 373.759 1043.1 373.759ZM1045.75 377.425C1045.75 376.888 1045.64 376.42 1045.43 376.021C1045.21 375.622 1044.91 375.319 1044.54 375.111C1044.18 374.894 1043.78 374.786 1043.33 374.786C1042.89 374.786 1042.49 374.89 1042.12 375.098C1041.76 375.306 1041.47 375.609 1041.25 376.008C1041.04 376.407 1040.93 376.875 1040.93 377.412C1040.93 377.958 1041.04 378.435 1041.25 378.842C1041.47 379.241 1041.76 379.548 1042.12 379.765C1042.49 379.973 1042.89 380.077 1043.33 380.077C1043.78 380.077 1044.18 379.973 1044.54 379.765C1044.91 379.548 1045.21 379.241 1045.43 378.842C1045.64 378.435 1045.75 377.962 1045.75 377.425ZM1053.6 375.189C1053.83 374.782 1054.18 374.444 1054.64 374.175C1055.1 373.898 1055.64 373.759 1056.26 373.759C1056.89 373.759 1057.46 373.911 1057.98 374.214C1058.5 374.517 1058.9 374.946 1059.2 375.501C1059.49 376.047 1059.64 376.684 1059.64 377.412C1059.64 378.131 1059.49 378.773 1059.2 379.336C1058.9 379.899 1058.5 380.337 1057.98 380.649C1057.46 380.961 1056.89 381.117 1056.26 381.117C1055.65 381.117 1055.12 380.983 1054.65 380.714C1054.19 380.437 1053.84 380.094 1053.6 379.687V384.38H1052.41V373.876H1053.6V375.189ZM1058.43 377.412C1058.43 376.875 1058.32 376.407 1058.11 376.008C1057.89 375.609 1057.59 375.306 1057.22 375.098C1056.86 374.89 1056.46 374.786 1056.01 374.786C1055.58 374.786 1055.18 374.894 1054.8 375.111C1054.44 375.319 1054.15 375.627 1053.92 376.034C1053.7 376.433 1053.6 376.896 1053.6 377.425C1053.6 377.962 1053.7 378.435 1053.92 378.842C1054.15 379.241 1054.44 379.548 1054.8 379.765C1055.18 379.973 1055.58 380.077 1056.01 380.077C1056.46 380.077 1056.86 379.973 1057.22 379.765C1057.59 379.548 1057.89 379.241 1058.11 378.842C1058.32 378.435 1058.43 377.958 1058.43 377.412ZM1062.38 375.033C1062.59 374.626 1062.88 374.309 1063.26 374.084C1063.65 373.859 1064.13 373.746 1064.68 373.746V374.968H1064.37C1063.04 374.968 1062.38 375.687 1062.38 377.126V381H1061.2V373.876H1062.38V375.033ZM1069.15 381.117C1068.49 381.117 1067.88 380.965 1067.33 380.662C1066.8 380.359 1066.37 379.93 1066.06 379.375C1065.76 378.812 1065.6 378.162 1065.6 377.425C1065.6 376.697 1065.76 376.056 1066.07 375.501C1066.39 374.938 1066.83 374.509 1067.37 374.214C1067.92 373.911 1068.53 373.759 1069.21 373.759C1069.88 373.759 1070.49 373.911 1071.04 374.214C1071.58 374.509 1072.01 374.933 1072.33 375.488C1072.65 376.043 1072.81 376.688 1072.81 377.425C1072.81 378.162 1072.64 378.812 1072.31 379.375C1071.99 379.93 1071.55 380.359 1071 380.662C1070.45 380.965 1069.83 381.117 1069.15 381.117ZM1069.15 380.077C1069.58 380.077 1069.98 379.977 1070.35 379.778C1070.72 379.579 1071.02 379.28 1071.25 378.881C1071.48 378.482 1071.6 377.997 1071.6 377.425C1071.6 376.853 1071.49 376.368 1071.26 375.969C1071.03 375.57 1070.74 375.276 1070.38 375.085C1070.01 374.886 1069.62 374.786 1069.19 374.786C1068.76 374.786 1068.36 374.886 1068 375.085C1067.64 375.276 1067.36 375.57 1067.14 375.969C1066.92 376.368 1066.81 376.853 1066.81 377.425C1066.81 378.006 1066.92 378.495 1067.13 378.894C1067.34 379.293 1067.63 379.592 1067.98 379.791C1068.34 379.982 1068.73 380.077 1069.15 380.077ZM1075.81 374.851V379.05C1075.81 379.397 1075.88 379.644 1076.03 379.791C1076.17 379.93 1076.43 379.999 1076.79 379.999H1077.66V381H1076.6C1075.94 381 1075.45 380.848 1075.12 380.545C1074.79 380.242 1074.62 379.743 1074.62 379.05V374.851H1073.7V373.876H1074.62V372.082H1075.81V373.876H1077.66V374.851H1075.81ZM1082.2 381.117C1081.54 381.117 1080.93 380.965 1080.38 380.662C1079.85 380.359 1079.42 379.93 1079.11 379.375C1078.81 378.812 1078.66 378.162 1078.66 377.425C1078.66 376.697 1078.81 376.056 1079.12 375.501C1079.44 374.938 1079.88 374.509 1080.42 374.214C1080.97 373.911 1081.58 373.759 1082.26 373.759C1082.93 373.759 1083.54 373.911 1084.09 374.214C1084.64 374.509 1085.06 374.933 1085.38 375.488C1085.7 376.043 1085.86 376.688 1085.86 377.425C1085.86 378.162 1085.69 378.812 1085.36 379.375C1085.04 379.93 1084.61 380.359 1084.05 380.662C1083.5 380.965 1082.88 381.117 1082.2 381.117ZM1082.2 380.077C1082.63 380.077 1083.03 379.977 1083.4 379.778C1083.77 379.579 1084.07 379.28 1084.3 378.881C1084.53 378.482 1084.65 377.997 1084.65 377.425C1084.65 376.853 1084.54 376.368 1084.31 375.969C1084.09 375.57 1083.79 375.276 1083.43 375.085C1083.06 374.886 1082.67 374.786 1082.24 374.786C1081.81 374.786 1081.41 374.886 1081.05 375.085C1080.69 375.276 1080.41 375.57 1080.19 375.969C1079.97 376.368 1079.86 376.853 1079.86 377.425C1079.86 378.006 1079.97 378.495 1080.18 378.894C1080.39 379.293 1080.68 379.592 1081.03 379.791C1081.39 379.982 1081.78 380.077 1082.2 380.077ZM1086.97 377.425C1086.97 376.688 1087.12 376.047 1087.41 375.501C1087.71 374.946 1088.12 374.517 1088.64 374.214C1089.16 373.911 1089.77 373.759 1090.44 373.759C1091.32 373.759 1092.04 373.971 1092.6 374.396C1093.17 374.821 1093.55 375.41 1093.73 376.164H1092.46C1092.34 375.731 1092.1 375.388 1091.74 375.137C1091.4 374.886 1090.96 374.76 1090.44 374.76C1089.77 374.76 1089.22 374.994 1088.8 375.462C1088.39 375.921 1088.18 376.576 1088.18 377.425C1088.18 378.283 1088.39 378.946 1088.8 379.414C1089.22 379.882 1089.77 380.116 1090.44 380.116C1090.96 380.116 1091.4 379.995 1091.74 379.752C1092.09 379.509 1092.33 379.163 1092.46 378.712H1093.73C1093.54 379.44 1093.16 380.025 1092.59 380.467C1092.02 380.9 1091.3 381.117 1090.44 381.117C1089.77 381.117 1089.16 380.965 1088.64 380.662C1088.12 380.359 1087.71 379.93 1087.41 379.375C1087.12 378.82 1086.97 378.17 1086.97 377.425ZM1098.42 381.117C1097.75 381.117 1097.14 380.965 1096.6 380.662C1096.06 380.359 1095.63 379.93 1095.32 379.375C1095.02 378.812 1094.87 378.162 1094.87 377.425C1094.87 376.697 1095.02 376.056 1095.34 375.501C1095.66 374.938 1096.09 374.509 1096.64 374.214C1097.18 373.911 1097.79 373.759 1098.47 373.759C1099.14 373.759 1099.76 373.911 1100.3 374.214C1100.85 374.509 1101.28 374.933 1101.59 375.488C1101.91 376.043 1102.07 376.688 1102.07 377.425C1102.07 378.162 1101.9 378.812 1101.58 379.375C1101.25 379.93 1100.82 380.359 1100.26 380.662C1099.71 380.965 1099.09 381.117 1098.42 381.117ZM1098.42 380.077C1098.84 380.077 1099.24 379.977 1099.61 379.778C1099.99 379.579 1100.28 379.28 1100.51 378.881C1100.74 378.482 1100.86 377.997 1100.86 377.425C1100.86 376.853 1100.75 376.368 1100.52 375.969C1100.3 375.57 1100 375.276 1099.64 375.085C1099.27 374.886 1098.88 374.786 1098.46 374.786C1098.02 374.786 1097.62 374.886 1097.26 375.085C1096.9 375.276 1096.62 375.57 1096.4 375.969C1096.18 376.368 1096.08 376.853 1096.08 377.425C1096.08 378.006 1096.18 378.495 1096.39 378.894C1096.61 379.293 1096.89 379.592 1097.25 379.791C1097.6 379.982 1097.99 380.077 1098.42 380.077ZM1104.81 371.38V381H1103.63V371.38H1104.81ZM1107.2 381.078C1106.98 381.078 1106.79 381 1106.63 380.844C1106.47 380.688 1106.4 380.497 1106.4 380.272C1106.4 380.047 1106.47 379.856 1106.63 379.7C1106.79 379.544 1106.98 379.466 1107.2 379.466C1107.42 379.466 1107.6 379.544 1107.75 379.7C1107.9 379.856 1107.98 380.047 1107.98 380.272C1107.98 380.497 1107.9 380.688 1107.75 380.844C1107.6 381 1107.42 381.078 1107.2 381.078Z" fill="white"/>
<g opacity="0.4">
<circle cx="3.28151" cy="3.28151" r="3.28151" fill="white"/>
<circle cx="3.28151" cy="14.021" r="3.28151" fill="white"/>
<circle cx="3.28151" cy="24.7605" r="3.28151" fill="white"/>
<circle cx="3.28151" cy="35.5" r="3.28151" fill="white"/>
<circle cx="3.28151" cy="46.2395" r="3.28151" fill="white"/>
<circle cx="3.28151" cy="56.979" r="3.28151" fill="white"/>
<circle cx="3.28151" cy="67.7185" r="3.28151" fill="white"/>
</g>
<g opacity="0.4">
<circle cx="1057.28" cy="461.282" r="3.28151" fill="white"/>
<circle cx="1057.28" cy="472.021" r="3.28151" fill="white"/>
<circle cx="1057.28" cy="482.761" r="3.28151" fill="white"/>
<circle cx="1057.28" cy="493.5" r="3.28151" fill="white"/>
<circle cx="1057.28" cy="504.24" r="3.28151" fill="white"/>
<circle cx="1057.28" cy="514.979" r="3.28151" fill="white"/>
<circle cx="1057.28" cy="525.719" r="3.28151" fill="white"/>
</g>
<circle cx="504.5" cy="384.5" r="79" stroke="white"/>
<defs>
<filter id="filter0_b_25_29" x="448.736" y="162.911" width="558.99" height="363.083" filterUnits="userSpaceOnUse" color-interpolation-filters="sRGB">
<feFlood flood-opacity="0" result="BackgroundImageFix"/>
<feGaussianBlur in="BackgroundImage" stdDeviation="7.5"/>
<feComposite in2="SourceAlpha" operator="in" result="effect1_backgroundBlur_25_29"/>
<feBlend mode="normal" in="SourceGraphic" in2="effect1_backgroundBlur_25_29" result="shape"/>
</filter>
<linearGradient id="paint0_linear_25_29" x1="366.633" y1="1241.12" x2="689.488" y2="330.222" gradientUnits="userSpaceOnUse">
<stop offset="0.622623" stop-color="#C4C4C4" stop-opacity="0"/>
<stop offset="0.732186" stop-color="#C4C4C4"/>
<stop offset="0.91695" stop-color="#C4C4C4" stop-opacity="0"/>
</linearGradient>
<linearGradient id="paint1_linear_25_29" x1="274.036" y1="-63.0346" x2="274.036" y2="277.128" gradientUnits="userSpaceOnUse">
<stop stop-color="white"/>
<stop offset="0.145833" stop-color="white" stop-opacity="0.26"/>
<stop offset="0.505208" stop-color="white" stop-opacity="0"/>
<stop offset="0.796875" stop-color="white" stop-opacity="0.14"/>
<stop offset="1" stop-color="white"/>
</linearGradient>
<linearGradient id="paint2_linear_25_29" x1="273.833" y1="-30.4736" x2="268.849" y2="285.013" gradientUnits="userSpaceOnUse">
<stop stop-color="white"/>
<stop offset="0.395833" stop-color="white" stop-opacity="0"/>
<stop offset="1" stop-color="white"/>
</linearGradient>
<linearGradient id="paint3_linear_25_29" x1="243.595" y1="-56.0324" x2="243.595" y2="246.344" gradientUnits="userSpaceOnUse">
<stop stop-color="white"/>
<stop offset="0.145833" stop-color="white" stop-opacity="0.26"/>
<stop offset="0.505208" stop-color="white" stop-opacity="0"/>
<stop offset="0.796875" stop-color="white" stop-opacity="0.14"/>
<stop offset="1" stop-color="white"/>
</linearGradient>
<linearGradient id="paint4_linear_25_29" x1="243.414" y1="-27.0885" x2="238.984" y2="253.353" gradientUnits="userSpaceOnUse">
<stop stop-color="white"/>
<stop offset="0.395833" stop-color="white" stop-opacity="0"/>
<stop offset="1" stop-color="white"/>
</linearGradient>
<linearGradient id="paint5_linear_25_29" x1="274.036" y1="-63.0346" x2="274.036" y2="277.128" gradientUnits="userSpaceOnUse">
<stop stop-color="white"/>
<stop offset="0.145833" stop-color="white" stop-opacity="0.26"/>
<stop offset="0.505208" stop-color="white" stop-opacity="0"/>
<stop offset="0.796875" stop-color="white" stop-opacity="0.14"/>
<stop offset="1" stop-color="white"/>
</linearGradient>
<linearGradient id="paint6_linear_25_29" x1="273.833" y1="-30.4736" x2="268.849" y2="285.013" gradientUnits="userSpaceOnUse">
<stop stop-color="white"/>
<stop offset="0.395833" stop-color="white" stop-opacity="0"/>
<stop offset="1" stop-color="white"/>
</linearGradient>
</defs>
</svg>
