<svg width="542" height="541" viewBox="0 0 542 541" fill="none" xmlns="http://www.w3.org/2000/svg">
<circle cx="271.082" cy="270.226" r="132.574" transform="rotate(16.4806 271.082 270.226)" fill="url(#paint0_linear_5_75)" stroke="url(#paint1_linear_5_75)" stroke-width="1.61086"/>
<path d="M287.717 275.973C281.769 282.344 276.939 289.854 273.905 298.175C270.871 289.854 266.041 282.344 260.093 275.973L260.091 275.972C253.097 268.513 244.287 262.854 234.961 259.88C237.083 233.955 252.102 211.234 273.439 198.739C295.236 211.237 310.275 233.973 312.837 259.924C303.537 263.323 294.738 268.954 287.744 275.945L287.73 275.959L287.717 275.973Z" fill="white" fill-opacity="0.29" stroke="url(#paint2_linear_5_75)" stroke-width="2.26638"/>
<path d="M278.224 332.962L278.344 332.723V332.455V332.453V332.45V332.447V332.444V332.442V332.439V332.436V332.433V332.43V332.428V332.425V332.422V332.419V332.417V332.414V332.411V332.408V332.406V332.403V332.4V332.397V332.395V332.392V332.389V332.386V332.383V332.381V332.378V332.375V332.372V332.37V332.367V332.364V332.361V332.359V332.356V332.353V332.35V332.348V332.345V332.342V332.339V332.337V332.334V332.331V332.328V332.326V332.323V332.32V332.317V332.315V332.312V332.309V332.307V332.304V332.301V332.298V332.296V332.293V332.29V332.287V332.285V332.282V332.279V332.277V332.274V332.271V332.268V332.266V332.263V332.26V332.257V332.255V332.252V332.249V332.247V332.244V332.241V332.239V332.236V332.233V332.23V332.228V332.225V332.222V332.22V332.217V332.214V332.212V332.209V332.206V332.204V332.201V332.198V332.196V332.193V332.19V332.188V332.185V332.182V332.18V332.177V332.174V332.172V332.169V332.166V332.164V332.161V332.158V332.156V332.153V332.15V332.148V332.145V332.143V332.14V332.137V332.135V332.132V332.129V332.127V332.124V332.122V332.119V332.116V332.114V332.111V332.109V332.106V332.103V332.101V332.098V332.096V332.093V332.091V332.088V332.085V332.083V332.08V332.078V332.075V332.073V332.07V332.068V332.065V332.062V332.06V332.057V332.055V332.052V332.05V332.047V332.045V332.042V332.04V332.037V332.035V332.032V332.03V332.027V332.025V332.022V332.02V332.017V332.015V332.012V332.01V332.007V332.005V332.002V332V331.997V331.995V331.993V331.99V331.988V331.985V331.983V331.98V331.978V331.976V331.973V331.971V331.968V331.966V331.963V331.961V331.959V331.956V331.954V331.951V331.949V331.947V331.944V331.942V331.94V331.937V331.935V331.933V331.93V331.928V331.926V331.923V331.921V331.919V331.916V331.914V331.912V331.909V331.907V331.905V331.902V331.9V331.898V331.896V331.893V331.891V331.889V331.886V331.884V331.882V331.88V331.877V331.875V331.873V331.871V331.869V331.866V331.864V331.862V331.86V331.857V331.855V331.853V331.851V331.849V331.847V331.844V331.842V331.84V331.838V331.836V331.834V331.831V331.829V331.827V331.825V331.823V331.821V331.819V331.817V331.815V331.812V331.81V331.808V331.806V331.804V331.802V331.8V331.798V331.796V331.794V331.792V331.79V331.788V331.786V331.784V331.782V331.78V331.778V331.776V331.774V331.772V331.77V331.768V331.766V331.764V331.762V331.76V331.758V331.756V331.754V331.752V331.75V331.748V331.746V331.745V331.743V331.741V331.739V331.737V331.735V331.733V331.731V331.73V331.728V331.726V331.724V331.722V331.72V331.719V331.717V331.715V331.713V331.711V331.71V331.708V331.706V331.704V331.703V331.701V331.699V331.697V331.696V331.694V331.692V331.69V331.689V331.687V331.685V331.684V331.682V331.68V331.679V331.677V331.675V331.674V331.672V331.671V331.669V331.667V331.666V331.664V331.662V331.661V331.659V331.658V331.656V331.655V331.653V331.652V331.65V331.648V331.647V331.645V331.644V331.642V331.641V331.639V331.638V331.636V331.635V331.634V331.632V331.631V331.629V331.628V331.626V331.625V331.624V331.622V331.621V331.619V331.618V331.617V331.615V331.614V331.613V331.611V331.61V331.609V331.607V331.606V331.605V331.603V331.602V331.601V331.6V331.598V331.597V331.596V331.595V331.593V331.592V331.591V331.59V331.589V331.588V331.586V331.585V331.584V331.583V331.582V331.581V331.579V331.578V331.577V331.576V331.575V331.574V331.573V331.572V331.571V331.57V331.569V331.568V331.567V331.566V331.565V331.564V331.563V331.562V331.561V331.56V331.559V331.558V331.557V331.556V331.555V331.554V331.553V331.552V331.551V331.551V331.55V331.549V331.548V331.547V331.546V331.546V331.545V331.544V331.543V331.542V331.542V331.541V331.54V331.539V331.539V331.538V331.537V331.536V331.536V331.535V331.534V331.534V331.533V331.532V331.532V331.531V331.53V331.53V331.529V331.529V331.528V331.527V331.527V331.526V331.526V331.525V331.525V331.524V331.524V331.523V331.523V331.522V331.522V331.521V331.521V331.52V331.52V331.52V331.519V331.519V331.518V331.518V331.518V331.517V331.517V331.517V331.516V331.516V331.516V331.515V331.515V331.515V331.514V331.514V331.514V331.514V331.513V331.513V331.513V331.513V331.513V331.512V331.512V331.512V331.512V331.512V331.512V331.512V331.512V331.511V331.511V331.511V331.511V331.511C278.344 330.929 278.439 330.44 278.558 329.845L278.563 329.817C278.679 329.238 278.816 328.555 278.816 327.734V327.726V327.718V327.709V327.701V327.693V327.684V327.676V327.668V327.66V327.651V327.643V327.635V327.626V327.618V327.61V327.602V327.593V327.585V327.577V327.568V327.56V327.552V327.543V327.535V327.527V327.519V327.51V327.502V327.494V327.485V327.477V327.469V327.46V327.452V327.444V327.436V327.427V327.419V327.411V327.402V327.394V327.386V327.377V327.369V327.361V327.353V327.344V327.336V327.328V327.319V327.311V327.303V327.294V327.286V327.278V327.27V327.261V327.253V327.245V327.236V327.228V327.22V327.211V327.203V327.195V327.187V327.178V327.17V327.162V327.153V327.145V327.137V327.128V327.12V327.112V327.104V327.095V327.087V327.079V327.07V327.062V327.054V327.045V327.037V327.029V327.021V327.012V327.004V326.996V326.987V326.979V326.971V326.963V326.954V326.946V326.938V326.929V326.921V326.913V326.904V326.896V326.888V326.88V326.871V326.863V326.855V326.846V326.838V326.83V326.821V326.813V326.805V326.797V326.788V326.78V326.772V326.763V326.755V326.747V326.738V326.73V326.722V326.714V326.705V326.697V326.689V326.68V326.672V326.664V326.655V326.647V326.639V326.631V326.622V326.614V326.606V326.597V326.589V326.581V326.572V326.564V326.556V326.548V326.539V326.531V326.523V326.514V326.506V326.498V326.489V326.481V326.473V326.465V326.456V326.448V326.44V326.431V326.423V326.415V326.406V326.398V326.39V326.382V326.373V326.365V326.357V326.348V326.34V326.332V326.324V326.315V326.307V326.299V326.29V326.282V326.274V326.265V326.257V326.249V326.241V326.232V326.224V326.216V326.207V326.199V326.191V326.182V326.174V326.166V326.158V326.149V326.141V326.133V326.124V326.116V326.108V326.099V326.091V326.083V326.075V326.066V326.058V326.05V326.041V326.033V326.025V326.016V326.008V326V325.992V325.983V325.975V325.967V325.958V325.95V325.942V325.933V325.925V325.917V325.909V325.9V325.892V325.884V325.875V325.867V325.859V325.85V325.842V325.834V325.826V325.817V325.809V325.801V325.792V325.784V325.776V325.767V325.759V325.751V325.743V325.734V325.726V325.718V325.709V325.701V325.693V325.685V325.676V325.668V325.66V325.651V325.643V325.635V325.626V325.618V325.61V325.602V325.593V325.585V325.577V325.568V325.56V325.552V325.543V325.535V325.527V325.519V325.51V325.502V325.494V325.485V325.477V325.469V325.46V325.452V325.444V325.436V325.427V325.419V325.411V325.402V325.394V325.386V325.377V325.369V325.361V325.353V325.344V325.336V325.328V325.319V325.311V325.303V325.294V325.286V325.278V325.27V325.261V325.253V325.245V325.236V325.228V325.22V325.211V325.203V325.195V325.187V325.178V325.17V325.162V325.153V325.145V325.137V325.128V325.12V325.112V325.104V325.095V325.087V325.079V325.07V325.062V325.054V325.045V325.037V325.029V325.021V325.012V325.004V324.996V324.987V324.979V324.971V324.963V324.954V324.946V324.938V324.929V324.921V324.913V324.904V324.896V324.888V324.88V324.871V324.863V324.855V324.846V324.838V324.83V324.821V324.813V324.805V324.797V324.788V324.78V324.772V324.763V324.755V324.747V324.738V324.73V324.722V324.714V324.705V324.697V324.689V324.68V324.672V324.664V324.655V324.647V324.639V324.631V324.622V324.614V324.606V324.597V324.589V324.581V324.572V324.564V324.556V324.548V324.539V324.531V324.523V324.514V324.506V324.498V324.489V324.481V324.473V324.465V324.456V324.448V324.44V324.431V324.423V324.415V324.406V324.398V324.39V324.382V324.373V324.365V324.357V324.348V324.34V324.332V324.324V324.315V324.307V324.299V324.29V324.282V324.274V324.265V324.257V324.249V324.241V324.232V324.224V324.216V324.207V324.199V324.191V324.182V324.174V324.166V324.158V324.149V324.141V324.133V324.124V324.116V324.108V324.099V324.091V324.083V324.075V324.066V324.058V324.05V324.041V324.033V324.025V324.016V324.008V324V323.992V323.983V323.975V323.967V323.958V323.95V323.942V323.933V323.925V323.917V323.909V323.9V323.892V323.884V323.875V323.867V323.859V323.85V323.842V323.834V323.826V323.817V323.809V323.801V323.792V323.784V323.776V323.767V323.759V323.751V323.743V323.734V323.726V323.718V323.709V323.701V323.693V323.685V323.676V323.668V323.66V323.651V323.643V323.635V323.626V323.618V323.61V323.602V323.593V323.585V323.577V323.568V323.56V323.552V323.543V323.535V323.527V323.519V323.51V323.502V323.494V323.485L278.816 323.436C278.816 321.14 278.816 318.72 278.342 316.284C278.325 315.726 278.199 315.097 278.098 314.591L278.086 314.529C277.96 313.901 277.872 313.434 277.872 313.099C277.872 312.539 277.746 311.986 277.644 311.536C277.632 311.482 277.62 311.429 277.608 311.378C277.494 310.865 277.399 310.374 277.399 309.794C277.399 309.137 277.232 308.636 277.114 308.283L277.105 308.256C276.987 307.902 276.927 307.704 276.927 307.434C276.927 306.777 276.76 306.276 276.642 305.922L276.633 305.895C276.537 305.608 276.479 305.423 276.461 305.219C279.253 296.022 284.331 287.276 291.248 279.896C298.223 272.927 306.574 267.368 315.83 264.128C326.739 260.495 338.559 259.973 349.979 262.145C355.694 283.282 349.638 306.155 334.952 321.758C319.903 337.254 297.666 343.796 276.626 339.596C276.744 339.145 276.826 338.739 276.902 338.359L276.905 338.343C277.023 337.753 277.13 337.225 277.341 336.591C277.585 335.86 277.716 335.132 277.823 334.537C277.833 334.48 277.843 334.424 277.853 334.37C277.976 333.694 278.072 333.266 278.224 332.962Z" fill="white" fill-opacity="0.29" stroke="url(#paint3_linear_5_75)" stroke-width="2.26638"/>
<path d="M212.862 321.764L212.857 321.758L212.851 321.752C197.717 306.165 192.101 283.3 197.831 262.145C209.25 259.973 221.07 260.495 231.979 264.128C241.253 267.374 250.073 272.941 257.034 279.896C264.006 287.334 269.095 295.673 271.871 305.385C274.64 315.073 274.654 325.72 272.805 335.476C272.557 336.244 272.431 336.999 272.32 337.665L272.315 337.698C272.232 338.192 272.157 338.639 272.052 339.068C250.441 344.35 228.014 337.828 212.862 321.764Z" fill="white" fill-opacity="0.29" stroke="url(#paint4_linear_5_75)" stroke-width="2.26638"/>
<g opacity="0.5">
<path d="M181.297 378.209C122.07 328.73 114.335 240.395 164.034 180.905C213.733 121.415 302.036 113.312 361.262 162.791C420.488 212.27 428.224 300.605 378.525 360.095C328.826 419.585 240.523 427.688 181.297 378.209Z" stroke="url(#paint5_linear_5_75)" stroke-width="2.32932"/>
<path d="M148.727 417.195C67.9685 349.728 57.3623 229.356 125.048 148.336C192.734 67.3154 313.073 56.3376 393.831 123.805C474.59 191.272 485.196 311.644 417.51 392.664C349.824 473.684 229.485 484.662 148.727 417.195Z" stroke="url(#paint6_linear_5_75)" stroke-width="2.32932"/>
<circle cx="461.858" cy="255.558" r="20.3903" transform="rotate(129.876 461.858 255.558)" fill="white" fill-opacity="0.47" stroke="url(#paint7_linear_5_75)" stroke-width="1.55288"/>
<circle cx="139.519" cy="309.364" r="10.7141" transform="rotate(129.876 139.519 309.364)" fill="white" fill-opacity="0.47" stroke="url(#paint8_linear_5_75)" stroke-width="1.55288"/>
<circle cx="264.779" cy="78.3053" r="5.87597" transform="rotate(129.876 264.779 78.3053)" fill="white" fill-opacity="0.47" stroke="url(#paint9_linear_5_75)" stroke-width="1.55288"/>
</g>
<defs>
<linearGradient id="paint0_linear_5_75" x1="271.082" y1="64.5998" x2="271.082" y2="454.477" gradientUnits="userSpaceOnUse">
<stop stop-color="white"/>
<stop offset="0.145833" stop-color="white" stop-opacity="0.26"/>
<stop offset="0.505208" stop-color="white" stop-opacity="0"/>
<stop offset="0.796875" stop-color="white" stop-opacity="0.14"/>
<stop offset="1" stop-color="white"/>
</linearGradient>
<linearGradient id="paint1_linear_5_75" x1="270.983" y1="101.92" x2="257.546" y2="463.105" gradientUnits="userSpaceOnUse">
<stop stop-color="white"/>
<stop offset="0.395833" stop-color="white" stop-opacity="0"/>
<stop offset="1" stop-color="white"/>
</linearGradient>
<linearGradient id="paint2_linear_5_75" x1="273.875" y1="183.772" x2="267.052" y2="324.906" gradientUnits="userSpaceOnUse">
<stop stop-color="white"/>
<stop offset="0.395833" stop-color="white" stop-opacity="0"/>
<stop offset="1" stop-color="white"/>
</linearGradient>
<linearGradient id="paint3_linear_5_75" x1="314.252" y1="248.955" x2="309.88" y2="360.302" gradientUnits="userSpaceOnUse">
<stop stop-color="white"/>
<stop offset="0.395833" stop-color="white" stop-opacity="0"/>
<stop offset="1" stop-color="white"/>
</linearGradient>
<linearGradient id="paint4_linear_5_75" x1="234.829" y1="248.952" x2="230.606" y2="360.346" gradientUnits="userSpaceOnUse">
<stop stop-color="white"/>
<stop offset="0.395833" stop-color="white" stop-opacity="0"/>
<stop offset="1" stop-color="white"/>
</linearGradient>
<linearGradient id="paint5_linear_5_75" x1="407.804" y1="384.418" x2="124.026" y2="128.926" gradientUnits="userSpaceOnUse">
<stop stop-color="white"/>
<stop offset="0.395833" stop-color="white" stop-opacity="0"/>
<stop offset="1" stop-color="white"/>
</linearGradient>
<linearGradient id="paint6_linear_5_75" x1="457.022" y1="425.488" x2="70.9537" y2="77.8713" gradientUnits="userSpaceOnUse">
<stop stop-color="white"/>
<stop offset="0.395833" stop-color="white" stop-opacity="0"/>
<stop offset="1" stop-color="white"/>
</linearGradient>
<linearGradient id="paint7_linear_5_75" x1="461.843" y1="228.848" x2="459.71" y2="286.167" gradientUnits="userSpaceOnUse">
<stop stop-color="white"/>
<stop offset="0.395833" stop-color="white" stop-opacity="0"/>
<stop offset="1" stop-color="white"/>
</linearGradient>
<linearGradient id="paint8_linear_5_75" x1="139.511" y1="294.864" x2="138.353" y2="325.98" gradientUnits="userSpaceOnUse">
<stop stop-color="white"/>
<stop offset="0.395833" stop-color="white" stop-opacity="0"/>
<stop offset="1" stop-color="white"/>
</linearGradient>
<linearGradient id="paint9_linear_5_75" x1="264.774" y1="69.9109" x2="264.104" y2="87.9253" gradientUnits="userSpaceOnUse">
<stop stop-color="white"/>
<stop offset="0.395833" stop-color="white" stop-opacity="0"/>
<stop offset="1" stop-color="white"/>
</linearGradient>
</defs>
</svg>
