<svg width="451" height="228" viewBox="0 0 451 228" fill="none" xmlns="http://www.w3.org/2000/svg">
<circle cx="337.258" cy="113.742" r="90.875" transform="rotate(16.4806 337.258 113.742)" fill="url(#paint0_linear_5_97)" stroke="url(#paint1_linear_5_97)" stroke-width="1.32035"/>
<path d="M361.721 121.261L360.546 121.478L361.581 122.075C365.797 124.505 368.872 127.457 370.33 131.217C371.786 134.971 371.66 139.61 369.314 145.48C366.413 152.741 361.91 156.503 356.136 158.006C350.321 159.521 343.167 158.759 334.96 156.835L334.556 156.74L334.438 157.138L329.842 172.652L321.068 170.056L325.597 154.756L325.722 154.334L325.299 154.209C322.809 153.476 320.267 152.699 317.643 151.864L317.215 151.728L317.087 152.158L312.541 167.534L303.778 164.938L308.368 149.394L308.491 148.975L308.074 148.848C307.305 148.614 306.531 148.376 305.751 148.136C304.26 147.677 302.748 147.212 301.216 146.757L301.216 146.757L289.198 143.202L294.108 133.1C294.297 133.159 294.553 133.238 294.853 133.331C295.517 133.537 296.401 133.81 297.282 134.078C298.163 134.346 299.043 134.611 299.698 134.799C300.025 134.893 300.3 134.969 300.493 135.018C300.586 135.042 300.671 135.061 300.735 135.073C300.755 135.076 300.792 135.082 300.834 135.085C302.271 135.486 303.385 135.238 304.217 134.69C305.046 134.144 305.549 133.333 305.834 132.707L305.846 132.679L305.855 132.649L313.328 107.389L313.328 107.389L318.645 89.4052L318.657 89.366L318.661 89.3253C318.773 88.2395 318.674 86.9639 318.001 85.7969C317.333 84.638 316.133 83.642 314.153 83.036C314.117 83.0138 314.083 82.9984 314.065 82.9903C314.002 82.9624 313.918 82.9313 313.827 82.8992C313.638 82.8333 313.364 82.7466 313.04 82.6474C312.388 82.4482 311.506 82.1924 310.622 81.9403C309.738 81.688 308.849 81.4388 308.181 81.2527C307.913 81.1779 307.681 81.1134 307.499 81.0629L310.281 71.6535L322.703 75.3341L322.689 75.381L323.111 75.5058C325.113 76.0982 327.175 76.664 329.27 77.2376L329.686 77.3514L329.808 76.938L334.354 61.5789L343.12 64.1733L338.671 79.2214L338.543 79.652L338.976 79.7707C341.56 80.4791 344.151 81.1916 346.677 81.939L347.099 82.0638L347.224 81.6419L351.649 66.6942L360.424 69.2903L355.881 84.6546L355.767 85.0413L356.142 85.1889C362.168 87.5604 367.293 90.4016 370.629 94.0664C373.945 97.7083 375.508 102.177 374.401 107.886L374.401 107.887C373.59 112.101 371.971 115.148 369.796 117.285C367.622 119.423 364.862 120.679 361.721 121.261ZM336.106 90.2876L335.684 90.1627L335.559 90.5848L329.883 109.769L329.758 110.191L330.18 110.316C330.624 110.447 331.147 110.611 331.736 110.796C334.704 111.728 339.333 113.182 343.764 113.539C346.423 113.752 349.062 113.578 351.257 112.627C353.473 111.668 355.212 109.927 356.053 107.085L356.053 107.085C356.926 104.131 356.437 101.666 355.104 99.6285C353.785 97.6104 351.658 96.0403 349.301 94.8007C345.539 92.8231 341.061 91.6266 338.054 90.8235C337.301 90.6222 336.64 90.4456 336.106 90.2876ZM320.756 140.605L320.631 141.027L321.054 141.152C321.583 141.308 322.206 141.502 322.906 141.72C326.471 142.83 332.023 144.558 337.309 145.064C340.473 145.368 343.592 145.24 346.162 144.251C348.755 143.253 350.776 141.38 351.7 138.252C352.66 135.004 352.008 132.27 350.38 129.994C348.768 127.738 346.212 125.95 343.382 124.516C338.853 122.22 333.491 120.773 329.884 119.799C328.99 119.558 328.204 119.345 327.565 119.157L327.143 119.032L327.018 119.454L320.756 140.605Z" fill="white" fill-opacity="0.36" stroke="url(#paint2_linear_5_97)" stroke-width="0.880233"/>
<g filter="url(#filter0_b_5_97)">
<circle cx="88.8652" cy="113.465" r="88.8652" fill="url(#paint3_linear_5_97)"/>
<circle cx="88.8652" cy="113.465" r="88.205" stroke="url(#paint4_linear_5_97)" stroke-width="1.32035"/>
</g>
<path d="M68.7871 105.731L56.6029 93.5461L90.797 59.3519L125.003 93.5565L112.818 105.741L91.1082 84.0321L90.797 83.7209L90.4858 84.0321L68.7871 105.731ZM125.009 137.232L90.7971 171.442L56.5852 137.23L68.786 125.064L90.4858 146.762L90.797 147.073L91.1082 146.762L112.818 125.054L125.009 137.232ZM34.7518 115.397L46.9368 103.21L59.1208 115.394L46.9358 127.579L34.7518 115.397ZM122.473 115.403L134.658 103.218L146.842 115.402L134.658 127.587L122.473 115.403Z" fill="white" fill-opacity="0.36" stroke="url(#paint5_linear_5_97)" stroke-width="0.880233"/>
<mask id="path-6-inside-1_5_97" fill="white">
<path d="M103.786 115.39H103.792L90.797 102.395L81.1921 111.997L80.0886 113.101L77.8129 115.377L77.7947 115.395L77.8129 115.413L90.797 128.399L103.792 115.404L103.799 115.397L103.787 115.39"/>
</mask>
<path d="M103.786 115.39H103.792L90.797 102.395L81.1921 111.997L80.0886 113.101L77.8129 115.377L77.7947 115.395L77.8129 115.413L90.797 128.399L103.792 115.404L103.799 115.397L103.787 115.39" fill="white" fill-opacity="0.36"/>
<path d="M103.792 115.39V116.27H105.917L104.414 114.768L103.792 115.39ZM90.797 102.395L91.4195 101.772L90.7971 101.15L90.1747 101.772L90.797 102.395ZM81.1921 111.997L80.5697 111.374L80.5695 111.375L81.1921 111.997ZM80.0886 113.101L80.7111 113.723L80.7112 113.723L80.0886 113.101ZM77.8129 115.377L78.4273 116.008L78.4354 115.999L77.8129 115.377ZM77.7947 115.395L77.1804 114.764L76.5497 115.379L77.1647 116.009L77.7947 115.395ZM77.8129 115.413L77.1828 116.028L77.1904 116.036L77.8129 115.413ZM90.797 128.399L90.1746 129.022L90.797 129.644L91.4194 129.022L90.797 128.399ZM103.792 115.404L104.415 116.026L104.436 116.006L104.455 115.983L103.792 115.404ZM103.799 115.397L104.461 115.976L105.188 115.145L104.216 114.622L103.799 115.397ZM103.786 116.27H103.792V114.51H103.786V116.27ZM104.414 114.768L91.4195 101.772L90.1746 103.017L103.169 116.013L104.414 114.768ZM90.1747 101.772L80.5697 111.374L81.8144 112.62L91.4193 103.017L90.1747 101.772ZM80.5695 111.375L79.4661 112.479L80.7112 113.723L81.8146 112.619L80.5695 111.375ZM79.4662 112.479L77.1904 114.755L78.4354 115.999L80.7111 113.723L79.4662 112.479ZM77.1985 114.747L77.1804 114.764L78.4091 116.025L78.4273 116.007L77.1985 114.747ZM77.1647 116.009L77.1828 116.028L78.4429 114.799L78.4248 114.78L77.1647 116.009ZM77.1904 116.036L90.1746 129.022L91.4195 127.777L78.4353 114.791L77.1904 116.036ZM91.4194 129.022L104.415 116.026L103.17 114.781L90.1746 127.777L91.4194 129.022ZM104.455 115.983L104.461 115.976L103.136 114.817L103.13 114.824L104.455 115.983ZM104.216 114.622L104.204 114.615L103.37 116.165L103.382 116.172L104.216 114.622Z" fill="url(#paint6_linear_5_97)" mask="url(#path-6-inside-1_5_97)"/>
<g filter="url(#filter1_b_5_97)">
<circle cx="221.473" cy="113.55" r="101.706" fill="url(#paint7_linear_5_97)"/>
<circle cx="221.473" cy="113.55" r="101.046" stroke="url(#paint8_linear_5_97)" stroke-width="1.32035"/>
</g>
<path d="M234.469 117.65C229.128 123.371 224.829 130.147 222.221 137.663C219.613 130.147 215.314 123.371 209.973 117.65L209.972 117.649C203.853 111.125 196.134 106.191 187.975 103.634C189.767 80.7905 203 60.7648 221.813 49.8113C241.03 60.7666 254.276 80.8016 256.459 103.662C248.317 106.6 240.604 111.517 234.485 117.633L234.477 117.641L234.469 117.65Z" fill="white" fill-opacity="0.29" stroke="url(#paint9_linear_5_97)" stroke-width="1.39768"/>
<path d="M225.727 166.989L225.801 166.842V166.677V166.674V166.672V166.669V166.667V166.665V166.662V166.66V166.657V166.655V166.652V166.65V166.648V166.645V166.643V166.64V166.638V166.636V166.633V166.631V166.628V166.626V166.624V166.621V166.619V166.616V166.614V166.612V166.609V166.607V166.604V166.602V166.6V166.597V166.595V166.592V166.59V166.588V166.585V166.583V166.58V166.578V166.576V166.573V166.571V166.568V166.566V166.564V166.561V166.559V166.556V166.554V166.552V166.549V166.547V166.544V166.542V166.54V166.537V166.535V166.533V166.53V166.528V166.525V166.523V166.521V166.518V166.516V166.514V166.511V166.509V166.506V166.504V166.502V166.499V166.497V166.495V166.492V166.49V166.488V166.485V166.483V166.481V166.478V166.476V166.474V166.471V166.469V166.467V166.464V166.462V166.459V166.457V166.455V166.452V166.45V166.448V166.446V166.443V166.441V166.439V166.436V166.434V166.432V166.429V166.427V166.425V166.422V166.42V166.418V166.415V166.413V166.411V166.409V166.406V166.404V166.402V166.399V166.397V166.395V166.393V166.39V166.388V166.386V166.383V166.381V166.379V166.377V166.374V166.372V166.37V166.368V166.365V166.363V166.361V166.359V166.356V166.354V166.352V166.35V166.347V166.345V166.343V166.341V166.339V166.336V166.334V166.332V166.33V166.327V166.325V166.323V166.321V166.319V166.316V166.314V166.312V166.31V166.308V166.306V166.303V166.301V166.299V166.297V166.295V166.293V166.29V166.288V166.286V166.284V166.282V166.28V166.278V166.275V166.273V166.271V166.269V166.267V166.265V166.263V166.261V166.258V166.256V166.254V166.252V166.25V166.248V166.246V166.244V166.242V166.24V166.237V166.235V166.233V166.231V166.229V166.227V166.225V166.223V166.221V166.219V166.217V166.215V166.213V166.211V166.209V166.207V166.205V166.203V166.201V166.199V166.197V166.195V166.193V166.191V166.189V166.187V166.185V166.183V166.181V166.179V166.177V166.175V166.173V166.171V166.169V166.167V166.165V166.163V166.161V166.159V166.157V166.156V166.154V166.152V166.15V166.148V166.146V166.144V166.142V166.14V166.138V166.137V166.135V166.133V166.131V166.129V166.127V166.125V166.124V166.122V166.12V166.118V166.116V166.114V166.113V166.111V166.109V166.107V166.105V166.104V166.102V166.1V166.098V166.097V166.095V166.093V166.091V166.089V166.088V166.086V166.084V166.083V166.081V166.079V166.077V166.076V166.074V166.072V166.071V166.069V166.067V166.065V166.064V166.062V166.06V166.059V166.057V166.055V166.054V166.052V166.051V166.049V166.047V166.046V166.044V166.042V166.041V166.039V166.038V166.036V166.035V166.033V166.031V166.03V166.028V166.027V166.025V166.024V166.022V166.021V166.019V166.018V166.016V166.014V166.013V166.011V166.01V166.009V166.007V166.006V166.004V166.003V166.001V166V165.998V165.997V165.995V165.994V165.993V165.991V165.99V165.988V165.987V165.986V165.984V165.983V165.981V165.98V165.979V165.977V165.976V165.975V165.973V165.972V165.971V165.969V165.968V165.967V165.966V165.964V165.963V165.962V165.96V165.959V165.958V165.957V165.955V165.954V165.953V165.952V165.95V165.949V165.948V165.947V165.946V165.945V165.943V165.942V165.941V165.94V165.939V165.938V165.936V165.935V165.934V165.933V165.932V165.931V165.93V165.929V165.928V165.927V165.925V165.924V165.923V165.922V165.921V165.92V165.919V165.918V165.917V165.916V165.915V165.914V165.913V165.912V165.911V165.91V165.909V165.908V165.908V165.907V165.906V165.905V165.904V165.903V165.902V165.901V165.9V165.899V165.899V165.898V165.897V165.896V165.895V165.894V165.894V165.893V165.892V165.891V165.89V165.89V165.889V165.888V165.887V165.887V165.886V165.885V165.884V165.884V165.883V165.882V165.882V165.881V165.88V165.88V165.879V165.878V165.878V165.877V165.876V165.876V165.875V165.874V165.874V165.873V165.873V165.872V165.872V165.871V165.871V165.87V165.869V165.869V165.868V165.868V165.867V165.867V165.866V165.866V165.866V165.865V165.865V165.864V165.864V165.863V165.863V165.863V165.862V165.862V165.861V165.861V165.861V165.86V165.86V165.86V165.859V165.859V165.859V165.858V165.858V165.858V165.858V165.857V165.857V165.857V165.857V165.856V165.856V165.856V165.856V165.856V165.855V165.855V165.855V165.855V165.855V165.855V165.854V165.854V165.854V165.854V165.854V165.854V165.854V165.854V165.854V165.854V165.854V165.854C225.801 165.314 225.889 164.863 225.993 164.345L225.996 164.327C226.098 163.82 226.212 163.249 226.212 162.562V162.555V162.548V162.541V162.533V162.526V162.519V162.512V162.504V162.497V162.49V162.483V162.475V162.468V162.461V162.454V162.446V162.439V162.432V162.425V162.418V162.41V162.403V162.396V162.389V162.381V162.374V162.367V162.36V162.352V162.345V162.338V162.331V162.324V162.316V162.309V162.302V162.295V162.287V162.28V162.273V162.266V162.258V162.251V162.244V162.237V162.23V162.222V162.215V162.208V162.201V162.193V162.186V162.179V162.172V162.164V162.157V162.15V162.143V162.136V162.128V162.121V162.114V162.107V162.099V162.092V162.085V162.078V162.07V162.063V162.056V162.049V162.041V162.034V162.027V162.02V162.013V162.005V161.998V161.991V161.984V161.976V161.969V161.962V161.955V161.947V161.94V161.933V161.926V161.919V161.911V161.904V161.897V161.89V161.882V161.875V161.868V161.861V161.853V161.846V161.839V161.832V161.825V161.817V161.81V161.803V161.796V161.788V161.781V161.774V161.767V161.759V161.752V161.745V161.738V161.731V161.723V161.716V161.709V161.702V161.694V161.687V161.68V161.673V161.665V161.658V161.651V161.644V161.636V161.629V161.622V161.615V161.608V161.6V161.593V161.586V161.579V161.571V161.564V161.557V161.55V161.542V161.535V161.528V161.521V161.514V161.506V161.499V161.492V161.485V161.477V161.47V161.463V161.456V161.448V161.441V161.434V161.427V161.42V161.412V161.405V161.398V161.391V161.383V161.376V161.369V161.362V161.354V161.347V161.34V161.333V161.325V161.318V161.311V161.304V161.297V161.289V161.282V161.275V161.268V161.26V161.253V161.246V161.239V161.231V161.224V161.217V161.21V161.203V161.195V161.188V161.181V161.174V161.166V161.159V161.152V161.145V161.137V161.13V161.123V161.116V161.109V161.101V161.094V161.087V161.08V161.072V161.065V161.058V161.051V161.043V161.036V161.029V161.022V161.015V161.007V161V160.993V160.986V160.978V160.971V160.964V160.957V160.949V160.942V160.935V160.928V160.92V160.913V160.906V160.899V160.892V160.884V160.877V160.87V160.863V160.855V160.848V160.841V160.834V160.826V160.819V160.812V160.805V160.798V160.79V160.783V160.776V160.769V160.761V160.754V160.747V160.74V160.732V160.725V160.718V160.711V160.704V160.696V160.689V160.682V160.675V160.667V160.66V160.653V160.646V160.638V160.631V160.624V160.617V160.61V160.602V160.595V160.588V160.581V160.573V160.566V160.559V160.552V160.544V160.537V160.53V160.523V160.515V160.508V160.501V160.494V160.487V160.479V160.472V160.465V160.458V160.45V160.443V160.436V160.429V160.421V160.414V160.407V160.4V160.393V160.385V160.378V160.371V160.364V160.356V160.349V160.342V160.335V160.327V160.32V160.313V160.306V160.299V160.291V160.284V160.277V160.27V160.262V160.255V160.248V160.241V160.233V160.226V160.219V160.212V160.204V160.197V160.19V160.183V160.176V160.168V160.161V160.154V160.147V160.139V160.132V160.125V160.118V160.11V160.103V160.096V160.089V160.082V160.074V160.067V160.06V160.053V160.045V160.038V160.031V160.024V160.016V160.009V160.002V159.995V159.988V159.98V159.973V159.966V159.959V159.951V159.944V159.937V159.93V159.922V159.915V159.908V159.901V159.894V159.886V159.879V159.872V159.865V159.857V159.85V159.843V159.836V159.828V159.821V159.814V159.807V159.799V159.792V159.785V159.778V159.771V159.763V159.756V159.749V159.742V159.734V159.727V159.72V159.713V159.705V159.698V159.691V159.684V159.677V159.669V159.662V159.655V159.648V159.64V159.633V159.626V159.619V159.611V159.604V159.597V159.59V159.583V159.575V159.568V159.561V159.554V159.546V159.539V159.532V159.525V159.517V159.51V159.503V159.496V159.489V159.481V159.474V159.467V159.46V159.452V159.445V159.438V159.431V159.423V159.416V159.409V159.402V159.394V159.387V159.38V159.373V159.366V159.358V159.351V159.344V159.337V159.329V159.322V159.315V159.308V159.3V159.293V159.286V159.279V159.272V159.264V159.257V159.25V159.243V159.235V159.228V159.221V159.214V159.206V159.199V159.192V159.185V159.178V159.17V159.163V159.156V159.149V159.141V159.134V159.127V159.12V159.112V159.105V159.098V159.091V159.083V159.076V159.069V159.062V159.055V159.047V159.04V159.033V159.026V159.018V159.011V159.004V158.997V158.989V158.982V158.975V158.968V158.961V158.953V158.946V158.939V158.932V158.924V158.917V158.91V158.903V158.895V158.888V158.881V158.874V158.867V158.859V158.828C226.212 156.812 226.212 154.719 225.8 152.615C225.789 152.149 225.681 151.611 225.59 151.153L225.581 151.111C225.474 150.573 225.389 150.135 225.389 149.808C225.389 149.355 225.287 148.905 225.198 148.51C225.187 148.463 225.177 148.416 225.166 148.37C225.066 147.919 224.977 147.466 224.977 146.928C224.977 146.402 224.844 146.003 224.742 145.697L224.736 145.678C224.633 145.37 224.566 145.157 224.566 144.871C224.566 144.345 224.433 143.946 224.33 143.64L224.324 143.621C224.233 143.347 224.17 143.149 224.157 142.908C226.6 134.829 231.056 127.148 237.128 120.671C243.234 114.569 250.55 109.697 258.665 106.857C268.28 103.654 278.698 103.212 288.749 105.153C293.838 123.721 288.539 143.841 275.632 157.554C262.373 171.206 242.75 176.924 224.231 173.121C224.379 172.617 224.467 172.176 224.55 171.761L224.552 171.751C224.655 171.236 224.751 170.761 224.941 170.189C225.147 169.573 225.258 168.959 225.351 168.438C225.36 168.389 225.369 168.34 225.378 168.293C225.484 167.711 225.573 167.297 225.727 166.989Z" fill="white" fill-opacity="0.29" stroke="url(#paint10_linear_5_97)" stroke-width="1.39768"/>
<path d="M168.813 157.557L168.813 157.557L168.806 157.55C155.502 143.847 150.594 123.732 155.692 105.153C165.743 103.212 176.161 103.654 185.776 106.857C193.902 109.701 201.627 114.577 207.725 120.671C213.83 127.183 218.292 134.491 220.726 143.005C223.155 151.506 223.164 160.838 221.543 169.381C221.33 170.035 221.222 170.681 221.123 171.272L221.12 171.293C221.038 171.784 220.962 172.237 220.843 172.678C201.858 177.381 182.129 171.675 168.813 157.557Z" fill="white" fill-opacity="0.29" stroke="url(#paint11_linear_5_97)" stroke-width="1.39768"/>
<defs>
<filter id="filter0_b_5_97" x="-10.5628" y="14.0373" width="198.856" height="198.856" filterUnits="userSpaceOnUse" color-interpolation-filters="sRGB">
<feFlood flood-opacity="0" result="BackgroundImageFix"/>
<feGaussianBlur in="BackgroundImage" stdDeviation="5.2814"/>
<feComposite in2="SourceAlpha" operator="in" result="effect1_backgroundBlur_5_97"/>
<feBlend mode="normal" in="SourceGraphic" in2="effect1_backgroundBlur_5_97" result="shape"/>
</filter>
<filter id="filter1_b_5_97" x="96.8817" y="-11.0416" width="249.184" height="249.183" filterUnits="userSpaceOnUse" color-interpolation-filters="sRGB">
<feFlood flood-opacity="0" result="BackgroundImageFix"/>
<feGaussianBlur in="BackgroundImage" stdDeviation="11.443"/>
<feComposite in2="SourceAlpha" operator="in" result="effect1_backgroundBlur_5_97"/>
<feBlend mode="normal" in="SourceGraphic" in2="effect1_backgroundBlur_5_97" result="shape"/>
</filter>
<linearGradient id="paint0_linear_5_97" x1="337.258" y1="-27.3745" x2="337.258" y2="240.19" gradientUnits="userSpaceOnUse">
<stop stop-color="white"/>
<stop offset="0.145833" stop-color="white" stop-opacity="0.26"/>
<stop offset="0.505208" stop-color="white" stop-opacity="0"/>
<stop offset="0.796875" stop-color="white" stop-opacity="0.14"/>
<stop offset="1" stop-color="white"/>
</linearGradient>
<linearGradient id="paint1_linear_5_97" x1="337.19" y1="-1.76276" x2="327.969" y2="246.111" gradientUnits="userSpaceOnUse">
<stop stop-color="white"/>
<stop offset="0.395833" stop-color="white" stop-opacity="0"/>
<stop offset="1" stop-color="white"/>
</linearGradient>
<linearGradient id="paint2_linear_5_97" x1="356.345" y1="52.7865" x2="307.406" y2="191.558" gradientUnits="userSpaceOnUse">
<stop stop-color="white"/>
<stop offset="0.395833" stop-color="white" stop-opacity="0"/>
<stop offset="1" stop-color="white"/>
</linearGradient>
<linearGradient id="paint3_linear_5_97" x1="88.8652" y1="-23.5352" x2="88.8652" y2="236.225" gradientUnits="userSpaceOnUse">
<stop stop-color="white"/>
<stop offset="0.145833" stop-color="white" stop-opacity="0.26"/>
<stop offset="0.505208" stop-color="white" stop-opacity="0"/>
<stop offset="0.796875" stop-color="white" stop-opacity="0.14"/>
<stop offset="1" stop-color="white"/>
</linearGradient>
<linearGradient id="paint4_linear_5_97" x1="88.7992" y1="1.32945" x2="79.847" y2="241.973" gradientUnits="userSpaceOnUse">
<stop stop-color="white"/>
<stop offset="0.395833" stop-color="white" stop-opacity="0"/>
<stop offset="1" stop-color="white"/>
</linearGradient>
<linearGradient id="paint5_linear_5_97" x1="90.755" y1="43.8902" x2="85.0463" y2="197.344" gradientUnits="userSpaceOnUse">
<stop stop-color="white"/>
<stop offset="0.395833" stop-color="white" stop-opacity="0"/>
<stop offset="1" stop-color="white"/>
</linearGradient>
<linearGradient id="paint6_linear_5_97" x1="90.7871" y1="98.9899" x2="89.4773" y2="134.2" gradientUnits="userSpaceOnUse">
<stop stop-color="white"/>
<stop offset="0.395833" stop-color="white" stop-opacity="0"/>
<stop offset="1" stop-color="white"/>
</linearGradient>
<linearGradient id="paint7_linear_5_97" x1="221.473" y1="-43.2461" x2="221.473" y2="254.048" gradientUnits="userSpaceOnUse">
<stop stop-color="white"/>
<stop offset="0.145833" stop-color="white" stop-opacity="0.26"/>
<stop offset="0.505208" stop-color="white" stop-opacity="0"/>
<stop offset="0.796875" stop-color="white" stop-opacity="0.14"/>
<stop offset="1" stop-color="white"/>
</linearGradient>
<linearGradient id="paint8_linear_5_97" x1="221.398" y1="-14.7887" x2="211.152" y2="260.627" gradientUnits="userSpaceOnUse">
<stop stop-color="white"/>
<stop offset="0.395833" stop-color="white" stop-opacity="0"/>
<stop offset="1" stop-color="white"/>
</linearGradient>
<linearGradient id="paint9_linear_5_97" x1="222.195" y1="37.1008" x2="216.249" y2="160.097" gradientUnits="userSpaceOnUse">
<stop stop-color="white"/>
<stop offset="0.395833" stop-color="white" stop-opacity="0"/>
<stop offset="1" stop-color="white"/>
</linearGradient>
<linearGradient id="paint10_linear_5_97" x1="257.383" y1="93.9073" x2="253.572" y2="190.945" gradientUnits="userSpaceOnUse">
<stop stop-color="white"/>
<stop offset="0.395833" stop-color="white" stop-opacity="0"/>
<stop offset="1" stop-color="white"/>
</linearGradient>
<linearGradient id="paint11_linear_5_97" x1="188.167" y1="93.9043" x2="184.486" y2="190.983" gradientUnits="userSpaceOnUse">
<stop stop-color="white"/>
<stop offset="0.395833" stop-color="white" stop-opacity="0"/>
<stop offset="1" stop-color="white"/>
</linearGradient>
</defs>
</svg>
