<svg width="343" height="52" viewBox="0 0 343 52" fill="none" xmlns="http://www.w3.org/2000/svg">
<path d="M33.8378 18.8977C31.0578 19.8744 28.6404 21.4615 26.5856 23.5368C24.6516 25.6122 23.2012 28.0539 22.3551 30.7397C21.509 28.0539 20.0585 25.6122 18.1246 23.5368C16.0698 21.4615 13.5315 19.7523 10.8723 18.8977C11.5975 11.2066 16.0698 4.49205 22.3551 0.82959C28.7613 4.49205 33.2335 11.2066 33.8378 18.8977Z" fill="url(#paint0_linear_202_83)"/>
<path d="M40.0023 36.7217C35.6509 41.3608 29.1238 43.3141 22.9594 41.8491V41.727C23.0803 41.3608 23.2012 40.9945 23.2012 40.6283C23.322 40.262 23.322 39.8958 23.4429 39.5295C23.4429 39.4075 23.4429 39.2854 23.4429 39.2854C23.4429 38.9191 23.5638 38.5529 23.5638 38.1866C23.5638 37.6983 23.5638 37.3321 23.5638 36.9658C23.5638 36.2333 23.5638 35.6229 23.4429 34.8904C23.4429 34.6463 23.322 34.28 23.322 34.0359C23.322 33.7917 23.2012 33.4254 23.2012 33.1813C23.2012 32.9371 23.0803 32.815 23.0803 32.5709C23.0803 32.3267 22.9594 32.0825 22.9594 31.9605C23.8055 29.2747 25.256 26.7109 27.1899 24.5135C29.2447 22.4381 31.6621 20.851 34.3213 19.8743C37.5848 18.7756 41.0901 18.6535 44.3536 19.386C46.0458 25.368 44.3536 32.0825 40.0023 36.7217Z" fill="url(#paint1_linear_202_83)"/>
<path d="M22.4759 40.5063C22.3551 40.8725 22.3551 41.3609 22.2342 41.7271C16.0697 43.1921 9.42183 41.3609 5.07047 36.7217C0.59823 32.0826 -0.973095 25.3681 0.719102 19.1419C3.98262 18.2874 7.48789 18.5315 10.7514 19.6303C13.4106 20.4848 15.9489 22.194 17.8828 24.2694C19.8168 26.3448 21.3881 28.9085 22.1133 31.7164C22.9594 34.5243 23.0803 37.5763 22.4759 40.5063Z" fill="url(#paint2_linear_202_83)"/>
<path d="M74.8867 33.2219H59.5566C59.6653 34.7593 60.209 35.9672 61.1875 36.8457C62.166 37.7242 63.2532 38.1635 64.6666 38.1635C66.6237 38.1635 68.0371 37.285 68.9069 35.6378H74.6692C74.0169 37.7242 72.9297 39.3714 71.1901 40.6892C69.4505 42.0069 67.3847 42.6658 64.8841 42.6658C62.8183 42.6658 61.0788 42.2265 59.4479 41.348C57.817 40.4695 56.6211 39.1518 55.7513 37.5046C54.8815 35.8574 54.4466 33.9906 54.4466 31.7943C54.4466 29.598 54.8815 27.7312 55.7513 25.9742C56.6211 24.327 57.817 23.0093 59.4479 22.1307C61.0788 21.2522 62.8183 20.813 64.8841 20.813C66.8411 20.813 68.6894 21.2522 70.2116 22.1307C71.7337 23.0093 73.0384 24.2172 73.9082 25.8644C74.778 27.5116 75.2129 29.2686 75.2129 31.355C75.1041 32.0139 74.9954 32.6728 74.8867 33.2219ZM69.5592 29.7078C69.5592 28.2803 69.0156 27.1821 68.0371 26.4135C67.0586 25.535 65.8626 25.2055 64.5579 25.2055C63.2532 25.2055 62.166 25.6448 61.2962 26.4135C60.4264 27.1821 59.8828 28.2803 59.6653 29.7078H69.5592Z" fill="white"/>
<path d="M76.9525 25.8645C77.8223 24.2173 79.0182 22.8995 80.6491 22.021C82.1712 21.1425 84.0195 20.7032 85.9766 20.7032C88.5859 20.7032 90.7604 21.3621 92.3913 22.6799C94.0221 23.9976 95.2181 25.8645 95.7617 28.1705H89.9994C89.6732 27.292 89.2383 26.5233 88.4772 25.9743C87.7161 25.4252 86.8464 25.2056 85.7591 25.2056C84.237 25.2056 83.041 25.7546 82.1712 26.8528C81.3014 27.9509 80.8665 29.4883 80.8665 31.5747C80.8665 33.5514 81.3014 35.1986 82.1712 36.2967C83.041 37.3948 84.237 37.9439 85.7591 37.9439C87.9336 37.9439 89.347 36.9556 89.9994 35.0888H95.7617C95.2181 37.3948 94.0221 39.1518 92.2826 40.5794C90.543 41.8972 88.4772 42.5561 85.8678 42.5561C83.8021 42.5561 82.0625 42.1168 80.5404 41.2383C79.0182 40.3598 77.7135 39.042 76.8438 37.3948C75.974 35.7476 75.5391 33.8808 75.5391 31.6846C75.5391 29.4883 76.0827 27.5117 76.9525 25.8645Z" fill="white"/>
<path d="M103.264 14.0046V42.2266H97.9362V14.0046H103.264Z" fill="white"/>
<path d="M106.417 25.8645C107.286 24.2173 108.374 22.8995 109.896 22.021C111.309 21.1425 112.94 20.7032 114.788 20.7032C116.311 20.7032 117.724 21.0327 118.92 21.6916C120.116 22.3504 120.986 23.1191 121.747 24.1075V21.1425H127.074V42.3364H121.747V39.2617C121.094 40.25 120.116 41.1285 118.92 41.6775C117.724 42.3364 116.311 42.6659 114.788 42.6659C113.049 42.6659 111.418 42.2266 110.005 41.2383C108.591 40.3598 107.395 39.042 106.525 37.3948C105.656 35.7476 105.221 33.771 105.221 31.6846C105.221 29.4883 105.656 27.5117 106.417 25.8645ZM120.877 28.2803C120.333 27.4018 119.681 26.6332 118.811 26.1939C117.941 25.6448 117.072 25.4252 116.093 25.4252C115.115 25.4252 114.245 25.6448 113.375 26.1939C112.505 26.6332 111.853 27.4018 111.309 28.2803C110.766 29.1589 110.548 30.3668 110.548 31.5747C110.548 32.8925 110.766 33.9906 111.309 34.8691C111.853 35.7476 112.505 36.5163 113.375 37.0654C114.245 37.6145 115.115 37.8341 116.093 37.8341C117.072 37.8341 118.05 37.6145 118.811 37.0654C119.681 36.5163 120.333 35.8574 120.877 34.9789C121.421 34.1004 121.638 32.8925 121.638 31.6846C121.638 30.3668 121.421 29.2687 120.877 28.2803Z" fill="white"/>
<path d="M160.779 23.3388C162.301 24.8762 163.062 27.0724 163.062 30.0374V42.2266H161.431V30.257C161.431 27.8411 160.887 25.8645 159.691 24.5467C158.495 23.229 156.865 22.5701 154.908 22.5701C152.842 22.5701 151.102 23.3388 149.798 24.7664C148.493 26.1939 147.84 28.3902 147.84 31.1355V42.2266H146.21V30.257C146.21 27.8411 145.666 25.8645 144.47 24.5467C143.274 23.229 141.643 22.5701 139.686 22.5701C137.62 22.5701 135.881 23.3388 134.576 24.7664C133.271 26.1939 132.619 28.3902 132.619 31.1355V42.2266H130.771V21.472H132.51V25.9743C133.054 24.3271 134.033 23.1192 135.337 22.2407C136.642 21.3622 138.164 21.0327 139.795 21.0327C141.643 21.0327 143.274 21.472 144.579 22.4603C145.883 23.4486 146.862 24.8762 147.406 26.743C147.84 24.8762 148.819 23.3388 150.232 22.4603C151.646 21.472 153.277 21.0327 155.125 21.0327C157.408 21.0327 159.365 21.8014 160.779 23.3388Z" fill="white"/>
<path d="M167.411 26.1939C168.281 24.5467 169.477 23.3387 170.89 22.4602C172.412 21.5817 174.152 21.1425 176 21.1425C178.174 21.1425 180.023 21.6915 181.545 22.7897C183.067 23.8878 184.154 25.2055 184.698 26.8527V21.4719H186.437V42.2266H184.698V36.7359C184.046 38.3831 183.067 39.8107 181.545 40.9088C180.023 42.0069 178.174 42.556 176 42.556C174.043 42.556 172.412 42.1168 170.89 41.2383C169.368 40.3597 168.172 39.1518 167.411 37.5046C166.541 35.8574 166.106 33.9906 166.106 31.9041C166.106 29.8177 166.541 27.8411 167.411 26.1939ZM183.611 27.0724C182.85 25.6448 181.871 24.6565 180.566 23.8878C179.262 23.1191 177.848 22.7897 176.217 22.7897C174.587 22.7897 173.064 23.1191 171.868 23.8878C170.564 24.6565 169.585 25.6448 168.933 27.0724C168.172 28.4999 167.846 30.0373 167.846 32.014C167.846 33.9906 168.172 35.528 168.933 36.9555C169.585 38.3831 170.672 39.3714 171.868 40.1401C173.173 40.9088 174.587 41.2383 176.217 41.2383C177.848 41.2383 179.262 40.9088 180.566 40.1401C181.871 39.3714 182.85 38.2733 183.611 36.9555C184.372 35.528 184.698 33.9906 184.698 32.1238C184.807 30.0373 184.372 28.4999 183.611 27.0724Z" fill="white"/>
<path d="M195.135 22.2407C196.44 21.472 198.071 21.0327 200.028 21.0327V22.7897H199.484C197.419 22.7897 195.788 23.3388 194.483 24.5467C193.178 25.7547 192.526 27.6215 192.526 30.257V42.2266H190.786V21.472H192.526V25.7547C192.961 24.2173 193.939 23.1192 195.135 22.2407Z" fill="white"/>
<path d="M212.857 42.2266L203.942 32.6729V42.2266H202.202V14.0046H203.942V30.9159L212.749 21.4719H215.141L205.138 31.7944L215.249 42.2266H212.857Z" fill="white"/>
<path d="M235.255 32.5631H217.533C217.533 34.4299 217.967 35.9673 218.728 37.285C219.49 38.6028 220.468 39.4813 221.664 40.1402C222.86 40.799 224.273 41.1285 225.687 41.1285C227.753 41.1285 229.383 40.5794 230.797 39.5911C232.21 38.6028 232.971 37.1752 233.406 35.528H235.146C234.711 37.6145 233.732 39.3715 231.993 40.6892C230.362 42.007 228.187 42.6659 225.687 42.6659C223.73 42.6659 222.099 42.2266 220.577 41.3481C219.055 40.4696 217.859 39.2617 216.989 37.6145C216.119 35.9673 215.684 34.1004 215.684 31.9042C215.684 29.7079 216.119 27.8411 216.989 26.3037C217.859 24.6565 219.055 23.4486 220.577 22.5701C222.099 21.6916 223.839 21.2523 225.796 21.2523C227.753 21.2523 229.492 21.6916 230.906 22.5701C232.319 23.4486 233.406 24.5467 234.167 25.9743C234.928 27.4019 235.255 28.9392 235.255 30.5864C235.255 31.3551 235.255 32.1238 235.255 32.5631ZM232.645 26.5233C231.884 25.2056 230.906 24.3271 229.71 23.6682C228.514 23.0093 227.1 22.6799 225.687 22.6799C224.273 22.6799 222.969 23.0093 221.664 23.6682C220.468 24.3271 219.49 25.2056 218.728 26.5233C217.967 27.8411 217.533 29.3785 217.533 31.1355H233.624C233.624 29.2687 233.298 27.7313 232.645 26.5233Z" fill="white"/>
<path d="M241.017 23.0093V36.736C241.017 38.2734 241.343 39.2617 241.887 39.9206C242.43 40.4696 243.409 40.7991 244.822 40.7991H247.105V42.3364H244.496C242.756 42.3364 241.343 41.8972 240.582 41.0187C239.712 40.1402 239.277 38.7126 239.277 36.736V23.0093H236.233V21.472H239.386V16.2009H241.126V21.472H247.214V23.0093H241.017Z" fill="white"/>
<path d="M254.607 22.7897C256.13 21.6915 257.978 21.1425 260.152 21.1425C262.109 21.1425 263.74 21.5817 265.262 22.4602C266.784 23.3387 267.98 24.5467 268.741 26.1939C269.611 27.8411 270.046 29.7079 270.046 31.7943C270.046 33.8808 269.611 35.8574 268.741 37.3948C267.872 39.042 266.676 40.2499 265.262 41.1284C263.74 42.0069 262.001 42.4462 260.152 42.4462C257.978 42.4462 256.13 41.8971 254.607 40.799C253.085 39.7009 251.998 38.3831 251.454 36.7359V51.8901H249.715V21.4719H251.454V26.9625C251.998 25.3154 253.085 23.8878 254.607 22.7897ZM267.328 26.9625C266.676 25.535 265.588 24.5467 264.393 23.778C263.088 23.0093 261.674 22.6798 259.935 22.6798C258.304 22.6798 256.891 23.0093 255.586 23.778C254.281 24.5467 253.303 25.6448 252.542 26.9625C251.781 28.3901 251.454 29.9275 251.454 31.7943C251.454 33.6611 251.781 35.1985 252.542 36.6261C253.303 38.0537 254.281 39.042 255.586 39.8107C256.891 40.5794 258.304 40.9088 259.935 40.9088C261.566 40.9088 263.088 40.5794 264.393 39.8107C265.697 39.042 266.676 38.0537 267.328 36.6261C267.98 35.1985 268.415 33.6611 268.415 31.6845C268.415 29.7079 267.98 28.3901 267.328 26.9625Z" fill="white"/>
<path d="M275.048 14.0046V42.2266H273.308V14.0046H275.048Z" fill="white"/>
<path d="M279.614 26.1939C280.484 24.5467 281.68 23.3387 283.093 22.4602C284.615 21.5817 286.355 21.1425 288.203 21.1425C290.378 21.1425 292.226 21.6915 293.748 22.7897C295.27 23.8878 296.357 25.2055 296.901 26.8527V21.4719H298.641V42.2266H296.901V36.7359C296.249 38.3831 295.27 39.8107 293.748 40.9088C292.226 42.0069 290.378 42.556 288.203 42.556C286.246 42.556 284.615 42.1168 283.093 41.2383C281.571 40.3597 280.375 39.1518 279.614 37.5046C278.744 35.8574 278.309 33.9906 278.309 31.9041C278.309 29.8177 278.744 27.8411 279.614 26.1939ZM295.814 27.0724C295.053 25.6448 294.074 24.6565 292.769 23.8878C291.465 23.1191 290.051 22.7897 288.421 22.7897C286.79 22.7897 285.268 23.1191 284.072 23.8878C282.767 24.6565 281.788 25.6448 281.136 27.0724C280.375 28.4999 280.049 30.0373 280.049 32.014C280.049 33.9906 280.375 35.528 281.136 36.9555C281.788 38.3831 282.876 39.3714 284.072 40.1401C285.376 40.9088 286.79 41.2383 288.421 41.2383C290.051 41.2383 291.465 40.9088 292.769 40.1401C294.074 39.3714 295.053 38.2733 295.814 36.9555C296.575 35.528 296.901 33.9906 296.901 32.1238C296.901 30.0373 296.575 28.4999 295.814 27.0724Z" fill="white"/>
<path d="M303.207 26.1939C304.077 24.5467 305.273 23.3387 306.686 22.4602C308.208 21.5817 309.948 21.1425 311.796 21.1425C314.406 21.1425 316.471 21.8013 318.102 23.1191C319.733 24.4368 320.82 26.1939 321.146 28.3901H319.407C319.081 26.6331 318.211 25.2055 316.906 24.2172C315.493 23.2289 313.862 22.6798 311.796 22.6798C310.274 22.6798 308.861 23.0093 307.665 23.6682C306.469 24.327 305.49 25.4252 304.729 26.7429C303.968 28.1705 303.642 29.8177 303.642 31.7943C303.642 33.771 303.968 35.528 304.729 36.8457C305.49 38.2733 306.469 39.2616 307.665 39.9205C308.861 40.5794 310.274 40.9088 311.796 40.9088C313.862 40.9088 315.493 40.3597 316.906 39.3714C318.32 38.3831 319.081 36.9555 319.407 35.1985H321.146C320.712 37.3948 319.733 39.1518 317.993 40.4696C316.363 41.7873 314.188 42.4462 311.687 42.4462C309.73 42.4462 307.991 42.0069 306.577 41.1284C305.055 40.2499 303.859 39.042 303.098 37.3948C302.228 35.7476 301.794 33.8808 301.794 31.6845C301.794 29.4882 302.337 27.8411 303.207 26.1939Z" fill="white"/>
<path d="M343 32.5631H325.278C325.278 34.4299 325.713 35.9673 326.474 37.285C327.235 38.6028 328.214 39.4813 329.409 40.1402C330.605 40.799 332.019 41.1285 333.432 41.1285C335.498 41.1285 337.129 40.5794 338.542 39.5911C339.956 38.6028 340.717 37.1752 341.152 35.528H342.891C342.456 37.6145 341.478 39.3715 339.738 40.6892C338.107 42.007 335.933 42.6659 333.432 42.6659C331.475 42.6659 329.844 42.2266 328.322 41.3481C326.8 40.4696 325.604 39.2617 324.734 37.6145C323.865 35.9673 323.43 34.1004 323.43 31.9042C323.43 29.7079 323.865 27.8411 324.734 26.3037C325.604 24.6565 326.8 23.4486 328.322 22.5701C329.844 21.6916 331.584 21.2523 333.541 21.2523C335.498 21.2523 337.238 21.6916 338.651 22.5701C340.064 23.4486 341.152 24.5467 341.913 25.9743C342.674 27.4019 343 28.9392 343 30.5864C343 31.3551 343 32.1238 343 32.5631ZM340.391 26.5233C339.63 25.2056 338.651 24.3271 337.455 23.6682C336.259 23.0093 334.846 22.6799 333.432 22.6799C332.019 22.6799 330.714 23.0093 329.409 23.6682C328.214 24.3271 327.235 25.2056 326.474 26.5233C325.713 27.8411 325.278 29.3785 325.278 31.1355H341.369C341.478 29.2687 341.152 27.7313 340.391 26.5233Z" fill="white"/>
<defs>
<linearGradient id="paint0_linear_202_83" x1="2.66468" y1="9.31173" x2="39.268" y2="21.0898" gradientUnits="userSpaceOnUse">
<stop stop-color="#2469E9"/>
<stop offset="1" stop-color="#5CADF6"/>
</linearGradient>
<linearGradient id="paint1_linear_202_83" x1="-0.535782" y1="19.2577" x2="36.0675" y2="31.0358" gradientUnits="userSpaceOnUse">
<stop stop-color="#2469E9"/>
<stop offset="1" stop-color="#5CADF6"/>
</linearGradient>
<linearGradient id="paint2_linear_202_83" x1="-2.65176" y1="25.8337" x2="33.9516" y2="37.6118" gradientUnits="userSpaceOnUse">
<stop stop-color="#2469E9"/>
<stop offset="1" stop-color="#5CADF6"/>
</linearGradient>
</defs>
</svg>
