<svg width="228" height="45" viewBox="0 0 228 45" fill="none" xmlns="http://www.w3.org/2000/svg">
<path d="M36.4432 19.2846C33.564 20.292 30.8287 22.019 28.6692 24.1777C26.6537 26.3364 25.0701 28.9269 24.2064 31.8052C23.3426 28.9269 21.759 26.3364 19.7435 24.1777C17.584 21.875 14.8487 20.1481 11.9695 19.2846C12.5453 11.0814 17.2961 3.8857 24.0624 0C30.9726 3.8857 35.7234 11.0814 36.4432 19.2846Z" fill="url(#paint0_linear_4_59)"/>
<path d="M43.0655 38.1374C38.3148 43.0305 31.2606 45.0453 24.6382 43.6062V43.4623C24.7822 43.0305 24.7822 42.7427 24.9262 42.311C25.0701 41.8792 25.0701 41.4475 25.2141 41.1596C25.2141 41.0157 25.2141 40.8718 25.2141 40.8718C25.2141 40.4401 25.3581 40.1522 25.3581 39.7205C25.3581 39.2888 25.3581 38.857 25.3581 38.4253C25.3581 37.7057 25.3581 36.9861 25.2141 36.2665C25.2141 35.9787 25.0701 35.547 25.0701 35.2591C25.0701 34.9713 24.9262 34.6835 24.9262 34.2517C24.9262 33.9639 24.7822 33.82 24.7822 33.5322C24.7822 33.2443 24.6382 33.1004 24.6382 32.8126C25.502 29.9343 27.0856 27.1999 29.2451 24.8973C31.4045 22.7385 33.9959 21.0116 36.8751 20.0042C40.3302 18.8528 44.0733 18.7089 47.6724 19.4285C49.5439 26.0486 47.6724 33.2443 43.0655 38.1374Z" fill="url(#paint1_linear_4_59)"/>
<path d="M24.2064 42.167C24.0624 42.5988 24.0624 43.0305 23.9184 43.4623C17.1522 45.1893 10.098 43.1745 5.34717 38.1374C0.596381 33.2443 -1.13118 26.0486 0.740344 19.4285C4.33943 18.7089 8.08247 18.8528 11.5376 20.0042C14.4169 21.0116 17.1522 22.7385 19.3116 24.8973C21.471 27.1999 23.0546 29.7904 23.9184 32.8126C24.7822 35.8348 24.7822 39.1448 24.2064 42.167Z" fill="url(#paint2_linear_4_59)"/>
<path d="M75.4423 31.1012H59.1427C59.2583 32.7191 59.8363 33.9903 60.8767 34.9147C61.9171 35.8392 63.0731 36.3015 64.5759 36.3015C66.6567 36.3015 68.1595 35.377 69.0843 33.6436H75.2111C74.5175 35.8392 73.3615 37.5727 71.5119 38.9594C69.6623 40.3461 67.4659 41.0395 64.8071 41.0395C62.6107 41.0395 60.7611 40.5773 59.0271 39.6528C57.2931 38.7283 56.0215 37.3415 55.0967 35.6081C53.9407 33.7591 53.4783 31.7946 53.4783 29.4834C53.4783 27.1721 53.9407 25.2076 54.8655 23.3586C55.7903 21.6252 57.0619 20.2384 58.7959 19.314C60.5299 18.3895 62.3795 17.9272 64.5759 17.9272C66.6567 17.9272 68.6219 18.3895 70.2403 19.314C71.8587 20.2384 73.2459 21.5096 74.1707 23.243C75.0955 24.9765 75.5579 26.8254 75.5579 29.0211C75.6735 29.83 75.5579 30.5234 75.4423 31.1012ZM69.7779 27.4033C69.7779 25.901 69.1999 24.7453 68.1595 23.9364C67.1191 23.0119 65.8475 22.6652 64.4603 22.6652C63.0731 22.6652 61.9171 23.1275 60.9923 23.9364C60.0675 24.7453 59.4895 25.901 59.2583 27.4033H69.7779Z" fill="#171840"/>
<path d="M77.6388 23.3586C78.5636 21.6252 79.8352 20.2384 81.5692 19.314C83.1876 18.3895 85.1528 17.9272 87.2336 17.9272C90.008 17.9272 92.32 18.6206 94.054 20.0073C95.788 21.3941 97.0596 23.3586 97.6376 25.7854H91.5108C91.164 24.8609 90.7016 24.052 89.8924 23.4742C89.0832 22.8964 88.1584 22.6652 87.0024 22.6652C85.384 22.6652 84.1124 23.243 83.1876 24.3987C82.2628 25.5543 81.8004 27.1721 81.8004 29.3678C81.8004 31.4479 82.2628 33.1813 83.1876 34.3369C84.1124 35.4926 85.384 36.0704 87.0024 36.0704C89.3144 36.0704 90.8172 35.0303 91.5108 33.0658H97.6376C97.0596 35.4926 95.788 37.3415 93.9384 38.8438C92.0888 40.2306 89.8924 40.9239 87.118 40.9239C84.9216 40.9239 83.072 40.4617 81.4536 39.5372C79.8352 38.6127 78.448 37.226 77.5232 35.4926C76.5984 33.7591 76.136 31.7946 76.136 29.4834C76.136 27.1721 76.714 25.092 77.6388 23.3586Z" fill="#171840"/>
<path d="M105.498 10.878V40.5773H99.834V10.878H105.498Z" fill="#171840"/>
<path d="M108.966 23.3586C109.891 21.6252 111.047 20.2384 112.666 19.314C114.168 18.3895 115.902 17.9272 117.868 17.9272C119.486 17.9272 120.989 18.2739 122.26 18.9673C123.532 19.6606 124.457 20.4696 125.266 21.5096V18.2739H130.931V40.5773H125.15V37.3415C124.457 38.3816 123.416 39.3061 122.145 39.8839C120.873 40.5773 119.37 40.9239 117.752 40.9239C115.902 40.9239 114.168 40.4617 112.666 39.4216C111.163 38.4972 109.891 37.1104 108.966 35.377C108.042 33.6436 107.579 31.5635 107.579 29.3678C107.695 27.1721 108.042 25.092 108.966 23.3586ZM124.341 25.901C123.763 24.9765 123.07 24.1675 122.145 23.7053C121.22 23.1275 120.295 22.8964 119.255 22.8964C118.214 22.8964 117.29 23.1275 116.365 23.7053C115.44 24.1675 114.746 24.9765 114.168 25.901C113.59 26.8254 113.359 28.0966 113.359 29.3678C113.359 30.7545 113.59 31.9102 114.168 32.8346C114.746 33.7591 115.44 34.5681 116.365 35.1459C117.29 35.7237 118.214 35.9548 119.255 35.9548C120.295 35.9548 121.336 35.7237 122.145 35.1459C123.07 34.5681 123.763 33.8747 124.341 32.9502C124.919 32.0257 125.15 30.7545 125.15 29.4834C125.15 28.0966 124.919 26.941 124.341 25.901Z" fill="#171840"/>
<path d="M147.057 23.3795C147.906 23.0258 148.413 22.3418 148.413 21.2096C148.413 19.4289 147.14 18.7095 145.206 18.7095H139.014V27H140.524V24.2051H145.654C146.597 24.2051 146.809 24.4173 146.809 25.2546V27H148.307V24.8891C148.307 24.04 147.871 23.5093 147.057 23.3795ZM144.816 20.0421C145.677 20.0421 146.798 20.0421 146.798 21.4573C146.798 22.8842 145.677 22.8842 144.816 22.8842H140.524V20.0421H144.816ZM161.895 18.7095H153.168V27H161.895V25.691H154.678V23.5093H161.659V22.2002H154.678V20.0303H161.895V18.7095ZM177.827 27L173.028 18.7095H171.117L166.317 27H168.039L169.065 25.2075H175.091L176.117 27H177.827ZM172.072 19.9596L174.337 23.9102H169.808L172.072 19.9596ZM183.55 18.7095H182.04V27H189.918V25.6556H183.55V18.7095ZM194.559 18.7095V27H196.068V18.7095H194.559ZM210.641 18.7095H200.499V20.0539H204.827V27H206.324V20.0539H210.641V18.7095ZM220.512 22.9786L216.726 18.7095H214.733L219.698 24.2758V27H221.314V24.2758L226.279 18.7095H224.285L220.512 22.9786Z" fill="black"/>
<defs>
<linearGradient id="paint0_linear_4_59" x1="2.89289" y1="9.02878" x2="42.182" y2="21.8021" gradientUnits="userSpaceOnUse">
<stop stop-color="#2469E9"/>
<stop offset="1" stop-color="#5CADF6"/>
</linearGradient>
<linearGradient id="paint1_linear_4_59" x1="-0.548985" y1="19.6159" x2="38.7401" y2="32.3892" gradientUnits="userSpaceOnUse">
<stop stop-color="#2469E9"/>
<stop offset="1" stop-color="#5CADF6"/>
</linearGradient>
<linearGradient id="paint2_linear_4_59" x1="-2.82476" y1="26.6156" x2="36.4643" y2="39.3889" gradientUnits="userSpaceOnUse">
<stop stop-color="#2469E9"/>
<stop offset="1" stop-color="#5CADF6"/>
</linearGradient>
</defs>
</svg>
