<svg width="161" height="37" viewBox="0 0 161 37" fill="none" xmlns="http://www.w3.org/2000/svg">
<path d="M25.5103 14.1112C23.4948 14.8164 21.5801 16.0253 20.0685 17.5364C18.6576 19.0475 17.5491 20.8608 16.9445 22.8756C16.3398 20.8608 15.2313 19.0475 13.8205 17.5364C12.3089 15.9245 10.3941 14.7157 8.37866 14.1112C8.78176 8.36901 12.1073 3.33199 16.8437 0.612C21.6809 3.33199 25.0064 8.36901 25.5103 14.1112Z" fill="url(#paint0_linear_12_180)"/>
<path d="M30.1459 27.3082C26.8204 30.7334 21.8824 32.1437 17.2468 31.1363V31.0356C17.3476 30.7334 17.3476 30.5319 17.4484 30.2297C17.5491 29.9275 17.5491 29.6252 17.6499 29.4238C17.6499 29.323 17.6499 29.2223 17.6499 29.2223C17.6499 28.9201 17.7507 28.7186 17.7507 28.4164C17.7507 28.1141 17.7507 27.8119 17.7507 27.5097C17.7507 27.006 17.7507 26.5023 17.6499 25.9986C17.6499 25.7971 17.5491 25.4949 17.5491 25.2934C17.5491 25.0919 17.4484 24.8904 17.4484 24.5882C17.4484 24.3867 17.3476 24.286 17.3476 24.0845C17.3476 23.883 17.2468 23.7823 17.2468 23.5808C17.8515 21.566 18.96 19.6519 20.4716 18.0401C21.9832 16.529 23.7972 15.3201 25.8126 14.6149C28.2312 13.809 30.8513 13.7083 33.3707 14.212C34.6808 18.846 33.3707 23.883 30.1459 27.3082Z" fill="url(#paint1_linear_12_180)"/>
<path d="M16.9444 30.1289C16.8437 30.4312 16.8437 30.7334 16.7429 31.0356C12.0065 32.2445 7.06857 30.8341 3.74302 27.3082C0.417467 23.883 -0.791824 18.846 0.518241 14.212C3.0376 13.7083 5.65773 13.809 8.07631 14.6149C10.0918 15.3201 12.0065 16.529 13.5181 18.0401C15.0297 19.6519 16.1383 21.4653 16.7429 23.5808C17.3475 25.6964 17.3475 28.0134 16.9444 30.1289Z" fill="url(#paint2_linear_12_180)"/>
<path d="M52.8097 22.3828H41.3999C41.4808 23.5153 41.8854 24.4052 42.6137 25.0523C43.342 25.6995 44.1512 26.023 45.2032 26.023C46.6597 26.023 47.7117 25.3759 48.359 24.1625H52.6478C52.1623 25.6995 51.3531 26.9129 50.0584 27.8836C48.7636 28.8543 47.2262 29.3396 45.365 29.3396C43.8275 29.3396 42.5328 29.0161 41.319 28.3689C40.1052 27.7218 39.2151 26.7511 38.5677 25.5377C37.7585 24.2434 37.4348 22.8682 37.4348 21.2503C37.4348 19.6325 37.7585 18.2573 38.4059 16.963C39.0532 15.7496 39.9433 14.7789 41.1571 14.1318C42.3709 13.4846 43.6657 13.161 45.2032 13.161C46.6597 13.161 48.0354 13.4846 49.1682 14.1318C50.3011 14.7789 51.2722 15.6687 51.9195 16.8821C52.5669 18.0955 52.8906 19.3898 52.8906 20.9268C52.9715 21.493 52.8906 21.9784 52.8097 22.3828ZM48.8446 19.7943C48.8446 18.7427 48.44 17.9337 47.7117 17.3675C46.9834 16.7203 46.0933 16.4777 45.1222 16.4777C44.1512 16.4777 43.342 16.8012 42.6946 17.3675C42.0473 17.9337 41.6427 18.7427 41.4808 19.7943H48.8446Z" fill="white"/>
<path d="M54.3471 16.963C54.9945 15.7496 55.8846 14.7789 57.0984 14.1318C58.2313 13.4846 59.6069 13.161 61.0635 13.161C63.0056 13.161 64.624 13.6464 65.8378 14.6171C67.0516 15.5878 67.9417 16.963 68.3463 18.6618H64.0576C63.8148 18.0146 63.4911 17.4484 62.9247 17.0439C62.3582 16.6394 61.7109 16.4777 60.9017 16.4777C59.7688 16.4777 58.8787 16.8821 58.2313 17.6911C57.5839 18.5 57.2603 19.6325 57.2603 21.1694C57.2603 22.6255 57.5839 23.8389 58.2313 24.6479C58.8787 25.4568 59.7688 25.8612 60.9017 25.8612C62.5201 25.8612 63.572 25.1332 64.0576 23.758H68.3463C67.9417 25.4568 67.0516 26.7511 65.7569 27.8027C64.4622 28.7734 62.9247 29.2588 60.9826 29.2588C59.4451 29.2588 58.1504 28.9352 57.0175 28.288C55.8846 27.6409 54.9136 26.6702 54.2662 25.4568C53.6188 24.2434 53.2952 22.8682 53.2952 21.2503C53.2952 19.6325 53.6998 18.1764 54.3471 16.963Z" fill="white"/>
<path d="M73.8489 8.22656V29.0161H69.8838V8.22656H73.8489Z" fill="white"/>
<path d="M76.2765 16.963C76.9238 15.7496 77.733 14.7789 78.8659 14.1318C79.9179 13.4846 81.1317 13.161 82.5073 13.161C83.6402 13.161 84.6922 13.4037 85.5823 13.8891C86.4724 14.3744 87.1198 14.9407 87.6862 15.6687V13.4037H91.6513V29.0161H87.6053V26.7511C87.1198 27.4791 86.3915 28.1262 85.5014 28.5307C84.6112 29.0161 83.5593 29.2588 82.4264 29.2588C81.1317 29.2588 79.9179 28.9352 78.8659 28.2071C77.8139 27.56 76.9238 26.5893 76.2765 25.3759C75.6291 24.1625 75.3054 22.7064 75.3054 21.1694C75.3863 19.6325 75.6291 18.1764 76.2765 16.963ZM87.0389 18.7427C86.6343 18.0955 86.1487 17.5293 85.5014 17.2057C84.854 16.8012 84.2066 16.6394 83.4784 16.6394C82.7501 16.6394 82.1027 16.8012 81.4554 17.2057C80.808 17.5293 80.3225 18.0955 79.9179 18.7427C79.5133 19.3898 79.3514 20.2796 79.3514 21.1694C79.3514 22.1402 79.5133 22.9491 79.9179 23.5962C80.3225 24.2434 80.808 24.8096 81.4554 25.2141C82.1027 25.6186 82.7501 25.7804 83.4784 25.7804C84.2066 25.7804 84.9349 25.6186 85.5014 25.2141C86.1487 24.8096 86.6343 24.3243 87.0389 23.6771C87.4435 23.03 87.6053 22.1402 87.6053 21.2503C87.6053 20.2796 87.4435 19.4707 87.0389 18.7427Z" fill="white"/>
<path d="M95.2927 28.1263C94.2407 27.3982 93.5934 26.3466 93.5125 24.8905H94.8072C94.8881 25.8612 95.3736 26.6702 96.1828 27.2364C96.992 27.8027 98.1249 28.1263 99.5005 28.1263C100.633 28.1263 101.604 27.8027 102.252 27.2364C102.899 26.6702 103.304 25.9421 103.304 25.0523C103.304 24.4861 103.142 23.9198 102.737 23.5962C102.333 23.1918 101.928 22.9491 101.362 22.7064C100.795 22.4637 100.067 22.302 99.1769 22.0593C98.044 21.7357 97.1539 21.493 96.4256 21.1695C95.6973 20.8459 95.1309 20.4414 94.6453 19.8752C94.1598 19.3089 93.9171 18.5 93.9171 17.5293C93.9171 16.8012 94.1598 16.1541 94.5644 15.5069C94.969 14.8598 95.6164 14.3744 96.3447 14.0509C97.1539 13.7273 97.9631 13.4846 98.9341 13.4846C100.553 13.4846 101.847 13.8891 102.818 14.698C103.789 15.5069 104.356 16.5586 104.437 18.0146H103.142C103.061 16.963 102.656 16.1541 101.928 15.5069C101.2 14.8598 100.148 14.5362 98.8532 14.5362C97.8012 14.5362 96.8302 14.7789 96.1828 15.3452C95.4545 15.9114 95.1309 16.5586 95.1309 17.3675C95.1309 18.0955 95.2927 18.6618 95.6973 19.0662C96.1019 19.4707 96.5874 19.8752 97.1539 20.1178C97.7203 20.3605 98.5295 20.6032 99.5005 20.8459C100.553 21.0886 101.443 21.4121 102.09 21.6548C102.737 21.8975 103.304 22.302 103.708 22.8682C104.194 23.3536 104.356 24.0816 104.356 24.9714C104.356 25.7804 104.113 26.5084 103.708 27.0746C103.304 27.7218 102.656 28.2071 101.928 28.5307C101.2 28.8543 100.31 29.097 99.3387 29.097C97.8012 29.2588 96.4256 28.8543 95.2927 28.1263Z" fill="white"/>
<path d="M127.013 13.7273L122.239 29.0161H121.025L116.17 15.5069L111.234 29.0161H110.02L105.246 13.7273H106.541L110.668 27.56L115.604 13.7273H116.817L121.673 27.4791L125.8 13.7273H127.013Z" fill="white"/>
<path d="M128.551 17.2057C129.198 15.9923 130.088 15.1025 131.14 14.4553C132.273 13.8082 133.568 13.4846 134.944 13.4846C136.562 13.4846 137.938 13.8891 139.071 14.698C140.203 15.5069 141.013 16.4777 141.417 17.6911V13.7273H142.712V29.0161H141.417V24.9714C140.932 26.1848 140.203 27.2364 139.071 28.0454C137.938 28.8543 136.562 29.2588 134.944 29.2588C133.487 29.2588 132.273 28.9352 131.14 28.288C130.007 27.6409 129.117 26.7511 128.551 25.5377C127.904 24.3243 127.58 22.9491 127.58 21.4121C127.58 19.8752 127.904 18.4191 128.551 17.2057ZM140.608 17.8528C140.042 16.8012 139.313 16.0732 138.342 15.5069C137.371 14.9407 136.319 14.698 135.105 14.698C133.892 14.698 132.759 14.9407 131.869 15.5069C130.898 16.0732 130.169 16.8012 129.684 17.8528C129.117 18.9045 128.875 20.037 128.875 21.493C128.875 22.9491 129.117 24.0816 129.684 25.1332C130.169 26.1848 130.978 26.9129 131.869 27.4791C132.84 28.0454 133.892 28.288 135.105 28.288C136.319 28.288 137.371 28.0454 138.342 27.4791C139.313 26.9129 140.042 26.1039 140.608 25.1332C141.174 24.0816 141.417 22.9491 141.417 21.5739C141.417 20.037 141.174 18.9045 140.608 17.8528Z" fill="white"/>
<path d="M149.509 14.698C150.642 13.8891 152.018 13.4846 153.636 13.4846C155.093 13.4846 156.307 13.8082 157.44 14.4553C158.572 15.1025 159.463 15.9923 160.029 17.2057C160.676 18.4191 161 19.7943 161 21.3312C161 22.8682 160.676 24.3243 160.029 25.4568C159.382 26.6702 158.491 27.56 157.44 28.2071C156.307 28.8543 155.012 29.1779 153.636 29.1779C152.018 29.1779 150.642 28.7734 149.509 27.9645C148.376 27.1555 147.567 26.1848 147.163 24.9714V36.1347H145.868V13.7273H147.163V17.7719C147.567 16.5586 148.376 15.5069 149.509 14.698ZM158.977 17.7719C158.491 16.7203 157.682 15.9923 156.792 15.4261C155.821 14.8598 154.769 14.6171 153.474 14.6171C152.261 14.6171 151.209 14.8598 150.238 15.4261C149.267 15.9923 148.538 16.8012 147.972 17.7719C147.405 18.8236 147.163 19.9561 147.163 21.3312C147.163 22.7064 147.405 23.8389 147.972 24.8905C148.538 25.9421 149.267 26.6702 150.238 27.2364C151.209 27.8027 152.261 28.0454 153.474 28.0454C154.688 28.0454 155.821 27.8027 156.792 27.2364C157.763 26.6702 158.491 25.9421 158.977 24.8905C159.463 23.8389 159.786 22.7064 159.786 21.2503C159.786 19.7943 159.463 18.8236 158.977 17.7719Z" fill="white"/>
<defs>
<linearGradient id="paint0_linear_12_180" x1="2.02505" y1="6.93215" x2="29.5274" y2="15.8735" gradientUnits="userSpaceOnUse">
<stop stop-color="#2469E9"/>
<stop offset="1" stop-color="#5CADF6"/>
</linearGradient>
<linearGradient id="paint1_linear_12_180" x1="-0.384234" y1="14.3431" x2="27.1181" y2="23.2844" gradientUnits="userSpaceOnUse">
<stop stop-color="#2469E9"/>
<stop offset="1" stop-color="#5CADF6"/>
</linearGradient>
<linearGradient id="paint2_linear_12_180" x1="-1.97733" y1="19.2429" x2="25.525" y2="28.1842" gradientUnits="userSpaceOnUse">
<stop stop-color="#2469E9"/>
<stop offset="1" stop-color="#5CADF6"/>
</linearGradient>
</defs>
</svg>
